<svg width="19" height="20" viewBox="0 0 19 20" fill="none" xmlns="http://www.w3.org/2000/svg">
<path d="M9.50002 11.2656C3.49077 11.2656 0.181274 14.1084 0.181274 19.2705C0.181274 19.6737 0.508032 20.0004 0.911196 20.0004H18.0888C18.492 20.0004 18.8187 19.6737 18.8187 19.2705C18.8188 14.1087 15.5093 11.2656 9.50002 11.2656ZM1.66768 18.5406C1.95479 14.681 4.58616 12.7255 9.50002 12.7255C14.4139 12.7255 17.0453 14.681 17.3326 18.5406H1.66768Z" fill="white"/>
<path d="M9.50004 0C6.73969 0 4.6582 2.12336 4.6582 4.93895C4.6582 7.83699 6.83023 10.1944 9.50004 10.1944C12.1698 10.1944 14.3419 7.83699 14.3419 4.93918C14.3419 2.12336 12.2604 0 9.50004 0ZM9.50004 8.7348C7.63508 8.7348 6.11805 7.03211 6.11805 4.93918C6.11805 2.92313 7.54043 1.45984 9.50004 1.45984C11.4283 1.45984 12.882 2.95547 12.882 4.93918C12.882 7.03211 11.365 8.7348 9.50004 8.7348Z" fill="white"/>
</svg>
