<svg width="16" height="16" viewBox="0 0 16 16" fill="none" xmlns="http://www.w3.org/2000/svg">
<g id="Frame" clip-path="url(#clip0_235_9673)">
<g id="Group">
<path id="Vector" d="M6 0C2.69062 0 0 2.69062 0 6C0 10.1594 5.41562 15.6219 5.64687 15.8531C5.74375 15.95 5.87187 16 6 16C6.12812 16 6.25625 15.95 6.35312 15.8531C6.42187 15.7844 6.94687 15.2531 7.65312 14.4312C7.25 13.7125 6.99687 12.8812 6.99687 11.9969C6.99687 9.28125 9.20312 7.08437 11.9 7.00938C11.9625 6.66563 11.9969 6.32812 11.9969 5.99687C12 2.69062 9.30937 0 6 0ZM6 9C4.34375 9 3 7.65625 3 6C3 4.34375 4.34375 3 6 3C7.65625 3 9 4.34375 9 6C9 7.65625 7.65625 9 6 9Z" fill="#FB6900"/>
<path id="Vector_2" d="M12 8C9.79063 8 8 9.79063 8 12C8 14.2094 9.79063 16 12 16C14.2094 16 16 14.2094 16 12C16 9.79063 14.2094 8 12 8ZM13.5 12.5H12.5V13.5C12.5 13.775 12.275 14 12 14C11.725 14 11.5 13.775 11.5 13.5V12.5H10.5C10.225 12.5 10 12.275 10 12C10 11.725 10.225 11.5 10.5 11.5H11.5V10.5C11.5 10.225 11.725 10 12 10C12.275 10 12.5 10.225 12.5 10.5V11.5H13.5C13.775 11.5 14 11.725 14 12C14 12.275 13.775 12.5 13.5 12.5Z" fill="#42B979"/>
</g>
</g>
<defs>
<clipPath id="clip0_235_9673">
<rect width="16" height="16" fill="white"/>
</clipPath>
</defs>
</svg>
