<svg width="24" height="24" viewBox="0 0 24 24" fill="none" xmlns="http://www.w3.org/2000/svg">
<path d="M12.0225 0.992188C7.60908 0.992188 4.00789 4.59336 4.0079 9.00674C4.0077 11.2679 4.0079 12.9202 4.0079 15.0338C4.00789 19.4472 7.60908 23.0405 12.0225 23.0405C16.4358 23.0405 20.0292 19.4472 20.0292 15.0338C20.0292 12.9906 20.0292 10.8379 20.0292 9.00674C20.0292 4.59333 16.4358 0.992188 12.0225 0.992188ZM12.0225 2.99534C15.3532 2.99534 18.0241 5.67594 18.0241 9.00674C18.0241 11.1465 18.0241 13.0004 18.0241 15.0338C18.0241 18.3646 15.3532 21.0432 12.0225 21.0432C8.69166 21.0432 6.01104 18.3646 6.01105 15.0338C6.01106 12.9762 6.01105 10.7916 6.01105 9.00674C6.01104 5.67594 8.69166 2.99534 12.0225 2.99534ZM12.0068 8.00321C11.9722 8.00337 11.9376 8.00533 11.9031 8.00908C11.3902 8.06752 11.0057 8.50623 11.015 9.02239V11.0255H9.01187C8.97993 11.024 8.94795 11.024 8.91601 11.0255C7.61197 11.1176 7.70499 13.0615 9.01187 13.0287H11.015V15.0338C11.015 16.3705 13.0201 16.3705 13.0201 15.0338V13.0287H15.0233C16.389 13.0594 16.389 10.9949 15.0233 11.0255H13.0201V9.02239C13.03 8.45776 12.5715 7.99656 12.0068 8.00321H12.0068Z" fill="black"/>
</svg>
