<svg width="12" height="12" viewBox="0 0 12 12" fill="none" xmlns="http://www.w3.org/2000/svg">
<path d="M2.57143 9.88889C2.57143 10.5 3.08571 11 3.71429 11H8.28571C8.91429 11 9.42857 10.5 9.42857 9.88889V3.22222H2.57143V9.88889ZM4.38286 6.32778C4.27601 6.2239 4.21599 6.08301 4.21599 5.93611C4.21599 5.78921 4.27601 5.64832 4.38286 5.54445C4.4897 5.44057 4.63461 5.38221 4.78571 5.38221C4.93682 5.38221 5.08173 5.44057 5.18857 5.54445L6 6.32778L6.80571 5.54445C6.91256 5.44057 7.05747 5.38221 7.20857 5.38221C7.35967 5.38221 7.50458 5.44057 7.61143 5.54445C7.71827 5.64832 7.7783 5.78921 7.7783 5.93611C7.7783 6.08301 7.71827 6.2239 7.61143 6.32778L6.80571 7.11111L7.61143 7.89444C7.66433 7.94588 7.7063 8.00694 7.73493 8.07414C7.76356 8.14135 7.7783 8.21337 7.7783 8.28611C7.7783 8.35885 7.76356 8.43088 7.73493 8.49808C7.7063 8.56528 7.66433 8.62634 7.61143 8.67778C7.55852 8.72921 7.49572 8.77001 7.4266 8.79785C7.35747 8.82569 7.28339 8.84001 7.20857 8.84001C7.13375 8.84001 7.05967 8.82569 6.99055 8.79785C6.92142 8.77001 6.85862 8.72921 6.80571 8.67778L6 7.89444L5.19429 8.67778C5.14138 8.72921 5.07858 8.77001 5.00945 8.79785C4.94033 8.82569 4.86625 8.84001 4.79143 8.84001C4.71661 8.84001 4.64253 8.82569 4.5734 8.79785C4.50428 8.77001 4.44148 8.72921 4.38857 8.67778C4.33567 8.62634 4.2937 8.56528 4.26507 8.49808C4.23644 8.43088 4.2217 8.35885 4.2217 8.28611C4.2217 8.21337 4.23644 8.14135 4.26507 8.07414C4.2937 8.00694 4.33567 7.94588 4.38857 7.89444L5.19429 7.11111L4.38286 6.32778ZM9.42857 1.55556H8L7.59429 1.16111C7.49143 1.06111 7.34286 1 7.19429 1H4.80571C4.65714 1 4.50857 1.06111 4.40571 1.16111L4 1.55556H2.57143C2.25714 1.55556 2 1.80556 2 2.11111C2 2.41667 2.25714 2.66667 2.57143 2.66667H9.42857C9.74286 2.66667 10 2.41667 10 2.11111C10 1.80556 9.74286 1.55556 9.42857 1.55556Z" fill="white"/>
</svg>
