<svg width="16" height="17" viewBox="0 0 16 17" fill="none" xmlns="http://www.w3.org/2000/svg">
<g clip-path="url(#clip0_574_3970)">
<path d="M13.0045 1.50003H12.7194C12.7912 1.4075 12.8483 1.35919 12.8322 1.37372L12.8319 1.37331C13.1743 1.06869 12.9589 0.5 12.5001 0.5C12.2707 0.5 12.1753 0.634687 12.1679 0.626312C12.1024 0.684468 11.5278 1.21669 11.501 1.98253C11.4886 2.33578 11.5943 2.8639 12.1679 3.37371C12.3756 3.55834 12.6915 3.53721 12.8738 3.33215C13.0572 3.12578 13.0386 2.80971 12.8323 2.62628C12.7875 2.58671 12.7451 2.54454 12.7053 2.5H13.0045C14.1048 2.5 15 3.39518 15 4.49552V13.5044C15 14.6048 14.1048 15.5 13.0045 15.5H2.99562C1.89527 15.5 1.00009 14.6048 1.00009 13.5044V4.49555C1.00009 3.53549 1.68165 2.73178 2.5863 2.5424C2.6758 2.80128 2.84896 3.09021 3.1679 3.37371C3.25929 3.45518 3.37747 3.50014 3.4999 3.50003C3.95665 3.50003 4.1763 2.93215 3.83227 2.62634C3.61027 2.42903 3.50165 2.23765 3.50012 2.04137C3.49718 1.66728 3.87171 1.338 3.83227 1.37375L3.83193 1.37334C4.1744 1.06872 3.95896 0.500031 3.50012 0.500031C3.27074 0.500031 3.1754 0.634718 3.16793 0.626344C3.11533 0.673093 2.74874 1.01294 2.58221 1.52872C1.12543 1.73072 0.00012207 2.98409 0.00012207 4.49559V13.5045C0.00012207 15.1563 1.34393 16.5 2.99565 16.5H13.0045C14.6562 16.5 16.0001 15.1563 16.0001 13.5045V4.49555C16.0001 2.84381 14.6562 1.50003 13.0045 1.50003Z" fill="#082640"/>
<path d="M9.1678 3.37373C9.37555 3.55835 9.69142 3.53726 9.8737 3.3322C10.0571 3.12582 10.0385 2.80976 9.83217 2.62632C9.61017 2.42901 9.50155 2.23764 9.50002 2.04136C9.49708 1.66726 9.87161 1.33798 9.83217 1.37373C9.82833 1.36942 9.99999 1.25042 9.99999 1.00005C9.99999 0.569922 9.48939 0.340954 9.16817 0.626735C9.16352 0.621516 8.49999 1.21511 8.49999 2.03708C8.49999 2.37601 8.61586 2.88311 9.1678 3.37373ZM6.16781 3.37373C6.37556 3.55835 6.69143 3.53726 6.87371 3.3322C7.05715 3.12582 7.03855 2.80976 6.83218 2.62632C6.61018 2.42901 6.50155 2.23764 6.50002 2.04136C6.49709 1.66726 6.87162 1.33798 6.83218 1.37373C6.82834 1.36942 6.99999 1.25042 6.99999 1.00005C6.99999 0.569922 6.4894 0.340954 6.16818 0.626735C6.16352 0.621516 5.49999 1.21511 5.49999 2.03708C5.49999 2.37601 5.61587 2.88311 6.16781 3.37373ZM13.5 5.00001C13.5 4.72388 13.2761 4.50001 13 4.50001H3C2.72384 4.50001 2.5 4.72388 2.5 5.00001C2.5 5.27613 2.72384 5.50001 3 5.50001H13C13.2761 5.50001 13.5 5.27616 13.5 5.00001ZM11.2 6.6C9.34474 7.99141 7.92165 10.8126 7.33087 12.1238L5.35353 10.1464C5.15828 9.95119 4.84168 9.95119 4.64643 10.1464C4.45115 10.3417 4.45115 10.6583 4.64643 10.8536L7.14643 13.3536C7.40155 13.6086 7.83383 13.5169 7.96524 13.1831C7.98152 13.1418 9.61489 9.03881 11.8 7.39997C12.0209 7.23428 12.0656 6.92088 11.9 6.69997C11.7343 6.4791 11.4209 6.43429 11.2 6.6Z" fill="#082640"/>
</g>
<defs>
<clipPath id="clip0_574_3970">
<rect width="16" height="16" fill="white" transform="translate(0 0.5)"/>
</clipPath>
</defs>
</svg>
