<svg width="16" height="16" viewBox="0 0 16 16" fill="none" xmlns="http://www.w3.org/2000/svg">
<g id="Frame" clip-path="url(#clip0_219_1233)">
<g id="Group">
<path id="Vector" d="M13.7825 6.61386H13.7429V5.64356C13.7429 2.52671 11.2162 0 8.09933 0C4.98245 0 2.45577 2.52671 2.45577 5.64356V6.61386H2.21816C1.34687 6.61386 0.673611 7.38612 0.673611 8.27724V10.7525C0.651665 11.6162 1.33406 12.3341 2.19773 12.356C2.20456 12.3562 2.21134 12.3563 2.21816 12.3564H3.6835C3.89105 12.3467 4.05142 12.1705 4.04164 11.9629C4.0413 11.9555 4.04073 11.948 4.03993 11.9406V7.08908C4.03993 6.85147 3.90132 6.61382 3.6835 6.61382H3.24785V5.64353C3.24785 2.96414 5.41995 0.792042 8.09933 0.792042C10.7787 0.792042 12.9508 2.96414 12.9508 5.64353V6.61382H12.5152C12.2973 6.61382 12.1587 6.85143 12.1587 7.08908V11.9406C12.1366 12.1472 12.2862 12.3326 12.4928 12.3547C12.5002 12.3555 12.5077 12.356 12.5152 12.3564H12.9706L12.931 12.4158C12.638 12.8052 12.258 13.1208 11.8213 13.3374C11.3847 13.554 10.9035 13.6656 10.4161 13.6633C10.1998 12.6024 9.16439 11.9178 8.10354 12.1342C7.19635 12.3192 6.54227 13.1137 6.53496 14.0395C6.5458 15.1254 7.42922 16 8.51516 15.9999C9.05274 15.9912 9.56513 15.7706 9.94089 15.3861C10.1944 15.1264 10.3606 14.7941 10.4161 14.4355C11.0265 14.4379 11.629 14.2976 12.1756 14.0261C12.7222 13.7545 13.1978 13.359 13.5646 12.8712L13.9409 12.3167C14.7924 12.2573 15.327 11.7227 15.327 10.9504V8.47516C15.3271 7.62376 14.6934 6.61386 13.7825 6.61386ZM3.24785 11.5643H2.21816C1.79176 11.554 1.45451 11.1999 1.46489 10.7735C1.46508 10.7665 1.46535 10.7595 1.46569 10.7524V8.2772C1.46569 7.82176 1.78252 7.4059 2.21816 7.4059H3.24785V11.5643ZM9.36667 14.8317C9.25811 14.9494 9.1265 15.0435 8.98003 15.1083C8.83355 15.173 8.67533 15.2069 8.5152 15.2079C7.87094 15.1977 7.34811 14.6836 7.32708 14.0396C7.32681 13.3943 7.84967 12.8711 8.49492 12.8708C9.14017 12.8705 9.66345 13.3934 9.66371 14.0386V14.0396C9.67186 14.185 9.64966 14.3305 9.59852 14.4669C9.54739 14.6032 9.46843 14.7275 9.36667 14.8317ZM14.535 10.9505C14.535 11.4851 14.0201 11.5643 13.7825 11.5643H12.9508V7.40594H13.7825C14.2182 7.40594 14.535 8.0198 14.535 8.47524V10.9505Z" fill="url(#paint0_linear_219_1233)"/>
</g>
</g>
<defs>
<linearGradient id="paint0_linear_219_1233" x1="12.7373" y1="19.5443" x2="-4.02495" y2="12.6664" gradientUnits="userSpaceOnUse">
<stop stop-color="#1D1A39"/>
<stop offset="0.02" stop-color="#23193C"/>
<stop offset="0.1" stop-color="#351948"/>
<stop offset="0.19" stop-color="#41194F"/>
<stop offset="0.28" stop-color="#451952"/>
<stop offset="0.53" stop-color="#662549"/>
<stop offset="0.75" stop-color="#AE445A"/>
<stop offset="1" stop-color="#F39F5A"/>
</linearGradient>
<clipPath id="clip0_219_1233">
<rect width="16" height="16" fill="white"/>
</clipPath>
</defs>
</svg>
