<svg width="25" height="24" viewBox="0 0 25 24" fill="none" xmlns="http://www.w3.org/2000/svg">
<g clip-path="url(#clip0_98_997)">
<path d="M5.39046 15.9536C7.75764 18.7833 10.6072 21.0112 13.8596 22.5877C15.0979 23.1745 16.7539 23.8707 18.5989 23.9901C18.7133 23.995 18.8227 24 18.9371 24C20.1754 24 21.17 23.5723 21.9806 22.6921C21.9856 22.6871 21.9955 22.6772 22.0005 22.6672C22.2889 22.3191 22.6171 22.0058 22.9603 21.6726C23.194 21.4488 23.4327 21.2151 23.6615 20.9764C24.7208 19.8724 24.7208 18.47 23.6515 17.4007L20.6627 14.4119C20.1555 13.8848 19.5488 13.6063 18.9122 13.6063C18.2757 13.6063 17.664 13.8848 17.1418 14.407L15.3614 16.1873C15.1973 16.0928 15.0283 16.0083 14.8691 15.9287C14.6702 15.8293 14.4862 15.7348 14.3221 15.6303C12.7009 14.6009 11.2288 13.2582 9.82146 11.5325C9.11031 10.6324 8.6329 9.8765 8.2997 9.10568C8.76717 8.68297 9.2048 8.24037 9.62751 7.80771C9.7767 7.65354 9.93087 7.49938 10.085 7.34521C10.6221 6.80812 10.9106 6.18649 10.9106 5.55491C10.9106 4.92333 10.6271 4.3017 10.085 3.76461L8.60306 2.28264C8.429 2.10858 8.26489 1.93949 8.09581 1.76544C7.76758 1.42727 7.42444 1.07915 7.08627 0.765852C6.57405 0.263572 5.97231 0 5.33576 0C4.70418 0 4.09746 0.263572 3.56535 0.770825L1.70542 2.63075C1.02908 3.30709 0.646157 4.12764 0.566588 5.0775C0.4721 6.26606 0.690915 7.52922 1.25784 9.05595C2.12813 11.4182 3.44102 13.6113 5.39046 15.9536ZM1.78002 5.18193C1.83969 4.52051 2.09332 3.9685 2.57073 3.49109L4.42071 1.64111C4.70915 1.36262 5.02743 1.2184 5.33576 1.2184C5.63911 1.2184 5.94744 1.36262 6.23091 1.65106C6.5641 1.95939 6.8774 2.28264 7.21557 2.62578C7.38466 2.79983 7.55871 2.97389 7.73277 3.15292L9.21474 4.63489C9.52307 4.94322 9.68221 5.25653 9.68221 5.56486C9.68221 5.87319 9.52307 6.18649 9.21474 6.49482C9.06058 6.64898 8.90641 6.80812 8.75225 6.96229C8.28975 7.42976 7.8571 7.87236 7.37968 8.29507C7.36974 8.30501 7.36477 8.30999 7.35482 8.31993C6.94205 8.7327 7.0067 9.12557 7.10617 9.42395C7.11114 9.43887 7.11611 9.44882 7.12109 9.46374C7.50401 10.3838 8.03613 11.259 8.86663 12.3034C10.3585 14.1434 11.93 15.5707 13.6607 16.6697C13.8745 16.809 14.1033 16.9184 14.3171 17.0278C14.516 17.1272 14.7 17.2217 14.8641 17.3261C14.884 17.3361 14.899 17.346 14.9188 17.356C15.083 17.4405 15.2421 17.4803 15.4012 17.4803C15.7991 17.4803 16.0577 17.2267 16.1422 17.1421L18.0021 15.2822C18.2906 14.9938 18.6039 14.8396 18.9122 14.8396C19.2902 14.8396 19.5985 15.0734 19.7924 15.2822L22.7912 18.276C23.388 18.8728 23.383 19.5193 22.7763 20.1509C22.5674 20.3746 22.3486 20.5885 22.1149 20.8123C21.7668 21.1504 21.4037 21.4986 21.0755 21.8914C20.5036 22.5081 19.8223 22.7965 18.9421 22.7965C18.8575 22.7965 18.768 22.7915 18.6835 22.7866C17.0523 22.6821 15.5355 22.0456 14.3967 21.5035C11.3034 20.0066 8.58814 17.8831 6.33534 15.1877C4.48039 12.9548 3.23215 10.8761 2.40662 8.64816C1.8944 7.28056 1.70045 6.18152 1.78002 5.18193Z" fill="white"/>
</g>
<defs>
<clipPath id="clip0_98_997">
<rect width="24" height="24" fill="white" transform="translate(0.5)"/>
</clipPath>
</defs>
</svg>
