<svg width="48" height="48" viewBox="0 0 48 48" fill="none" xmlns="http://www.w3.org/2000/svg">
<g clip-path="url(#clip0_1566_11780)">
<path d="M34 11H14C13.2047 11.0011 12.4422 11.3175 11.8798 11.8798C11.3175 12.4422 11.0011 13.2047 11 14V34C11.0011 34.7953 11.3175 35.5578 11.8798 36.1202C12.4422 36.6825 13.2047 36.9989 14 37H34C34.7953 36.9989 35.5578 36.6825 36.1202 36.1202C36.6825 35.5578 36.9989 34.7953 37 34V14C36.9989 13.2047 36.6825 12.4422 36.1202 11.8798C35.5578 11.3175 34.7953 11.0011 34 11ZM13 16C13.0011 15.2047 13.3175 14.4422 13.8798 13.8798C14.4422 13.3175 15.2047 13.0011 16 13H20C20.2652 13 20.5196 13.1054 20.7071 13.2929C20.8946 13.4804 21 13.7348 21 14C21 14.2652 20.8946 14.5196 20.7071 14.7071C20.5196 14.8946 20.2652 15 20 15H16C15.7349 15.0005 15.4809 15.1061 15.2935 15.2935C15.1061 15.4809 15.0005 15.7349 15 16V20C15 20.2652 14.8946 20.5196 14.7071 20.7071C14.5196 20.8946 14.2652 21 14 21C13.7348 21 13.4804 20.8946 13.2929 20.7071C13.1054 20.5196 13 20.2652 13 20V16ZM32 23C32.2652 23 32.5196 23.1054 32.7071 23.2929C32.8946 23.4804 33 23.7348 33 24C33 24.2652 32.8946 24.5196 32.7071 24.7071C32.5196 24.8946 32.2652 25 32 25H16C15.7348 25 15.4804 24.8946 15.2929 24.7071C15.1054 24.5196 15 24.2652 15 24C15 23.7348 15.1054 23.4804 15.2929 23.2929C15.4804 23.1054 15.7348 23 16 23H32ZM20 35H16C15.2047 34.9989 14.4422 34.6825 13.8798 34.1202C13.3175 33.5578 13.0011 32.7953 13 32V28C13 27.7348 13.1054 27.4804 13.2929 27.2929C13.4804 27.1054 13.7348 27 14 27C14.2652 27 14.5196 27.1054 14.7071 27.2929C14.8946 27.4804 15 27.7348 15 28V32C15.0005 32.2651 15.1061 32.5191 15.2935 32.7065C15.4809 32.8939 15.7349 32.9995 16 33H20C20.2652 33 20.5196 33.1054 20.7071 33.2929C20.8946 33.4804 21 33.7348 21 34C21 34.2652 20.8946 34.5196 20.7071 34.7071C20.5196 34.8946 20.2652 35 20 35ZM35 32C34.9989 32.7953 34.6825 33.5578 34.1202 34.1202C33.5578 34.6825 32.7953 34.9989 32 35H28C27.7348 35 27.4804 34.8946 27.2929 34.7071C27.1054 34.5196 27 34.2652 27 34C27 33.7348 27.1054 33.4804 27.2929 33.2929C27.4804 33.1054 27.7348 33 28 33H32C32.2651 32.9995 32.5191 32.8939 32.7065 32.7065C32.8939 32.5191 32.9995 32.2651 33 32V28C33 27.7348 33.1054 27.4804 33.2929 27.2929C33.4804 27.1054 33.7348 27 34 27C34.2652 27 34.5196 27.1054 34.7071 27.2929C34.8946 27.4804 35 27.7348 35 28V32ZM35 20C35 20.2652 34.8946 20.5196 34.7071 20.7071C34.5196 20.8946 34.2652 21 34 21C33.7348 21 33.4804 20.8946 33.2929 20.7071C33.1054 20.5196 33 20.2652 33 20V16C32.9995 15.7349 32.8939 15.4809 32.7065 15.2935C32.5191 15.1061 32.2651 15.0005 32 15H28C27.7348 15 27.4804 14.8946 27.2929 14.7071C27.1054 14.5196 27 14.2652 27 14C27 13.7348 27.1054 13.4804 27.2929 13.2929C27.4804 13.1054 27.7348 13 28 13H32C32.7953 13.0011 33.5578 13.3175 34.1202 13.8798C34.6825 14.4422 34.9989 15.2047 35 16V20Z" fill="white"/>
<path d="M24 0C19.2533 0 14.6131 1.40758 10.6663 4.04473C6.71954 6.68188 3.64341 10.4302 1.8269 14.8156C0.0103989 19.201 -0.464881 24.0266 0.461164 28.6822C1.38721 33.3377 3.67299 37.6141 7.02945 40.9706C10.3859 44.327 14.6623 46.6128 19.3178 47.5388C23.9734 48.4649 28.799 47.9896 33.1844 46.1731C37.5698 44.3566 41.3181 41.2805 43.9553 37.3337C46.5924 33.3869 48 28.7468 48 24C48 17.6348 45.4714 11.5303 40.9706 7.02944C36.4697 2.52856 30.3652 0 24 0ZM39 34C38.999 35.3258 38.4718 36.5969 37.5344 37.5344C36.5969 38.4718 35.3258 38.9989 34 39H14C12.6743 38.9989 11.4031 38.4718 10.4656 37.5344C9.52819 36.5969 9.00107 35.3258 9.00001 34V14C9.00107 12.6742 9.52819 11.4031 10.4656 10.4656C11.4031 9.52818 12.6743 9.00106 14 9H34C35.3258 9.00106 36.5969 9.52818 37.5344 10.4656C38.4718 11.4031 38.999 12.6742 39 14V34Z" fill="white"/>
</g>
<defs>
<clipPath id="clip0_1566_11780">
<rect width="48" height="48" fill="white"/>
</clipPath>
</defs>
</svg>
