<svg width="25" height="25" viewBox="0 0 25 25" fill="none" xmlns="http://www.w3.org/2000/svg">
<g clip-path="url(#clip0_194_3627)">
<path d="M12.8427 12.2484C12.807 12.2106 12.7628 12.1818 12.7138 12.1644C12.6648 12.147 12.6123 12.1415 12.5608 12.1484C12.5092 12.1552 12.46 12.1741 12.4172 12.2037C12.3744 12.2333 12.3392 12.2725 12.3146 12.3183L11.5224 13.7921C11.4955 13.842 11.4821 13.8981 11.4834 13.9548C11.4846 14.0115 11.5006 14.067 11.5297 14.1157C11.5587 14.1644 11.6 14.2047 11.6493 14.2327C11.6986 14.2608 11.7543 14.2755 11.8111 14.2756C11.8712 14.2757 11.9302 14.2598 11.9821 14.2294C12.034 14.199 12.0767 14.1553 12.106 14.1028L12.2866 13.7772V16.5977C12.2866 16.6848 12.3211 16.7682 12.3827 16.8298C12.4442 16.8913 12.5277 16.9259 12.6147 16.9259C12.7017 16.9259 12.7852 16.8913 12.8467 16.8298C12.9082 16.7682 12.9428 16.6848 12.9428 16.5977V13.2992L13.2095 13.5877C13.2388 13.619 13.274 13.6442 13.3131 13.6618C13.3522 13.6795 13.3944 13.6892 13.4373 13.6904C13.4802 13.6917 13.5228 13.6844 13.5629 13.6691C13.6029 13.6537 13.6395 13.6306 13.6706 13.601C13.7019 13.5713 13.727 13.5358 13.7445 13.4964C13.762 13.457 13.7716 13.4146 13.7727 13.3715C13.7738 13.3284 13.7664 13.2855 13.7509 13.2452C13.7355 13.205 13.7122 13.1682 13.6825 13.137L12.8427 12.2484Z" fill="#082640"/>
<path d="M2.25525 16.3647C2.16822 16.3647 2.08476 16.3993 2.02323 16.4609C1.96169 16.5224 1.92712 16.6058 1.92712 16.6929V17.9079C1.92712 17.9949 1.96169 18.0784 2.02323 18.1399C2.08476 18.2014 2.16822 18.236 2.25525 18.236C2.34227 18.236 2.42573 18.2014 2.48727 18.1399C2.5488 18.0784 2.58337 17.9949 2.58337 17.9079V16.6929C2.58337 16.6058 2.5488 16.5224 2.48727 16.4609C2.42573 16.3993 2.34227 16.3647 2.25525 16.3647Z" fill="#082640"/>
<path d="M3.56775 17.2646C3.48072 17.2646 3.39727 17.2992 3.33573 17.3608C3.27419 17.4223 3.23962 17.5057 3.23962 17.5928V18.6873C3.23962 18.7743 3.27419 18.8578 3.33573 18.9193C3.39727 18.9809 3.48072 19.0154 3.56775 19.0154C3.65477 19.0154 3.73823 18.9809 3.79977 18.9193C3.8613 18.8578 3.89587 18.7743 3.89587 18.6873V17.5928C3.89587 17.5057 3.8613 17.4223 3.79977 17.3608C3.73823 17.2992 3.65477 17.2646 3.56775 17.2646Z" fill="#082640"/>
<path d="M4.92712 18.165C4.8401 18.165 4.75664 18.1996 4.6951 18.2611C4.63357 18.3227 4.599 18.4061 4.599 18.4932V19.4569C4.599 19.5439 4.63357 19.6274 4.6951 19.6889C4.75664 19.7505 4.8401 19.785 4.92712 19.785C5.01415 19.785 5.09761 19.7505 5.15914 19.6889C5.22068 19.6274 5.25525 19.5439 5.25525 19.4569V18.4932C5.25525 18.4061 5.22068 18.3227 5.15914 18.2611C5.09761 18.1996 5.01415 18.165 4.92712 18.165Z" fill="#082640"/>
<path d="M6.23962 19.0649C6.1526 19.0649 6.06914 19.0995 6.0076 19.161C5.94607 19.2226 5.9115 19.306 5.9115 19.3931V20.226C5.9115 20.3131 5.94607 20.3965 6.0076 20.4581C6.06914 20.5196 6.1526 20.5542 6.23962 20.5542C6.32665 20.5542 6.41011 20.5196 6.47164 20.4581C6.53318 20.3965 6.56775 20.3131 6.56775 20.226V19.3931C6.56775 19.306 6.53318 19.2226 6.47164 19.161C6.41011 19.0995 6.32665 19.0649 6.23962 19.0649Z" fill="#082640"/>
<path d="M7.27087 21.013C7.27087 21.1 7.30544 21.1835 7.36698 21.245C7.42851 21.3065 7.51197 21.3411 7.599 21.3411C7.68602 21.3411 7.76948 21.3065 7.83102 21.245C7.89255 21.1835 7.92712 21.1 7.92712 21.013V20.293C7.92712 20.2059 7.89255 20.1225 7.83102 20.0609C7.76948 19.9994 7.68602 19.9648 7.599 19.9648C7.51197 19.9648 7.42851 19.9994 7.36698 20.0609C7.30544 20.1225 7.27087 20.2059 7.27087 20.293V21.013Z" fill="#082640"/>
<path d="M13.2784 17.0689L11.7836 17.9318C11.7082 17.9753 11.6532 18.047 11.6307 18.1311C11.6082 18.2151 11.62 18.3047 11.6635 18.3801C11.707 18.4554 11.7786 18.5104 11.8627 18.533C11.9468 18.5555 12.0363 18.5437 12.1117 18.5002L13.6066 17.6372C13.6819 17.5937 13.7369 17.522 13.7594 17.438C13.782 17.3539 13.7702 17.2643 13.7267 17.189C13.6832 17.1136 13.6115 17.0586 13.5274 17.0361C13.4434 17.0136 13.3538 17.0253 13.2784 17.0689Z" fill="#082640"/>
<path d="M23.7709 13.8124H22.7701C22.4929 13.8129 22.2249 13.9125 22.0147 14.0932C21.8046 14.274 21.666 14.524 21.624 14.798C21.6236 14.8007 21.6232 14.8162 21.6228 14.8188L21.5648 15.2655H19.4115V6.8538C19.4113 6.79592 19.3959 6.7391 19.3669 6.68906C19.3378 6.63902 19.296 6.59753 19.2458 6.56875L10.2474 1.37355C10.1976 1.34475 10.141 1.32959 10.0834 1.32959C10.0258 1.32959 9.96919 1.34475 9.91931 1.37355L0.924796 6.56655C0.873437 6.5949 0.830619 6.6365 0.8008 6.68702C0.770981 6.73754 0.755251 6.79514 0.755249 6.8538V18.146C0.75525 18.2036 0.770413 18.2602 0.799212 18.31C0.82801 18.3599 0.869431 18.4013 0.919312 18.4301L9.91931 23.6262C9.96919 23.655 10.0258 23.6702 10.0834 23.6702C10.1406 23.6716 10.1972 23.6578 10.2474 23.6302L18.0036 19.1561H21.0447L20.8311 20.754C20.8117 20.8717 20.7508 20.9785 20.6595 21.0552C20.5681 21.1318 20.4523 21.1732 20.3331 21.1718H20.2917C20.2207 21.0119 20.1048 20.876 19.9582 20.7807C19.8115 20.6854 19.6403 20.6346 19.4654 20.6346C19.2904 20.6346 19.1193 20.6854 18.9726 20.7807C18.8259 20.876 18.7101 21.0119 18.639 21.1718H17.461C17.3918 21.0106 17.2764 20.8735 17.1293 20.7779C16.9822 20.6823 16.81 20.6325 16.6346 20.6348C16.3946 20.6348 16.1645 20.7302 15.9948 20.8999C15.8251 21.0696 15.7297 21.2997 15.7297 21.5397C15.7297 21.7797 15.8251 22.0099 15.9948 22.1796C16.1645 22.3493 16.3946 22.4446 16.6346 22.4446C16.8248 22.4477 17.0109 22.3893 17.1653 22.2783C17.3197 22.1672 17.4342 22.0093 17.4917 21.828H18.6083C18.6686 22.0076 18.7838 22.1637 18.9375 22.2743C19.0913 22.3849 19.276 22.4444 19.4654 22.4444C19.6548 22.4444 19.8395 22.3849 19.9933 22.2743C20.1471 22.1637 20.2622 22.0076 20.3225 21.828H20.3331C20.6097 21.8292 20.8776 21.731 21.088 21.5515C21.2984 21.3719 21.4374 21.1228 21.4798 20.8494C21.4802 20.8467 21.4806 20.8441 21.4809 20.8414L22.2726 14.8976C22.2913 14.7788 22.3516 14.6705 22.4427 14.5919C22.5338 14.5134 22.6498 14.4697 22.7701 14.4686H23.7709C23.8579 14.4686 23.9414 14.4341 24.0029 14.3725C24.0644 14.311 24.099 14.2275 24.099 14.1405C24.099 14.0535 24.0644 13.97 24.0029 13.9085C23.9414 13.847 23.8579 13.8124 23.7709 13.8124ZM16.6346 21.7886C16.5855 21.7886 16.5374 21.774 16.4966 21.7466C16.4557 21.7193 16.4239 21.6805 16.4051 21.635C16.3863 21.5896 16.3814 21.5396 16.391 21.4914C16.4006 21.4432 16.4243 21.3989 16.459 21.3641C16.4938 21.3294 16.5381 21.3057 16.5863 21.2961C16.6345 21.2865 16.6845 21.2914 16.7299 21.3102C16.7753 21.329 16.8142 21.3608 16.8415 21.4017C16.8689 21.4425 16.8835 21.4906 16.8835 21.5397C16.8835 21.6057 16.8573 21.6691 16.8106 21.7157C16.7639 21.7624 16.7006 21.7886 16.6346 21.7886ZM19.4654 21.7886C19.4162 21.7886 19.3682 21.774 19.3273 21.7466C19.2865 21.7193 19.2546 21.6805 19.2359 21.635C19.2171 21.5896 19.2122 21.5396 19.2218 21.4914C19.2314 21.4432 19.255 21.3989 19.2898 21.3641C19.3246 21.3294 19.3689 21.3057 19.4171 21.2961C19.4653 21.2865 19.5153 21.2914 19.5607 21.3102C19.6061 21.329 19.645 21.3608 19.6723 21.4017C19.6996 21.4425 19.7143 21.4906 19.7143 21.5397C19.7142 21.6057 19.688 21.669 19.6413 21.7157C19.5947 21.7623 19.5314 21.7886 19.4654 21.7886ZM15.2924 5.04405L6.94936 9.86083L5.31197 8.91536L13.6548 4.09858L15.2924 5.04405ZM6.61462 10.4198V16.4343L5.99611 15.7368C5.94948 15.6854 5.88816 15.6495 5.82045 15.634C5.75273 15.6185 5.6819 15.6242 5.61755 15.6504L4.974 15.9131V9.48339L6.61462 10.4198ZM10.0834 2.0366L12.9986 3.71969L4.65548 8.53661L1.74051 6.85338L10.0834 2.0366ZM9.75525 22.7737L1.4115 17.9566V7.42118L4.31775 9.10478V16.4036C4.31882 16.4579 4.33307 16.5111 4.35928 16.5586C4.38549 16.6061 4.42286 16.6465 4.46818 16.6764C4.51349 16.7062 4.56539 16.7246 4.61939 16.7299C4.6734 16.7353 4.72789 16.7274 4.77816 16.7069L5.65251 16.3464L6.68644 17.5204C6.7173 17.5554 6.75527 17.5835 6.7978 17.6027C6.84034 17.6219 6.88647 17.6318 6.93314 17.6318C6.97428 17.6318 7.01511 17.6246 7.0538 17.6106C7.11671 17.5873 7.1711 17.5455 7.20984 17.4907C7.24858 17.4359 7.26985 17.3707 7.27087 17.3036V10.7987L9.75525 12.2384V22.7737ZM10.0834 11.6702L7.60561 10.2397L15.9487 5.42294L18.4262 6.85333L10.0834 11.6702ZM10.4115 22.7739V12.2384L18.7552 7.42113V15.2655H14.3959C14.3442 15.2634 14.2929 15.274 14.2463 15.2963C14.1997 15.3187 14.1593 15.3522 14.1287 15.3938C14.0981 15.4354 14.0782 15.484 14.0707 15.5351C14.0632 15.5862 14.0684 15.6384 14.0858 15.6871L15.0163 18.3736C15.0952 18.6017 15.2432 18.7996 15.4397 18.9398C15.6362 19.0801 15.8715 19.1557 16.1129 19.1561H16.6912L10.4115 22.7739ZM21.1322 18.4999H16.1129C16.0083 18.5005 15.9062 18.4685 15.8208 18.4082C15.7353 18.3479 15.6709 18.2625 15.6364 18.1638L15.6217 18.1249H21.183L21.1322 18.4999ZM21.2706 17.4686H15.3943L15.2969 17.1874H21.308L21.2706 17.4686ZM21.3955 16.5311H15.0695L14.8569 15.9218H21.4773L21.3955 16.5311Z" fill="#082640"/>
</g>
<defs>
<clipPath id="clip0_194_3627">
<rect width="24" height="24" fill="white" transform="translate(0.333374 0.5)"/>
</clipPath>
</defs>
</svg>
