<svg width="16" height="16" viewBox="0 0 16 16" fill="none" xmlns="http://www.w3.org/2000/svg">
<g clip-path="url(#clip0_370_10027)">
<path d="M0.781243 16.0001C0.626706 16.0001 0.475631 15.9543 0.347128 15.8685C0.218625 15.7826 0.118468 15.6606 0.059325 15.5178C0.000182074 15.3751 -0.0152895 15.218 0.0148672 15.0664C0.045024 14.9148 0.119454 14.7756 0.228743 14.6664L14.6662 0.228853C14.8128 0.0823209 15.0115 0 15.2187 0C15.426 0 15.6247 0.0823209 15.7712 0.228853C15.9178 0.375385 16.0001 0.574125 16.0001 0.781353C16.0001 0.988581 15.9178 1.18732 15.7712 1.33385L1.33374 15.7714C1.26125 15.844 1.17513 15.9016 1.08031 15.9408C0.9855 15.9801 0.883864 16.0002 0.781243 16.0001Z" fill="black"/>
<path d="M15.2187 16.0001C15.1161 16.0002 15.0145 15.9801 14.9197 15.9408C14.8249 15.9016 14.7387 15.844 14.6662 15.7714L0.228746 1.33385C0.0822141 1.18732 -0.000106812 0.988581 -0.000106812 0.781353C-0.000106812 0.574125 0.0822141 0.375385 0.228746 0.228853C0.375278 0.0823209 0.574018 0 0.781246 0C0.988474 0 1.18721 0.0823209 1.33375 0.228853L15.7712 14.6664C15.8805 14.7756 15.955 14.9148 15.9851 15.0664C16.0153 15.218 15.9998 15.3751 15.9407 15.5178C15.8815 15.6606 15.7814 15.7826 15.6529 15.8685C15.5244 15.9543 15.3733 16.0001 15.2187 16.0001Z" fill="black"/>
</g>
<defs>
<clipPath id="clip0_370_10027">
<rect width="16" height="16" fill="white"/>
</clipPath>
</defs>
</svg>
