<svg width="16" height="16" viewBox="0 0 16 16" fill="none" xmlns="http://www.w3.org/2000/svg">
<g clip-path="url(#clip0_580_3698)">
<path d="M6.13343 5.3335H5.6001V5.86683H6.13343V5.3335Z" fill="#1F64BF"/>
<path d="M6.13343 6.3999H5.6001V6.93324H6.13343V6.3999Z" fill="#1F64BF"/>
<path d="M6.13343 7.4668H5.6001V8.00013H6.13343V7.4668Z" fill="#1F64BF"/>
<path d="M6.13343 8.5332H5.6001V9.06654H6.13343V8.5332Z" fill="#1F64BF"/>
<path d="M7.19984 5.3335H6.6665V5.86683H7.19984V5.3335Z" fill="#1F64BF"/>
<path d="M7.19984 6.3999H6.6665V6.93324H7.19984V6.3999Z" fill="#1F64BF"/>
<path d="M7.19984 7.4668H6.6665V8.00013H7.19984V7.4668Z" fill="#1F64BF"/>
<path d="M7.19984 8.5332H6.6665V9.06654H7.19984V8.5332Z" fill="#1F64BF"/>
<path d="M8.26673 5.3335H7.7334V5.86683H8.26673V5.3335Z" fill="#1F64BF"/>
<path d="M8.26673 6.3999H7.7334V6.93324H8.26673V6.3999Z" fill="#1F64BF"/>
<path d="M8.26673 7.4668H7.7334V8.00013H8.26673V7.4668Z" fill="#1F64BF"/>
<path d="M8.26673 8.5332H7.7334V9.06654H8.26673V8.5332Z" fill="#1F64BF"/>
<path d="M9.33314 5.3335H8.7998V5.86683H9.33314V5.3335Z" fill="#1F64BF"/>
<path d="M7.19984 4.2666H6.6665V4.79993H7.19984V4.2666Z" fill="#1F64BF"/>
<path d="M8.26673 4.2666H7.7334V4.79993H8.26673V4.2666Z" fill="#1F64BF"/>
<path d="M9.33314 4.2666H8.7998V4.79993H9.33314V4.2666Z" fill="#1F64BF"/>
<path d="M9.33314 6.3999H8.7998V6.93324H9.33314V6.3999Z" fill="#1F64BF"/>
<path d="M9.33314 7.4668H8.7998V8.00013H9.33314V7.4668Z" fill="#1F64BF"/>
<path d="M9.33314 8.5332H8.7998V9.06654H9.33314V8.5332Z" fill="#1F64BF"/>
<path d="M10.4 5.3335H9.8667V5.86683H10.4V5.3335Z" fill="#1F64BF"/>
<path d="M10.4 6.3999H9.8667V6.93324H10.4V6.3999Z" fill="#1F64BF"/>
<path d="M10.4 7.4668H9.8667V8.00013H10.4V7.4668Z" fill="#1F64BF"/>
<path d="M10.4 8.5332H9.8667V9.06654H10.4V8.5332Z" fill="#1F64BF"/>
<path d="M15.7336 4C15.7335 4 15.7334 4 15.7333 4H11.7333V0.266667C11.7334 0.119467 11.6142 0.000100063 11.467 6.28383e-08C11.4669 6.28383e-08 11.4668 6.28383e-08 11.4667 6.28383e-08H4.53333C4.38613 -9.99372e-05 4.26677 0.119167 4.26667 0.266367C4.26667 0.266467 4.26667 0.266567 4.26667 0.266667V4H0.266667C0.119467 3.9999 0.000100063 4.11917 6.28383e-08 4.26637C6.28383e-08 4.26647 6.28383e-08 4.26657 6.28383e-08 4.26667V13.8667C-9.99372e-05 14.0139 0.119167 14.1332 0.266367 14.1333C0.266467 14.1333 0.266567 14.1333 0.266667 14.1333H0.8241C0.808633 14.2214 0.800567 14.3106 0.8 14.4V15.7333C0.7999 15.8805 0.919167 15.9999 1.06637 16C1.06647 16 1.06657 16 1.06667 16H14.9333C15.0805 16.0001 15.1999 15.8808 15.2 15.7336C15.2 15.7335 15.2 15.7334 15.2 15.7333V14.4C15.1995 14.3106 15.1914 14.2214 15.1759 14.1333H15.7333C15.8805 14.1334 15.9999 14.0142 16 13.867C16 13.8669 16 13.8668 16 13.8667V4.26667C16.0001 4.11947 15.8808 4.0001 15.7336 4ZM11.4667 11.4667C11.4667 11.7612 11.2279 12 10.9333 12C10.6388 12 10.4 11.7612 10.4 11.4667C10.4 11.1721 10.6388 10.9333 10.9333 10.9333C11.2277 10.9337 11.4663 11.1723 11.4667 11.4667ZM5.06667 10.9333C5.36123 10.9333 5.6 11.1721 5.6 11.4667C5.6 11.7612 5.36123 12 5.06667 12C4.7721 12 4.53333 11.7612 4.53333 11.4667C4.5337 11.1723 4.77227 10.9337 5.06667 10.9333ZM3.46667 15.4667H1.33333V14.4C1.33333 13.8109 1.8109 13.3333 2.4 13.3333C2.9891 13.3333 3.46667 13.8109 3.46667 14.4V15.4667ZM1.86667 12.2667C1.86667 11.9721 2.10543 11.7333 2.4 11.7333C2.69457 11.7333 2.93333 11.9721 2.93333 12.2667C2.93333 12.5612 2.69457 12.8 2.4 12.8C2.1056 12.7996 1.86703 12.5611 1.86667 12.2667ZM3.50707 13.2475C3.4065 13.1505 3.29373 13.067 3.1716 12.9992C3.57833 12.5731 3.56263 11.8979 3.1365 11.4911C2.71037 11.0843 2.03517 11.1001 1.6284 11.5262C1.23497 11.9384 1.23497 12.587 1.6284 12.9992C1.37387 13.1404 1.1624 13.3481 1.01647 13.6H0.533333V4.53333H4.26667V10.7685C3.90047 11.1794 3.91283 11.8032 4.29507 12.1992C3.89507 12.4204 3.60843 12.8018 3.50707 13.2475ZM6.13333 15.4667H4V13.6C4 13.0109 4.47757 12.5333 5.06667 12.5333C5.65577 12.5333 6.13333 13.0109 6.13333 13.6V15.4667ZM9.33333 15.4667H6.66667V13.6C6.66667 12.8636 7.26363 12.2667 8 12.2667C8.73637 12.2667 9.33333 12.8636 9.33333 13.6V15.4667ZM7.2 10.9333C7.2 10.4915 7.55817 10.1333 8 10.1333C8.44183 10.1333 8.8 10.4915 8.8 10.9333C8.8 11.3752 8.44183 11.7333 8 11.7333C7.55837 11.7329 7.20047 11.375 7.2 10.9333ZM9.62407 12.6832C9.4455 12.3684 9.17983 12.1119 8.85897 11.9445C9.4222 11.4701 9.4942 10.6289 9.01983 10.0657C8.54543 9.50247 7.70427 9.43047 7.14103 9.90483C6.5778 10.3792 6.5058 11.2204 6.98017 11.7836C7.0291 11.8417 7.0829 11.8955 7.14103 11.9445C6.82017 12.1119 6.5545 12.3684 6.37593 12.6832C6.23573 12.4832 6.05187 12.3177 5.83827 12.1992C6.2471 11.781 6.2395 11.1105 5.82123 10.7016C5.55193 10.4384 5.1631 10.338 4.8 10.4379V0.533333H11.2V10.4379C11.1131 10.4139 11.0235 10.4012 10.9333 10.4C10.3458 10.3984 9.86823 10.8735 9.86667 11.461C9.86593 11.736 9.9717 12.0005 10.1617 12.1992C9.94813 12.3177 9.76427 12.4832 9.62407 12.6832ZM12 14.4V15.4667H9.86667V13.6C9.86667 13.0109 10.3442 12.5333 10.9333 12.5333C11.5224 12.5333 12 13.0109 12 13.6V14.4ZM14.6667 15.4667H12.5333V14.4C12.5333 13.8109 13.0109 13.3333 13.6 13.3333C14.1891 13.3333 14.6667 13.8109 14.6667 14.4V15.4667ZM13.0667 12.2667C13.0667 11.9721 13.3054 11.7333 13.6 11.7333C13.8946 11.7333 14.1333 11.9721 14.1333 12.2667C14.1333 12.5612 13.8946 12.8 13.6 12.8C13.3056 12.7996 13.067 12.5611 13.0667 12.2667ZM15.4667 13.6H14.9835C14.8376 13.3481 14.6261 13.1405 14.3716 12.9992C14.7783 12.5731 14.7626 11.8979 14.3365 11.4911C13.9104 11.0844 13.2352 11.1001 12.8284 11.5262C12.435 11.9384 12.435 12.587 12.8284 12.9992C12.7063 13.067 12.5935 13.1505 12.4929 13.2475C12.3916 12.8017 12.1049 12.4204 11.7049 12.1992C12.0872 11.8031 12.0996 11.1794 11.7334 10.7685V4.53333H15.4667V13.6H15.4667Z" fill="#1F64BF"/>
<path d="M13.0665 6.1333H12.5332V10.4H13.0665V6.1333Z" fill="#1F64BF"/>
<path d="M14.6666 6.1333H14.1333V10.4H14.6666V6.1333Z" fill="#1F64BF"/>
<path d="M1.86683 6.1333H1.3335V10.4H1.86683V6.1333Z" fill="#1F64BF"/>
<path d="M3.46644 6.1333H2.93311V10.4H3.46644V6.1333Z" fill="#1F64BF"/>
<path d="M9.60027 1.06689C9.60017 1.06689 9.60007 1.06689 9.59997 1.06689H6.39997C6.25277 1.06679 6.1334 1.18606 6.1333 1.33326C6.1333 1.33336 6.1333 1.33346 6.1333 1.33356V3.46689C6.1332 3.61409 6.25247 3.73346 6.39967 3.73356C6.39977 3.73356 6.39987 3.73356 6.39997 3.73356H9.59997C9.74717 3.73366 9.86653 3.61439 9.86663 3.46719C9.86663 3.46709 9.86663 3.46699 9.86663 3.46689V1.33356C9.86673 1.18636 9.74747 1.06699 9.60027 1.06689ZM9.3333 3.20023H6.66663V1.60023H9.3333V3.20023Z" fill="#1F64BF"/>
</g>
<defs>
<clipPath id="clip0_580_3698">
<rect width="16" height="16" fill="white"/>
</clipPath>
</defs>
</svg>
