<svg width="16" height="16" viewBox="0 0 16 16" fill="none" xmlns="http://www.w3.org/2000/svg">
<g clip-path="url(#clip0_580_1767)">
<path d="M11.0142 6.875C11.0142 6.52981 10.7343 6.25 10.3892 6.25H3.95166C3.60647 6.25 3.32666 6.52981 3.32666 6.875C3.32666 7.22019 3.60647 7.5 3.95166 7.5H10.3892C10.7343 7.5 11.0142 7.22019 11.0142 6.875Z" fill="#0D6BA6"/>
<path d="M3.95166 8.75C3.60647 8.75 3.32666 9.02981 3.32666 9.375C3.32666 9.72019 3.60647 10 3.95166 10H7.86138C8.20657 10 8.48638 9.72019 8.48638 9.375C8.48638 9.02981 8.20657 8.75 7.86138 8.75H3.95166Z" fill="#0D6BA6"/>
<path d="M5.42036 14.75H3.33008C2.64083 14.75 2.08008 14.1892 2.08008 13.5V2.5C2.08008 1.81075 2.64083 1.25 3.33008 1.25H11.0141C11.7034 1.25 12.2641 1.81075 12.2641 2.5V6.34375C12.2641 6.68894 12.5439 6.96875 12.8891 6.96875C13.2343 6.96875 13.5141 6.68894 13.5141 6.34375V2.5C13.5141 1.1215 12.3926 0 11.0141 0H3.33008C1.95158 0 0.830078 1.1215 0.830078 2.5V13.5C0.830078 14.8785 1.95158 16 3.33008 16H5.42036C5.76555 16 6.04536 15.7202 6.04536 15.375C6.04536 15.0298 5.76555 14.75 5.42036 14.75Z" fill="#0D6BA6"/>
<path d="M14.6213 9.04935C13.8902 8.31829 12.7007 8.31825 11.9701 9.04885L8.53875 12.4726C8.46588 12.5453 8.41213 12.6349 8.38219 12.7334L7.63491 15.1935C7.56866 15.4117 7.62638 15.6485 7.78557 15.8117C7.90482 15.9339 8.06682 16.0002 8.23297 16.0002C8.28857 16.0002 8.34469 15.9928 8.39978 15.9775L10.9224 15.2787C11.0263 15.25 11.1209 15.1949 11.1971 15.1188L14.6213 11.701C15.3523 10.97 15.3523 9.78047 14.6213 9.04935ZM10.4304 14.118L9.16125 14.4695L9.53266 13.2468L11.8479 10.9366L12.732 11.8207L10.4304 14.118ZM13.7378 10.8168L13.6168 10.9376L12.7328 10.0537L12.8535 9.93329C13.0972 9.6896 13.4937 9.6896 13.7374 9.93329C13.9811 10.177 13.9811 10.5735 13.7378 10.8168Z" fill="#0D6BA6"/>
<path d="M10.3892 3.75H3.95166C3.60647 3.75 3.32666 4.02981 3.32666 4.375C3.32666 4.72019 3.60647 5 3.95166 5H10.3892C10.7343 5 11.0142 4.72019 11.0142 4.375C11.0142 4.02981 10.7343 3.75 10.3892 3.75Z" fill="#0D6BA6"/>
</g>
<defs>
<clipPath id="clip0_580_1767">
<rect width="16" height="16" fill="white"/>
</clipPath>
</defs>
</svg>
