<svg width="25" height="25" viewBox="0 0 25 25" fill="none" xmlns="http://www.w3.org/2000/svg">
<g clip-path="url(#clip0_194_3638)">
<path d="M24.3447 14.4502C24.5454 14.3207 24.6666 14.0982 24.6666 13.8594V11.5156C24.6666 11.1273 24.3518 10.8125 23.9635 10.8125H21.731L14.3917 7.33597C14.9151 6.8638 15.2448 6.18069 15.2448 5.42188C15.2448 4.24405 14.4505 3.24894 13.3698 2.942V1.90625H14.0729C14.4612 1.90625 14.776 1.59144 14.776 1.20312C14.776 0.814812 14.4612 0.5 14.0729 0.5H11.2604C10.8721 0.5 10.5573 0.814812 10.5573 1.20312C10.5573 1.59144 10.8721 1.90625 11.2604 1.90625H11.9635V3.54688C11.9635 3.93519 12.2783 4.25 12.6666 4.25C13.3128 4.25 13.8385 4.7757 13.8385 5.42188C13.8385 6.06805 13.3128 6.59375 12.6666 6.59375C12.0205 6.59375 11.4948 6.06805 11.4948 5.42188C11.4948 5.03356 11.1799 4.71875 10.7916 4.71875C10.4033 4.71875 10.0885 5.03356 10.0885 5.42188C10.0885 6.18069 10.4182 6.8638 10.9416 7.33597L3.60227 10.8125H1.36975C0.981438 10.8125 0.666626 11.1273 0.666626 11.5156V13.8594C0.666626 14.0982 0.787892 14.3207 0.988563 14.4502L2.11975 15.18V20.1325L0.988563 20.8623C0.787892 20.9918 0.666626 21.2143 0.666626 21.4531V23.7969C0.666626 24.1852 0.981438 24.5 1.36975 24.5H23.9635C24.3518 24.5 24.6666 24.1852 24.6666 23.7969V21.4531C24.6666 21.2143 24.5454 20.9918 24.3447 20.8623L23.2135 20.1325V15.18L24.3447 14.4502ZM12.6666 8.07491L18.446 10.8125H6.88722L12.6666 8.07491ZM22.1292 21.1064L23.2604 21.8362V23.0938H2.07288V21.8362L3.20406 21.1064C3.40474 20.977 3.526 20.7545 3.526 20.5156V14.7969C3.526 14.558 3.40474 14.3355 3.20406 14.2061L2.07288 13.4763V12.2188H23.2604V13.4763L22.1292 14.2061C21.9285 14.3355 21.8073 14.558 21.8073 14.7969V20.5156C21.8073 20.7545 21.9285 20.977 22.1292 21.1064Z" fill="#082640"/>
<path d="M5.63538 13.625C5.24706 13.625 4.93225 13.9398 4.93225 14.3281V20.9844C4.93225 21.3727 5.24706 21.6875 5.63538 21.6875C6.02369 21.6875 6.3385 21.3727 6.3385 20.9844V14.3281C6.3385 13.9398 6.02369 13.625 5.63538 13.625Z" fill="#082640"/>
<path d="M8.44788 13.625C8.05956 13.625 7.74475 13.9398 7.74475 14.3281V20.9844C7.74475 21.3727 8.05956 21.6875 8.44788 21.6875C8.83619 21.6875 9.151 21.3727 9.151 20.9844V14.3281C9.151 13.9398 8.83619 13.625 8.44788 13.625Z" fill="#082640"/>
<path d="M11.2604 13.625C10.8721 13.625 10.5573 13.9398 10.5573 14.3281V20.9844C10.5573 21.3727 10.8721 21.6875 11.2604 21.6875C11.6487 21.6875 11.9635 21.3727 11.9635 20.9844V14.3281C11.9635 13.9398 11.6487 13.625 11.2604 13.625Z" fill="#082640"/>
<path d="M14.0729 13.625C13.6846 13.625 13.3698 13.9398 13.3698 14.3281V20.9844C13.3698 21.3727 13.6846 21.6875 14.0729 21.6875C14.4612 21.6875 14.776 21.3727 14.776 20.9844V14.3281C14.776 13.9398 14.4612 13.625 14.0729 13.625Z" fill="#082640"/>
<path d="M16.8854 13.625C16.4971 13.625 16.1823 13.9398 16.1823 14.3281V20.9844C16.1823 21.3727 16.4971 21.6875 16.8854 21.6875C17.2737 21.6875 17.5885 21.3727 17.5885 20.9844V14.3281C17.5885 13.9398 17.2737 13.625 16.8854 13.625Z" fill="#082640"/>
<path d="M19.6979 13.625C19.3096 13.625 18.9948 13.9398 18.9948 14.3281V20.9844C18.9948 21.3727 19.3096 21.6875 19.6979 21.6875C20.0862 21.6875 20.401 21.3727 20.401 20.9844V14.3281C20.401 13.9398 20.0862 13.625 19.6979 13.625Z" fill="#082640"/>
</g>
<defs>
<clipPath id="clip0_194_3638">
<rect width="24" height="24" fill="white" transform="translate(0.666626 0.5)"/>
</clipPath>
</defs>
</svg>
