<svg width="181" height="94" viewBox="0 0 181 94" fill="none" xmlns="http://www.w3.org/2000/svg">
<path d="M74.9903 2.73145L105.626 43.0073L66.8351 94.0002H22.4509L-16.7016 42.5226V2.73145H74.9903Z" fill="#506583"/>
<path d="M17.304 87.2299H3.28627V82.1214L-8.13867 67.0959V53.7783L17.304 87.2299Z" fill="#3E4D64"/>
<path d="M-16.7016 33.9136H98.9943V35.6446H-16.7016V33.9136Z" fill="#627B9E"/>
<path d="M52.2635 5.47046V33.9136H50.9479V5.47046H52.2635Z" fill="#627B9E"/>
<path d="M16.9347 5.47046V33.9136H15.6191L15.6191 5.47046H16.9347Z" fill="#627B9E"/>
<path d="M104.149 44.9381L105.626 46.8769L108.565 43.007L77.9293 2.73122L75.852 0H143.732L176.445 43.007L173.506 46.8769L172.037 44.9381L134.716 94H90.3313L85.1843 87.2297H71.9822L104.149 44.9381Z" fill="#DE6A54"/>
<path d="M143.732 0H148.287L181 43.007L178.061 46.8769L173.445 46.9538L176.445 43.007L143.732 0Z" fill="#3E4D64"/>
<path d="M176.445 43.0068H105.626L66.8352 93.9998H134.716L170.468 46.9998L173.445 46.9536L176.445 43.0068Z" fill="#43516E"/>
<path d="M105.626 46.8769L108.565 43.007L75.852 0H-18.7789V5.47013H74.1287L105.626 46.8769Z" fill="#8CA1C0"/>
<path d="M75.852 0H80.4066L113.12 43.007L110.181 46.8769H105.626L108.565 43.007L75.852 0Z" fill="#3E4D64"/>
<g style="mix-blend-mode:multiply">
<path d="M-13.1087 35.6445L97.0786 38.2296L102.518 45.1999L66.5813 93.354L22.451 94.0002H134.715L170.468 47.0002L178.061 46.8771L181 43.0073H113.12L110.181 46.8771H105.626L104.28 45.1076L97.0863 35.6445H-13.1087Z" fill="#979AAE"/>
</g>
<g style="mix-blend-mode:multiply">
<path d="M74.1287 5.47021L53.5561 6.55501V33.344L82.7839 33.9133H52.2636V5.47021H74.1287Z" fill="#979AAE"/>
</g>
<g style="mix-blend-mode:multiply">
<path d="M38.7998 5.47021L18.2272 6.55501V33.344L47.4551 33.9133H16.9347V5.47021H38.7998Z" fill="#979AAE"/>
</g>
<g style="mix-blend-mode:multiply">
<path d="M-8.13867 61.656H-4.44575L14.7112 87.2295H17.304L-8.13867 53.7778V61.656Z" fill="#BDC0D9"/>
</g>
<path d="M142.571 2.73145L168.99 38.5989L117.02 33.9135L90.3929 2.73145H142.571Z" fill="#EF7B64"/>
<path d="M141.378 5.20068L155.888 25.3886L131.53 21.4418L122.49 6.11622L105.272 5.20068H141.378Z" fill="#F2906D"/>
<path d="M-11.4084 37.6523V43.9841L23.9974 90.5071H27.975L15.0652 43.661V37.6523H-11.4084Z" fill="#627B9E"/>
<path d="M92.0393 15.2947L102.379 12.248L114.935 18.3414L124.214 19.6877L140.793 31.3973L150.026 33.9131L155.888 39.4217L156.634 41.9221L161.597 43.0069H113.12L92.0393 15.2947Z" fill="#BDC0D9"/>
<path d="M155.888 39.4219L155.627 41.1838L138.639 42.107L120.659 33.9134H117.274L116.166 32.9363L111.119 34.7827L106.319 32.6901L102.256 23.0193L95.9168 18.8955L92.0393 15.2949L113.12 43.0072H161.597L156.634 41.9224L155.888 39.4219Z" fill="#9799B9"/>
<path d="M114.905 18.5879L124.014 20.0035L116.874 21.9731L111.858 25.1505L106.626 22.5578L103.149 22.7732L107.365 21.8654L112.904 20.6652L114.905 18.5879Z" fill="#CDD0EA"/>
<path d="M151.911 63.4336H157.727L158.758 65.2647L149.187 70.2039L148.156 68.3729L151.911 63.4336Z" fill="#506583"/>
<path d="M152.942 65.2646H158.758L155.003 70.2039H149.187L152.942 65.2646Z" fill="#3E4D64"/>
<path d="M151.911 63.4336L152.942 65.2647L149.187 70.2039L148.156 68.3729L151.911 63.4336Z" fill="#627B9E"/>
<path d="M102.749 63.4336H108.565L109.596 65.2647L100.025 70.2039L98.9942 68.3729L102.749 63.4336Z" fill="#506583"/>
<path d="M103.78 65.2646H109.596L105.841 70.2039H100.025L103.78 65.2646Z" fill="#3E4D64"/>
<path d="M102.749 63.4336L103.78 65.2647L100.025 70.2039L98.9943 68.3729L102.749 63.4336Z" fill="#627B9E"/>
<g style="mix-blend-mode:multiply">
<path d="M170.067 43.0069L115.289 38.5985L81.122 0.938477L113.12 43.0069H170.067Z" fill="#CAD4E3"/>
</g>
</svg>
