<svg width="24" height="24" viewBox="0 0 24 24" fill="none" xmlns="http://www.w3.org/2000/svg">
<g id="Frame">
<g id="Group">
<path id="Vector" d="M5.452 22H14.548C16.296 22 17.73 20.688 17.954 19H18.548C19.4632 18.9989 20.3406 18.6349 20.9878 17.9878C21.6349 17.3406 21.9989 16.4632 22 15.548V5.452C21.9989 4.5368 21.6349 3.65938 20.9878 3.01224C20.3406 2.36509 19.4632 2.00106 18.548 2H9.452C8.5368 2.00106 7.65938 2.36509 7.01224 3.01224C6.36509 3.65938 6.00106 4.5368 6 5.452V6H5.452C4.5368 6.00106 3.65938 6.36509 3.01224 7.01224C2.36509 7.65938 2.00106 8.5368 2 9.452V18.548C2.00106 19.4632 2.36509 20.3406 3.01224 20.9878C3.65938 21.6349 4.5368 21.9989 5.452 22ZM8 5.452C8 4.652 8.651 4 9.452 4H18.548C19.348 4 20 4.651 20 5.452V15.548C20 16.348 19.349 17 18.548 17H18V9.452C17.9989 8.5368 17.6349 7.65938 16.9878 7.01224C16.3406 6.36509 15.4632 6.00106 14.548 6H8V5.452ZM4 9.452C4 8.652 4.651 8 5.452 8H14.548C15.348 8 16 8.651 16 9.452V18.548C16 19.348 15.349 20 14.548 20H5.452C4.652 20 4 19.349 4 18.548V9.452Z" fill="#024978"/>
</g>
</g>
</svg>
