<svg width="88" height="98" viewBox="0 0 88 98" fill="none" xmlns="http://www.w3.org/2000/svg">
<g filter="url(#filter0_d_273_9887)">
<path d="M7.5006 73.6263C5.50918 67.6179 4.35176 61.3486 4.07943 54.9999C4.05674 54.6027 4.03971 54.1659 4.02837 53.6779C4.01702 53.0992 4 52.5035 4 51.8851C4 50.8922 4.01702 49.9958 4.05106 49.1447V49.1277C4.06241 48.7135 4.08511 48.305 4.1078 47.8965C4.13049 47.5732 4.15319 47.1817 4.18155 46.7789C4.18155 46.7562 4.18155 46.7391 4.18155 46.7164C4.20425 46.4271 4.22694 46.1377 4.25531 45.8541C4.30637 45.247 4.36311 44.6683 4.4085 44.2314C4.43687 44.0045 4.45956 43.7832 4.48793 43.5563V43.5336C4.51062 43.3633 4.53332 43.1875 4.55601 43.0116L4.57871 42.8357C4.57871 42.8357 4.59005 42.7846 4.59005 42.7506C4.61275 42.6088 4.63544 42.4613 4.65246 42.3194C4.67516 42.1549 4.69785 41.9903 4.72055 41.8258C4.72055 41.8088 4.73189 41.7918 4.73189 41.7747C4.77728 41.4854 4.82267 41.196 4.86806 40.9124C4.88508 40.7819 4.9021 40.657 4.93047 40.5379C4.96451 40.311 5.00423 40.0727 5.05529 39.8174C5.07231 39.7039 5.095 39.5847 5.1177 39.4713L5.12904 39.4032C5.12904 39.4032 5.12905 39.3748 5.14039 39.3691C5.19145 39.0798 5.24819 38.7904 5.30492 38.5068C5.30492 38.4954 5.30492 38.4784 5.31627 38.4614C5.32762 38.3933 5.34464 38.3139 5.36166 38.2458C5.41272 37.9848 5.46946 37.7238 5.5262 37.4628L5.53754 37.4118C5.65669 36.8444 5.76449 36.3735 5.87228 35.9423C6.34886 33.8998 6.93892 31.8516 7.61975 29.8545C7.69351 29.6219 7.77294 29.4007 7.84102 29.1964L10.8764 21.9285C12.9699 17.5712 15.5401 13.4352 18.496 9.6282C19.052 8.90765 19.8009 8.36299 20.6577 8.05094C21.7016 7.66514 22.7852 7.30203 23.971 6.94459C24.4363 6.80843 31.585 5.11202 31.585 5.11202C33.3949 4.78863 35.2047 4.53332 36.9635 4.35744C37.1224 4.34042 37.2869 4.32907 37.4458 4.32907L41.457 4.05106C42.2173 4.01702 43.04 4 43.9761 4C44.6796 4 45.3831 4.01135 46.0753 4.03971L50.1319 4.29503C50.2851 4.29503 50.427 4.30637 50.5802 4.31772C52.3333 4.47658 54.1375 4.72055 55.9417 5.03827C55.9417 5.03827 63.0961 6.69495 63.5386 6.82545C64.6904 7.16019 65.7457 7.5006 66.7556 7.86371C67.6236 8.17576 68.3839 8.7261 68.9512 9.45232C72.0377 13.4011 74.6929 17.696 76.8489 22.2179L79.3679 28.3964C79.419 28.5099 79.4757 28.6234 79.5211 28.7368C79.5552 28.8276 79.5892 28.9184 79.6289 29.0092C79.8161 29.5482 79.9864 30.0701 80.1452 30.5921C82.0799 36.4813 83.1976 42.6598 83.4643 48.9745C83.5097 50.1206 83.5267 51.0511 83.5267 51.9021C83.5267 52.4411 83.5153 52.9801 83.504 53.4794C83.504 53.4964 83.504 53.5134 83.504 53.5304C83.504 53.5985 83.504 53.6609 83.504 53.729C83.504 53.8425 83.504 53.9446 83.4926 54.0524C83.4926 54.0808 83.4926 54.1148 83.4926 54.1432C83.4926 54.1772 83.4926 54.2113 83.4926 54.251C83.4926 54.3304 83.4926 54.4098 83.4926 54.4949C83.4813 54.7275 83.4756 54.9488 83.4643 55.1814C83.1692 61.4961 82.0005 67.7598 79.992 73.7908L77.8985 79.3282C76.0092 83.6685 73.6773 87.8216 70.9483 91.6796C70.3923 92.4683 69.6207 93.0696 68.7186 93.4157C67.2378 93.9888 65.8535 94.471 64.4804 94.9022L56.8665 96.7915C54.9488 97.1546 53.0085 97.4383 51.0965 97.6312C50.9376 97.6426 50.7787 97.6539 50.6142 97.6539L46.4271 97.9489C45.6895 97.983 44.8952 98 43.9874 98C42.8868 98 42.0301 97.983 41.2244 97.9376L36.9806 97.6199C36.8104 97.6199 36.6458 97.6085 36.4699 97.5915C34.5579 97.3929 32.6119 97.0979 30.6886 96.7121L23.0916 94.7774C21.6846 94.3349 20.2548 93.8242 18.7116 93.2115C17.8209 92.8597 17.0606 92.2527 16.5159 91.4754C13.8153 87.6117 11.5062 83.4756 9.66224 79.1864L7.5233 73.649L7.5006 73.6263Z" fill="#082640"/>
<path d="M78.619 53.7178C78.619 53.8256 78.619 53.9277 78.6077 54.0241C78.6077 53.922 78.619 53.8199 78.619 53.7178Z" fill="#082640"/>
<path d="M32.4077 39.2445C32.7027 35.29 33.1339 31.3809 33.6899 27.5059C33.7013 27.4037 33.7126 27.3016 33.724 27.2052C33.1453 31.171 32.7027 35.1879 32.402 39.2445H32.4077ZM32.0162 46.6996C32.0616 45.2131 32.1297 43.7323 32.2091 42.2515C32.1183 43.7267 32.0559 45.2131 32.0162 46.6996ZM24.7313 28.7994C24.1356 28.9129 23.5455 29.0264 22.9555 29.1455C22.4846 29.2477 22.0137 29.3498 21.5484 29.4576C22.025 29.3498 22.4903 29.2477 22.9555 29.1455C23.5512 29.0264 24.1356 28.9129 24.7257 28.7994C25.2249 28.7087 25.7299 28.6236 26.2292 28.5385C25.7299 28.6179 25.2249 28.703 24.7313 28.7938V28.7994ZM23.6193 49.5478C23.6193 49.5931 23.6193 49.6385 23.6193 49.6782C23.6193 49.6329 23.6306 49.5875 23.6306 49.5478H23.6193ZM23.5796 50.7392V50.6484C23.5796 50.6768 23.5796 50.7052 23.5796 50.7392ZM48.1292 27.0974C48.4753 27.1144 48.8044 27.1257 49.1391 27.1484C49.2696 27.1484 49.3944 27.1484 49.5192 27.1598C49.0653 27.1314 48.6001 27.1087 48.1292 27.0974ZM50.8922 27.2392C50.4384 27.2052 49.9901 27.1825 49.5249 27.1598C49.9901 27.1881 50.444 27.2108 50.8922 27.2449C51.1475 27.2562 51.3915 27.2789 51.6468 27.3073C51.9589 27.3243 52.2766 27.347 52.5886 27.3754C52.0326 27.3243 51.4653 27.2846 50.8922 27.2449V27.2392ZM53.5248 27.4548C53.2184 27.4264 52.9064 27.3981 52.5886 27.3697C52.9007 27.3981 53.2127 27.4264 53.5248 27.4605L53.8198 27.4832L53.5248 27.4548ZM15.0465 24.4308C15.0465 24.4308 15.0749 24.4194 15.0806 24.4194C15.0692 24.4194 15.0579 24.4194 15.0522 24.4308H15.0465Z" fill="#082640"/>
<path d="M78.5793 49.1447C78.3297 43.1875 77.2744 37.4515 75.4815 32.0332C75.3397 31.5566 75.1865 31.08 75.022 30.6148C75.0106 30.5864 75.0106 30.5808 74.9936 30.5524C72.588 29.7921 70.137 29.1283 67.6577 28.5383C67.6577 28.5496 67.669 28.5723 67.669 28.5893C65.479 28.0674 63.2493 27.6135 61.0026 27.2447C61.0026 27.2447 60.9988 27.2371 60.9912 27.222C58.9771 26.8872 56.9289 26.6036 54.8694 26.3993C54.4666 26.3369 54.0524 26.3029 53.6439 26.2688C53.5248 26.2575 53.3999 26.2461 53.2808 26.2405C53.2127 26.2291 53.1503 26.2291 53.0822 26.2234C52.9007 26.2064 52.7191 26.1951 52.5376 26.1781H52.5205C52.2879 26.1554 52.044 26.1327 51.8 26.1213C51.7886 26.1213 51.7773 26.1213 51.7716 26.1213C51.7603 26.1213 51.7603 26.1213 51.7489 26.1213H51.7376C51.0397 26.0702 50.3305 26.0305 49.6327 25.9908C49.5816 25.9908 49.5419 25.9908 49.4908 25.9795C49.3377 25.9681 49.1788 25.9625 49.0199 25.9511C48.8441 25.9511 48.6682 25.9341 48.4923 25.9227C48.3902 25.9114 48.2824 25.9114 48.1803 25.9114C48.1292 25.9114 48.0781 25.9 48.0271 25.9C47.8228 25.9 47.6242 25.8887 47.4257 25.8773C47.2271 25.866 47.0285 25.866 46.8243 25.866C45.8711 25.8263 44.9123 25.8149 43.9421 25.8149C43.63 25.8149 43.3237 25.8263 43.0173 25.8263C42.9208 25.8263 42.8244 25.8263 42.7336 25.8263H42.6201C41.9223 25.8376 41.2188 25.849 40.5152 25.8773C40.1805 25.8773 39.8401 25.8944 39.494 25.9057C39.4599 26.3029 39.4259 26.7057 39.3862 27.1028C39.3408 27.6021 39.2954 28.1071 39.2557 28.6063C39.2103 29.1056 39.1706 29.6106 39.1309 30.1098C38.9663 32.1126 38.8302 34.1267 38.7167 36.1465C38.66 37.1564 38.6032 38.1663 38.5578 39.1762C38.5295 39.6755 38.5068 40.1861 38.4898 40.6968C38.4727 41.2017 38.45 41.7067 38.433 42.2173C38.3649 44.2484 38.3139 46.2796 38.2855 48.3221C38.2742 49.3433 38.2628 50.3589 38.2628 51.3858V52.6737C38.2912 60.8664 38.6713 68.9626 39.4089 76.968C40.9067 77.0361 42.4216 77.0758 43.9307 77.0758C45.3208 77.0758 46.7165 77.0474 48.1008 76.9907C48.827 68.9853 49.2185 60.872 49.2299 52.6794C51.4596 52.7134 53.6609 52.8099 55.5332 52.895H55.5673C55.5332 60.9458 54.9091 68.8661 53.7687 76.6049C56.2708 76.3779 58.7445 76.0489 61.2011 75.629C62.8919 68.469 63.8223 61.0366 63.9188 53.3942C63.9415 52.9971 63.9415 52.5943 63.9415 52.2028C61.1671 51.9872 58.3814 51.8227 55.5786 51.7035C53.4737 51.6071 51.3631 51.5276 49.2469 51.4936V51.3801C51.3688 51.3404 53.4624 51.261 55.5729 51.1645C58.3587 51.0454 61.1444 50.8808 63.9188 50.6653C63.8507 43.057 62.9372 35.6473 61.2862 28.5269C63.5386 28.907 65.7514 29.3609 67.9414 29.9113C69.3598 36.4359 70.1597 43.1875 70.2619 50.1206C70.2902 50.6993 70.2902 51.3007 70.2902 51.8907C70.2902 52.1801 70.2902 52.4695 70.2789 52.7531C70.2789 53.1503 70.2675 53.5531 70.2562 53.9446C70.137 60.9288 69.3144 67.7314 67.8562 74.3014C70.398 73.7057 72.883 73.0192 75.334 72.2306C77.1666 66.7385 78.29 60.9401 78.5623 54.9148C78.5737 54.7162 78.585 54.5176 78.5907 54.319C78.5907 54.2169 78.602 54.1205 78.602 54.024C78.602 53.9276 78.602 53.8254 78.6134 53.7233C78.6247 53.1106 78.6417 52.4978 78.6417 51.8907C78.6417 50.9716 78.6134 50.0582 78.5793 49.1504V49.1447ZM55.5105 49.9674C53.6553 50.0525 51.4539 50.149 49.2355 50.183C49.2015 42.4045 48.8214 34.6998 48.1292 27.1028C48.6058 27.1142 49.071 27.1312 49.5192 27.1596C49.9845 27.1823 50.4383 27.205 50.8865 27.239C51.4596 27.2787 52.0269 27.3241 52.583 27.3695C52.895 27.3979 53.2127 27.4206 53.5191 27.4546L53.8141 27.4773V27.5057C54.8751 34.8416 55.4822 42.3478 55.5559 49.9674H55.5048H55.5105Z" fill="#23D962"/>
<path d="M20.1301 29.7811L19.7556 29.8719L20.1301 29.7868C20.5499 29.6847 20.9698 29.5825 21.3953 29.4918C20.9754 29.5825 20.5556 29.679 20.1301 29.7811ZM26.5129 27.2734C26.927 27.2053 27.3525 27.1372 27.7837 27.0635C27.3582 27.1316 26.927 27.1996 26.5129 27.2734Z" fill="#082640"/>
<path d="M31.9367 51.8794V51.6524C31.9367 51.4993 31.9367 51.3574 31.9481 51.2042C31.9481 50.6652 31.9481 50.1433 31.9594 49.6156C31.9594 49.2695 31.9708 48.9291 31.9764 48.583C31.9764 48.2993 31.9878 48.01 31.9935 47.7263C31.9935 47.5561 31.9935 47.3802 32.0048 47.21C32.0048 47.0398 32.0162 46.8696 32.0162 46.6937C32.0615 45.2072 32.1239 43.7208 32.2091 42.2456C32.2091 42.2173 32.2091 42.1946 32.2091 42.1719C32.2317 41.6783 32.2601 41.1903 32.2998 40.7024C32.3282 40.2088 32.3622 39.7209 32.402 39.233C32.697 35.1763 33.1395 31.1594 33.7239 27.1936C33.7693 26.8929 33.8147 26.5979 33.8544 26.2915C31.8062 26.4958 29.7808 26.7454 27.778 27.0518C27.3468 27.1198 26.9213 27.1936 26.5071 27.2617C24.2547 27.6305 22.042 28.0787 19.8463 28.6063C19.4208 28.7141 18.9782 28.8163 18.5471 28.9297C16.4875 29.4403 14.4621 30.0134 12.465 30.6658C12.3855 30.8985 12.3061 31.1197 12.2324 31.3467C11.5969 33.219 11.0466 35.1196 10.587 37.0656C10.4735 37.5025 10.3771 37.9451 10.2863 38.3933C10.2296 38.6599 10.1728 38.9209 10.1218 39.1876C10.1048 39.267 10.0877 39.3521 10.0707 39.4372C10.0197 39.7039 9.96859 39.9705 9.91753 40.2372C9.89483 40.362 9.86647 40.4925 9.84945 40.623C9.79838 40.867 9.75867 41.1052 9.71895 41.3492C9.70193 41.44 9.69058 41.5364 9.67356 41.6329C9.6225 41.9222 9.58279 42.2116 9.5374 42.4953C9.49201 42.8073 9.45229 43.1137 9.40691 43.4201C9.37854 43.63 9.35017 43.8513 9.32747 44.0612C9.29911 44.2824 9.27641 44.498 9.25372 44.7193C9.19698 45.2356 9.14025 45.7462 9.10053 46.2682C9.07216 46.5235 9.04947 46.7845 9.03245 47.0341V47.0512C9.00408 47.4199 8.98139 47.7887 8.95869 48.1575C8.936 48.532 8.91898 48.9008 8.90763 49.2752C8.87359 50.1376 8.85657 50.9886 8.85657 51.8567C8.85657 52.4184 8.86791 52.9801 8.88493 53.5361C8.89628 53.9332 8.90763 54.336 8.93032 54.7275C9.19131 60.7699 10.292 66.574 12.1132 72.066C14.1614 72.7355 16.2493 73.3426 18.3542 73.8645C18.7853 73.9723 19.2165 74.0801 19.6421 74.1766C21.815 74.7156 24.0334 75.1638 26.2745 75.5439L27.5454 75.7482C29.5822 76.0829 31.6417 76.3439 33.7296 76.5481C32.5835 68.8094 31.9651 60.872 31.931 52.8212C31.9197 52.4978 31.9197 52.1801 31.9197 51.8567L31.9367 51.8794ZM26.2291 28.5439C24.6462 35.3125 23.7497 42.3364 23.6249 49.5475C23.6249 49.5986 23.6249 49.6383 23.6136 49.6837C23.6136 49.7291 23.6136 49.7745 23.6136 49.8142C23.6022 50.0638 23.5965 50.3078 23.5965 50.5518C23.5965 50.5801 23.5965 50.6142 23.5965 50.6425V50.7333C23.5852 51.1134 23.5852 51.4936 23.5852 51.8737V52.112C23.5852 52.5092 23.5852 52.912 23.6079 53.3035C23.693 60.5089 24.527 67.5385 26.0248 74.3128C23.9313 73.944 21.8888 73.5128 19.9484 73.0362L19.3981 72.9057C18.1102 66.7385 17.3783 60.3671 17.2818 53.8368C17.2705 53.4283 17.2591 53.0368 17.2591 52.634C17.2478 52.3843 17.2478 52.1234 17.2478 51.8737C17.2478 51.3177 17.2478 50.7617 17.2705 50.2113C17.2705 49.8029 17.2818 49.4 17.3045 49.0085C17.4577 42.4669 18.2464 36.0898 19.5796 29.9169L19.7669 29.8659L20.1413 29.7751C20.5612 29.673 20.981 29.5765 21.4065 29.4857C21.4576 29.4744 21.5087 29.4574 21.5597 29.4517C22.0306 29.3382 22.5015 29.2418 22.9668 29.1396C23.5625 29.0205 24.1469 28.907 24.7426 28.7936C25.2362 28.7028 25.7412 28.6177 26.2404 28.5326L26.2291 28.5439Z" fill="#23D962"/>
<path d="M33.8601 26.2974C31.8119 26.5073 29.7865 26.7512 27.7837 27.0633C27.3525 27.1314 26.927 27.2051 26.5128 27.2732C26.927 27.1995 27.3582 27.1257 27.7837 27.0576C29.7865 26.7456 31.8119 26.5016 33.8601 26.2974Z" fill="#082640"/>
<path d="M72.4348 24.2945C70.3753 23.7102 68.276 23.1882 66.1598 22.7343C65.0421 18.8876 63.7088 15.1374 62.1713 11.4893C63.1585 11.7729 64.1343 12.085 65.0988 12.4311C67.9583 16.0849 70.4207 20.0677 72.4348 24.2945Z" fill="#118C46"/>
<path d="M73.3994 77.3652C71.635 81.4275 69.4676 85.2742 66.9429 88.8486C65.6436 89.3479 64.333 89.8131 62.9998 90.2329C64.4295 86.6245 65.6777 82.9083 66.7046 79.0957C68.9684 78.5964 71.1924 78.0234 73.3994 77.3709V77.3652Z" fill="#118C46"/>
<path d="M59.4424 21.4859C57.6325 21.2249 55.7886 20.9867 53.939 20.8164C53.5362 20.7824 53.1163 20.7427 52.7135 20.7087C52.6397 20.3058 52.5603 19.8973 52.4752 19.5059C51.8057 16.0052 51.0114 12.5614 50.115 9.15723C51.7944 9.31041 53.4511 9.53736 55.0794 9.82671C56.7588 13.5996 58.2226 17.4974 59.4367 21.4859H59.4424Z" fill="#118C46"/>
<path d="M60.0154 80.3667C58.8864 84.3439 57.5134 88.2133 55.9305 91.9805C54.1773 92.3153 52.3958 92.5763 50.5973 92.7521C51.5505 88.9508 52.3731 85.1041 53.0653 81.2121C55.4142 81.0078 57.7347 80.7241 60.0211 80.3667H60.0154Z" fill="#118C46"/>
<path d="M47.664 81.5353C47.2498 85.3933 46.7449 89.24 46.1662 93.0527C45.4399 93.0867 44.7024 93.098 43.9648 93.098C43.1081 93.098 42.2514 93.0867 41.406 93.0413H41.3947C40.8216 89.2287 40.311 85.382 39.9082 81.5239C41.2528 81.5863 42.6145 81.609 43.9705 81.609C45.2073 81.609 46.4499 81.5863 47.6753 81.5353H47.664Z" fill="#118C46"/>
<path d="M47.4655 20.4026C47.0626 20.3912 46.6655 20.3799 46.2627 20.3685C45.5024 20.3572 44.7251 20.3458 43.9648 20.3458C42.6656 20.3458 41.3777 20.3685 40.1068 20.4309C40.5494 16.5729 41.0713 12.7262 41.6784 8.91355C42.4387 8.87951 43.2046 8.86816 43.9648 8.86816C44.606 8.86816 45.2528 8.87951 45.8825 8.9022C46.4442 12.3177 46.9208 15.7502 47.3236 19.2054C47.369 19.6083 47.4201 20.0054 47.4655 20.4082V20.4026Z" fill="#118C46"/>
<path d="M37.4346 9.19727C36.436 12.9986 35.5623 16.8453 34.8361 20.7487C33.0148 20.9019 31.205 21.1061 29.4178 21.3558C28.9752 21.4182 28.5497 21.4863 28.1072 21.5487C28.2377 21.1175 28.3682 20.7033 28.51 20.2891C29.6164 16.7375 30.9383 13.2766 32.4418 9.90646C34.0871 9.61144 35.7552 9.37315 37.4346 9.20294V9.19727Z" fill="#118C46"/>
<path d="M36.9579 92.718C35.148 92.5251 33.3608 92.2528 31.6077 91.9067C30.1893 88.5479 28.9638 85.1041 27.9142 81.5808C27.7837 81.1666 27.6532 80.7354 27.5341 80.3042C27.9653 80.378 28.3908 80.4347 28.822 80.4971C30.7056 80.7808 32.5949 80.9964 34.5012 81.1779C35.1821 85.07 35.999 88.9167 36.9522 92.718H36.9579Z" fill="#118C46"/>
<path d="M24.5271 90.0969C23.1598 89.6657 21.8095 89.1778 20.4875 88.6558C17.9968 85.0928 15.8522 81.2745 14.1161 77.2349C15.9033 77.7852 17.7018 78.2731 19.523 78.71C19.9656 78.8178 20.4024 78.9142 20.845 79.022C20.9641 79.4646 21.0833 79.9015 21.2137 80.3326H21.2251C22.1556 83.6687 23.2619 86.9197 24.5215 90.0969H24.5271Z" fill="#118C46"/>
<path d="M25.3725 11.6025C24.0165 14.8195 22.8137 18.1272 21.7867 21.5143C21.6449 21.9455 21.5258 22.371 21.3953 22.8135C20.9527 22.91 20.5159 23.0178 20.0733 23.1256C18.3939 23.5171 16.7259 23.9596 15.0692 24.4362C17.0606 20.2321 19.5003 16.2662 22.3314 12.6238C23.33 12.255 24.3455 11.9203 25.3668 11.6139L25.3725 11.6025Z" fill="#118C46"/>
</g>
<defs>
<filter id="filter0_d_273_9887" x="0" y="0" width="87.5267" height="102" filterUnits="userSpaceOnUse" color-interpolation-filters="sRGB">
<feFlood flood-opacity="0" result="BackgroundImageFix"/>
<feColorMatrix in="SourceAlpha" type="matrix" values="0 0 0 0 0 0 0 0 0 0 0 0 0 0 0 0 0 0 127 0" result="hardAlpha"/>
<feOffset/>
<feGaussianBlur stdDeviation="2"/>
<feComposite in2="hardAlpha" operator="out"/>
<feColorMatrix type="matrix" values="0 0 0 0 0 0 0 0 0 0 0 0 0 0 0 0 0 0 0.18 0"/>
<feBlend mode="normal" in2="BackgroundImageFix" result="effect1_dropShadow_273_9887"/>
<feBlend mode="normal" in="SourceGraphic" in2="effect1_dropShadow_273_9887" result="shape"/>
</filter>
</defs>
</svg>
