<svg width="24" height="25" viewBox="0 0 24 25" fill="none" xmlns="http://www.w3.org/2000/svg">
<path d="M21.8906 4.0625H2.10938C0.948656 4.0625 0 5.00698 0 6.17188V18.8281C0 19.9934 0.949266 20.9375 2.10938 20.9375H21.8906C23.0513 20.9375 24 19.993 24 18.8281V6.17188C24 5.0067 23.0509 4.0625 21.8906 4.0625ZM21.5667 5.46875C20.8847 6.15298 12.874 14.1898 12.5449 14.52C12.27 14.7957 11.7301 14.7959 11.4551 14.52L2.43328 5.46875H21.5667ZM1.40625 18.5696V6.43039L7.45617 12.5L1.40625 18.5696ZM2.43328 19.5312L8.44894 13.496L10.4592 15.5128C11.283 16.3393 12.7174 16.3389 13.5409 15.5128L15.5511 13.496L21.5667 19.5312H2.43328ZM22.5938 18.5696L16.5438 12.5L22.5938 6.43039V18.5696Z" fill="#706CD9"/>
</svg>
