<svg width="140" height="140" viewBox="0 0 140 140" fill="none" xmlns="http://www.w3.org/2000/svg">
<g id="Frame">
<g id="Group">
<path id="Vector" fill-rule="evenodd" clip-rule="evenodd" d="M72.1875 13.125V4.375C72.1875 3.79484 71.957 3.23844 71.5468 2.8282C71.1366 2.41797 70.5802 2.1875 70 2.1875C69.4198 2.1875 68.8634 2.41797 68.4532 2.8282C68.043 3.23844 67.8125 3.79484 67.8125 4.375V13.125C67.8125 13.7052 68.043 14.2616 68.4532 14.6718C68.8634 15.082 69.4198 15.3125 70 15.3125C70.5802 15.3125 71.1366 15.082 71.5468 14.6718C71.957 14.2616 72.1875 13.7052 72.1875 13.125Z" fill="#024978"/>
<path id="Vector_2" d="M78.75 126.875C78.75 131.688 74.8125 135.625 70 135.625C65.1875 135.625 61.25 131.688 61.25 126.875L70 124.688L78.75 126.875Z" fill="#024978"/>
<path id="Vector_3" d="M67.8125 125.234L70 124.688L78.75 126.875C78.75 131.688 74.8125 135.625 70 135.625C69.2453 135.625 68.5125 135.529 67.8125 135.347C71.575 134.369 74.375 130.933 74.375 126.875L67.8125 125.234Z" fill="#024978"/>
<path id="Vector_4" d="M126.875 118.125C121.188 112.438 118.125 105 118.125 96.9062V61.25C118.125 34.5625 96.6875 13.125 70 13.125C43.3125 13.125 21.875 34.5625 21.875 61.25V96.9062C21.875 104.781 18.8125 112.438 13.125 118.125L70 120.312L126.875 118.125Z" fill="#FFE077"/>
<path id="Vector_5" d="M84.7919 15.418C125.086 129.35 64.4109 100.221 17.6903 112.243C16.4215 114.388 14.8877 116.364 13.125 118.125L70 120.313L126.875 118.125C121.188 112.438 118.125 105 118.125 96.9067V61.2505C118.155 51.0615 114.941 41.1276 108.948 32.8874C102.955 24.6473 94.4944 18.5287 84.7919 15.418Z" fill="#FFD012"/>
<g id="Group_2">
<path id="Vector_6" fill-rule="evenodd" clip-rule="evenodd" d="M101.126 16.2335C110.883 23.0012 118.189 32.7426 121.955 44.0038C122.155 44.5333 122.552 44.9649 123.063 45.2081C123.574 45.4513 124.159 45.4874 124.696 45.3086C125.233 45.1298 125.68 44.7501 125.943 44.2492C126.206 43.7482 126.265 43.1648 126.107 42.6213C122.044 30.464 114.157 19.9473 103.624 12.6417C103.148 12.3104 102.559 12.1819 101.988 12.2845C101.417 12.387 100.91 12.7122 100.579 13.1885C100.248 13.6648 100.119 14.2532 100.222 14.8243C100.324 15.3953 100.65 15.9023 101.126 16.2335ZM17.2069 47.1582C20.5718 34.6222 28.2445 23.6719 38.8784 16.2292C39.1137 16.0646 39.3143 15.8552 39.4686 15.6131C39.623 15.371 39.7282 15.1009 39.7781 14.8181C39.8281 14.5354 39.8219 14.2455 39.7599 13.9652C39.6978 13.6848 39.5812 13.4194 39.4166 13.1842C39.252 12.9489 39.0426 12.7483 38.8005 12.594C38.5584 12.4396 38.2883 12.3344 38.0055 12.2845C37.7228 12.2345 37.4329 12.2407 37.1526 12.3027C36.8722 12.3648 36.6068 12.4814 36.3716 12.646C24.8929 20.6784 16.6112 32.4981 12.9806 46.0295C12.8419 46.5863 12.9274 47.1753 13.2189 47.6696C13.5103 48.1639 13.9844 48.5238 14.5387 48.6719C15.0931 48.82 15.6835 48.7443 16.1826 48.4611C16.6817 48.178 17.0496 47.7101 17.2069 47.1582Z" fill="#DBD8DB"/>
<path id="Vector_7" fill-rule="evenodd" clip-rule="evenodd" d="M106.155 9.01264C117.423 16.88 125.876 28.1502 130.272 41.1711C130.464 41.7138 130.861 42.1593 131.379 42.4109C131.896 42.6625 132.492 42.7 133.037 42.5152C133.582 42.3305 134.033 41.9384 134.291 41.4239C134.549 40.9094 134.593 40.314 134.415 39.7667C129.719 25.8615 120.692 13.8262 108.658 5.42514C108.422 5.2538 108.155 5.13113 107.872 5.06431C107.589 4.99748 107.295 4.98785 107.008 5.03597C106.721 5.08409 106.446 5.189 106.2 5.34455C105.954 5.5001 105.742 5.70316 105.576 5.94185C105.409 6.18054 105.292 6.45005 105.231 6.7346C105.17 7.01915 105.166 7.31301 105.22 7.59899C105.274 7.88496 105.385 8.15729 105.545 8.40003C105.706 8.64277 105.913 8.85104 106.155 9.01264ZM8.67344 44.9795C12.6919 30.1767 21.5709 17.697 33.8363 9.23795C34.3093 8.90663 34.6322 8.40167 34.7344 7.83322C34.8366 7.26477 34.7098 6.67897 34.3818 6.20362C34.0537 5.72828 33.551 5.40197 32.9832 5.29587C32.4155 5.18978 31.8288 5.31253 31.3512 5.63732C18.2416 14.6783 8.74562 28.0111 4.45156 43.8333C4.37255 44.1116 4.34955 44.4029 4.38391 44.6903C4.41826 44.9776 4.50929 45.2552 4.6517 45.5071C4.79412 45.759 4.9851 45.9802 5.21358 46.1578C5.44207 46.3353 5.70351 46.4658 5.98278 46.5416C6.26204 46.6174 6.55357 46.6371 6.84049 46.5995C7.1274 46.5618 7.404 46.4676 7.65425 46.3223C7.90451 46.177 8.12345 45.9836 8.2984 45.753C8.47334 45.5225 8.60082 45.2596 8.67344 44.9795Z" fill="#DBD8DB"/>
</g>
<path id="Vector_8" d="M131.25 118.125H8.75C6.34375 118.125 4.375 120.094 4.375 122.5C4.375 124.906 6.34375 126.875 8.75 126.875H131.25C133.656 126.875 135.625 124.906 135.625 122.5C135.625 120.094 133.656 118.125 131.25 118.125Z" fill="#FFE077"/>
<path id="Vector_9" d="M130.659 118.125C131.036 118.77 131.25 119.516 131.25 120.312C131.25 122.719 129.281 124.688 126.875 124.688H4.96562C5.72468 125.993 7.14 126.875 8.75 126.875H131.25C133.656 126.875 135.625 124.906 135.625 122.5C135.625 120.094 133.656 118.125 131.25 118.125H130.659Z" fill="#FFD012"/>
</g>
</g>
</svg>
