<svg width="160" height="160" viewBox="0 0 160 160" fill="none" xmlns="http://www.w3.org/2000/svg">
<g id="Group">
<path id="Vector" d="M159.769 156.742L136.712 100.928C136.537 100.5 136.238 100.133 135.854 99.8755C135.47 99.6175 135.018 99.4794 134.556 99.4785H25.3927C24.9301 99.4794 24.4782 99.6175 24.0943 99.8755C23.7104 100.133 23.4117 100.5 23.2361 100.928L0.179539 156.742C0.031632 157.1 -0.0262526 157.489 0.0109592 157.874C0.0481709 158.259 0.179343 158.63 0.392976 158.953C0.605098 159.274 0.893636 159.538 1.23278 159.721C1.57193 159.904 1.95111 160 2.33641 160H157.612C157.997 160 158.376 159.904 158.716 159.721C159.055 159.538 159.343 159.274 159.555 158.953C159.769 158.63 159.9 158.259 159.937 157.874C159.974 157.489 159.916 157.1 159.769 156.742Z" fill="#A8EEFC"/>
<path id="Vector_2" d="M150.175 160H157.612C157.997 160 158.376 159.904 158.716 159.721C159.055 159.538 159.343 159.274 159.556 158.953C159.769 158.63 159.9 158.259 159.937 157.874C159.975 157.489 159.917 157.1 159.769 156.742L136.713 100.928C136.537 100.5 136.238 100.133 135.855 99.8755C135.471 99.6175 135.019 99.4794 134.556 99.4785H125.174L150.175 160Z" fill="#7EE5F2"/>
<path id="Vector_3" d="M38.4635 120.528L46.4195 99.4258H25.2448C24.7822 99.4266 24.3304 99.5648 23.9464 99.8228C23.5625 100.081 23.2638 100.447 23.0882 100.875L14.9695 120.528H38.4635ZM134.408 99.4258H60.8842L82.3289 118.125H143.691L136.565 100.875C136.389 100.447 136.09 100.081 135.706 99.8231C135.322 99.5651 134.871 99.4268 134.408 99.4258Z" fill="#4CE166"/>
<path id="Vector_4" d="M150.781 135.29L143.691 118.125H82.3286L60.8842 99.4258H44.668L36.9054 118.121H15.9645L11.2608 129.507L8.87201 135.29H29.8351L19.6498 159.948H38.7058L55.0651 119.893L102.242 159.948H130.095L101.9 135.29H150.781Z" fill="#FFDB56"/>
<path id="Vector_5" d="M79.8264 0C52.0039 0 29.3689 22.8053 29.3689 50.8369C29.3689 60.5006 31.9789 70.7534 37.1273 81.3103C41.2011 89.6647 46.8695 98.2356 53.9742 106.785C66.028 121.29 77.897 130.602 78.3967 130.992C78.8051 131.311 79.3083 131.484 79.8264 131.484C80.3445 131.484 80.8477 131.311 81.2561 130.992C81.7555 130.602 93.6245 121.29 105.679 106.785C112.784 98.2356 118.452 89.6647 122.525 81.3103C127.674 70.7531 130.284 60.5006 130.284 50.8369C130.284 22.8053 107.649 0 79.8264 0ZM79.8264 31.4994C90.4264 31.4994 99.0195 40.1572 99.0195 50.8369C99.0195 61.5166 90.4264 70.1744 79.8264 70.1744C69.2264 70.1744 60.6333 61.5166 60.6333 50.8369C60.6333 40.1572 69.2264 31.4994 79.8264 31.4994Z" fill="#FF4A4A"/>
<path id="Vector_6" d="M79.8264 0C78.1661 0 76.5245 0.08375 74.9048 0.242187C100.426 2.74281 120.441 24.4781 120.441 50.8369C120.441 60.5006 117.831 70.7534 112.682 81.3103C108.609 89.6647 102.94 98.2356 95.8355 106.785C87.5686 116.733 79.3898 124.237 74.9048 128.097C76.9595 129.865 78.2398 130.869 78.3964 130.992C78.8048 131.31 79.308 131.484 79.8261 131.484C80.3442 131.484 80.8474 131.31 81.2558 130.992C81.7552 130.602 93.6242 121.29 105.678 106.785C112.783 98.2353 118.452 89.6644 122.525 81.31C127.674 70.7528 130.284 60.5003 130.284 50.8366C130.284 22.8053 107.649 0 79.8264 0Z" fill="#E7343F"/>
<path id="Vector_7" d="M38.7058 159.948H102.242L55.0652 119.894L38.7058 159.948Z" fill="#4CE166"/>
<path id="Vector_8" d="M132.75 118.126L139.841 135.29H150.781L143.691 118.126H132.75Z" fill="#FFBB24"/>
<path id="Vector_9" d="M132.751 118.125H143.691L136.565 100.875C136.389 100.447 136.091 100.081 135.707 99.8228C135.323 99.5648 134.871 99.4266 134.408 99.4258H125.026L132.751 118.125Z" fill="#44C868"/>
</g>
</svg>
