<svg width="240" height="218" viewBox="0 0 240 218" fill="none" xmlns="http://www.w3.org/2000/svg">
<g id="404 2" clip-path="url(#clip0_435_18582)">
<g id="Objects">
<g id="Objects 1">
<path id="Vector" d="M120.595 217.857C175.262 217.857 219.578 173.541 219.578 118.874C219.578 64.2069 175.262 19.8906 120.595 19.8906C65.928 19.8906 21.6117 64.2069 21.6117 118.874C21.6117 173.541 65.928 217.857 120.595 217.857Z" fill="#F5F9FB"/>
<g id="Group">
<g id="Group_2">
<g id="Group_3">
<path id="Vector_2" d="M158.042 123.619H154.06V131.187H158.042V123.619Z" fill="#EDF3F9"/>
<path id="Vector_3" d="M158.042 132.092H154.06C153.561 132.092 153.155 131.688 153.155 131.186V123.618C153.155 123.12 153.561 122.713 154.06 122.713H158.042C158.544 122.713 158.948 123.12 158.948 123.618V131.186C158.948 131.688 158.544 132.092 158.042 132.092ZM154.966 130.281H157.136V124.524H154.966V130.281Z" fill="#024978"/>
</g>
<g id="Group_4">
<path id="Vector_4" d="M156.053 125.809C152.425 125.809 149.482 122.866 149.482 119.239V117.645C149.482 114.017 152.425 111.074 156.053 111.074C159.68 111.074 162.623 114.017 162.623 117.645V119.239C162.623 122.866 159.68 125.809 156.053 125.809Z" fill="#FDF0AB"/>
<path id="Vector_5" d="M155.139 114.723C153.375 114.79 151.402 114.944 149.775 115.693C149.582 116.309 149.479 116.964 149.479 117.644V119.237C149.479 122.865 152.422 125.808 156.05 125.808C159.678 125.808 162.62 122.865 162.62 119.237V117.644C162.62 116.905 162.498 116.197 162.272 115.537C160.009 114.768 157.549 114.651 155.133 114.723H155.139Z" fill="#FAD100"/>
<path id="Vector_6" d="M156.131 121.239C158.151 121.239 159.789 119.601 159.789 117.58C159.789 115.56 158.151 113.922 156.131 113.922C154.11 113.922 152.472 115.56 152.472 117.58C152.472 119.601 154.11 121.239 156.131 121.239Z" fill="#D71004"/>
<path id="Vector_7" d="M156.131 113.921C154.704 113.921 153.467 114.74 152.865 115.93C153.573 115.007 154.715 114.442 156 114.72C155.353 114.935 155.676 115.581 155.785 115.69C156.431 116.551 157.292 115.367 157.939 115.258C158.335 115.133 158.68 115.166 158.992 115.297C158.321 114.456 157.29 113.918 156.131 113.918V113.921Z" fill="#024978"/>
<path id="Vector_8" d="M155.771 115.579C156.299 115.579 156.727 115.304 156.727 114.963C156.727 114.623 156.299 114.348 155.771 114.348C155.243 114.348 154.815 114.623 154.815 114.963C154.815 115.304 155.243 115.579 155.771 115.579Z" fill="white"/>
<path id="Vector_9" d="M160.842 115.8C157.722 117.308 153.846 117.413 150.616 115.909C150.346 115.755 150.106 115.547 149.911 115.301C149.633 116.029 149.479 116.82 149.479 117.645V119.239C149.479 122.867 152.422 125.809 156.05 125.809C159.678 125.809 162.62 122.867 162.62 119.239V117.645C162.62 116.647 162.397 115.703 161.999 114.855C161.673 115.237 161.288 115.56 160.84 115.8H160.842Z" fill="#FCE46B"/>
<path id="Vector_10" d="M151.586 117.416C153.846 116.555 156.537 117.848 159.015 116.984C159.717 116.725 160.294 116.312 160.803 115.819C157.688 117.307 153.835 117.407 150.619 115.908C150.349 115.755 150.109 115.546 149.914 115.301C149.635 116.028 149.482 116.819 149.482 117.644V119.238C149.482 120.378 149.772 121.448 150.282 122.381C149.752 120.392 149.975 118.059 151.586 117.413V117.416Z" fill="#FEF3BD"/>
<path id="Vector_11" d="M151.374 120.077C151.037 120.024 150.833 119.558 150.917 119.037C151.001 118.516 151.341 118.137 151.678 118.193C152.015 118.249 152.218 118.711 152.135 119.232C152.051 119.753 151.711 120.132 151.374 120.077Z" fill="#FEF3BD"/>
<path id="Vector_12" d="M162.06 114.986C162.394 117.363 161.6 119.935 159.552 121.183C156.699 122.905 153.305 123.165 150.234 122.292C151.335 124.385 153.525 125.812 156.053 125.812C159.68 125.812 162.623 122.869 162.623 119.241V117.647C162.623 116.7 162.42 115.803 162.057 114.989L162.06 114.986Z" fill="#FAD100"/>
<path id="Vector_13" d="M156.053 126.714C151.929 126.714 148.576 123.359 148.576 119.238V117.644C148.576 113.52 151.931 110.168 156.053 110.168C160.174 110.168 163.529 113.523 163.529 117.644V119.238C163.529 123.362 160.174 126.714 156.053 126.714ZM156.053 111.979C152.929 111.979 150.388 114.52 150.388 117.644V119.238C150.388 122.361 152.929 124.903 156.053 124.903C159.176 124.903 161.717 122.361 161.717 119.238V117.644C161.717 114.52 159.176 111.979 156.053 111.979Z" fill="#024978"/>
</g>
</g>
<g id="Group_5">
<g id="Group_6">
<path id="Vector_14" d="M89.9411 134.213H81.0663V215.494H89.9411V134.213Z" fill="#EDF3F9"/>
<path id="Vector_15" d="M89.9411 156.243V134.213H81.0663V156.268C84.0283 156.234 86.9819 156.268 89.9411 156.243Z" fill="#C9DAEC"/>
<path id="Vector_16" d="M81.0663 200.494V205.175C84.0339 205.273 86.9875 205.253 89.9411 205.161V200.564C86.9764 200.608 84.0144 200.594 81.0663 200.494Z" fill="#C9DAEC"/>
<path id="Vector_17" d="M89.9411 216.399H81.0663C80.5675 216.399 80.1607 215.992 80.1607 215.493V134.212C80.1607 133.711 80.5675 133.307 81.0663 133.307H89.9411C90.4427 133.307 90.8467 133.711 90.8467 134.212V215.493C90.8467 215.992 90.4427 216.399 89.9411 216.399ZM81.9719 214.587H89.0355V135.118H81.9719V214.587Z" fill="#024978"/>
</g>
<g id="Group_7">
<path id="Vector_18" d="M160.388 134.213H151.513V215.494H160.388V134.213Z" fill="#EDF3F9"/>
<path id="Vector_19" d="M160.388 156.243V134.213H151.513V156.268C154.475 156.234 157.429 156.268 160.388 156.243Z" fill="#C9DAEC"/>
<path id="Vector_20" d="M151.513 200.494V205.175C154.481 205.273 157.435 205.253 160.388 205.161V200.564C157.423 200.608 154.461 200.594 151.513 200.494Z" fill="#C9DAEC"/>
<path id="Vector_21" d="M160.388 216.399H151.513C151.015 216.399 150.608 215.992 150.608 215.493V134.212C150.608 133.711 151.015 133.307 151.513 133.307H160.388C160.887 133.307 161.294 133.711 161.294 134.212V215.493C161.294 215.992 160.887 216.399 160.388 216.399ZM152.419 214.587H159.483V135.118H152.419V214.587Z" fill="#024978"/>
</g>
</g>
<g id="Group_8">
<g id="Group_9">
<path id="Vector_22" d="M87.4445 123.619H83.4626V131.187H87.4445V123.619Z" fill="#EDF3F9"/>
<path id="Vector_23" d="M87.4445 132.092H83.4626C82.9639 132.092 82.557 131.688 82.557 131.186V123.618C82.557 123.12 82.9639 122.713 83.4626 122.713H87.4445C87.9433 122.713 88.3501 123.12 88.3501 123.618V131.186C88.3501 131.688 87.9433 132.092 87.4445 132.092ZM84.3682 130.281H86.5389V124.524H84.3682V130.281Z" fill="#024978"/>
</g>
<g id="Group_10">
<path id="Vector_24" d="M85.4522 125.809C81.8242 125.809 78.8817 122.866 78.8817 119.239V117.645C78.8817 114.017 81.8242 111.074 85.4522 111.074C89.0801 111.074 92.0226 114.017 92.0226 117.645V119.239C92.0226 122.866 89.0801 125.809 85.4522 125.809Z" fill="#FDF0AB"/>
<path id="Vector_25" d="M84.5382 114.723C82.7744 114.79 80.8016 114.944 79.1743 115.693C78.982 116.309 78.8789 116.964 78.8789 117.644V119.237C78.8789 122.865 81.8214 125.808 85.4494 125.808C89.0773 125.808 92.0198 122.865 92.0198 119.237V117.644C92.0198 116.905 91.8972 116.197 91.6715 115.537C89.4089 114.768 86.9485 114.651 84.5326 114.723H84.5382Z" fill="#FAD100"/>
<path id="Vector_26" d="M85.5302 121.239C87.5508 121.239 89.1888 119.601 89.1888 117.58C89.1888 115.56 87.5508 113.922 85.5302 113.922C83.5096 113.922 81.8716 115.56 81.8716 117.58C81.8716 119.601 83.5096 121.239 85.5302 121.239Z" fill="#D71004"/>
<path id="Vector_27" d="M85.5302 113.921C84.1035 113.921 82.8663 114.74 82.2645 115.93C82.9722 115.007 84.1147 114.442 85.3992 114.72C84.7528 114.935 85.076 115.581 85.1847 115.69C85.8311 116.551 86.6921 115.367 87.3386 115.258C87.7343 115.133 88.0798 115.166 88.3919 115.297C87.7203 114.456 86.6894 113.918 85.5302 113.918V113.921Z" fill="#024978"/>
<path id="Vector_28" d="M86.1265 114.963C86.1265 115.303 85.7001 115.579 85.1707 115.579C84.6413 115.579 84.215 115.303 84.215 114.963C84.215 114.624 84.6413 114.348 85.1707 114.348C85.7001 114.348 86.1265 114.624 86.1265 114.963Z" fill="white"/>
<path id="Vector_29" d="M90.2449 115.8C87.124 117.308 83.2481 117.413 80.0186 115.909C79.7483 115.755 79.5087 115.547 79.3136 115.301C79.035 116.029 78.8817 116.82 78.8817 117.645V119.239C78.8817 122.867 81.8242 125.809 85.4522 125.809C89.0801 125.809 92.0226 122.867 92.0226 119.239V117.645C92.0226 116.647 91.7997 115.703 91.4012 114.855C91.0752 115.237 90.6907 115.56 90.2421 115.8H90.2449Z" fill="#FCE46B"/>
<path id="Vector_30" d="M80.9855 117.416C83.2453 116.555 85.937 117.848 88.4142 116.984C89.1164 116.725 89.6932 116.312 90.2031 115.819C87.0878 117.307 83.2342 117.407 80.0186 115.908C79.7483 115.755 79.5087 115.546 79.3136 115.301C79.035 116.028 78.8817 116.819 78.8817 117.644V119.238C78.8817 120.378 79.1715 121.448 79.6814 122.381C79.152 120.392 79.3749 118.059 80.9855 117.413V117.416Z" fill="#FEF3BD"/>
<path id="Vector_31" d="M80.7737 120.077C80.4365 120.024 80.2331 119.558 80.3167 119.037C80.4003 118.516 80.7403 118.137 81.0774 118.193C81.4146 118.246 81.618 118.711 81.5344 119.232C81.4508 119.753 81.1109 120.132 80.7737 120.077Z" fill="#FEF3BD"/>
<path id="Vector_32" d="M91.4597 114.986C91.7941 117.363 91 119.935 88.9519 121.183C86.0986 122.905 82.7047 123.165 79.634 122.292C80.7347 124.385 82.9248 125.812 85.4521 125.812C89.0801 125.812 92.0226 122.869 92.0226 119.241V117.647C92.0226 116.7 91.8192 115.803 91.457 114.989L91.4597 114.986Z" fill="#FAD100"/>
<path id="Vector_33" d="M85.4522 126.714C81.3282 126.714 77.9761 123.359 77.9761 119.238V117.644C77.9761 113.52 81.331 110.168 85.4522 110.168C89.5733 110.168 92.9282 113.523 92.9282 117.644V119.238C92.9282 123.362 89.5733 126.714 85.4522 126.714ZM85.4522 111.979C82.3285 111.979 79.7873 114.52 79.7873 117.644V119.238C79.7873 122.361 82.3285 124.903 85.4522 124.903C88.5758 124.903 91.117 122.361 91.117 119.238V117.644C91.117 114.52 88.5758 111.979 85.4522 111.979Z" fill="#024978"/>
</g>
</g>
<g id="Group_11">
<path id="Vector_34" d="M172.813 131.41H68.6415V152.356H172.813V131.41Z" fill="#EDF3F9"/>
<path id="Vector_35" d="M172.813 150.451H68.6415V152.354H172.813V150.451Z" fill="#C9DAEC"/>
<path id="Vector_36" d="M172.813 132.031H68.6415V133.934H172.813V132.031Z" fill="white"/>
<path id="Vector_37" d="M78.3328 131.41L68.6415 141.101V152.356H71.1103L92.056 131.41H78.3328Z" fill="#FB6900"/>
<path id="Vector_38" d="M100.978 131.41L80.0325 152.356H93.7558L114.704 131.41H100.978Z" fill="#FB6900"/>
<path id="Vector_39" d="M122.977 131.41L102.032 152.356H115.755L136.701 131.41H122.977Z" fill="#FB6900"/>
<path id="Vector_40" d="M145.623 131.41L124.677 152.356H138.403L159.349 131.41H145.623Z" fill="#FB6900"/>
<path id="Vector_41" d="M172.813 131.41H170.21L149.262 152.356H162.988L172.813 142.534V131.41Z" fill="#FB6900"/>
<g id="Group_12">
<path id="Vector_42" d="M100.357 132.031L98.4537 133.934H112.18L114.083 132.031H100.357Z" fill="#FB6900"/>
<path id="Vector_43" d="M122.356 132.031L120.453 133.934H134.179L136.082 132.031H122.356Z" fill="#FB6900"/>
<path id="Vector_44" d="M145.001 132.031L143.098 133.934H156.824L158.727 132.031H145.001Z" fill="#FB6900"/>
<path id="Vector_45" d="M167.686 133.934H172.813V132.031H169.589L167.686 133.934Z" fill="#FB6900"/>
<path id="Vector_46" d="M77.7114 132.031L75.8082 133.934H89.5343L91.4347 132.031H77.7114Z" fill="#FB6900"/>
</g>
<path id="Vector_47" d="M172.813 153.261H68.6415C68.1427 153.261 67.7359 152.854 67.7359 152.355V131.41C67.7359 130.908 68.1427 130.504 68.6415 130.504H172.813C173.312 130.504 173.719 130.908 173.719 131.41V152.355C173.719 152.854 173.312 153.261 172.813 153.261ZM69.5471 151.45H171.907V132.315H69.5471V151.45Z" fill="#024978"/>
</g>
<g id="Group_13">
<path id="Vector_48" d="M172.813 186.816H68.6415V201.1H172.813V186.816Z" fill="#EDF3F9"/>
<path id="Vector_49" d="M172.813 198.637H68.6415V200.54H172.813V198.637Z" fill="#C9DAEC"/>
<path id="Vector_50" d="M172.813 187.436H68.6415V189.339H172.813V187.436Z" fill="white"/>
<path id="Vector_51" d="M78.3328 186.816L68.6443 196.505V200.924C71.8431 201.169 74.9667 201.05 78.0792 200.796L92.0616 186.816H78.3355H78.3328Z" fill="#FB6900"/>
<path id="Vector_52" d="M100.978 186.816L86.7088 201.086C91.2758 200.927 95.7732 201.066 100.326 201.194L114.704 186.816H100.978Z" fill="#FB6900"/>
<path id="Vector_53" d="M122.977 186.816L108.585 201.208C113.177 201.451 117.694 201.239 122.275 201.245L136.703 186.816H122.977Z" fill="#FB6900"/>
<path id="Vector_54" d="M145.623 186.816L131.459 200.98C135.934 200.999 140.409 201.479 144.887 201.278L159.349 186.816H145.623Z" fill="#FB6900"/>
<path id="Vector_55" d="M172.813 186.816H170.21L155.774 201.253C160.31 201.208 164.847 201.356 169.383 201.37L172.813 197.94V186.816Z" fill="#FB6900"/>
<g id="Group_14">
<path id="Vector_56" d="M100.357 187.436L98.4537 189.339H112.18L114.083 187.436H100.357Z" fill="#FB6900"/>
<path id="Vector_57" d="M122.356 187.436L120.453 189.339H134.179L136.082 187.436H122.356Z" fill="#FB6900"/>
<path id="Vector_58" d="M145.001 187.436L143.098 189.339H156.824L158.727 187.436H145.001Z" fill="#FB6900"/>
<path id="Vector_59" d="M167.686 189.339H172.813V187.436H169.589L167.686 189.339Z" fill="#FB6900"/>
<path id="Vector_60" d="M77.7114 187.436L75.8082 189.339H89.5343L91.4347 187.436H77.7114Z" fill="#FB6900"/>
</g>
<path id="Vector_61" d="M172.813 202.003H68.6415C68.1427 202.003 67.7359 201.596 67.7359 201.097V186.814C67.7359 186.315 68.1427 185.908 68.6415 185.908H172.813C173.312 185.908 173.719 186.315 173.719 186.814V201.097C173.719 201.596 173.312 202.003 172.813 202.003ZM69.5471 200.192H171.907V187.719H69.5471V200.192Z" fill="#024978"/>
</g>
<g id="Group_15">
<path id="Vector_62" d="M86.3912 96.4512H84.5159V105.29H86.3912V96.4512Z" fill="#024978"/>
<path id="Vector_63" d="M99.6877 102.896L98.3617 101.57L92.1118 107.82L93.4378 109.146L99.6877 102.896Z" fill="#024978"/>
<path id="Vector_64" d="M77.4677 109.146L78.7938 107.82L72.5439 101.57L71.2179 102.896L77.4677 109.146Z" fill="#024978"/>
</g>
<g id="Group_16">
<path id="Vector_65" d="M157.382 96.4512H155.506V105.29H157.382V96.4512Z" fill="#024978"/>
<path id="Vector_66" d="M170.678 102.896L169.352 101.57L163.102 107.82L164.428 109.146L170.678 102.896Z" fill="#024978"/>
<path id="Vector_67" d="M148.458 109.146L149.784 107.82L143.535 101.57L142.208 102.896L148.458 109.146Z" fill="#024978"/>
</g>
</g>
<g id="Group_17">
<g id="Group_18">
<path id="Vector_68" d="M220.927 198.215H189.713L202.472 149.443H208.168L220.927 198.215Z" fill="#FB6900"/>
<path id="Vector_69" d="M213.456 169.662L208.168 149.443H202.469L191.44 191.602C193.104 191.076 194.728 190.374 196.283 189.487C204.133 185.11 210.511 177.918 213.456 169.662Z" fill="#F18436"/>
<path id="Vector_70" d="M202.907 153.071C204.186 150.773 206.292 150.544 208.555 150.912L208.17 149.443H202.472L199.987 158.945C200.633 158.009 201.271 157.064 201.842 156.028C202.316 155.083 202.316 154.019 202.907 153.071Z" fill="#FB6900"/>
<path id="Vector_71" d="M213.256 169.198H197.364L197.919 166.551H212.704L213.256 169.198Z" fill="white"/>
<path id="Vector_72" d="M214.512 173.616H196.108L196.749 170.551H213.874L214.512 173.616Z" fill="white"/>
<path id="Vector_73" d="M214.512 173.613H211.748C212.261 172.613 212.721 171.59 213.125 170.551H213.874L214.515 173.613H214.512Z" fill="#FB6900"/>
<path id="Vector_74" d="M220.927 199.12H189.713C189.431 199.12 189.167 198.989 188.997 198.769C188.824 198.546 188.765 198.259 188.838 197.986L201.594 149.214C201.697 148.816 202.06 148.537 202.469 148.537H208.168C208.58 148.537 208.939 148.816 209.042 149.214L221.799 197.986C221.869 198.256 221.81 198.546 221.64 198.769C221.47 198.991 221.203 199.12 220.924 199.12H220.927ZM190.886 197.308H219.754L207.471 150.348H203.171L190.889 197.308H190.886Z" fill="#024978"/>
</g>
<g id="Group_19">
<path id="Vector_75" d="M220.567 194.857H190.072C188.566 194.857 187.344 196.079 187.344 197.585V197.995C187.344 199.502 188.566 200.723 190.072 200.723H220.567C222.074 200.723 223.295 199.502 223.295 197.995V197.585C223.295 196.079 222.074 194.857 220.567 194.857Z" fill="#FB6900"/>
<path id="Vector_76" d="M220.567 201.628H190.072C188.069 201.628 186.439 199.998 186.439 197.994V197.585C186.439 195.581 188.069 193.951 190.072 193.951H220.567C222.571 193.951 224.201 195.581 224.201 197.585V197.994C224.201 199.998 222.571 201.628 220.567 201.628ZM190.072 195.762C189.066 195.762 188.25 196.579 188.25 197.585V197.994C188.25 199 189.066 199.817 190.072 199.817H220.567C221.573 199.817 222.39 199 222.39 197.994V197.585C222.39 196.579 221.573 195.762 220.567 195.762H190.072Z" fill="#024978"/>
</g>
<path id="Vector_77" d="M204.782 154.433C204.456 155.748 203.656 156.682 202.993 156.517C202.33 156.353 202.057 155.155 202.38 153.839C202.706 152.524 203.506 151.591 204.169 151.755C204.832 151.92 205.105 153.118 204.782 154.433Z" fill="#FB6900"/>
</g>
<g id="Group_20">
<g id="Group_21">
<path id="Vector_78" d="M53.1655 198.215H21.9517L34.708 149.443H40.4063L53.1655 198.215Z" fill="#FB6900"/>
<path id="Vector_79" d="M45.695 169.662L40.4063 149.443H34.708L23.6793 191.602C25.3428 191.076 26.9673 190.374 28.5221 189.487C36.3716 185.11 42.7497 177.918 45.695 169.662Z" fill="#F18436"/>
<path id="Vector_80" d="M35.1427 153.071C36.4217 150.773 38.5283 150.544 40.7909 150.912L40.4063 149.443H34.7081L32.2225 158.945C32.869 158.009 33.5071 157.064 34.0783 156.028C34.552 155.083 34.552 154.019 35.1427 153.071Z" fill="#FB6900"/>
<path id="Vector_81" d="M45.4944 169.198H29.6033L30.155 166.551H44.9427L45.4944 169.198Z" fill="white"/>
<path id="Vector_82" d="M46.7511 173.616H28.3466L28.9875 170.551H46.1102L46.7511 173.616Z" fill="white"/>
<path id="Vector_83" d="M46.7511 173.613H43.9869C44.4996 172.613 44.9594 171.59 45.3634 170.551H46.113L46.7539 173.613H46.7511Z" fill="#FB6900"/>
<path id="Vector_84" d="M53.1655 199.12H21.9517C21.6702 199.12 21.4055 198.989 21.2355 198.769C21.0656 198.548 21.0043 198.259 21.0767 197.986L33.8331 149.214C33.9362 148.816 34.2984 148.537 34.708 148.537H40.4063C40.8187 148.537 41.1782 148.816 41.2813 149.214L54.0377 197.986C54.1073 198.256 54.0488 198.546 53.8788 198.769C53.7089 198.991 53.4414 199.12 53.1627 199.12H53.1655ZM23.1248 197.308H51.9924L39.7097 150.348H35.4102L23.1275 197.308H23.1248Z" fill="#024978"/>
</g>
<g id="Group_22">
<path id="Vector_85" d="M52.8061 194.857H22.3111C20.8045 194.857 19.5832 196.079 19.5832 197.585V197.995C19.5832 199.502 20.8045 200.723 22.3111 200.723H52.8061C54.3127 200.723 55.534 199.502 55.534 197.995V197.585C55.534 196.079 54.3127 194.857 52.8061 194.857Z" fill="#FB6900"/>
<path id="Vector_86" d="M52.8061 201.628H22.3111C20.3077 201.628 18.6776 199.998 18.6776 197.994V197.585C18.6776 195.581 20.3077 193.951 22.3111 193.951H52.8061C54.8095 193.951 56.4396 195.581 56.4396 197.585V197.994C56.4396 199.998 54.8095 201.628 52.8061 201.628ZM22.3111 195.762C21.3052 195.762 20.4888 196.579 20.4888 197.585V197.994C20.4888 199 21.3052 199.817 22.3111 199.817H52.8061C53.812 199.817 54.6284 199 54.6284 197.994V197.585C54.6284 196.579 53.812 195.762 52.8061 195.762H22.3111Z" fill="#024978"/>
</g>
<path id="Vector_87" d="M37.0208 154.433C36.6948 155.748 35.8951 156.682 35.2319 156.517C34.5687 156.353 34.2956 155.155 34.6189 153.839C34.9449 152.524 35.7446 151.591 36.4078 151.755C37.071 151.92 37.344 153.118 37.0208 154.433Z" fill="#FB6900"/>
</g>
<g id="Group_23">
<path id="Vector_88" d="M185.815 59.5416C185.079 62.5789 186.943 65.6356 189.978 66.374C191.541 66.753 193.11 66.4409 194.366 65.6356C194.809 69.1855 197.39 72.259 201.07 73.1507C204.136 73.8946 207.215 72.9445 209.327 70.902C209.828 71.1305 210.36 71.3144 210.915 71.4509C215.671 72.6045 220.461 69.6843 221.615 64.9278C222.769 60.1714 219.848 55.3815 215.092 54.2279C213.044 53.7319 210.99 53.991 209.224 54.8242C208.209 52.216 205.977 50.1318 203.052 49.4212C198.499 48.3178 193.912 50.9482 192.519 55.348C189.523 54.6904 186.536 56.5434 185.812 59.5388L185.815 59.5416Z" fill="white"/>
<path id="Vector_89" d="M203.18 74.309C202.408 74.309 201.631 74.217 200.859 74.0303C197.351 73.1805 194.603 70.4247 193.706 66.9862C192.46 67.4794 191.098 67.5741 189.766 67.2509C186.249 66.3983 184.081 62.8427 184.934 59.3262C185.341 57.6488 186.372 56.2193 187.838 55.3054C189.072 54.5363 190.499 54.2019 191.923 54.3385C193.723 49.9192 198.554 47.3974 203.266 48.5399C206.067 49.2198 208.41 51.1006 209.692 53.6502C211.483 53.0066 213.445 52.8951 215.304 53.3465C220.537 54.6171 223.761 59.9058 222.493 65.1388C221.877 67.6745 220.314 69.8172 218.085 71.1742C215.858 72.5312 213.233 72.9408 210.7 72.325C210.296 72.2275 209.898 72.1021 209.508 71.9544C207.722 73.4842 205.481 74.3034 203.177 74.3034L203.18 74.309ZM194.366 64.7292C194.497 64.7292 194.628 64.757 194.751 64.8156C195.032 64.9465 195.227 65.214 195.266 65.5233C195.673 68.7835 198.092 71.4975 201.288 72.2721C203.954 72.9186 206.724 72.1634 208.7 70.2547C208.967 69.9956 209.366 69.9287 209.703 70.0819C210.16 70.2909 210.642 70.4553 211.13 70.5751C213.194 71.0767 215.332 70.7423 217.146 69.6361C218.959 68.5299 220.236 66.7828 220.734 64.718C221.768 60.4548 219.141 56.1469 214.88 55.1131C213.094 54.6784 211.272 54.8651 209.614 55.6481C209.385 55.7568 209.126 55.7624 208.892 55.6704C208.658 55.5785 208.474 55.3918 208.382 55.1577C207.438 52.7335 205.367 50.9195 202.843 50.3065C198.797 49.3257 194.642 51.6607 193.388 55.6258C193.246 56.0717 192.789 56.3364 192.332 56.2361C189.83 55.6871 187.303 57.267 186.698 59.7554C186.079 62.3022 187.648 64.8741 190.195 65.4927C191.468 65.802 192.775 65.5818 193.881 64.8713C194.029 64.7765 194.199 64.7292 194.372 64.7292H194.366Z" fill="#024978"/>
</g>
<g id="Group_24">
<path id="Vector_90" d="M90.1668 11.1398C90.635 13.1265 89.4034 15.1161 87.4166 15.5814C86.394 15.821 85.3714 15.6121 84.5549 15.0799C84.2512 17.3954 82.5515 19.3933 80.1412 19.9589C78.1349 20.4298 76.1287 19.7973 74.7605 18.4542C74.4317 18.6019 74.0834 18.719 73.7212 18.8053C70.6087 19.5382 67.4935 17.61 66.7634 14.4975C66.0306 11.385 67.9588 8.26976 71.0713 7.53971C72.4116 7.22484 73.7491 7.40317 74.8999 7.95489C75.5742 6.25515 77.0399 4.90372 78.9542 4.45232C81.9329 3.75013 84.9172 5.49167 85.8061 8.37007C87.7649 7.95489 89.7071 9.17814 90.1696 11.137L90.1668 11.1398Z" fill="white"/>
<path id="Vector_91" d="M78.8009 21.0228C77.2656 21.0228 75.7748 20.4934 74.5683 19.5014C74.3565 19.5739 74.1419 19.6352 73.9246 19.6881C70.3329 20.5324 66.7216 18.2977 65.8773 14.7059C65.033 11.1142 67.2678 7.50295 70.8595 6.65866C72.0465 6.38001 73.2921 6.43296 74.4457 6.80355C75.3596 5.18463 76.9117 4.00317 78.7424 3.57406C81.9022 2.83007 85.1234 4.48523 86.4023 7.3915C88.5479 7.31626 90.5402 8.77915 91.0474 10.9331C91.3288 12.1285 91.1282 13.3629 90.4817 14.4078C89.8352 15.4527 88.821 16.1828 87.6228 16.4642C86.8008 16.6565 85.9649 16.623 85.1847 16.375C84.4713 18.5735 82.6434 20.3011 80.3474 20.8417C79.8319 20.9615 79.3136 21.0228 78.8009 21.0228ZM74.7578 17.5509C74.989 17.5509 75.2203 17.6401 75.3931 17.81C76.5968 18.9915 78.2938 19.4652 79.9322 19.0807C81.8966 18.6181 83.393 16.9657 83.6549 14.9651C83.6967 14.6558 83.8917 14.3911 84.1732 14.2601C84.4546 14.1291 84.7862 14.1542 85.0453 14.3242C85.6918 14.7449 86.4581 14.8787 87.2076 14.7031C88.7039 14.3521 89.6374 12.8474 89.2835 11.3483C88.938 9.88537 87.4612 8.94634 85.9899 9.25842C85.533 9.35595 85.076 9.08845 84.9367 8.63983C84.1815 6.20168 81.6431 4.74994 79.1576 5.33509C77.6055 5.70012 76.3265 6.80355 75.7358 8.28873C75.6438 8.5228 75.4571 8.7067 75.2231 8.79866C74.989 8.89061 74.7271 8.87946 74.5014 8.77079C73.4871 8.28316 72.3698 8.16056 71.2719 8.4197C70.0013 8.71785 68.9257 9.49248 68.2402 10.6015C67.5548 11.7105 67.3402 13.0201 67.6384 14.288C67.9365 15.5586 68.7111 16.6342 69.8202 17.3196C70.9292 18.0051 72.2388 18.2197 73.5066 17.9215C73.8076 17.8518 74.1029 17.7515 74.3844 17.6261C74.5042 17.5732 74.6296 17.5481 74.7522 17.5481L74.7578 17.5509Z" fill="#024978"/>
</g>
<g id="Group_25">
<path id="Vector_92" d="M49.5738 74.0856C47.7765 74.0856 46.1576 74.8379 45.0068 76.0417C43.5941 72.3078 39.9828 69.6523 35.7558 69.6523C32.2337 69.6523 29.1435 71.4914 27.3908 74.2639C26.7862 74.1497 26.162 74.0884 25.5239 74.0884C21.7956 74.0884 18.5494 76.1531 16.8636 79.2015C15.1694 77.9755 12.9431 77.2315 10.5021 77.2315C5.2023 77.2315 0.905594 80.7369 0.905594 85.0586C0.905594 89.3804 5.2023 92.8858 10.5021 92.8858C13.4196 92.8858 16.0332 91.8214 17.7943 90.1439C19.6055 92.4149 22.3947 93.8694 25.5267 93.8694C27.8785 93.8694 30.038 93.0474 31.7349 91.6793C33.521 94.24 36.4914 95.9175 39.8519 95.9175C45.082 95.9175 49.3648 91.8576 49.7187 86.7166C53.1404 86.6413 55.8935 83.8465 55.8935 80.4053C55.8935 76.964 53.0652 74.0912 49.5794 74.0912L49.5738 74.0856Z" fill="white"/>
<path id="Vector_93" d="M39.8463 96.8177C36.6307 96.8177 33.5935 95.3798 31.551 92.9306C29.7788 94.1232 27.6695 94.7724 25.5211 94.7724C22.5368 94.7724 19.7337 93.5603 17.6995 91.4147C15.7602 92.9333 13.1883 93.7888 10.4993 93.7888C4.7091 93.7888 -0.00279236 89.871 -0.00279236 85.056C-0.00279236 80.241 4.7091 76.3233 10.4993 76.3233C12.6867 76.3233 14.81 76.8889 16.5766 77.9311C18.5745 74.9774 21.9182 73.1802 25.5211 73.1802C26.0004 73.1802 26.4824 73.2136 26.9617 73.2749C28.9903 70.4272 32.2337 68.7441 35.753 68.7441C39.785 68.7441 43.4882 71.0346 45.33 74.5539C46.5533 73.6594 48.0217 73.1774 49.571 73.1774C53.5528 73.1774 56.7907 76.4152 56.7907 80.3971C56.7907 82.2974 56.0579 84.0919 54.7287 85.4489C53.5891 86.6109 52.1234 87.3409 50.5323 87.5527C49.7828 92.8079 45.2325 96.8149 39.8463 96.8149V96.8177ZM31.7293 90.7683C31.7711 90.7683 31.8129 90.7711 31.8575 90.7766C32.1055 90.8128 32.3284 90.9494 32.4733 91.1556C34.1563 93.5659 36.9121 95.0065 39.8463 95.0065C44.5498 95.0065 48.4871 91.3339 48.8103 86.6471C48.8437 86.179 49.2255 85.8139 49.6936 85.8028C52.6082 85.7387 54.9823 83.3145 54.9823 80.3971C54.9823 77.4797 52.5553 74.9886 49.5738 74.9886C48.083 74.9886 46.6954 75.5821 45.6616 76.6632C45.447 76.8889 45.1322 76.9865 44.8257 76.9252C44.5219 76.8639 44.2684 76.6493 44.1597 76.3595C42.8445 72.8876 39.4673 70.5553 35.7558 70.5553C32.6572 70.5553 29.815 72.1213 28.1571 74.7434C27.9593 75.0582 27.5887 75.2199 27.2209 75.1474C26.6636 75.0415 26.0923 74.9858 25.5239 74.9858C22.2554 74.9858 19.2405 76.7663 17.6577 79.6308C17.5324 79.8565 17.315 80.0209 17.0614 80.0766C16.8079 80.1324 16.5432 80.0766 16.3342 79.9262C14.732 78.767 12.6589 78.1289 10.5021 78.1289C5.70944 78.1289 1.81119 81.233 1.81119 85.0505C1.81119 88.8679 5.70944 91.972 10.5021 91.972C13.0768 91.972 15.5066 91.0636 17.1673 89.4809C17.3512 89.3054 17.602 89.2162 17.8528 89.2329C18.1064 89.2496 18.3404 89.3723 18.4993 89.5701C20.2157 91.7212 22.7765 92.9556 25.5239 92.9556C27.5998 92.9556 29.5503 92.2674 31.1637 90.9661C31.3253 90.8351 31.5259 90.7655 31.7321 90.7655L31.7293 90.7683Z" fill="#024978"/>
</g>
<path id="Vector_94" d="M45.6839 46.0657C44.6306 46.0657 43.7724 45.2075 43.7724 44.1542C43.7724 41.1922 42.2705 39.6875 39.3057 39.6875C38.2524 39.6875 37.3942 38.8293 37.3942 37.776C37.3942 36.7227 38.2524 35.8645 39.3057 35.8645C42.2677 35.8645 43.7724 34.3626 43.7724 31.3978C43.7724 30.3446 44.6306 29.4863 45.6839 29.4863C46.7372 29.4863 47.5954 30.3446 47.5954 31.3978C47.5954 34.3598 49.0973 35.8645 52.0621 35.8645C53.1154 35.8645 53.9736 36.7227 53.9736 37.776C53.9736 38.8293 53.1154 39.6875 52.0621 39.6875C49.1001 39.6875 47.5954 41.1894 47.5954 44.1542C47.5954 45.2075 46.7372 46.0657 45.6839 46.0657ZM45.6839 31.3031C45.6282 31.3031 45.5836 31.3477 45.5836 31.4034C45.5836 35.3936 43.2959 37.6813 39.3057 37.6813C39.25 37.6813 39.2054 37.7259 39.2054 37.7816C39.2054 37.8373 39.25 37.8819 39.3057 37.8819C43.2959 37.8819 45.5836 40.1696 45.5836 44.1598C45.5836 44.2155 45.6282 44.2601 45.6839 44.2601C45.7396 44.2601 45.7842 44.2155 45.7842 44.1598C45.7842 40.1696 48.0719 37.8819 52.0621 37.8819C52.1178 37.8819 52.1624 37.8373 52.1624 37.7816C52.1624 37.7259 52.1178 37.6813 52.0621 37.6813C48.0719 37.6813 45.7842 35.3936 45.7842 31.4034C45.7842 31.3477 45.7396 31.3031 45.6839 31.3031Z" fill="#FAD100"/>
<path id="Vector_95" d="M34.7861 10.6443C33.9557 10.6443 33.2786 9.96714 33.2786 9.13678C33.2786 7.56243 32.5458 6.8296 30.9714 6.8296C30.1411 6.8296 29.4639 6.15249 29.4639 5.32213C29.4639 4.49176 30.1411 3.81465 30.9714 3.81465C32.5458 3.81465 33.2786 3.08182 33.2786 1.50747C33.2786 0.677108 33.9557 0 34.7861 0C35.6164 0 36.2935 0.677108 36.2935 1.50747C36.2935 3.08182 37.0264 3.81465 38.6007 3.81465C39.4311 3.81465 40.1082 4.49176 40.1082 5.32213C40.1082 6.15249 39.4311 6.8296 38.6007 6.8296C37.0264 6.8296 36.2935 7.56243 36.2935 9.13678C36.2935 9.96714 35.6164 10.6443 34.7861 10.6443ZM32.7659 5.32213C33.7272 5.68994 34.4183 6.38098 34.7861 7.3423C35.1539 6.38098 35.8449 5.68994 36.8062 5.32213C35.8449 4.95431 35.1539 4.26327 34.7861 3.30195C34.4183 4.26327 33.7272 4.95431 32.7659 5.32213Z" fill="#FAD100"/>
<path id="Vector_96" d="M205.03 10.6443C204.2 10.6443 203.523 9.96714 203.523 9.13678C203.523 7.56243 202.79 6.8296 201.215 6.8296C200.385 6.8296 199.708 6.15249 199.708 5.32213C199.708 4.49176 200.385 3.81465 201.215 3.81465C202.79 3.81465 203.523 3.08182 203.523 1.50747C203.523 0.677108 204.2 0 205.03 0C205.86 0 206.537 0.677108 206.537 1.50747C206.537 3.08182 207.27 3.81465 208.845 3.81465C209.675 3.81465 210.352 4.49176 210.352 5.32213C210.352 6.15249 209.675 6.8296 208.845 6.8296C207.27 6.8296 206.537 7.56243 206.537 9.13678C206.537 9.96714 205.86 10.6443 205.03 10.6443ZM203.01 5.32213C203.971 5.68994 204.662 6.38098 205.03 7.3423C205.398 6.38098 206.089 5.68994 207.05 5.32213C206.089 4.95431 205.398 4.26327 205.03 3.30195C204.662 4.26327 203.971 4.95431 203.01 5.32213Z" fill="#FAD100"/>
<path id="Vector_97" d="M235.74 70.6616C234.987 70.6616 234.377 70.0514 234.377 69.299C234.377 68.2235 233.917 67.7637 232.842 67.7637C232.089 67.7637 231.479 67.1535 231.479 66.4011C231.479 65.6488 232.089 65.0385 232.842 65.0385C233.917 65.0385 234.377 64.5788 234.377 63.5032C234.377 62.7509 234.987 62.1406 235.74 62.1406C236.492 62.1406 237.102 62.7509 237.102 63.5032C237.102 64.5788 237.562 65.0385 238.637 65.0385C239.39 65.0385 240 65.6488 240 66.4011C240 67.1535 239.39 67.7637 238.637 67.7637C237.562 67.7637 237.102 68.2235 237.102 69.299C237.102 70.0514 236.492 70.6616 235.74 70.6616ZM234.7 66.4039C235.138 66.6547 235.489 67.0058 235.74 67.4432C235.99 67.0058 236.341 66.6547 236.779 66.4039C236.341 66.1531 235.99 65.802 235.74 65.3646C235.489 65.802 235.138 66.1531 234.7 66.4039Z" fill="#FAD100"/>
<path id="Vector_98" d="M212.91 45.931C211.857 45.931 210.999 45.0727 210.999 44.0195C210.999 41.0575 209.497 39.5528 206.532 39.5528C205.479 39.5528 204.62 38.6945 204.62 37.6413C204.62 36.588 205.479 35.7298 206.532 35.7298C209.494 35.7298 210.999 34.2279 210.999 31.2631C210.999 30.2098 211.857 29.3516 212.91 29.3516C213.963 29.3516 214.822 30.2098 214.822 31.2631C214.822 34.2251 216.324 35.7298 219.288 35.7298C220.342 35.7298 221.2 36.588 221.2 37.6413C221.2 38.6945 220.342 39.5528 219.288 39.5528C216.326 39.5528 214.822 41.0547 214.822 44.0195C214.822 45.0727 213.963 45.931 212.91 45.931ZM212.91 31.1683C212.854 31.1683 212.81 31.2129 212.81 31.2686C212.81 35.2588 210.522 37.5465 206.532 37.5465C206.476 37.5465 206.432 37.5911 206.432 37.6468C206.432 37.7026 206.476 37.7471 206.532 37.7471C210.522 37.7471 212.81 40.0348 212.81 44.025C212.81 44.0808 212.854 44.1253 212.91 44.1253C212.966 44.1253 213.01 44.0808 213.01 44.025C213.01 40.0348 215.298 37.7471 219.288 37.7471C219.344 37.7471 219.389 37.7026 219.389 37.6468C219.389 37.5911 219.344 37.5465 219.288 37.5465C215.298 37.5465 213.01 35.2588 213.01 31.2686C213.01 31.2129 212.966 31.1683 212.91 31.1683Z" fill="#FAD100"/>
<path id="Vector_99" d="M191.298 32.2596C188.387 32.2596 186.015 29.8911 186.015 26.9765C186.015 24.0618 188.384 21.6934 191.298 21.6934C194.213 21.6934 196.581 24.0618 196.581 26.9765C196.581 29.8911 194.213 32.2596 191.298 32.2596ZM191.298 23.5046C189.384 23.5046 187.826 25.0622 187.826 26.9765C187.826 28.8908 189.384 30.4484 191.298 30.4484C193.213 30.4484 194.77 28.8908 194.77 26.9765C194.77 25.0622 193.213 23.5046 191.298 23.5046Z" fill="#42B979"/>
<path id="Vector_100" d="M48.5038 18.9794C46.2774 18.9794 44.4662 17.1682 44.4662 14.9419C44.4662 12.7155 46.2774 10.9043 48.5038 10.9043C50.7302 10.9043 52.5414 12.7155 52.5414 14.9419C52.5414 17.1682 50.7302 18.9794 48.5038 18.9794ZM48.5038 12.7155C47.275 12.7155 46.2774 13.713 46.2774 14.9419C46.2774 16.1707 47.275 17.1682 48.5038 17.1682C49.7326 17.1682 50.7302 16.1707 50.7302 14.9419C50.7302 13.713 49.7326 12.7155 48.5038 12.7155Z" fill="#42B979"/>
<path id="Vector_101" d="M172.699 15.8466C170.472 15.8466 168.661 14.0354 168.661 11.8091C168.661 9.58268 170.472 7.77148 172.699 7.77148C174.925 7.77148 176.736 9.58268 176.736 11.8091C176.736 14.0354 174.925 15.8466 172.699 15.8466ZM172.699 9.58268C171.47 9.58268 170.472 10.5802 170.472 11.8091C170.472 13.0379 171.47 14.0354 172.699 14.0354C173.928 14.0354 174.925 13.0379 174.925 11.8091C174.925 10.5802 173.928 9.58268 172.699 9.58268Z" fill="#42B979"/>
<path id="Vector_102" d="M228.893 88.9052C226.667 88.9052 224.856 87.094 224.856 84.8677C224.856 82.6413 226.667 80.8301 228.893 80.8301C231.12 80.8301 232.931 82.6413 232.931 84.8677C232.931 87.094 231.12 88.9052 228.893 88.9052ZM228.893 82.6413C227.664 82.6413 226.667 83.6388 226.667 84.8677C226.667 86.0965 227.664 87.094 228.893 87.094C230.122 87.094 231.12 86.0965 231.12 84.8677C231.12 83.6388 230.122 82.6413 228.893 82.6413Z" fill="#42B979"/>
<path id="Vector_103" d="M221.389 25.1474C219.163 25.1474 217.352 23.3362 217.352 21.1098C217.352 18.8835 219.163 17.0723 221.389 17.0723C223.616 17.0723 225.427 18.8835 225.427 21.1098C225.427 23.3362 223.616 25.1474 221.389 25.1474ZM221.389 18.8835C220.16 18.8835 219.163 19.881 219.163 21.1098C219.163 22.3387 220.16 23.3362 221.389 23.3362C222.618 23.3362 223.616 22.3387 223.616 21.1098C223.616 19.881 222.618 18.8835 221.389 18.8835Z" fill="#42B979"/>
<path id="Vector_104" d="M20.6002 23.5068C18.3739 23.5068 16.5627 21.6956 16.5627 19.4692C16.5627 17.2428 18.3739 15.4316 20.6002 15.4316C22.8266 15.4316 24.6378 17.2428 24.6378 19.4692C24.6378 21.6956 22.8266 23.5068 20.6002 23.5068ZM20.6002 17.2428C19.3714 17.2428 18.3739 18.2404 18.3739 19.4692C18.3739 20.698 19.3714 21.6956 20.6002 21.6956C21.8291 21.6956 22.8266 20.698 22.8266 19.4692C22.8266 18.2404 21.8291 17.2428 20.6002 17.2428Z" fill="#42B979"/>
<path id="Vector_105" d="M16.7912 59.1095C13.648 59.1095 11.0929 56.5543 11.0929 53.4112C11.0929 50.2681 13.648 47.7129 16.7912 47.7129C19.9343 47.7129 22.4895 50.2681 22.4895 53.4112C22.4895 56.5543 19.9343 59.1095 16.7912 59.1095ZM16.7912 49.5241C14.6484 49.5241 12.9041 51.2684 12.9041 53.4112C12.9041 55.554 14.6484 57.2983 16.7912 57.2983C18.9339 57.2983 20.6783 55.554 20.6783 53.4112C20.6783 51.2684 18.9339 49.5241 16.7912 49.5241Z" fill="#42B979"/>
<g id="Group_26">
<g id="Group_27">
<path id="Vector_106" d="M170.534 70.8569H164.222V49.0055C164.222 47.721 163.448 46.5646 162.264 46.0714C161.077 45.581 159.711 45.8512 158.803 46.7596L141.112 64.4508C140.78 59.6303 138.746 55.1413 135.296 51.6917C131.515 47.9104 126.485 45.8262 121.138 45.8262C115.791 45.8262 110.762 47.9077 106.98 51.6917C103.199 55.4729 101.115 60.5024 101.115 65.8496C101.115 67.5605 101.329 69.238 101.742 70.8541H99.1197V49.0027C99.1197 47.7182 98.3451 46.5618 97.1609 46.0686C95.9738 45.5782 94.6085 45.8485 93.7001 46.7568L68.675 71.782C67.7666 72.6904 67.4963 74.0557 67.9867 75.2428C68.4771 76.4298 69.6363 77.2016 70.9208 77.2016H92.7722V83.3513C92.7722 85.104 94.1933 86.5251 95.946 86.5251C97.6986 86.5251 99.1197 85.104 99.1197 83.3513V77.2016H104.637C105.322 78.1964 106.105 79.1354 106.978 80.0076C110.759 83.7888 115.788 85.8731 121.136 85.8731C126.483 85.8731 131.512 83.7916 135.293 80.0076C136.166 79.1354 136.946 78.1964 137.634 77.2016H157.872V83.3513C157.872 85.104 159.293 86.5251 161.046 86.5251C162.799 86.5251 164.22 85.104 164.22 83.3513V77.2016H170.531C172.284 77.2016 173.705 75.7805 173.705 74.0279C173.705 72.2752 172.284 70.8541 170.531 70.8541L170.534 70.8569ZM92.7722 70.8569H78.5836L92.7722 56.6683V70.8569ZM121.136 79.5255C113.595 79.5255 107.462 73.3926 107.462 65.8524C107.462 58.3123 113.595 52.1793 121.136 52.1793C128.676 52.1793 134.809 58.3123 134.809 65.8524C134.809 73.3926 128.676 79.5255 121.136 79.5255ZM157.872 70.8569H143.683L157.872 56.6683V70.8569Z" fill="#024978"/>
<path id="Vector_107" d="M68.6749 71.7853C68.3712 72.0891 68.1399 72.4429 67.9839 72.8247C69.313 71.2977 70.684 69.8153 72.0911 68.3691L68.6749 71.7853Z" fill="#FEF8D6"/>
<path id="Vector_108" d="M84.2847 57.0576C86.3968 55.3384 88.5953 53.7473 90.6573 51.9612C91.627 51.1197 92.5326 50.4732 93.6332 49.6986C95.3302 48.637 96.8348 47.5224 98.9358 48.0797C98.8049 47.188 97.9856 46.4134 97.1636 46.0734C95.9766 45.583 94.6112 45.8533 93.7029 46.7617L74.4819 65.9826C77.0789 63.3857 79.8291 60.9447 82.5766 58.5094C83.1366 58.0134 83.7106 57.5313 84.2874 57.0604L84.2847 57.0576Z" fill="#024978"/>
<path id="Vector_109" d="M149.412 56.8567C151.644 54.9201 153.929 53.0337 156.351 51.3368C158.694 49.6927 161.352 47.3354 164.306 48.1741C164.052 47.2379 163.381 46.4521 162.456 46.0676C161.269 45.5772 159.903 45.8474 158.995 46.7558L139.774 65.9768C142.834 62.9173 146.041 59.7797 149.412 56.8539V56.8567Z" fill="#024978"/>
<path id="Vector_110" d="M106.501 52.6733C108.312 51.1213 110.316 50.0234 112.514 49.246C116.201 47.9531 120.144 47.8221 124.025 48.1453C127.971 48.4686 131.331 50.2798 134.825 52.3473C135.277 52.6064 135.795 52.8656 136.313 53.0579C136.572 53.1442 136.742 53.3727 136.943 53.5538C136.436 52.9046 135.887 52.2804 135.296 51.6897C131.515 47.9085 126.485 45.8242 121.138 45.8242C115.791 45.8242 110.762 47.9057 106.98 51.6897C105.637 53.0328 104.512 54.5319 103.614 56.148C103.818 55.8889 104.029 55.6353 104.241 55.3845C105.016 54.4789 105.534 53.4452 106.504 52.6677L106.501 52.6733Z" fill="#024978"/>
<path id="Vector_111" d="M171.877 71.1523C171.866 71.339 171.824 71.5202 171.749 71.6846C171.166 72.7183 170.325 73.5598 169.422 74.2704C168.193 75.2401 166.577 75.371 165.153 75.4992C153.706 76.4048 142.326 76.0175 130.88 75.8865C130.724 75.8865 130.57 75.8865 130.414 75.8865C127.976 78.1436 124.716 79.5256 121.138 79.5256C117.56 79.5256 114.13 78.0711 111.673 75.7082C106.874 75.6135 102.071 75.4546 97.2556 75.1788C92.2762 74.9196 87.4278 75.1788 82.4484 74.5964C78.7619 74.145 75.2705 74.0781 71.5199 73.4317C70.3719 73.2032 69.1709 73.075 68.1929 72.4146C67.6913 73.2617 67.6049 74.3094 67.9923 75.2456C68.4827 76.4327 69.6418 77.2045 70.9264 77.2045H92.7778V83.3542C92.7778 83.697 92.8335 84.0285 92.9338 84.3378C93.3462 85.6112 94.5416 86.5308 95.9515 86.5308C97.7042 86.5308 99.1253 85.1097 99.1253 83.357V77.2073H104.642C105.328 78.2021 106.111 79.1411 106.983 80.0133C110.764 83.7945 115.794 85.8787 121.141 85.8787C126.488 85.8787 131.518 83.7973 135.299 80.0133C136.171 79.1411 136.951 78.2021 137.64 77.2073H157.878V83.357C157.878 85.1097 159.299 86.5308 161.051 86.5308C162.804 86.5308 164.225 85.1097 164.225 83.357V77.2073H170.537C172.289 77.2073 173.71 75.7862 173.71 74.0335C173.71 72.7601 172.961 71.6623 171.88 71.1579L171.877 71.1523Z" fill="#024978"/>
<path id="Vector_112" d="M161.046 87.4334C158.797 87.4334 156.966 85.6027 156.966 83.354V78.1099H138.102C137.45 79.0099 136.72 79.8626 135.934 80.6483C131.98 84.6023 126.725 86.7785 121.136 86.7785C115.546 86.7785 110.291 84.6023 106.337 80.6483C105.551 79.8626 104.824 79.0099 104.169 78.1099H100.025V83.354C100.025 85.6027 98.1946 87.4334 95.946 87.4334C93.6973 87.4334 91.8666 85.6027 91.8666 83.354V78.1099H70.9208C69.2657 78.1099 67.7861 77.1207 67.1508 75.5909C66.5182 74.0612 66.8637 72.3168 68.0341 71.1438L93.0592 46.1186C94.2295 44.9483 95.9766 44.6 97.5064 45.2353C99.0361 45.8678 100.025 47.3474 100.025 49.0054V69.9511H100.608C100.343 68.6081 100.206 67.2344 100.206 65.8523C100.206 60.2626 102.383 55.0074 106.337 51.0534C110.291 47.0994 115.546 44.9232 121.136 44.9232C126.725 44.9232 131.98 47.0994 135.934 51.0534C139.055 54.1742 141.095 58.1784 141.794 62.4862L158.162 46.1186C159.332 44.9483 161.079 44.6 162.609 45.2353C164.139 45.8678 165.128 47.3474 165.128 49.0054V69.9511H170.534C172.782 69.9511 174.613 71.7818 174.613 74.0305C174.613 76.2792 172.782 78.1099 170.534 78.1099H165.128V83.354C165.128 85.6027 163.297 87.4334 161.049 87.4334H161.046ZM137.631 76.2987H157.869C158.368 76.2987 158.775 76.7055 158.775 77.2043V83.354C158.775 84.6051 159.792 85.6222 161.043 85.6222C162.294 85.6222 163.311 84.6051 163.311 83.354V77.2043C163.311 76.7055 163.718 76.2987 164.217 76.2987H170.528C171.779 76.2987 172.796 75.2816 172.796 74.0305C172.796 72.7794 171.779 71.7623 170.528 71.7623H164.217C163.718 71.7623 163.311 71.3555 163.311 70.8567V49.0054C163.311 48.0831 162.762 47.2611 161.91 46.91C161.06 46.5561 160.087 46.7511 159.438 47.4032L141.744 65.0944C141.493 65.3451 141.117 65.4259 140.786 65.3033C140.454 65.178 140.223 64.8714 140.2 64.5176C139.886 59.9283 137.913 55.6037 134.647 52.338C131.036 48.7267 126.235 46.74 121.13 46.74C116.025 46.74 111.224 48.7295 107.613 52.338C104.002 55.9492 102.015 60.7503 102.015 65.8551C102.015 67.474 102.215 69.0818 102.614 70.6338C102.684 70.9041 102.622 71.1939 102.452 71.414C102.28 71.6342 102.018 71.7651 101.736 71.7651H99.1142C98.6154 71.7651 98.2086 71.3583 98.2086 70.8595V49.0082C98.2086 48.0858 97.6596 47.2638 96.807 46.9128C95.9571 46.5589 94.9846 46.7539 94.3354 47.406L69.3103 72.4311C68.6582 73.0831 68.466 74.0528 68.8171 74.9027C69.1681 75.7525 69.9929 76.3043 70.9125 76.3043H92.7638C93.2626 76.3043 93.6694 76.7111 93.6694 77.2099V83.3596C93.6694 84.6107 94.6865 85.6277 95.9376 85.6277C97.1887 85.6277 98.2058 84.6107 98.2058 83.3596V77.2099C98.2058 76.7111 98.6126 76.3043 99.1114 76.3043H104.629C104.927 76.3043 105.205 76.4492 105.373 76.6944C106.033 77.6501 106.785 78.5501 107.607 79.3749C111.219 82.9862 116.02 84.9729 121.124 84.9729C126.229 84.9729 131.03 82.9834 134.641 79.3749C135.463 78.5529 136.216 77.6501 136.876 76.6944C137.046 76.4492 137.325 76.3043 137.62 76.3043L137.631 76.2987ZM121.133 80.431C113.094 80.431 106.554 73.8912 106.554 65.8523C106.554 57.8134 113.094 51.2735 121.133 51.2735C129.172 51.2735 135.711 57.8134 135.711 65.8523C135.711 73.8912 129.172 80.431 121.133 80.431ZM121.133 53.0847C114.094 53.0847 108.365 58.8109 108.365 65.8523C108.365 72.8936 114.091 78.6198 121.133 78.6198C128.174 78.6198 133.9 72.8936 133.9 65.8523C133.9 58.8109 128.174 53.0847 121.133 53.0847ZM157.869 71.7623H143.681C143.316 71.7623 142.984 71.5422 142.845 71.2023C142.705 70.8651 142.783 70.475 143.04 70.2159L157.228 56.0272C157.488 55.7681 157.878 55.6901 158.215 55.8322C158.552 55.9715 158.775 56.3031 158.775 56.6681V70.8567C158.775 71.3555 158.368 71.7623 157.869 71.7623ZM145.868 69.9511H156.964V58.8555L145.868 69.9511ZM92.7694 71.7623H78.5808C78.2158 71.7623 77.8842 71.5422 77.7449 71.2023C77.6055 70.8651 77.6835 70.475 77.9399 70.2159L92.1285 56.0272C92.3877 55.7681 92.7778 55.6901 93.1149 55.8322C93.4521 55.9715 93.675 56.3031 93.675 56.6681V70.8567C93.675 71.3555 93.2682 71.7623 92.7694 71.7623ZM80.7681 69.9511H91.8638V58.8555L80.7681 69.9511Z" fill="#024978"/>
</g>
<g id="Group_28">
<path id="Vector_113" d="M92.265 53.5687C91.0028 54.831 89.5482 55.4245 89.0188 54.8951C88.4894 54.3657 89.0829 52.9111 90.3452 51.6489C91.6074 50.3866 93.062 49.7931 93.5914 50.3225C94.1208 50.852 93.5273 52.3065 92.265 53.5687Z" fill="#FFECEC"/>
<path id="Vector_114" d="M87.921 57.2194C87.3247 57.8157 86.525 57.9829 86.1349 57.5928C85.7448 57.2027 85.9119 56.403 86.5082 55.8067C87.1045 55.2104 87.9043 55.0432 88.2944 55.4333C88.6845 55.8234 88.5173 56.6231 87.921 57.2194Z" fill="#FFECEC"/>
</g>
<g id="Group_29">
<path id="Vector_115" d="M157.836 53.5687C156.574 54.831 155.119 55.4245 154.59 54.8951C154.06 54.3657 154.654 52.9111 155.916 51.6489C157.178 50.3866 158.633 49.7931 159.162 50.3225C159.692 50.852 159.098 52.3065 157.836 53.5687Z" fill="#FFECEC"/>
<path id="Vector_116" d="M153.492 57.2194C152.895 57.8157 152.096 57.9829 151.706 57.5928C151.316 57.2027 151.483 56.403 152.079 55.8067C152.675 55.2104 153.475 55.0432 153.865 55.4333C154.255 55.8234 154.088 56.6231 153.492 57.2194Z" fill="#FFECEC"/>
</g>
</g>
</g>
</g>
</g>
<defs>
<clipPath id="clip0_435_18582">
<rect width="240" height="217.856" fill="white"/>
</clipPath>
</defs>
</svg>
