<svg width="16" height="16" viewBox="0 0 16 16" fill="none" xmlns="http://www.w3.org/2000/svg">
<g clip-path="url(#clip0_355_11904)">
<path d="M4.16676 12.9999C3.09943 12.9999 2.1501 12.3166 1.80543 11.2993L1.7821 11.2226C1.70076 10.9533 1.66676 10.7266 1.66676 10.4999V5.95459L0.0494292 11.3533C-0.158571 12.1473 0.315429 12.9706 1.11076 13.1899L11.4194 15.9506C11.5481 15.9839 11.6768 15.9999 11.8034 15.9999C12.4674 15.9999 13.0741 15.5593 13.2441 14.9099L13.8448 12.9999H4.16676Z" fill="#000101"/>
<path d="M6.00008 5.99992C6.73541 5.99992 7.33341 5.40192 7.33341 4.66659C7.33341 3.93125 6.73541 3.33325 6.00008 3.33325C5.26475 3.33325 4.66675 3.93125 4.66675 4.66659C4.66675 5.40192 5.26475 5.99992 6.00008 5.99992Z" fill="#000101"/>
<path d="M14.3334 1.33325H4.33341C3.41475 1.33325 2.66675 2.08125 2.66675 2.99992V10.3333C2.66675 11.2519 3.41475 11.9999 4.33341 11.9999H14.3334C15.2521 11.9999 16.0001 11.2519 16.0001 10.3333V2.99992C16.0001 2.08125 15.2521 1.33325 14.3334 1.33325ZM4.33341 2.66659H14.3334C14.5174 2.66659 14.6667 2.81592 14.6667 2.99992V7.73259L12.5607 5.27525C12.3374 5.01325 12.0141 4.87325 11.6667 4.86525C11.3214 4.86725 10.9974 5.02059 10.7761 5.28592L8.30008 8.25792L7.49341 7.45325C7.03741 6.99725 6.29541 6.99725 5.84008 7.45325L4.00008 9.29259V2.99992C4.00008 2.81592 4.14941 2.66659 4.33341 2.66659Z" fill="#000101"/>
</g>
<defs>
<clipPath id="clip0_355_11904">
<rect width="16" height="16" fill="white"/>
</clipPath>
</defs>
</svg>
