<svg width="24" height="25" viewBox="0 0 24 25" fill="none" xmlns="http://www.w3.org/2000/svg">
<path d="M22.1438 10.5266H13.2141C12.8203 10.5266 12.5016 10.8454 12.5016 11.2391V14.0938C12.5016 14.4875 12.8203 14.8063 13.2141 14.8063H18.2438C17.6953 16.236 16.6641 17.4313 15.3563 18.1907L17.4985 21.9032C20.9344 19.9157 22.9688 16.4235 22.9688 12.5188C22.9688 11.961 22.9266 11.5625 22.8469 11.1172C22.7813 10.775 22.486 10.5266 22.1438 10.5266V10.5266Z" fill="#167EE6"/>
<path d="M12.0234 19.0906C9.56249 19.0906 7.41561 17.7453 6.26249 15.7578L2.54999 17.8953C4.43905 21.1719 7.97811 23.375 12.0234 23.375C14.0109 23.375 15.8812 22.8406 17.4984 21.9078V21.9031L15.3562 18.1906C14.3719 18.7625 13.2375 19.0906 12.0234 19.0906V19.0906Z" fill="#12B347"/>
<path d="M17.4938 21.9079V21.9032L15.3516 18.1907C14.3719 18.7579 13.2375 19.0907 12.0234 19.0907V23.375C14.0109 23.375 15.8813 22.8407 17.4938 21.9079Z" fill="#0F993E"/>
<path d="M5.3625 12.4297C5.3625 11.2157 5.69531 10.0813 6.2625 9.10161L2.55 6.96411C1.6125 8.57192 1.07812 10.4375 1.07812 12.4297C1.07812 14.4219 1.6125 16.2875 2.55 17.8954L6.2625 15.7579C5.69063 14.7782 5.3625 13.6438 5.3625 12.4297V12.4297Z" fill="#FFD500"/>
<path d="M12.0234 5.76875C13.6266 5.76875 15.1031 6.34063 16.2516 7.2875C16.5375 7.52188 16.95 7.50312 17.2078 7.24531L19.2281 5.225C19.5234 4.92969 19.5 4.44688 19.1859 4.175C17.2594 2.49688 14.7516 1.48438 12.0234 1.48438C7.97811 1.48438 4.43905 3.6875 2.54999 6.96406L6.26249 9.10156C7.41561 7.11406 9.56249 5.76875 12.0234 5.76875Z" fill="#FF4B26"/>
<path d="M16.2516 7.2875C16.5375 7.52188 16.95 7.50312 17.2078 7.24531L19.2281 5.225C19.5234 4.92969 19.5 4.44688 19.1859 4.175C17.2594 2.49688 14.7516 1.48438 12.0234 1.48438V5.76875C13.6266 5.76875 15.1031 6.33594 16.2516 7.2875Z" fill="#D93F21"/>
</svg>
