<svg width="25" height="24" viewBox="0 0 25 24" fill="none" xmlns="http://www.w3.org/2000/svg">
<path fill-rule="evenodd" clip-rule="evenodd" d="M10.524 2.74592C11.1061 2.34779 11.7948 2.13477 12.5 2.13477C13.2052 2.13477 13.8939 2.34779 14.476 2.74592L20.976 7.19392C21.4456 7.51516 21.8299 7.94606 22.0954 8.4493C22.361 8.95253 22.4999 9.51292 22.5 10.0819V18.4999C22.5 19.4282 22.1313 20.3184 21.4749 20.9748C20.8185 21.6312 19.9283 21.9999 19 21.9999H6C5.07174 21.9999 4.1815 21.6312 3.52513 20.9748C2.86875 20.3184 2.5 19.4282 2.5 18.4999V10.0819C2.50014 9.51292 2.639 8.95253 2.90455 8.4493C3.17011 7.94606 3.55435 7.51516 4.024 7.19392L10.524 2.74592ZM10 17.4999C9.86739 17.4999 9.74021 17.5526 9.64645 17.6464C9.55268 17.7401 9.5 17.8673 9.5 17.9999C9.5 18.1325 9.55268 18.2597 9.64645 18.3535C9.74021 18.4472 9.86739 18.4999 10 18.4999H15C15.1326 18.4999 15.2598 18.4472 15.3536 18.3535C15.4473 18.2597 15.5 18.1325 15.5 17.9999C15.5 17.8673 15.4473 17.7401 15.3536 17.6464C15.2598 17.5526 15.1326 17.4999 15 17.4999H10Z" fill="#42B979"/>
</svg>
