<svg width="28" height="27" viewBox="0 0 28 27" fill="none" xmlns="http://www.w3.org/2000/svg">
<path d="M24.6891 7.71117L24.6893 7.71126C25.2148 8.07074 25.6448 8.55294 25.942 9.11608C26.2391 9.67917 26.3945 10.3062 26.3947 10.9429C26.3947 10.9429 26.3947 10.943 26.3947 10.9431V22.1669C26.3947 23.2056 25.982 24.2019 25.2475 24.9364C24.513 25.6709 23.5168 26.0836 22.478 26.0836H5.14469C4.10593 26.0836 3.10971 25.6709 2.37519 24.9364C1.64068 24.2019 1.22803 23.2056 1.22803 22.1669V10.9431C1.22803 10.943 1.22803 10.9429 1.22803 10.9429C1.22821 10.3062 1.3836 9.67917 1.68074 9.11608C1.97791 8.55294 2.4079 8.07074 2.93346 7.71126L2.93358 7.71117L11.6001 1.78059C11.6002 1.78056 11.6002 1.78053 11.6002 1.78051C12.2516 1.33503 13.0223 1.09668 13.8114 1.09668C14.6005 1.09668 15.3712 1.33503 16.0225 1.78051C16.0225 1.78053 16.0226 1.78056 16.0226 1.78059L24.6891 7.71117ZM10.478 20.0836C10.1023 20.0836 9.74197 20.2328 9.47629 20.4985C9.21061 20.7642 9.06136 21.1245 9.06136 21.5002C9.06136 21.8759 9.21062 22.2363 9.47629 22.502C9.74197 22.7676 10.1023 22.9169 10.478 22.9169H17.1447C17.5204 22.9169 17.8807 22.7676 18.1464 22.502C18.4121 22.2363 18.5614 21.8759 18.5614 21.5002C18.5614 21.1245 18.4121 20.7642 18.1464 20.4985C17.8808 20.2328 17.5204 20.0836 17.1447 20.0836H10.478Z" stroke="#111D4C" stroke-width="1.5"/>
</svg>
