<svg width="25" height="24" viewBox="0 0 25 24" fill="none" xmlns="http://www.w3.org/2000/svg">
<path d="M10 17.5C9.86739 17.5 9.74021 17.5527 9.64645 17.6464C9.55268 17.7402 9.5 17.8674 9.5 18C9.5 18.1326 9.55268 18.2598 9.64645 18.3536C9.74021 18.4473 9.86739 18.5 10 18.5H15C15.1326 18.5 15.2598 18.4473 15.3536 18.3536C15.4473 18.2598 15.5 18.1326 15.5 18C15.5 17.8674 15.4473 17.7402 15.3536 17.6464C15.2598 17.5527 15.1326 17.5 15 17.5H10Z" fill="#024978"/>
<path fill-rule="evenodd" clip-rule="evenodd" d="M14.669 2.575C14.0513 2.08722 13.2871 1.8219 12.5 1.8219C11.7129 1.8219 10.9487 2.08722 10.331 2.575L3.831 7.707C3.41608 8.03463 3.08078 8.45199 2.85026 8.92776C2.61973 9.40352 2.49998 9.92533 2.5 10.454V18.5C2.5 19.4283 2.86875 20.3185 3.52513 20.9749C4.1815 21.6313 5.07174 22 6 22H19C19.9283 22 20.8185 21.6313 21.4749 20.9749C22.1313 20.3185 22.5 19.4283 22.5 18.5V10.454C22.5 9.92533 22.3803 9.40352 22.1497 8.92776C21.9192 8.45199 21.5839 8.03463 21.169 7.707L14.669 2.575ZM10.951 3.36C11.3922 3.01173 11.9379 2.8223 12.5 2.8223C13.0621 2.8223 13.6078 3.01173 14.049 3.36L20.549 8.492C20.8454 8.72598 21.0849 9.02406 21.2497 9.36387C21.4144 9.70368 21.5 10.0764 21.5 10.454V18.5C21.5 19.163 21.2366 19.7989 20.7678 20.2678C20.2989 20.7366 19.663 21 19 21H6C5.33696 21 4.70107 20.7366 4.23223 20.2678C3.76339 19.7989 3.5 19.163 3.5 18.5V10.454C3.49993 10.0765 3.58536 9.70381 3.74989 9.36401C3.91442 9.0242 4.15378 8.72608 4.45 8.492L10.951 3.36Z" fill="#024978"/>
</svg>
