<svg width="16" height="16" viewBox="0 0 16 16" fill="none" xmlns="http://www.w3.org/2000/svg">
<g id="Frame">
<g id="Group">
<path id="Vector" d="M14.6979 3H1.30212C0.584094 3 0 3.58409 0 4.30212V11.6228C0 12.3408 0.584094 12.9249 1.30212 12.9249H14.6979C15.4159 12.9249 16 12.3408 16 11.6228V4.30212C16 3.58409 15.4159 3 14.6979 3ZM15.0287 11.6227C15.0287 11.8052 14.8802 11.9536 14.6979 11.9536H1.30212C1.11975 11.9536 0.971313 11.8052 0.971313 11.6227V4.30212C0.971313 4.11975 1.11975 3.97131 1.30212 3.97131H14.6979C14.8802 3.97131 15.0287 4.11975 15.0287 4.30212V11.6227Z" fill="url(#paint0_linear_145_7026)"/>
<path id="Vector_2" d="M6.44947 7.82645C7.00719 7.14273 6.96753 6.13102 6.33044 5.49395C5.65113 4.81452 4.54553 4.81452 3.86607 5.49395C3.229 6.13102 3.18935 7.14273 3.74707 7.82645C3.25832 8.07805 2.83947 8.46355 2.55163 8.94914C2.3081 9.35992 2.30419 9.85392 2.5415 10.2705C2.781 10.6909 3.21216 10.9417 3.69507 10.9417H6.50147C6.98428 10.9417 7.41553 10.6909 7.65491 10.2705C7.89222 9.85392 7.88844 9.35992 7.64491 8.94914C7.35707 8.46355 6.93822 8.07805 6.44947 7.82645ZM6.81091 9.78973C6.78003 9.84405 6.68788 9.97036 6.50147 9.97036H3.69507C3.50853 9.97036 3.4165 9.84405 3.3855 9.78973C3.3556 9.73723 3.29578 9.59845 3.38707 9.44439C3.74391 8.84258 4.39957 8.46867 5.09828 8.46867C5.79688 8.46867 6.4525 8.84258 6.80932 9.44439C6.90063 9.59845 6.84094 9.7372 6.81091 9.7897V9.78973ZM4.55297 6.1807C4.70325 6.03033 4.90078 5.95523 5.09828 5.95523C5.29578 5.95523 5.49328 6.03033 5.64369 6.1807C5.94432 6.48136 5.94432 6.97077 5.64369 7.27142C5.34291 7.5722 4.85363 7.5722 4.55297 7.27142C4.25219 6.97077 4.25219 6.48136 4.55297 6.1807ZM13.4656 5.64042H10.1008C9.83266 5.64042 9.61522 5.85783 9.61522 6.12605C9.61522 6.39433 9.83266 6.61173 10.1008 6.61173H13.4656C13.7338 6.61173 13.9513 6.39433 13.9513 6.12602C13.9513 5.85783 13.7338 5.64042 13.4656 5.64042ZM13.4656 7.47698H10.1008C9.83266 7.47698 9.61522 7.69439 9.61522 7.96258C9.61522 8.23089 9.83266 8.4483 10.1008 8.4483H13.4656C13.7338 8.4483 13.9513 8.23089 13.9513 7.96258C13.9513 7.69439 13.7338 7.47698 13.4656 7.47698ZM12.7476 9.31352H10.1008C9.83266 9.31352 9.61522 9.53092 9.61522 9.79914C9.61522 10.0674 9.83266 10.2848 10.1008 10.2848H12.7476C13.0158 10.2848 13.2333 10.0674 13.2333 9.79911C13.2333 9.53092 13.0158 9.31352 12.7476 9.31352Z" fill="url(#paint1_linear_145_7026)"/>
</g>
</g>
<defs>
<linearGradient id="paint0_linear_145_7026" x1="13.1724" y1="15.1236" x2="-0.88056" y2="4.97399" gradientUnits="userSpaceOnUse">
<stop stop-color="#1D1A39"/>
<stop offset="0.02" stop-color="#23193C"/>
<stop offset="0.1" stop-color="#351948"/>
<stop offset="0.19" stop-color="#41194F"/>
<stop offset="0.28" stop-color="#451952"/>
<stop offset="0.53" stop-color="#662549"/>
<stop offset="0.75" stop-color="#AE445A"/>
<stop offset="1" stop-color="#F39F5A"/>
</linearGradient>
<linearGradient id="paint1_linear_145_7026" x1="11.9039" y1="12.2614" x2="3.10201" y2="4.59288" gradientUnits="userSpaceOnUse">
<stop stop-color="#1D1A39"/>
<stop offset="0.02" stop-color="#23193C"/>
<stop offset="0.1" stop-color="#351948"/>
<stop offset="0.19" stop-color="#41194F"/>
<stop offset="0.28" stop-color="#451952"/>
<stop offset="0.53" stop-color="#662549"/>
<stop offset="0.75" stop-color="#AE445A"/>
<stop offset="1" stop-color="#F39F5A"/>
</linearGradient>
</defs>
</svg>
