<svg width="17" height="16" viewBox="0 0 17 16" fill="none" xmlns="http://www.w3.org/2000/svg">
<g id="Frame">
<g id="Group">
<g id="Direction Arrow">
<path id="Vector" d="M1.86613 7.15625L4.98422 4.07788C5.18367 3.88111 5.4531 3.77161 5.73328 3.77346C6.01345 3.77531 6.28142 3.88837 6.47824 4.08776C6.67507 4.28716 6.78465 4.55656 6.78288 4.83674C6.7811 5.11691 6.66812 5.38491 6.46878 5.58179L5.08993 6.94304H14.4435C14.5824 6.94283 14.7199 6.97 14.8483 7.023C14.9767 7.07601 15.0934 7.1538 15.1917 7.25194C15.2899 7.35007 15.3679 7.46663 15.4211 7.59492C15.4743 7.72322 15.5017 7.86075 15.5017 7.99964C15.5017 8.13854 15.4743 8.27607 15.4211 8.40437C15.3679 8.53266 15.2899 8.64922 15.1917 8.74735C15.0934 8.84549 14.9767 8.92328 14.8483 8.97629C14.7199 9.02929 14.5824 9.05646 14.4435 9.05625H5.0933L6.46968 10.4184C6.66879 10.6155 6.78146 10.8837 6.7829 11.1638C6.78434 11.444 6.67444 11.7133 6.47736 11.9124C6.28029 12.1116 6.01219 12.2243 5.73201 12.2258C5.45183 12.2274 5.18252 12.1175 4.98332 11.9205L1.86548 8.83492C1.75015 8.72762 1.65818 8.5977 1.59531 8.45326C1.53244 8.30882 1.50002 8.15297 1.50008 7.99545C1.50014 7.83792 1.53268 7.68209 1.59566 7.5377C1.65864 7.39331 1.75071 7.26346 1.86613 7.15625Z" fill="white"/>
</g>
</g>
</g>
</svg>
