<svg width="49" height="48" viewBox="0 0 49 48" fill="none" xmlns="http://www.w3.org/2000/svg">
<path fill-rule="evenodd" clip-rule="evenodd" d="M24.5 36.8146C24.3087 36.8146 24.1306 36.7171 24.0275 36.5567C23.4828 35.7102 22.7019 34.5824 21.7981 33.2774C17.6609 27.3017 11.4097 18.2717 11.4097 13.0996C11.4097 5.8808 17.2822 0.00830078 24.5 0.00830078C31.7187 0.00830078 37.5912 5.8808 37.5912 13.0996C37.5912 18.2717 31.339 27.3017 27.2019 33.2764C26.2981 34.5824 25.5172 35.7102 24.9734 36.5567C24.8694 36.7171 24.6912 36.8146 24.5 36.8146Z" fill="#C80E03"/>
<path fill-rule="evenodd" clip-rule="evenodd" d="M24.4999 20.8604C20.4977 20.8604 17.2408 17.6045 17.2408 13.6013C17.2408 9.59916 20.4977 6.34229 24.4999 6.34229C28.503 6.34229 31.759 9.59916 31.759 13.6013C31.759 17.6045 28.503 20.8604 24.4999 20.8604Z" fill="white"/>
<path fill-rule="evenodd" clip-rule="evenodd" d="M24.5131 43.5317C24.2749 43.5317 24.0368 43.5279 23.7968 43.5195C21.0471 43.4192 18.5252 42.7498 16.6962 41.6342C14.8559 40.5129 13.8912 39.0392 13.9793 37.4858C14.0768 35.7776 15.4043 34.2476 17.7181 33.1761C17.9993 33.0458 18.334 33.1686 18.4643 33.4508C18.5946 33.732 18.4718 34.0667 18.1905 34.197C16.2996 35.0726 15.1737 36.2942 15.1024 37.5495C15.0387 38.6689 15.8131 39.7789 17.2812 40.6742C20.7499 42.7882 26.8184 43.0048 30.8102 41.157C32.7002 40.2814 33.8262 39.0589 33.8974 37.8036C33.9612 36.6842 33.1877 35.5751 31.7187 34.6798C31.4534 34.5176 31.369 34.1717 31.5312 33.9064C31.6924 33.6411 32.0384 33.5576 32.3037 33.7189C34.144 34.8411 35.1087 36.3139 35.0206 37.8673C34.9231 39.5754 33.5956 41.1064 31.2818 42.177C29.3796 43.0583 26.9984 43.5317 24.5131 43.5317Z" fill="#118C46"/>
<path fill-rule="evenodd" clip-rule="evenodd" d="M24.5215 47.9914C24.1446 47.9914 23.7668 47.9839 23.3881 47.9708C19.0446 47.8124 15.0678 46.7586 12.1887 45.0036C9.35558 43.2767 7.86964 41.0286 8.0037 38.6736C8.15183 36.0702 10.2068 33.7236 13.79 32.0642C14.0712 31.9339 14.4059 32.0567 14.5362 32.3389C14.6665 32.6202 14.5437 32.9549 14.2625 33.0852C11.12 34.5392 9.24776 36.5999 9.12683 38.7374C9.01714 40.6583 10.3128 42.5427 12.7746 44.0436C18.4081 47.4777 28.2612 47.8321 34.7384 44.8339C37.8799 43.3789 39.7521 41.3192 39.874 39.1817C39.9837 37.2608 38.6881 35.3764 36.2262 33.8755C35.9609 33.7133 35.8765 33.3674 36.0387 33.103C36.1999 32.8377 36.5459 32.7533 36.8112 32.9155C39.6443 34.6424 41.1312 36.8905 40.9962 39.2455C40.8481 41.848 38.7931 44.1955 35.2109 45.8539C32.209 47.2442 28.4506 47.9914 24.5215 47.9914Z" fill="#118C46"/>
</svg>
