<svg width="16" height="16" viewBox="0 0 16 16" fill="none" xmlns="http://www.w3.org/2000/svg">
<g clip-path="url(#clip0_182_1469)">
<path d="M12.6667 5.616V4.66667C12.6667 3.42899 12.175 2.242 11.2999 1.36684C10.4247 0.491665 9.23772 0 8.00004 0C6.76236 0 5.57538 0.491665 4.70021 1.36684C3.82504 2.242 3.33337 3.42899 3.33337 4.66667V5.616C2.73961 5.87514 2.23424 6.30168 1.87904 6.84347C1.52384 7.38527 1.33423 8.01882 1.33337 8.66667V12.6667C1.33443 13.5504 1.68596 14.3976 2.31085 15.0225C2.93575 15.6474 3.78298 15.9989 4.66671 16H11.3334C12.2171 15.9989 13.0643 15.6474 13.6892 15.0225C14.3141 14.3976 14.6656 13.5504 14.6667 12.6667V8.66667C14.6659 8.01882 14.4762 7.38527 14.121 6.84347C13.7658 6.30168 13.2605 5.87514 12.6667 5.616ZM4.66671 4.66667C4.66671 3.78261 5.0179 2.93477 5.64302 2.30964C6.26814 1.68452 7.11599 1.33333 8.00004 1.33333C8.8841 1.33333 9.73194 1.68452 10.3571 2.30964C10.9822 2.93477 11.3334 3.78261 11.3334 4.66667V5.33333H4.66671V4.66667ZM13.3334 12.6667C13.3334 13.1971 13.1227 13.7058 12.7476 14.0809C12.3725 14.456 11.8638 14.6667 11.3334 14.6667H4.66671C4.13627 14.6667 3.62757 14.456 3.25249 14.0809C2.87742 13.7058 2.66671 13.1971 2.66671 12.6667V8.66667C2.66671 8.13623 2.87742 7.62753 3.25249 7.25245C3.62757 6.87738 4.13627 6.66667 4.66671 6.66667H11.3334C11.8638 6.66667 12.3725 6.87738 12.7476 7.25245C13.1227 7.62753 13.3334 8.13623 13.3334 8.66667V12.6667Z" fill="#0D6BA6"/>
<path d="M8.00004 9.33301C7.82323 9.33301 7.65366 9.40325 7.52864 9.52827C7.40361 9.65329 7.33337 9.82286 7.33337 9.99967V11.333C7.33337 11.5098 7.40361 11.6794 7.52864 11.8044C7.65366 11.9294 7.82323 11.9997 8.00004 11.9997C8.17685 11.9997 8.34642 11.9294 8.47145 11.8044C8.59647 11.6794 8.66671 11.5098 8.66671 11.333V9.99967C8.66671 9.82286 8.59647 9.65329 8.47145 9.52827C8.34642 9.40325 8.17685 9.33301 8.00004 9.33301Z" fill="#0D6BA6"/>
</g>
<defs>
<clipPath id="clip0_182_1469">
<rect width="16" height="16" fill="white"/>
</clipPath>
</defs>
</svg>
