<svg width="16" height="16" viewBox="0 0 16 16" fill="none" xmlns="http://www.w3.org/2000/svg">
<g clip-path="url(#clip0_15_10338)">
<path d="M7.72903 15.0832H3.55585C2.42173 15.0832 1.50152 14.1596 1.50152 13.0289V2.97114C1.50152 1.83701 2.42512 0.916808 3.55585 0.916808H7.79694C8.05161 0.916808 8.25535 0.713073 8.25535 0.458404C8.25535 0.203735 8.05161 0 7.79694 0H3.55585C1.91579 0 0.584717 1.33447 0.584717 2.97114V13.0289C0.584717 14.6689 1.91918 16 3.55585 16H7.72903C7.9837 16 8.18743 15.7963 8.18743 15.5416C8.18743 15.2869 7.9803 15.0832 7.72903 15.0832Z" fill="#42B979"/>
<path d="M15.2809 7.67754L12.3674 4.76412C12.1875 4.58416 11.8989 4.58416 11.7189 4.76412C11.5389 4.94409 11.5389 5.23272 11.7189 5.41268L13.8513 7.54511H4.55081C4.29614 7.54511 4.09241 7.74884 4.09241 8.00351C4.09241 8.25818 4.29614 8.46192 4.55081 8.46192H13.8513L11.7189 10.5943C11.5389 10.7743 11.5389 11.0629 11.7189 11.2429C11.8072 11.3312 11.926 11.3787 12.0415 11.3787C12.1569 11.3787 12.2758 11.3346 12.3641 11.2429L15.2775 8.32949C15.4608 8.14613 15.4608 7.85411 15.2809 7.67754Z" fill="#42B979"/>
</g>
<defs>
<clipPath id="clip0_15_10338">
<rect width="16" height="16" fill="white"/>
</clipPath>
</defs>
</svg>
