<svg width="143" height="120" viewBox="0 0 143 120" fill="none" xmlns="http://www.w3.org/2000/svg">
<g clip-path="url(#clip0_220_6360)">
<mask id="mask0_220_6360" style="mask-type:luminance" maskUnits="userSpaceOnUse" x="0" y="0" width="143" height="120">
<path d="M143 0H0V120H143V0Z" fill="white"/>
</mask>
<g mask="url(#mask0_220_6360)">
<g opacity="0.08">
<path d="M109.8 37.6699C107.29 32.2199 103.84 27.9099 99.46 24.7399C95.08 21.5599 90.34 19.9699 85.24 19.9699C65.64 19.9699 51.13 19.9699 41.7 19.9499C37.22 19.9499 33.88 19.9299 31.7 19.9199C31.37 20.3899 31.05 20.8699 30.74 21.3499V34.1099H63.75C61.7 36.7399 60.04 39.9899 58.77 43.8599C57.49 47.7299 56.86 51.6199 56.86 55.5299C56.86 65.7499 59.59 74.1899 65.05 80.8399C70.51 87.4899 77.24 90.9299 85.24 91.1499C90.34 91.2599 95.08 89.7299 99.46 86.5599C103.84 83.3899 107.29 79.0399 109.8 73.5099C112.31 67.9899 113.57 61.9899 113.57 55.5299C113.57 49.0699 112.31 43.1099 109.8 37.6599V37.6699ZM97.2 70.7899C93.86 75.0199 89.88 77.0599 85.25 76.9099C80.55 76.7999 76.54 74.6899 73.21 70.5699C69.89 66.4499 68.23 61.4499 68.23 55.5499C68.23 49.6499 69.9 44.5399 73.24 40.3299C76.58 36.1199 80.58 34.0799 85.25 34.1799C89.95 34.3299 93.96 36.4599 97.26 40.5799C100.56 44.6999 102.22 49.6799 102.22 55.5499C102.22 61.4199 100.55 66.5699 97.21 70.7999L97.2 70.7899Z" fill="#FCFFFD"/>
<path d="M107.45 76.9598C109.5 74.3298 111.15 71.0798 112.43 67.2098C113.7 63.3398 114.34 59.4498 114.34 55.5398C114.34 45.3198 111.61 36.8798 106.15 30.2298C100.69 23.5798 93.96 20.1398 85.96 19.9098C80.86 19.7998 76.12 21.3298 71.74 24.4998C67.36 27.6798 63.91 32.0298 61.4 37.5498C58.88 43.0698 57.63 49.0698 57.63 55.5298C57.63 61.9898 58.89 67.9498 61.4 73.3998C63.91 78.8498 67.36 83.1598 71.74 86.3398C76.12 89.5198 80.86 91.1098 85.96 91.1098C97.17 91.1098 106.71 91.1098 114.59 91.1098C115.5 91.1098 116.4 91.1098 117.27 91.1098C123.6 91.1098 128.75 91.1198 132.71 91.1298C136.24 91.1298 138.83 91.1498 140.47 91.1598V76.9598H107.46H107.45ZM97.97 70.7598C94.63 74.9698 90.63 77.0198 85.96 76.8998C81.26 76.7498 77.25 74.6198 73.95 70.4998C70.65 66.3798 69 61.3998 69 55.5298C69 49.6598 70.67 44.5098 74.01 40.2798C77.35 36.0498 81.33 34.0098 85.97 34.1598C90.67 34.2698 94.68 36.3898 98.01 40.4998C101.33 44.6198 102.99 49.6198 102.99 55.5198C102.99 61.4198 101.32 66.5298 97.98 70.7398L97.97 70.7598Z" fill="#FCFFFD"/>
<path d="M170.9 61.1999C168.99 81.8299 161.85 99.2299 148.49 113.68C146.86 115.45 145.31 117.32 143.4 118.78C141.45 120.27 138.98 120.09 137.61 118.39C136.14 116.56 136.29 114.03 138.15 112.29C144.68 106.24 150.14 99.3099 154.26 91.2499C158.98 82.0199 161.75 72.1999 162.5 61.7399C163.86 42.9399 159.16 25.9899 148.45 10.8499C147.56 9.5899 146.56 8.4199 145.62 7.1999C144.08 5.1899 144.19 2.5599 145.87 1.0499C147.6 -0.500099 150.11 -0.380099 151.72 1.5899C156.82 7.7999 160.99 14.6399 164.14 22.1599C167.65 30.5399 169.93 39.2499 170.63 48.3699C170.98 52.8699 170.96 57.3999 170.89 61.1899L170.9 61.1999Z" fill="#FCFFFD"/>
<path d="M151.86 61.2798C150.4 77.7197 143.66 91.7198 131.91 103.1C130.74 104.24 129.45 105.08 127.78 104.83C126.16 104.58 125.04 103.6 124.53 101.97C124.03 100.34 124.33 98.8698 125.53 97.6598C127.32 95.8698 129.14 94.0998 130.78 92.1498C137.34 84.3798 141.46 75.3898 143.07 65.1698C145.71 48.3498 141.77 33.3598 131.46 20.1998C130.39 18.8398 129.91 17.4198 130.44 15.7398C131.35 12.8398 134.85 11.9498 137.03 14.0498C138.33 15.2998 139.31 16.8198 140.34 18.3098C147.16 28.1398 151.03 39.1098 151.93 51.2098C152.17 54.4697 152.02 57.7397 151.85 61.2798H151.86Z" fill="#FCFFFD"/>
<path d="M133.03 59.1201C132.55 65.1101 131.1 70.6001 128.68 75.5801C126.3 80.5001 122.98 84.9201 118.74 88.8601C118.31 89.2601 117.8 89.5601 117.26 89.7401C116.39 89.7401 115.5 89.7401 114.59 89.7401C113.96 89.5201 113.39 89.1501 112.97 88.6201C111.48 86.7701 111.74 84.0001 113.47 82.3901C115.72 80.2901 117.65 78.0301 119.24 75.5901C122.35 70.8401 124.2 65.4101 124.74 59.2301C125.62 49.2401 123.09 40.5001 116.94 32.8501C115.4 30.9301 115.59 28.4001 117.31 26.8501C119.11 25.2201 121.58 25.3901 123.22 27.4301C128.2 33.6101 131.37 40.6901 132.63 48.6901C133.18 52.1501 133.41 55.6101 133.02 59.1201H133.03Z" fill="#FCFFFD"/>
<path d="M0.0900018 60.4398C1.39 81.1198 8 98.7498 20.94 113.63C22.52 115.45 24.01 117.37 25.88 118.89C27.79 120.44 30.25 120.35 31.68 118.69C33.21 116.91 33.13 114.37 31.32 112.58C24.97 106.32 19.72 99.2098 15.84 91.0298C11.4 81.6498 8.92 71.7398 8.48 61.2698C7.68 42.4398 12.88 25.6398 24.04 10.8598C24.97 9.62983 26 8.48983 26.97 7.29983C28.57 5.33983 28.53 2.70983 26.9 1.14983C25.22 -0.460172 22.7 -0.410172 21.03 1.48983C15.75 7.52983 11.38 14.2298 8.01 21.6398C4.24 29.9098 1.7 38.5398 0.730002 47.6398C0.250002 52.1298 0.140002 56.6498 0.0800018 60.4398H0.0900018Z" fill="#FCFFFD"/>
<path d="M45.22 102.7C44.67 104.32 43.51 105.26 41.89 105.46C40.22 105.66 38.95 104.77 37.81 103.6C26.4 91.8299 20.08 77.6299 19.11 61.1499C19.04 57.5999 18.99 54.3199 19.33 51.0799C20.52 39.6899 24.32 29.3899 30.72 20.1999C31.05 19.7299 31.38 19.2599 31.72 18.7999C31.77 18.7199 31.83 18.6499 31.88 18.5799C32.95 17.1299 33.98 15.6399 35.32 14.4299C37.56 12.4099 41.03 13.4099 41.86 16.3399C42.15 17.3699 42.07 18.2899 41.72 19.1599C41.49 19.7199 41.15 20.2499 40.71 20.7699C37.45 24.6699 34.78 28.7699 32.7 33.0499C27.94 42.8299 26.28 53.5999 27.77 65.3499C29.07 75.6199 32.93 84.7399 39.25 92.7199C40.84 94.7199 42.6 96.5499 44.34 98.3899C45.51 99.6299 45.77 101.11 45.22 102.72V102.7Z" fill="#FCFFFD"/>
<path d="M38 59.6001C38.6 71.5301 43.1 81.5801 51.4 89.7901C53.04 91.4201 55.79 91.3501 57.17 89.7301C58.71 87.9201 58.54 85.1501 56.86 83.4801C50.41 77.0901 46.83 69.3501 46.28 59.9701C45.7 49.9601 48.49 41.3101 54.86 33.8601C56.46 31.9901 56.34 29.4601 54.67 27.8501C52.91 26.1601 50.45 26.2501 48.74 28.2401C43.58 34.2601 40.2 41.2301 38.7 49.1801C38.05 52.6201 37.71 56.0701 38 59.6001Z" fill="#FCFFFD"/>
</g>
</g>
</g>
<defs>
<clipPath id="clip0_220_6360">
<rect width="143" height="120" fill="white"/>
</clipPath>
</defs>
</svg>
