<svg width="25" height="24" viewBox="0 0 25 24" fill="none" xmlns="http://www.w3.org/2000/svg">
<path d="M12.5 13C13.0523 13 13.5 12.5523 13.5 12C13.5 11.4477 13.0523 11 12.5 11C11.9477 11 11.5 11.4477 11.5 12C11.5 12.5523 11.9477 13 12.5 13Z" fill="white"/>
<path d="M17.5 13C18.0523 13 18.5 12.5523 18.5 12C18.5 11.4477 18.0523 11 17.5 11C16.9477 11 16.5 11.4477 16.5 12C16.5 12.5523 16.9477 13 17.5 13Z" fill="white"/>
<path d="M7.5 13C8.05228 13 8.5 12.5523 8.5 12C8.5 11.4477 8.05228 11 7.5 11C6.94772 11 6.5 11.4477 6.5 12C6.5 12.5523 6.94772 13 7.5 13Z" fill="white"/>
<path d="M12.5 1.00001C10.5584 0.998039 8.65093 1.51054 6.97177 2.48535C5.2926 3.46015 3.90169 4.86246 2.94062 6.54952C1.97955 8.23658 1.48262 10.1482 1.50043 12.0897C1.51824 14.0312 2.05014 15.9334 3.042 17.6025L2.5078 21.876C2.49033 22.0167 2.50295 22.1594 2.54482 22.2949C2.58669 22.4303 2.65685 22.5553 2.75066 22.6616C2.84446 22.7678 2.95978 22.8529 3.08896 22.9113C3.21814 22.9696 3.35825 22.9999 3.5 23C3.58184 23.0002 3.66337 22.9901 3.7427 22.97L7.8232 21.95C9.28445 22.644 10.8823 23.0028 12.5 23C15.4174 23 18.2153 21.8411 20.2782 19.7782C22.3411 17.7153 23.5 14.9174 23.5 12C23.5 9.08262 22.3411 6.28473 20.2782 4.22183C18.2153 2.15893 15.4174 1.00001 12.5 1.00001ZM12.5 21C11.0709 21.0018 9.6625 20.6591 8.394 20.001C8.25241 19.9285 8.09557 19.8908 7.9365 19.891C7.85466 19.8908 7.77313 19.9009 7.6938 19.921L4.6738 20.6759L5.07 17.501C5.09921 17.2692 5.04612 17.0345 4.92 16.8379C3.84721 15.1537 3.36544 13.1603 3.55063 11.172C3.73582 9.18375 4.57744 7.31364 5.94281 5.85649C7.30819 4.39934 9.11967 3.43802 11.0917 3.12406C13.0638 2.81011 15.0842 3.16137 16.8346 4.12248C18.585 5.08359 19.9657 6.59989 20.7592 8.43236C21.5526 10.2648 21.7137 12.3093 21.217 14.2434C20.7202 16.1775 19.594 17.8913 18.0157 19.1146C16.4374 20.338 14.4969 21.0013 12.5 21Z" fill="white"/>
</svg>
