<svg width="21" height="18" viewBox="0 0 21 18" fill="none" xmlns="http://www.w3.org/2000/svg">
<path d="M10.5 17.6487C10.3989 17.6487 10.2977 17.6225 10.2071 17.5702C10.1087 17.5134 7.76996 16.1555 5.3977 14.1095C3.99169 12.8969 2.86935 11.6941 2.06193 10.5348C1.01708 9.03454 0.491655 7.5915 0.500131 6.24568C0.510053 4.67967 1.07095 3.20694 2.07962 2.09874C3.10532 0.971864 4.47415 0.351318 5.93403 0.351318C7.805 0.351318 9.51558 1.39936 10.5001 3.05959C11.4846 1.3994 13.1951 0.351318 15.0661 0.351318C16.4453 0.351318 17.7612 0.911239 18.7715 1.92796C19.8803 3.0437 20.5102 4.62018 20.4999 6.2531C20.4914 7.59658 19.9561 9.03743 18.909 10.5356C18.0991 11.6944 16.9783 12.8966 15.5778 14.1088C13.2142 16.1546 10.8923 17.5125 10.7946 17.5693C10.7035 17.6222 10.6018 17.6487 10.5 17.6487Z" fill="white"/>
</svg>
