<svg width="26" height="26" viewBox="0 0 26 26" fill="none" xmlns="http://www.w3.org/2000/svg">
<g id="Frame" clip-path="url(#clip0_254_16349)">
<g id="Group">
<g id="_x31_9_Current_Location">
<g id="Group_2">
<path id="Vector" d="M24.0195 11.4133H22.2628C21.5971 7.48223 18.4971 4.37439 14.5661 3.70871V1.95983C14.5661 1.08933 13.8571 0.384277 12.9906 0.384277C12.1201 0.384277 11.415 1.08938 11.415 1.95983V3.7048C7.48004 4.37044 4.38011 7.47828 3.71442 11.4133H1.95763C1.09108 11.4133 0.38208 12.1183 0.38208 12.9888C0.38208 13.8554 1.09108 14.5644 1.95763 14.5644H3.70255C4.36824 18.4954 7.47999 21.5954 11.415 22.265V24.0177C11.415 24.8882 12.12 25.5933 12.9905 25.5933C13.8571 25.5933 14.5661 24.8882 14.5661 24.0177V22.265C18.4971 21.5993 21.6049 18.4954 22.2706 14.5644H24.0195C24.886 14.5644 25.5951 13.8594 25.5951 12.9889C25.5951 12.1183 24.8861 11.4133 24.0195 11.4133ZM14.5661 21.4654V20.0198C14.5661 19.1493 13.8571 18.4442 12.9906 18.4442C12.1201 18.4442 11.415 19.1493 11.415 20.0198V21.4654C7.91331 20.8155 5.15211 18.0621 4.50615 14.5644H5.95571C6.82622 14.5644 7.53127 13.8554 7.53127 12.9888C7.53127 12.1183 6.82617 11.4133 5.95571 11.4133H4.51006C5.15997 7.91551 7.91331 5.1504 11.415 4.5044V5.95786C11.415 6.82837 12.1201 7.53341 12.9906 7.53341C13.8571 7.53341 14.5661 6.82837 14.5661 5.95786V4.5044C18.0639 5.15431 20.8172 7.91551 21.4671 11.4133H20.0176C19.151 11.4133 18.442 12.1184 18.442 12.9888C18.442 13.8554 19.151 14.5644 20.0176 14.5644H21.475C20.8251 18.0622 18.0639 20.8155 14.5661 21.4654Z" fill="#024978"/>
<path id="Vector_2" d="M15.6573 12.9889C15.6573 14.4621 14.4599 15.6595 12.9907 15.6595C11.5175 15.6595 10.3201 14.4621 10.3201 12.9889C10.3201 11.5158 11.5175 10.3184 12.9907 10.3184C14.4599 10.3184 15.6573 11.5158 15.6573 12.9889Z" fill="#024978"/>
</g>
</g>
</g>
</g>
<defs>
<clipPath id="clip0_254_16349">
<rect width="25.3181" height="25.3181" fill="white" transform="translate(0.32959 0.32959)"/>
</clipPath>
</defs>
</svg>
