<svg width="281" height="230" viewBox="0 0 281 230" fill="none" xmlns="http://www.w3.org/2000/svg">
<g clip-path="url(#clip0_603_70396)">
<path fill-rule="evenodd" clip-rule="evenodd" d="M64.4277 42.9671C66.8994 46.6 68.9571 54.943 69.5891 59.4071C70.5728 66.3897 68.9758 75.2712 65.6916 81.5066C56.2777 99.3817 33.4435 99.8487 15.5061 105.418C22.3579 106.265 29.2191 110.542 35.5386 113.235C44.9742 117.257 52.3397 122.801 59.1915 130.027C75.1552 146.865 77.0417 167.881 75.6346 189.19C83.7348 179.309 98.1793 155.068 115.398 163.803C135.467 173.394 150.413 213.204 152.723 206.794C156.705 195.737 157.819 182.242 167.775 174.17C177.173 166.549 192.399 166.913 204.147 168.684C211.553 169.802 218.066 171.987 224.88 174.967C230.851 177.578 238.939 179.119 244.156 182.55C236.676 174.82 227.358 168.105 218.704 161.381C209.664 154.355 205.772 145.614 207.762 134.441C212.008 110.604 241.893 111.775 258.635 99.9981C242.276 97.1839 220.883 99.8892 211.258 84.3862C202.809 70.7822 192.47 55.7648 194.709 39.4431C192.676 47.6055 184.028 56.87 177.494 62.3645C168.895 69.5961 157.511 71.5231 146.55 67.501C136.731 63.9023 131.912 56.2598 127.797 47.6771C123.85 39.4431 119.974 31.4208 116.833 23C115.843 34.207 113.259 56.926 97.261 55.0208" fill="#F1F9FF"/>
<path fill-rule="evenodd" clip-rule="evenodd" d="M68.4653 114.037C64.9787 114.037 61.545 114.065 58.1113 114.031C52.8782 113.978 47.6421 113.884 42.4091 113.797C39.6665 113.751 37.0235 113.172 34.5268 111.982C31.7967 110.681 27.7653 106.5 28.4284 101.986C28.5217 101.348 28.5498 100.694 28.5373 100.047C28.4844 96.9651 29.465 94.2069 30.8752 91.5733C33.154 87.3146 31.1274 80.9578 25.6795 79.862C19.7523 78.6666 13.9184 79.2051 8.03789 79.7312C5.72178 79.9367 3.40879 80.1857 0.893445 80.4348C0.619497 78.9592 0.333096 77.4058 0 75.6064C1.54407 75.3481 2.97607 75.0056 4.42675 74.8842C9.27688 74.4733 14.1301 73.9845 18.9927 73.8227C22.8685 73.695 26.71 74.0935 30.3553 75.8804C34.2902 77.8105 36.5659 81.0761 37.7955 85.2569C38.2936 86.9566 38.0819 88.6844 37.2694 90.3436C36.3978 92.1149 35.6039 93.9423 34.9408 95.8101C34.0443 98.3255 33.7361 100.94 34.2684 103.621C34.4926 104.754 34.9595 105.601 36.0055 106.186C38.7512 107.724 41.774 108.234 44.7501 108.356C50.587 108.595 56.4396 108.415 62.2859 108.409C64.2502 108.409 66.2176 108.409 68.3345 108.409C68.5773 107.12 68.7579 105.993 69.0069 104.888C70.2739 99.3123 73.0881 95.1968 78.4613 93.1858C81.7175 91.9686 85.0111 90.932 88.3639 90.107C90.1508 89.6681 91.9937 89.4782 93.7806 89.1793C93.986 88.7248 94.1635 88.3855 94.2973 88.0275C95.2437 85.4997 97.1271 84.3634 99.5895 84.1673C100.629 84.0833 101.688 84.0833 102.724 84.1922C104.536 84.3852 105.99 85.2942 107.014 86.9037C107.662 87.9217 108.284 88.9552 109.072 90.2284C111.12 89.9981 113.306 89.6992 115.5 89.5186C120.659 89.0953 125.82 88.7342 130.978 88.3419C132.831 88.2018 134.247 88.9023 135.047 90.7047C135.913 92.6504 135.993 94.5836 134.714 96.3954C133.593 97.983 131.993 98.8516 130.231 99.2812C128.198 99.7793 126.125 100.112 124.055 100.427C120.948 100.9 117.823 101.27 114.716 101.74C113.819 101.874 112.951 102.198 111.899 102.478C112.172 105.825 112.437 109.034 112.723 112.49C113.567 112.49 114.283 112.509 114.996 112.487C118.567 112.378 122.137 112.287 125.708 112.126C127.61 112.038 129.509 111.764 131.411 111.677C132.818 111.615 134.232 111.677 135.642 111.755C137.637 111.867 138.696 113.262 139.396 115.024C140.112 116.833 139.633 118.451 138.512 119.902C137.301 121.474 135.707 122.352 133.839 122.819C130.231 123.719 126.586 124.254 122.891 124.553C119.765 124.805 116.652 125.188 113.302 125.537C113.256 126.274 113.147 127.025 113.172 127.775C113.237 129.755 112.365 131.09 111.008 132.444C108.891 134.558 106.401 134.686 103.808 134.614C103.039 134.592 102.161 134.35 101.538 133.901C100.405 133.086 99.2284 133.111 98.0019 133.288C93.3914 133.954 88.7779 133.951 84.1799 133.263C80.4474 132.703 77.1071 131.019 74.1621 128.6C71.8585 126.704 70.5261 124.049 69.8537 121.076C69.3276 118.753 68.9291 116.4 68.4746 114.049L68.4653 114.037ZM98.6432 127.607C98.6432 126.187 98.6743 125.088 98.6369 123.993C98.5622 121.86 98.4657 119.728 98.3505 117.595C98.1233 113.405 98.2665 109.184 97.2236 105.068C96.4173 101.89 95.7698 98.6648 94.9448 95.4957C94.5464 93.9672 94.2911 93.852 92.8218 94.0357C88.1584 94.6209 83.6196 95.6856 79.252 97.5908C75.9023 99.0508 74.0158 101.772 72.8298 105.155C72.5091 106.071 72.5589 107.132 72.4406 108.11C73.882 108.265 75.0992 108.368 76.3039 108.536C77.2627 108.67 77.7888 109.29 78.041 110.286C78.5889 112.459 77.7266 113.987 75.6004 114.42C74.8283 114.576 74.0438 114.65 73.25 114.762C73.2158 115.158 73.138 115.419 73.1784 115.662C73.689 118.682 74.489 121.627 76.2136 124.13C77.3717 125.807 78.9594 127.211 80.9081 127.691C85.7925 128.889 90.7578 129.316 95.7542 128.525C96.7006 128.376 97.6065 127.943 98.64 127.604L98.6432 127.607ZM109.066 118.062C108.733 114.314 108.63 109.682 107.833 105.187C107.002 100.498 105.52 95.9346 104.278 91.3304C103.91 89.9732 102.413 88.7591 101.333 88.7559C99.1568 88.7497 97.8431 90.6674 98.6805 92.9056C99.9288 96.2428 100.362 99.7855 101.267 103.21C102.03 106.089 102.229 109.053 102.525 112.023C102.861 115.394 102.892 118.741 102.812 122.106C102.784 123.27 102.699 124.438 102.737 125.602C102.777 126.878 103.191 128.102 104.234 128.784C105.959 129.907 108.459 128.737 108.926 126.667C109.066 126.047 109.056 125.381 109.063 124.737C109.078 122.794 109.069 120.851 109.069 118.065L109.066 118.062ZM136.507 116.72C136.516 115.597 135.816 115.288 135.056 115.264C133.709 115.22 132.351 115.254 131.006 115.363C125.615 115.808 120.223 116.294 114.831 116.764C114.305 116.811 113.779 116.864 113.156 116.923C113.253 118.184 113.334 119.248 113.427 120.487C115.815 120.378 118.031 120.413 120.217 120.148C124.248 119.662 128.264 119.024 132.283 118.405C133.802 118.171 135.262 117.698 136.504 116.72H136.507ZM110.684 97.3729C111.145 97.3729 111.391 97.3978 111.628 97.3698C116.263 96.8125 120.908 96.3051 125.531 95.6576C127.156 95.4303 128.749 94.898 130.334 94.4186C130.975 94.2256 131.601 93.8427 131.467 92.9243C128.469 91.511 114.881 93.1703 110.071 94.4591C110.264 95.3712 110.454 96.2895 110.684 97.3729Z" fill="#4A5E9C"/>
<path fill-rule="evenodd" clip-rule="evenodd" d="M98.6433 127.607C97.6128 127.943 96.7069 128.379 95.7575 128.528C90.761 129.319 85.7957 128.892 80.9113 127.694C78.9595 127.214 77.3749 125.81 76.2169 124.132C74.4922 121.633 73.6922 118.685 73.1816 115.665C73.1412 115.422 73.219 115.161 73.2532 114.765C74.0471 114.65 74.8316 114.579 75.6036 114.423C77.7298 113.99 78.5921 112.465 78.0442 110.289C77.7921 109.293 77.2628 108.673 76.3071 108.539C75.1024 108.371 73.8852 108.268 72.4438 108.113C72.5621 107.135 72.5123 106.077 72.833 105.158C74.0191 101.775 75.9056 99.0569 79.2552 97.5937C83.6228 95.6885 88.1616 94.6239 92.825 94.0386C94.2943 93.855 94.5496 93.9701 94.9481 95.4986C95.7761 98.6708 96.4237 101.893 97.2268 105.071C98.2666 109.187 98.1265 113.408 98.3537 117.598C98.4689 119.727 98.5654 121.86 98.6401 123.995C98.6775 125.091 98.6464 126.19 98.6464 127.61L98.6433 127.607Z" fill="#FF5A5A"/>
<path fill-rule="evenodd" clip-rule="evenodd" d="M109.066 118.061C109.066 120.847 109.075 122.79 109.059 124.733C109.053 125.377 109.062 126.043 108.922 126.663C108.455 128.73 105.956 129.903 104.231 128.78C103.188 128.098 102.774 126.874 102.734 125.598C102.699 124.434 102.78 123.266 102.808 122.102C102.889 118.737 102.858 115.39 102.522 112.019C102.226 109.052 102.027 106.089 101.264 103.206C100.361 99.7846 99.9288 96.2388 98.6773 92.9017C97.8399 90.6634 99.1536 88.7457 101.33 88.752C102.41 88.7551 103.907 89.9692 104.275 91.3265C105.52 95.9307 106.998 100.494 107.83 105.183C108.627 109.678 108.729 114.31 109.062 118.058L109.066 118.061Z" fill="#FF5A5A"/>
<path fill-rule="evenodd" clip-rule="evenodd" d="M136.507 116.72C135.262 117.697 133.805 118.171 132.286 118.404C128.27 119.024 124.254 119.662 120.22 120.147C118.034 120.409 115.818 120.378 113.43 120.487C113.334 119.248 113.253 118.183 113.159 116.922C113.779 116.863 114.308 116.81 114.834 116.764C120.226 116.293 125.618 115.805 131.009 115.363C132.354 115.251 133.712 115.219 135.059 115.263C135.819 115.288 136.519 115.596 136.51 116.72H136.507Z" fill="white"/>
<path fill-rule="evenodd" clip-rule="evenodd" d="M110.687 97.3694C110.46 96.2861 110.267 95.3677 110.074 94.4556C114.884 93.1668 128.472 91.5044 131.47 92.9208C131.604 93.8423 130.978 94.2221 130.337 94.4151C128.753 94.8945 127.159 95.4269 125.534 95.6541C120.908 96.3016 116.266 96.809 111.631 97.3663C111.394 97.3943 111.148 97.3694 110.687 97.3694Z" fill="white"/>
<path fill-rule="evenodd" clip-rule="evenodd" d="M280 106.567V111.735C279.483 111.791 279.05 111.878 278.618 111.878C272.968 111.872 267.352 112.351 261.751 113.145C256.204 113.933 250.619 114.343 245.031 114.023C241.548 113.821 238.058 113.35 234.627 112.678C231.418 112.049 229.098 109.714 227.224 106.984C226.312 105.655 226.194 103.946 226.129 102.284C226.063 100.655 225.964 99.0211 225.724 97.4147C225.509 95.9672 225.129 95.7057 223.794 95.6465C219.199 95.4504 214.688 96.0699 210.128 97.2155C210.128 98.579 210.068 99.8958 210.137 101.206C210.349 105.16 209.122 108.668 206.949 111.697C205.34 113.939 203.273 115.772 200.882 117.133C196.433 119.667 191.705 121.457 186.979 123.265C186.556 123.427 186.107 123.536 185.665 123.605C185.011 123.711 184.588 124.05 184.187 124.645C183.032 126.354 181.5 127.543 179.551 128.047C178.455 128.33 177.363 128.629 176.279 128.959C174.088 129.625 171.906 129.352 169.754 128.81C168.961 128.611 168.204 128.128 167.504 127.649C166.461 126.936 165.477 126.12 164.475 125.339C164.157 125.09 163.821 124.847 163.556 124.542C160.113 120.573 157.031 116.355 155.347 111.131C154.367 108.096 153.324 105.098 153.093 101.848C152.729 96.7174 152.956 91.6712 154.718 86.8086C155.269 85.2894 155.718 83.7173 156.403 82.2729C157.408 80.1467 159.095 78.7333 161.128 77.815C162.221 77.3231 163.329 76.8717 164.44 76.4328C168.036 75.0164 171.716 74.7268 175.42 75.751C176.292 75.9907 177.163 76.6351 177.805 77.3356C178.462 78.0485 179.047 78.2384 179.894 77.9769C183.608 76.8375 187.452 76.5729 191.262 76.218C197.099 75.6732 202.027 77.9239 205.835 82.7118C207.618 84.9532 208.705 87.6304 209.228 90.5474C209.303 90.9583 209.387 91.3692 209.496 91.914C211.239 91.5902 212.945 91.3225 214.632 90.9458C218.091 90.1769 221.58 90.0835 225.083 90.3232C227.937 90.5193 230.082 92.4432 230.708 95.466C231.097 97.3431 231.25 99.2826 231.436 101.203C231.548 102.33 231.312 103.498 232.171 104.456C233.317 105.736 234.456 107.031 236.168 107.342C241.871 108.373 247.615 108.644 253.386 108.264C254.962 108.161 256.54 108.092 258.118 107.996C262.458 107.734 266.798 107.492 271.134 107.193C273.441 107.034 275.744 106.769 278.051 106.576C278.658 106.527 279.271 106.57 280 106.57V106.567ZM187.452 117.201C191.396 116.986 198.17 113.612 200.542 111.772C204.029 109.07 206.062 105.558 205.922 100.711C205.794 96.3127 205.091 92.0634 203.951 87.8608C202.999 84.3586 198.771 80.3023 194.724 80.2245C191.714 80.1653 188.753 80.3615 185.793 80.8253C184.202 81.0743 182.621 81.367 180.933 81.6596C184.348 87.0452 186.369 92.7981 187.633 98.8405C188.906 104.93 188.392 111.075 187.455 117.201H187.452ZM174.794 112.644C174.533 102.968 172.656 94.8278 168.226 87.509C167.479 86.27 166.43 85.1431 165.309 84.2839C162.635 82.2293 159.506 83.5119 158.395 86.8428C157.449 89.6882 157.249 92.6424 157.038 95.5998C156.944 96.9229 156.882 98.2864 157.069 99.5876C157.514 102.698 158.171 105.761 159.142 108.752C160.689 113.525 163.469 117.323 166.772 120.809C168.755 122.901 173.851 121.89 174.113 118.288C174.275 116.068 174.639 113.867 174.791 112.644H174.794ZM167.389 79.4742C167.292 79.6486 167.196 79.8198 167.099 79.991C167.317 80.0751 167.554 80.1249 167.747 80.2525C170.028 81.7374 171.638 83.8699 172.958 86.3261C174.539 89.2679 176.121 92.2159 176.989 95.494C178.381 100.739 179.595 106.032 179.601 111.548C179.607 115.754 179.477 119.913 177.12 123.552C177.07 123.63 177.114 123.782 177.114 123.901C178.988 124 180.093 123.434 181.098 121.84C183.116 118.639 183.931 115.031 184.127 111.24C184.211 109.609 184.271 107.956 184.115 106.337C183.816 103.217 183.71 99.9986 182.879 97.0287C181.447 91.9171 178.978 87.2506 176.335 82.7305C175.8 81.8184 175.159 80.9156 174.393 80.2338C172.211 78.2913 169.758 79.275 167.389 79.4742Z" fill="#4A5E9C"/>
<path fill-rule="evenodd" clip-rule="evenodd" d="M187.449 117.202C188.386 111.075 188.903 104.93 187.627 98.8411C186.363 92.7987 184.342 87.0458 180.927 81.6602C182.615 81.3707 184.196 81.075 185.787 80.8259C188.747 80.3621 191.711 80.166 194.718 80.2251C198.765 80.3029 202.993 84.3561 203.945 87.8614C205.088 92.064 205.788 96.3133 205.916 100.712C206.059 105.559 204.023 109.071 200.536 111.773C198.164 113.613 191.39 116.987 187.446 117.202H187.449Z" fill="#FF5A5A"/>
<path fill-rule="evenodd" clip-rule="evenodd" d="M174.791 112.644C174.639 113.867 174.275 116.068 174.113 118.287C173.851 121.889 168.752 122.904 166.772 120.809C163.469 117.322 160.686 113.521 159.142 108.752C158.171 105.761 157.514 102.697 157.069 99.5874C156.882 98.2862 156.944 96.9227 157.038 95.5996C157.246 92.6422 157.445 89.6879 158.395 86.8426C159.506 83.5116 162.635 82.2322 165.309 84.2837C166.43 85.1429 167.479 86.2729 168.226 87.5088C172.653 94.8276 174.533 102.968 174.794 112.644H174.791ZM166.411 95.3101C166.511 93.0967 165.661 91.5091 164.21 90.7713C162.8 90.0522 161.15 90.681 160.736 92.1535C160.281 93.766 160.359 95.4159 160.951 96.9507C161.455 98.2613 162.489 99.0271 163.858 99.0426C165.11 99.0582 165.558 98.0153 165.941 96.9943C166.193 96.3312 166.327 95.6183 166.411 95.3101ZM164.129 111.255C164.229 112.69 164.699 113.883 165.645 114.838C166.542 115.744 167.977 115.959 169.098 115.374C170.187 114.804 170.589 113.82 170.554 112.563C170.505 110.832 169.776 109.403 168.649 108.285C167.223 106.875 165.673 107.211 164.767 109.042C164.437 109.714 164.335 110.514 164.126 111.255H164.129Z" fill="white"/>
<path fill-rule="evenodd" clip-rule="evenodd" d="M167.385 79.4708C169.754 79.2685 172.208 78.2847 174.39 80.2304C175.156 80.9122 175.8 81.8149 176.332 82.7271C178.975 87.2472 181.444 91.9137 182.876 97.0253C183.707 99.9951 183.81 103.214 184.112 106.333C184.268 107.952 184.208 109.605 184.124 111.236C183.928 115.028 183.113 118.636 181.095 121.836C180.09 123.43 178.988 123.997 177.111 123.897C177.111 123.779 177.067 123.629 177.117 123.548C179.473 119.909 179.604 115.75 179.598 111.545C179.592 106.028 178.378 100.739 176.986 95.4906C176.118 92.2125 174.536 89.2645 172.955 86.3226C171.635 83.8664 170.022 81.734 167.743 80.2491C167.55 80.1214 167.311 80.0747 167.096 79.9876C167.192 79.8164 167.289 79.642 167.385 79.4708Z" fill="#FF5A5A"/>
<path fill-rule="evenodd" clip-rule="evenodd" d="M166.411 95.3063C166.327 95.6176 166.193 96.3305 165.941 96.9904C165.555 98.0084 165.107 99.0544 163.858 99.0388C162.486 99.0201 161.455 98.2574 160.951 96.9468C160.359 95.4121 160.285 93.7622 160.736 92.1496C161.15 90.6772 162.8 90.0514 164.21 90.7674C165.661 91.5052 166.514 93.0929 166.411 95.3063Z" fill="#4A5E9C"/>
<path fill-rule="evenodd" clip-rule="evenodd" d="M164.129 111.252C164.335 110.511 164.437 109.711 164.77 109.039C165.676 107.205 167.227 106.872 168.652 108.283C169.779 109.4 170.508 110.826 170.558 112.56C170.592 113.821 170.187 114.804 169.101 115.371C167.977 115.959 166.545 115.741 165.648 114.835C164.699 113.88 164.232 112.687 164.132 111.252H164.129Z" fill="#4A5E9C"/>
</g>
<defs>
<clipPath id="clip0_603_70396">
<rect width="280" height="230" fill="white" transform="translate(0.5)"/>
</clipPath>
</defs>
</svg>
