<svg width="32" height="32" viewBox="0 0 32 32" fill="none" xmlns="http://www.w3.org/2000/svg">
<path d="M22.0885 19.1998C22.1196 18.8518 22.0676 18.5014 21.9369 18.1773C21.8062 17.8533 21.6004 17.5649 21.3365 17.3359C20.9227 16.9836 20.6406 16.5013 20.5365 15.9679L20.0485 13.0319C19.9004 12.0998 19.4658 11.2369 18.8049 10.5632C18.144 9.88936 17.2897 9.43808 16.3606 9.27198V8.79999C16.3606 8.58782 16.2763 8.38434 16.1263 8.23431C15.9763 8.08428 15.7728 8 15.5606 8C15.3484 8 15.145 8.08428 14.9949 8.23431C14.8449 8.38434 14.7606 8.58782 14.7606 8.79999V9.27198C13.8283 9.43308 12.9695 9.88118 12.3041 10.5538C11.6387 11.2264 11.1998 12.0899 11.0487 13.0239L10.5527 15.9999C10.4657 16.5198 10.2031 16.9942 9.8087 17.3439L9.7367 17.4079C9.40517 17.7002 9.17055 18.0867 9.06407 18.5157C8.95759 18.9447 8.98431 19.396 9.14066 19.8095C9.29702 20.223 9.57559 20.579 9.93931 20.8302C10.303 21.0815 10.7346 21.216 11.1767 21.2158H19.9126C20.4624 21.2154 20.9919 21.0076 21.3953 20.6339C21.7987 20.2602 22.0462 19.7481 22.0885 19.1998ZM15.5606 23.9998C16.1335 24.0078 16.6904 23.8105 17.1306 23.4437C17.5707 23.0769 17.8651 22.5648 17.9606 21.9998H13.2006C13.295 22.5579 13.5836 23.0648 14.0154 23.4307C14.4473 23.7967 14.9946 23.9982 15.5606 23.9998Z" fill="#082640"/>
</svg>
