<svg width="25" height="24" viewBox="0 0 25 24" fill="none" xmlns="http://www.w3.org/2000/svg">
<path d="M21.9064 10.4481L21.9369 10.4625H21.9706H24.2031C24.5086 10.4625 24.7563 10.7102 24.7563 11.0156V13.3594C24.7563 13.5472 24.6609 13.7223 24.503 13.8241L23.3718 14.5539L23.3031 14.5983V14.68V19.6325V19.7142L23.3718 19.7586L24.503 20.4884C24.6609 20.5902 24.7563 20.7653 24.7563 20.9531V23.2969C24.7563 23.6023 24.5086 23.85 24.2031 23.85H1.60938C1.30391 23.85 1.05625 23.6023 1.05625 23.2969V20.9531C1.05625 20.7653 1.15165 20.5902 1.30951 20.4884L1.22819 20.3623L1.30951 20.4884L2.4407 19.7585L2.50937 19.7142V19.6325V14.68V14.5983L2.44069 14.5539L1.30951 13.8241C1.15165 13.7223 1.05625 13.5472 1.05625 13.3594V11.0156C1.05625 10.7102 1.30391 10.4625 1.60938 10.4625H3.84189H3.87562L3.9061 10.4481L11.2454 6.97153L11.4487 6.87525L11.2817 6.72459C10.7883 6.27954 10.4781 5.63629 10.4781 4.92188C10.4781 4.61641 10.7258 4.36875 11.0312 4.36875C11.3367 4.36875 11.5844 4.61641 11.5844 4.92188C11.5844 5.65089 12.1772 6.24375 12.9062 6.24375C13.6353 6.24375 14.2281 5.65089 14.2281 4.92188C14.2281 4.19286 13.6353 3.6 12.9062 3.6C12.6008 3.6 12.3531 3.35234 12.3531 3.04688V1.40625V1.25625H12.2031H11.5C11.1945 1.25625 10.9469 1.00859 10.9469 0.703125C10.9469 0.397655 11.1945 0.15 11.5 0.15H14.3125C14.618 0.15 14.8656 0.397655 14.8656 0.703125C14.8656 1.00859 14.618 1.25625 14.3125 1.25625H13.6094H13.4594V1.40625V2.442V2.55533L13.5684 2.58629C14.5866 2.87546 15.3344 3.81309 15.3344 4.92188C15.3344 5.63629 15.0242 6.27954 14.5308 6.72459L14.3638 6.87525L14.5671 6.97153L21.9064 10.4481ZM12.9705 7.43935L12.9062 7.40893L12.842 7.43935L7.06263 10.1769L7.12684 10.4625H18.6857L18.7499 10.1769L12.9705 7.43935ZM23.65 21.3362V21.2545L23.5813 21.2102L22.4501 20.4804C22.2923 20.3785 22.1969 20.2035 22.1969 20.0156V14.2969C22.1969 14.109 22.2923 13.934 22.4501 13.8321L23.5813 13.1023L23.65 13.058V12.9763V11.7188V11.5688H23.5H2.3125H2.1625V11.7188V12.9763V13.058L2.23118 13.1023L3.36237 13.8321C3.52023 13.934 3.61562 14.109 3.61562 14.2969V20.0156C3.61562 20.2035 3.52023 20.3785 3.36237 20.4804L2.23118 21.2102L2.1625 21.2545V21.3362V22.5938V22.7437H2.3125H23.5H23.65V22.5938V21.3362Z" fill="#082640" stroke="white" stroke-width="0.3"/>
<path d="M5.32188 13.8281C5.32188 13.5227 5.56953 13.275 5.875 13.275C6.18047 13.275 6.42813 13.5227 6.42813 13.8281V20.4844C6.42813 20.7898 6.18047 21.0375 5.875 21.0375C5.56953 21.0375 5.32188 20.7898 5.32188 20.4844V13.8281Z" fill="#082640" stroke="white" stroke-width="0.3"/>
<path d="M8.13438 13.8281C8.13438 13.5227 8.38203 13.275 8.6875 13.275C8.99297 13.275 9.24063 13.5227 9.24063 13.8281V20.4844C9.24063 20.7898 8.99297 21.0375 8.6875 21.0375C8.38203 21.0375 8.13438 20.7898 8.13438 20.4844V13.8281Z" fill="#082640" stroke="white" stroke-width="0.3"/>
<path d="M10.9469 13.8281C10.9469 13.5227 11.1945 13.275 11.5 13.275C11.8055 13.275 12.0531 13.5227 12.0531 13.8281V20.4844C12.0531 20.7898 11.8055 21.0375 11.5 21.0375C11.1945 21.0375 10.9469 20.7898 10.9469 20.4844V13.8281Z" fill="#082640" stroke="white" stroke-width="0.3"/>
<path d="M13.7594 13.8281C13.7594 13.5227 14.007 13.275 14.3125 13.275C14.618 13.275 14.8656 13.5227 14.8656 13.8281V20.4844C14.8656 20.7898 14.618 21.0375 14.3125 21.0375C14.007 21.0375 13.7594 20.7898 13.7594 20.4844V13.8281Z" fill="#082640" stroke="white" stroke-width="0.3"/>
<path d="M16.5719 13.8281C16.5719 13.5227 16.8195 13.275 17.125 13.275C17.4305 13.275 17.6781 13.5227 17.6781 13.8281V20.4844C17.6781 20.7898 17.4305 21.0375 17.125 21.0375C16.8195 21.0375 16.5719 20.7898 16.5719 20.4844V13.8281Z" fill="#082640" stroke="white" stroke-width="0.3"/>
<path d="M19.3844 13.8281C19.3844 13.5227 19.632 13.275 19.9375 13.275C20.243 13.275 20.4906 13.5227 20.4906 13.8281V20.4844C20.4906 20.7898 20.243 21.0375 19.9375 21.0375C19.632 21.0375 19.3844 20.7898 19.3844 20.4844V13.8281Z" fill="#082640" stroke="white" stroke-width="0.3"/>
</svg>
