<svg width="25" height="25" viewBox="0 0 25 25" fill="none" xmlns="http://www.w3.org/2000/svg">
<g clip-path="url(#clip0_587_2255)">
<path d="M9.85624 9.40625L12.6669 8.07491L15.4775 9.40625H18.7624L14.3919 7.33597C14.9153 6.8638 15.245 6.18069 15.245 5.42188C15.245 4.24395 14.451 3.248 13.37 2.9412V1.90625H14.0731C14.4614 1.90625 14.7762 1.59144 14.7762 1.20312C14.7762 0.814812 14.4614 0.5 14.0731 0.5H11.2606C10.8723 0.5 10.5575 0.814812 10.5575 1.20312C10.5575 1.59144 10.8723 1.90625 11.2606 1.90625H11.9637V3.54688C11.9637 3.93519 12.2786 4.25 12.6669 4.25C13.313 4.25 13.8387 4.7757 13.8387 5.42188C13.8387 6.06805 13.313 6.59375 12.6669 6.59375C12.0207 6.59375 11.495 6.06805 11.495 5.42188C11.495 5.03356 11.1802 4.71875 10.7919 4.71875C10.4036 4.71875 10.0887 5.03356 10.0887 5.42188C10.0887 6.18069 10.4184 6.8638 10.9418 7.33597L6.57129 9.40625H9.85624Z" fill="#118C46"/>
<path d="M24.3448 14.4502C24.5455 14.3207 24.6667 14.0982 24.6667 13.8594V11.5156C24.6667 11.1273 24.3519 10.8125 23.9636 10.8125H1.36987C0.981561 10.8125 0.666748 11.1273 0.666748 11.5156V13.8594C0.666748 14.0982 0.788014 14.3207 0.988686 14.4502L2.11987 15.18V20.1325L0.988686 20.8623C0.788014 20.9918 0.666748 21.2143 0.666748 21.4531V23.7969C0.666748 24.1852 0.981561 24.5 1.36987 24.5H23.9636C24.3519 24.5 24.6667 24.1852 24.6667 23.7969V21.4531C24.6667 21.2143 24.5455 20.9918 24.3448 20.8623L23.2136 20.1325V15.18L24.3448 14.4502ZM5.33414 20.9844C5.33414 21.3727 5.01933 21.6875 4.63101 21.6875C4.2427 21.6875 3.92789 21.3727 3.92789 20.9844V14.3281C3.92789 13.9398 4.2427 13.625 4.63101 13.625C5.01933 13.625 5.33414 13.9398 5.33414 14.3281V20.9844ZM8.54845 20.9844C8.54845 21.3727 8.23364 21.6875 7.84533 21.6875C7.45701 21.6875 7.1422 21.3727 7.1422 20.9844V14.3281C7.1422 13.9398 7.45701 13.625 7.84533 13.625C8.23364 13.625 8.54845 13.9398 8.54845 14.3281V20.9844ZM11.7627 20.9844C11.7627 21.3727 11.4479 21.6875 11.0596 21.6875C10.6713 21.6875 10.3565 21.3727 10.3565 20.9844V14.3281C10.3565 13.9398 10.6713 13.625 11.0596 13.625C11.4479 13.625 11.7627 13.9398 11.7627 14.3281V20.9844ZM14.977 20.9844C14.977 21.3727 14.6622 21.6875 14.2739 21.6875C13.8856 21.6875 13.5708 21.3727 13.5708 20.9844V14.3281C13.5708 13.9398 13.8856 13.625 14.2739 13.625C14.6622 13.625 14.977 13.9398 14.977 14.3281V20.9844ZM18.1913 20.9844C18.1913 21.3727 17.8765 21.6875 17.4882 21.6875C17.0999 21.6875 16.785 21.3727 16.785 20.9844V14.3281C16.785 13.9398 17.0999 13.625 17.4882 13.625C17.8765 13.625 18.1913 13.9398 18.1913 14.3281V20.9844ZM21.4056 20.9844C21.4056 21.3727 21.0908 21.6875 20.7025 21.6875C20.3142 21.6875 19.9994 21.3727 19.9994 20.9844V14.3281C19.9994 13.9398 20.3142 13.625 20.7025 13.625C21.0908 13.625 21.4056 13.9398 21.4056 14.3281V20.9844Z" fill="#118C46"/>
</g>
<defs>
<clipPath id="clip0_587_2255">
<rect width="24" height="24" fill="white" transform="translate(0.666748 0.5)"/>
</clipPath>
</defs>
</svg>
