<svg width="375" height="335" viewBox="0 0 375 335" fill="none" xmlns="http://www.w3.org/2000/svg">
<rect width="375" height="334.397" fill="white"/>
<path d="M375 51H0V334.397H375V51Z" fill="white"/>
<g filter="url(#filter0_d_588_21549)">
<path d="M351.111 221.868C351.396 168.98 277.364 125.704 185.754 125.209C94.1439 124.715 19.6479 167.188 19.3623 220.077C19.0767 272.965 93.1097 316.241 184.72 316.736C276.329 317.23 350.825 274.757 351.111 221.868Z" fill="#E1EAFB"/>
</g>
<g filter="url(#filter1_d_588_21549)">
<path d="M96.9107 117.099C85.683 121.1 75.0567 125.88 65.3258 131.498C62.1745 133.318 59.1702 135.191 56.313 137.112L95.0734 159.49C98.8593 161.676 98.8593 167.14 95.0734 169.326L16 214.977C18.4983 226.427 19.2076 240.974 28.5 251.5L130.868 192.11C137.275 188.41 145.17 188.41 151.578 192.11L303.5 289.5C306.83 287.849 313.346 282.321 316.5 280.5C326.227 274.884 332.072 265.981 339 259.5L96.9107 117.099Z" fill="#413A36"/>
<path d="M23.7217 227.68L26.8677 229.496L38.302 222.895L35.156 221.078L23.7217 227.68Z" fill="url(#paint0_linear_588_21549)"/>
<path d="M41.8105 217.236L44.9579 219.052L56.3922 212.452L53.2462 210.634L41.8105 217.236Z" fill="url(#paint1_linear_588_21549)"/>
<path d="M59.8979 206.792L63.0453 208.608L74.4783 202.007L71.3323 200.19L59.8979 206.792Z" fill="url(#paint2_linear_588_21549)"/>
<path d="M77.9868 196.349L81.1342 198.165L92.5685 191.564L89.4225 189.747L77.9868 196.349Z" fill="url(#paint3_linear_588_21549)"/>
<path d="M96.0771 185.905L99.2245 187.721L110.658 181.121L107.511 179.303L96.0771 185.905Z" fill="url(#paint4_linear_588_21549)"/>
<path d="M114.165 175.462L117.312 177.278L128.747 170.678L125.601 168.86L114.165 175.462Z" fill="url(#paint5_linear_588_21549)"/>
<path d="M133.592 165.285L134.956 166.956C135.281 167.354 135.8 167.519 136.301 167.404C138.229 166.956 140.309 166.721 142.398 166.711C144.484 166.706 146.569 166.942 148.509 167.384C149.016 167.499 149.543 167.325 149.864 166.915L151.161 165.259C148.405 164.532 145.382 164.143 142.36 164.151C139.338 164.16 136.326 164.547 133.592 165.285Z" fill="url(#paint6_linear_588_21549)"/>
<path d="M156.126 170.64L167.633 177.283L170.759 175.478L159.253 168.836L156.126 170.64Z" fill="url(#paint7_linear_588_21549)"/>
<path d="M174.328 181.149L185.835 187.793L188.961 185.987L177.455 179.344L174.328 181.149Z" fill="url(#paint8_linear_588_21549)"/>
<path d="M192.529 191.658L204.035 198.301L207.163 196.496L195.657 189.854L192.529 191.658Z" fill="url(#paint9_linear_588_21549)"/>
<path d="M210.732 202.168L222.238 208.811L225.365 207.005L213.859 200.362L210.732 202.168Z" fill="url(#paint10_linear_588_21549)"/>
<path d="M228.934 212.678L240.44 219.321L243.567 217.514L232.062 210.872L228.934 212.678Z" fill="url(#paint11_linear_588_21549)"/>
<path d="M247.136 223.187L258.643 229.83L261.77 228.024L250.265 221.381L247.136 223.187Z" fill="url(#paint12_linear_588_21549)"/>
<path d="M265.339 233.695L276.845 240.339L279.973 238.534L268.467 231.889L265.339 233.695Z" fill="url(#paint13_linear_588_21549)"/>
<path d="M286.669 242.399L283.541 244.205L295.047 250.848L298.174 249.043L286.669 242.399Z" fill="url(#paint14_linear_588_21549)"/>
<path d="M254.113 151.112L237.511 141.351L258.523 129.915L260.22 151.112H254.113Z" fill="#E2E2E2"/>
<path d="M281.231 127.243V139.679L260.221 151.112V138.676L281.231 127.243Z" fill="#D7E7FF"/>
<path d="M260.221 138.675V151.111L243.621 141.351V128.915L260.221 138.675Z" fill="#DDE7F8"/>
<path d="M260.223 138.678L243.622 128.916L264.632 117.481L281.235 127.242L260.223 138.678Z" fill="#C8DDF8"/>
<path d="M288.304 169.316L264.871 155.538L294.527 139.397L294.409 169.316H288.304Z" fill="#E2E2E2"/>
<path d="M324.063 127.048V153.179L294.408 169.316V143.185L324.063 127.048Z" fill="#D7E7FF"/>
<path d="M294.408 143.185V169.316L270.979 155.54V129.411L294.408 143.185Z" fill="#DDE7F8"/>
<path d="M294.413 143.189L270.979 129.411L300.636 113.271L324.069 127.048L294.413 143.189Z" fill="#C8DDF8"/>
<path d="M320.895 179.399L304.292 169.637L325.303 158.202L327 179.399H320.895Z" fill="#E2E2E2"/>
<path d="M348.012 155.529V167.966L327 179.399V166.962L348.012 155.529Z" fill="#D7E7FF"/>
<path d="M327.001 166.962V179.399L310.402 169.637V157.203L327.001 166.962Z" fill="#DDE7F8"/>
<path d="M327.005 166.964L310.402 157.203L331.413 145.768L348.015 155.528L327.005 166.964Z" fill="#C8DDF8"/>
<path d="M133.968 127.384L119.047 118.612L137.93 108.336L140.074 127.384H133.968Z" fill="#E2E2E2"/>
<path d="M158.955 102.368V117.109L140.074 127.383V112.642L158.955 102.368Z" fill="#D7E7FF"/>
<path d="M140.074 112.642V127.383L125.156 118.613V103.873L140.074 112.642Z" fill="#DDE7F8"/>
<path d="M140.076 112.645L125.156 103.873L144.039 93.5964L158.959 102.368L140.076 112.645Z" fill="#C8DDF8"/>
<path d="M193.675 123.74L182.345 117.079L196.683 109.276L199.782 124.063L193.675 123.74Z" fill="#E2E2E2"/>
<path d="M214.118 100.487V116.263L199.782 124.063V108.288L214.118 100.487Z" fill="#D7E7FF"/>
<path d="M199.781 108.288V124.063L188.454 117.403V101.63L199.781 108.288Z" fill="#DDE7F8"/>
<path d="M199.782 108.291L188.454 101.63L202.791 93.8269L214.12 100.487L199.782 108.291Z" fill="#C8DDF8"/>
<path d="M340.717 199.603L325.796 190.832L337.971 184.207L346.824 199.603H340.717Z" fill="#E2E2E2"/>
<path d="M358.997 185.603V192.982L346.823 199.604V192.225L358.997 185.603Z" fill="#D7E7FF"/>
<path d="M346.824 192.225V199.604L331.906 190.833V183.456L346.824 192.225Z" fill="#DDE7F8"/>
<path d="M346.827 192.227L331.906 183.456L344.081 176.831L359 185.603L346.827 192.227Z" fill="#C8DDF8"/>
<path d="M330.202 229.613L315.283 220.841L335.311 209.945L336.309 229.613H330.202Z" fill="#E2E2E2"/>
<path d="M356.338 211.34V218.72L336.31 229.614V222.234L356.338 211.34Z" fill="#D7E7FF"/>
<path d="M336.31 222.234V229.613L321.392 220.842V213.463L336.31 222.234Z" fill="#DDE7F8"/>
<path d="M336.313 222.237L321.392 213.465L341.422 202.568L356.343 211.34L336.313 222.237Z" fill="#C8DDF8"/>
<path d="M230.308 127.486L215.387 118.714L227.562 112.09L236.413 127.486H230.308Z" fill="#E2E2E2"/>
<path d="M248.585 113.484V120.863L236.41 127.485V120.106L248.585 113.484Z" fill="#D7E7FF"/>
<path d="M236.41 120.106V127.486L221.493 118.714V111.335L236.41 120.106Z" fill="#DDE7F8"/>
<path d="M236.413 120.108L221.493 111.336L233.668 104.712L248.587 113.484L236.413 120.108Z" fill="#C8DDF8"/>
<path d="M206.959 150.44L171.008 129.304L188.06 120.022L224.011 141.159L206.959 150.44Z" fill="#E2E2E2"/>
<path d="M230.115 133.782V143.874L213.064 153.154V143.06L230.115 133.782Z" fill="#D7E7FF"/>
<path d="M213.065 143.059V153.153L177.117 132.017V121.924L213.065 143.059Z" fill="#DDE7F8"/>
<path d="M213.067 143.062L177.117 121.926L194.169 112.645L230.12 133.782L213.067 143.062Z" fill="#C8DDF8"/>
<path d="M303.198 211.905L263.097 188.752L279.947 179.027L309.302 211.905H303.198Z" fill="#E2E2E2"/>
<path d="M326.15 184.122V202.185L309.3 211.905V193.843L326.15 184.122Z" fill="#D7E7FF"/>
<path d="M309.301 193.843V211.906L269.205 188.753V170.693L309.301 193.843Z" fill="#DDE7F8"/>
<path d="M309.305 193.847L269.205 170.695L286.055 160.969L326.156 184.122L309.305 193.847Z" fill="#C8DDF8"/>
<path d="M246.706 182.954L219.217 167.082L236.964 156.848L252.812 182.92L246.706 182.954Z" fill="#E2E2E2"/>
<path d="M270.559 160.304V172.687L252.811 182.919V170.536L270.559 160.304Z" fill="#D7E7FF"/>
<path d="M252.812 170.536V182.919L225.324 167.047V154.666L252.812 170.536Z" fill="#DDE7F8"/>
<path d="M252.814 170.539L225.325 154.667L243.073 144.432L270.563 160.304L252.814 170.539Z" fill="#C8DDF8"/>
<path d="M42.3722 167.405L31.6333 161.09L45.2242 153.693L48.1609 167.712L42.3722 167.405Z" fill="#DFE4EB"/>
<path d="M61.7505 140.868V160.317L48.1597 167.712V148.264L61.7505 140.868Z" fill="#EDF4FF"/>
<path d="M48.1595 148.263V167.712L37.4219 161.397V141.95L48.1595 148.263Z" fill="#DDE7F8"/>
<path d="M48.1621 148.265L37.4219 141.952L51.0128 134.555L61.753 140.868L48.1621 148.265Z" fill="#EBF4FF"/>
<path d="M65.0024 175.804L51.8726 168.084L69.4983 158.495L70.3765 175.804H65.0024Z" fill="#DFE4EB"/>
<path d="M88.0042 159.724V166.217L70.3784 175.805V169.311L88.0042 159.724Z" fill="#EDF4FF"/>
<path d="M70.3786 169.311V175.805L57.25 168.086V161.593L70.3786 169.311Z" fill="#DDE7F8"/>
<path d="M70.3812 169.313L57.25 161.594L74.8771 152.003L88.0069 159.723L70.3812 169.313Z" fill="#EBF4FF"/>
<path d="M38.2177 190.658L23.2969 181.886L35.4717 175.261L44.3243 190.658H38.2177Z" fill="#DFE4EB"/>
<path d="M56.4987 176.656V184.036L44.3252 190.658V183.278L56.4987 176.656Z" fill="#EDF4FF"/>
<path d="M44.3259 183.278V190.657L29.4077 181.885V174.507L44.3259 183.278Z" fill="#DDE7F8"/>
<path d="M44.3285 183.281L29.4077 174.509L41.5825 167.885L56.5033 176.656L44.3285 183.281Z" fill="#EBF4FF"/>
<path d="M259.812 289.229L244.892 280.457L257.066 273.833L265.919 289.229H259.812Z" fill="#DFE4EB"/>
<path d="M278.093 275.229V282.608L265.92 289.23V281.851L278.093 275.229Z" fill="#EDF4FF"/>
<path d="M265.921 281.851V289.23L251.002 280.458V273.08L265.921 281.851Z" fill="#DDE7F8"/>
<path d="M265.923 281.853L251.002 273.081L263.177 266.457L278.097 275.228L265.923 281.853Z" fill="#EBF4FF"/>
<path d="M112.96 227.786L98.8335 219.482L132.734 201.037L119.066 227.786H112.96Z" fill="#DFE4EB"/>
<path d="M152.966 200.734V209.343L119.066 227.786V219.175L152.966 200.734Z" fill="#EDF4FF"/>
<path d="M119.066 219.175V227.785L104.942 219.481V210.874L119.066 219.175Z" fill="#DDE7F8"/>
<path d="M119.068 219.178L104.942 210.874L138.841 192.429L152.969 200.734L119.068 219.178Z" fill="#EBF4FF"/>
<path d="M151.231 243.802L131.955 232.469L156.349 219.192L156.253 243.856L151.231 243.802Z" fill="#DFE4EB"/>
<path d="M174.872 212.067V233.725L156.254 243.855V222.199L174.872 212.067Z" fill="#EDF4FF"/>
<path d="M156.254 222.199V243.856L136.981 232.523V210.868L156.254 222.199Z" fill="#DDE7F8"/>
<path d="M156.256 222.202L136.981 210.87L155.599 200.735L174.876 212.067L156.256 222.202Z" fill="#EBF4FF"/>
<path d="M195.094 268.125L164.115 250.238L184.117 238.706L201.2 268.574L195.094 268.125Z" fill="#DFE4EB"/>
<path d="M221.202 232.333V257.044L201.202 268.574V243.863L221.202 232.333Z" fill="#EDF4FF"/>
<path d="M201.202 243.864V268.575L170.226 250.69V225.98L201.202 243.864Z" fill="#DDE7F8"/>
<path d="M201.204 243.867L170.226 225.981L190.227 214.447L221.205 232.334L201.204 243.867Z" fill="#EBF4FF"/>
<path d="M218.64 283.396L204.514 275.092L238.415 256.647L224.747 283.187L218.64 283.396Z" fill="#DFE4EB"/>
<path d="M253.358 259.011V267.621L224.747 283.186V274.577L253.358 259.011Z" fill="#EDF4FF"/>
<path d="M224.747 274.578V283.187L210.624 274.883V266.275L224.747 274.578Z" fill="#DDE7F8"/>
<path d="M224.75 274.579L210.624 266.275L239.235 250.708L253.361 259.012L224.75 274.579Z" fill="#EBF4FF"/>
<path d="M188.267 299.334L165.495 285.944L177.67 279.32L194.374 299.334H188.267Z" fill="#DFE4EB"/>
<path d="M206.55 277.634V292.713L194.376 299.335V284.256L206.55 277.634Z" fill="#EDF4FF"/>
<path d="M194.376 284.256V299.334L171.607 285.944V270.869L194.376 284.256Z" fill="#DDE7F8"/>
<path d="M194.378 284.258L171.607 270.869L183.782 264.244L206.552 277.634L194.378 284.258Z" fill="#EBF4FF"/>
<path d="M111.155 258.961L75.2041 237.825L92.2563 228.543L117.262 258.961H111.155Z" fill="#DFE4EB"/>
<path d="M134.314 239.589V249.681L117.262 258.961V248.867L134.314 239.589Z" fill="#EDF4FF"/>
<path d="M117.262 248.866V258.96L81.314 237.824V227.731L117.262 248.866Z" fill="#DDE7F8"/>
<path d="M117.265 248.869L81.314 227.733L98.3661 218.452L134.317 239.588L117.265 248.869Z" fill="#EBF4FF"/>
<path d="M89.361 279.542L65.6167 265.581L84.2054 255.465L95.4663 279.984L89.361 279.542Z" fill="#DFE4EB"/>
<path d="M114.057 258.868V269.87L95.4678 279.984V268.982L114.057 258.868Z" fill="#EDF4FF"/>
<path d="M95.4678 268.981V279.984L71.7275 266.023V255.022L95.4678 268.981Z" fill="#DDE7F8"/>
<path d="M95.4705 268.984L71.7275 255.023L90.3163 244.906L114.059 258.868L95.4705 268.984Z" fill="#EBF4FF"/>
<path d="M140.63 285.487L122.958 275.096L145.323 262.924L146.737 285.722L140.63 285.487Z" fill="#DFE4EB"/>
<path d="M169.1 248.382V273.552L146.734 285.721V260.552L169.1 248.382Z" fill="#EDF4FF"/>
<path d="M146.735 260.553V285.723L129.064 275.333V250.165L146.735 260.553Z" fill="#DDE7F8"/>
<path d="M146.737 260.555L129.064 250.165L151.431 237.993L169.103 248.383L146.737 260.555Z" fill="#EBF4FF"/>
</g>
<path d="M233.896 65H233V103.298C233 103.546 233.201 103.747 233.448 103.747C233.695 103.747 233.896 103.546 233.896 103.299V65Z" fill="#FF7270"/>
<path d="M234.992 64.9961C234.992 66.0984 234.098 66.9922 232.996 66.9922C231.894 66.9922 231 66.0984 231 64.9961C231 63.8937 231.894 63 232.996 63C234.098 63 234.992 63.8937 234.992 64.9961Z" fill="#FF7270"/>
<path d="M114.052 148.282L115.49 147.452L123.466 130.387L122.028 131.219L114.052 148.282Z" fill="#9F9F9F"/>
<path d="M93.0005 131.058L114.052 148.282L122.982 129.219L110.825 121.151L93.0005 131.058Z" fill="#9F9F9F"/>
<path d="M98.1503 131.033L111.065 141.602L111.496 141.052L98.8156 130.664L98.1503 131.033Z" fill="white"/>
<path d="M98.8184 130.663L111.498 141.051L119.913 129.939L110.931 123.929L98.8184 130.663Z" fill="#9F9F9F"/>
<path d="M122.992 128.924L163.288 105.817L151.597 98.0564L111.3 121.166L122.992 128.924Z" fill="#F6F6F6" stroke="url(#paint15_linear_588_21549)" stroke-width="0.5"/>
<path d="M146.645 174.543L187.427 150.962L184.736 143.507L143.953 167.088L146.645 174.543Z" fill="#7E7E7E"/>
<path d="M124.092 128.535L169.204 102.49L183.835 127.833L190.862 140.004L143.954 167.088L135.359 158.537L124.092 128.535Z" fill="#9F9F9F"/>
<path d="M140.126 121.878L150.36 147.453L151.143 147.003L140.909 121.467L142.004 120.839L141.985 120.802L140.126 121.878Z" fill="white"/>
<path d="M140.908 121.466L151.142 147.003L152.199 146.374L142.004 120.838L140.908 121.466Z" fill="#9F9F9F"/>
<path d="M136.289 124.089L146.523 149.664L147.286 149.212L137.072 123.678L138.148 123.05V123.032L136.289 124.089Z" fill="white"/>
<path d="M137.073 123.676L147.287 149.211L148.363 148.586L138.149 123.048L137.073 123.676Z" fill="#9F9F9F"/>
<path d="M132.454 126.3L142.688 151.875L143.451 151.423L133.236 125.887L134.312 125.283L134.293 125.241L132.454 126.3Z" fill="white"/>
<path d="M133.238 125.886L143.453 151.422L144.529 150.817L134.314 125.281L133.238 125.886Z" fill="#9F9F9F"/>
<path d="M128.618 128.531L138.852 154.087L139.615 153.635L129.401 128.099L130.477 127.494L130.457 127.453L128.618 128.531Z" fill="white"/>
<path d="M129.402 128.097L139.616 153.633L140.692 153.028L130.478 127.492L129.402 128.097Z" fill="#9F9F9F"/>
<path d="M143.884 119.704L154.118 145.281L154.881 144.829L144.666 119.293L145.743 118.688L145.723 118.647L143.884 119.704Z" fill="white"/>
<path d="M144.664 119.291L154.879 144.828L155.955 144.223L145.741 118.687L144.664 119.291Z" fill="#9F9F9F"/>
<path d="M147.992 117.414L158.206 142.991L158.989 142.539L148.774 116.985L149.851 116.378L149.831 116.339L147.992 117.414Z" fill="white"/>
<path d="M148.773 116.985L158.987 142.539L160.063 141.915L149.849 116.379L148.773 116.985Z" fill="#9F9F9F"/>
<path d="M151.729 115.243L161.963 140.816L162.726 140.368L152.512 114.832L153.607 114.206L153.588 114.165L151.729 115.243Z" fill="white"/>
<path d="M152.512 114.832L162.726 140.368L163.822 139.742L153.607 114.206L152.512 114.832Z" fill="#9F9F9F"/>
<path d="M155.485 113.072L165.719 138.647L166.482 138.197L156.267 112.661L157.363 112.032L157.344 112.015L155.485 113.072Z" fill="white"/>
<path d="M156.268 112.661L166.483 138.197L167.559 137.569L157.364 112.033L156.268 112.661Z" fill="#9F9F9F"/>
<path d="M159.243 110.92L169.477 136.476L170.24 136.024L160.025 110.488L161.102 109.883L161.082 109.842L159.243 110.92Z" fill="white"/>
<path d="M160.025 110.486L170.24 136.022L171.316 135.417L161.101 109.881L160.025 110.486Z" fill="#9F9F9F"/>
<path d="M162.999 108.746L173.214 134.321L173.997 133.871L163.782 108.335L164.858 107.709L164.839 107.67L162.999 108.746Z" fill="white"/>
<path d="M163.782 108.337L173.997 133.873L175.073 133.245L164.858 107.711L163.782 108.337Z" fill="#9F9F9F"/>
<path d="M166.737 106.573L176.971 132.15L177.734 131.72L167.519 106.162L168.596 105.538V105.517L166.737 106.573Z" fill="white"/>
<path d="M167.519 106.162L177.734 131.72L178.83 131.094L168.596 105.538L167.519 106.162Z" fill="#9F9F9F"/>
<path d="M120.791 166.916L135.359 158.535L143.953 167.087L146.646 174.542L136.506 180.399L120.791 166.916Z" fill="#9F9F9F"/>
<path d="M144.449 154.477L150.828 160.874L151.591 160.445L145.232 154.047L182.88 132.307V132.287L144.449 154.477Z" fill="white"/>
<path d="M145.232 154.048L151.591 160.447L187.264 139.84L182.88 132.308L145.232 154.048Z" fill="#9F9F9F"/>
<path d="M131.514 158.359L119.76 126.385L121.206 126.193L133.471 159.621L118.713 168.113L117.69 166.34L131.514 158.359Z" fill="#9F9F9F"/>
<path d="M208.718 134.789L217.897 129.494L215.676 125.664L206.497 130.959L208.718 134.789Z" fill="#646464"/>
<path d="M198.094 137.59L208.72 134.788L206.499 130.958L197.319 136.254L198.094 137.59Z" fill="#424242"/>
<path d="M169.545 102.581L190.952 139.662L231.3 116.525L209.892 79.4446L169.545 102.581Z" fill="#F6F6F6" stroke="url(#paint16_linear_588_21549)" stroke-width="0.5"/>
<path d="M133.471 159.62L135.358 158.536L124.085 128.509L164.858 104.998L163.559 101.934L121.206 126.192L133.471 159.62Z" fill="#EAEAEA"/>
<path d="M121.207 126.192L163.56 101.934L162.113 102.127L119.761 126.384L121.207 126.192Z" fill="#9F9F9F"/>
<path d="M187.869 164.865L194.501 161.597L190.3 159.167L187.869 164.865Z" fill="#242424"/>
<path d="M195.195 162.761C191.906 160.863 189.257 162.405 189.257 166.177C189.257 169.958 191.904 174.566 195.195 176.443C198.459 178.341 201.123 176.811 201.123 173.03C201.123 169.246 198.461 164.659 195.195 162.761Z" fill="#333333"/>
<path d="M200.594 159.628C198.993 158.71 197.547 158.61 196.487 159.182H196.475L191.039 162.322C192.105 161.731 193.559 161.827 195.197 162.761C198.461 164.659 201.124 169.245 201.124 173.03C201.124 174.834 200.508 176.129 199.52 176.783L204.914 173.668C205.914 173.014 206.531 171.719 206.531 169.907C206.529 166.128 203.873 161.524 200.594 159.628Z" fill="#474747"/>
<path d="M195.442 162.619C193.839 161.692 192.376 161.594 191.315 162.161L191.039 162.324C192.106 161.733 193.56 161.829 195.197 162.762C198.461 164.66 201.125 169.247 201.125 173.031C201.125 174.836 200.508 176.131 199.52 176.785L199.743 176.644C199.743 176.644 201.359 175.714 201.359 172.883C201.357 169.106 198.716 164.504 195.442 162.619Z" fill="#575757"/>
<path d="M197.199 161.602C195.597 160.68 194.143 160.582 193.082 161.148L192.793 161.318C193.873 160.713 195.338 160.811 196.955 161.741C200.234 163.639 202.894 168.224 202.894 172.02C202.894 173.824 202.275 175.119 201.269 175.761H201.289L201.514 175.636C201.514 175.636 203.126 174.701 203.126 171.865C203.126 168.085 200.469 163.502 197.199 161.602Z" fill="#2B2B2B"/>
<path d="M199.016 160.546C197.425 159.617 195.981 159.521 194.908 160.088L194.623 160.251C195.683 159.66 197.151 159.746 198.779 160.691C202.055 162.589 204.7 167.174 204.7 170.958C204.7 172.78 204.099 174.065 203.1 174.713L203.334 174.57C203.334 174.57 204.962 173.641 204.962 170.809C204.962 167.033 202.301 162.428 199.016 160.546Z" fill="#2B2B2B"/>
<path d="M201.59 171.353L202.056 170L200.97 168.977L201.234 167.533L199.898 166.744L200.037 165.228L198.495 164.76L198.336 163.322L196.761 163.099L196.387 162.052L194.464 161.852L193.851 161.302C193.851 161.302 192.458 161.661 192.071 161.794C191.924 161.852 191.779 161.907 191.66 161.983L191.423 162.095C191.607 162.003 191.816 161.917 192.039 161.862C192.372 161.758 193.671 161.402 193.671 161.402L194.29 161.968L196.201 162.167L196.569 163.212L198.15 163.435L198.283 164.848L199.814 165.308L199.7 166.836L201.035 167.613L200.749 169.032L201.847 170.051L201.393 171.427L202.183 172.636L201.444 173.801L201.811 174.601L200.823 175.62L200.678 176.127L200.855 176.012L200.925 175.63L201.97 174.575L201.624 173.769L202.389 172.636L201.59 171.353Z" fill="#333333"/>
<path d="M203.5 170.246L203.964 168.9L202.872 167.869L203.132 166.428L201.801 165.638L201.95 164.121L200.404 163.654L200.246 162.215L198.671 162.002L198.299 160.947L196.365 160.738L195.773 160.194C195.773 160.194 194.354 160.556 193.978 160.699C193.839 160.74 193.702 160.812 193.559 160.871L193.321 161.01C193.53 160.895 193.738 160.81 193.937 160.76C194.274 160.652 195.581 160.306 195.581 160.306L196.207 160.861L198.103 161.061L198.471 162.096L200.064 162.341L200.177 163.744L201.727 164.202L201.606 165.753L202.948 166.503L202.662 167.931L203.76 168.945L203.316 170.313L204.097 171.543L203.347 172.702L203.715 173.506L202.727 174.518L202.584 175.019L202.778 174.919L202.839 174.537L203.88 173.479L203.525 172.665L204.306 171.534L203.5 170.246Z" fill="#333333"/>
<path d="M205.381 169.159L205.85 167.807L204.755 166.783L205.031 165.33L203.694 164.549L203.831 163.04L202.279 162.569L202.121 161.14L200.555 160.903L200.193 159.87L198.26 159.661L197.657 159.101C197.657 159.101 196.239 159.467 195.857 159.598C195.708 159.661 195.577 159.714 195.45 159.79V159.78L195.215 159.921C195.403 159.807 195.613 159.721 195.822 159.661C196.17 159.567 197.46 159.207 197.46 159.207L198.102 159.761L199.99 159.97L200.348 161.005L201.949 161.238L202.07 162.659L203.606 163.122L203.498 164.651L204.819 165.418L204.543 166.83L205.639 167.854L205.187 169.231L205.972 170.45L205.232 171.605L205.604 172.405L204.604 173.427L204.455 173.92L204.645 173.818L204.716 173.437L205.762 172.38L205.416 171.574L206.181 170.452L205.381 169.159Z" fill="#333333"/>
<path d="M195.194 164.747C192.864 163.415 190.981 164.491 190.981 167.176C190.981 169.862 192.864 173.126 195.194 174.469C197.511 175.801 199.394 174.715 199.394 172.033C199.394 169.358 197.511 166.094 195.194 164.747Z" fill="#1F1F1F"/>
<path d="M195.194 165.363C193.159 164.193 191.512 165.138 191.512 167.484C191.512 169.827 193.159 172.67 195.194 173.852C197.225 175.026 198.852 174.065 198.852 171.723C198.852 169.392 197.225 166.535 195.194 165.363Z" fill="#919191"/>
<path d="M193.89 168.855C193.89 169.692 194.477 170.69 195.195 171.107C195.91 171.526 196.487 171.189 196.487 170.358C196.487 169.526 195.91 168.52 195.195 168.103C194.477 167.696 193.89 168.037 193.89 168.855Z" fill="#707070"/>
<path d="M194.847 169.407C194.847 169.628 195.006 169.898 195.194 170C195.387 170.119 195.536 170.031 195.536 169.812C195.536 169.585 195.387 169.321 195.194 169.219C195.006 169.106 194.847 169.192 194.847 169.407Z" fill="#575757"/>
<path d="M195.66 168.964C195.635 168.964 195.615 168.976 195.59 168.986C195.494 169.037 195.494 169.22 195.59 169.377C195.685 169.541 195.84 169.629 195.93 169.579C195.981 169.557 195.981 169.528 195.999 169.492C195.91 169.492 195.799 169.404 195.723 169.271C195.66 169.16 195.635 169.037 195.66 168.964Z" fill="#4F4F4F"/>
<path d="M195.66 168.964C195.635 169.037 195.66 169.16 195.723 169.269C195.799 169.402 195.911 169.491 195.999 169.491C196.018 169.406 195.999 169.289 195.93 169.185C195.862 169.052 195.752 168.964 195.66 168.964Z" fill="#2B2B2B"/>
<path d="M195.652 170.29C195.627 170.29 195.601 170.294 195.58 170.306C195.478 170.366 195.478 170.541 195.58 170.711C195.685 170.871 195.834 170.959 195.922 170.899C195.957 170.883 195.983 170.857 195.983 170.811C195.897 170.811 195.789 170.726 195.713 170.605C195.652 170.492 195.627 170.378 195.652 170.29Z" fill="#4F4F4F"/>
<path d="M195.651 170.29C195.626 170.378 195.651 170.492 195.712 170.603C195.788 170.726 195.896 170.809 195.982 170.809C196.007 170.744 195.982 170.621 195.921 170.503C195.861 170.378 195.747 170.294 195.651 170.29Z" fill="#2B2B2B"/>
<path d="M194.501 169.611C194.476 169.611 194.441 169.617 194.431 169.629C194.327 169.69 194.327 169.862 194.431 170.03C194.517 170.194 194.676 170.281 194.771 170.218C194.797 170.204 194.812 170.169 194.822 170.134C194.736 170.134 194.625 170.046 194.552 169.915C194.501 169.821 194.476 169.697 194.501 169.611Z" fill="#4F4F4F"/>
<path d="M194.503 169.611C194.477 169.697 194.503 169.819 194.554 169.913C194.626 170.044 194.738 170.132 194.824 170.132C194.849 170.044 194.834 169.942 194.773 169.827C194.691 169.697 194.589 169.617 194.503 169.611Z" fill="#2B2B2B"/>
<path d="M194.503 168.288C194.477 168.288 194.448 168.288 194.442 168.296C194.344 168.349 194.344 168.541 194.442 168.701C194.528 168.854 194.677 168.95 194.779 168.901C194.816 168.877 194.835 168.85 194.835 168.813C194.743 168.813 194.642 168.728 194.569 168.595C194.503 168.478 194.481 168.357 194.503 168.288Z" fill="#4F4F4F"/>
<path d="M194.501 168.288C194.48 168.357 194.501 168.48 194.568 168.593C194.64 168.726 194.742 168.811 194.834 168.811C194.863 168.728 194.849 168.609 194.777 168.505C194.71 168.374 194.587 168.288 194.501 168.288Z" fill="#2B2B2B"/>
<path d="M194.292 164.971C194.149 164.93 194.022 164.908 193.909 164.883C194.01 165.656 194.531 166.509 195.194 166.875C195.664 167.151 196.067 167.102 196.302 166.789C196.083 166.855 195.807 166.826 195.511 166.654C194.95 166.323 194.476 165.658 194.292 164.971Z" fill="#575757"/>
<path d="M194.293 164.971C194.477 165.658 194.95 166.322 195.512 166.654C195.807 166.827 196.083 166.858 196.302 166.789C196.389 166.693 196.451 166.533 196.475 166.382C196.068 165.969 195.651 165.621 195.195 165.361C194.886 165.181 194.567 165.054 194.293 164.971Z" fill="#2B2B2B"/>
<path d="M196.746 172.672C196.746 172.672 196.721 172.672 196.709 172.672C196.239 172.868 196.102 173.545 196.363 174.302C197.042 174.433 197.631 174.275 198.065 173.893C197.683 174.112 197.214 174.173 196.681 174.077C196.486 173.5 196.521 172.967 196.746 172.672Z" fill="#575757"/>
<path d="M196.685 174.075C197.216 174.173 197.685 174.112 198.069 173.891C198.178 173.805 198.264 173.705 198.349 173.596C197.881 172.915 197.237 172.525 196.748 172.666C196.523 172.967 196.488 173.5 196.685 174.075Z" fill="#2B2B2B"/>
<path d="M197.914 168.67C197.486 168.803 197.286 169.347 197.46 170.083C197.67 170.895 198.251 171.65 198.852 171.908C198.852 171.859 198.852 171.785 198.852 171.724C198.852 171.65 198.852 171.572 198.852 171.492C198.372 171.145 197.953 170.517 197.791 169.852C197.658 169.345 197.721 168.924 197.914 168.67Z" fill="#575757"/>
<path d="M197.914 168.671C197.721 168.925 197.658 169.348 197.791 169.853C197.953 170.518 198.372 171.146 198.852 171.492C198.816 170.563 198.519 169.571 198.065 168.645C198.016 168.643 197.965 168.653 197.914 168.671Z" fill="#2B2B2B"/>
<path d="M192.042 169.986C192.496 171.103 193.199 172.167 194.048 172.968C194.119 172.846 194.144 172.709 194.171 172.545C193.467 171.819 192.876 170.919 192.447 169.958C192.309 169.923 192.166 169.944 192.042 169.986Z" fill="#575757"/>
<path d="M192.445 169.959C192.873 170.92 193.464 171.82 194.169 172.546C194.219 172.082 194.057 171.485 193.699 170.945C193.333 170.389 192.863 170.037 192.445 169.959Z" fill="#2B2B2B"/>
<path d="M191.839 167.25C191.839 166.449 192.029 165.806 192.369 165.373C192.359 165.346 192.338 165.326 192.314 165.301C191.819 165.745 191.512 166.485 191.512 167.483C191.512 167.543 191.512 167.606 191.512 167.667C192.042 168.048 192.547 168.06 192.819 167.712C192.547 167.79 192.195 167.702 191.845 167.441C191.839 167.383 191.839 167.318 191.839 167.25Z" fill="#575757"/>
<path d="M191.839 167.251C191.839 167.32 191.839 167.382 191.845 167.445C192.197 167.705 192.547 167.793 192.819 167.715C192.874 167.635 192.915 167.566 192.95 167.47C193.144 166.905 192.878 166.018 192.369 165.376C192.029 165.807 191.839 166.451 191.839 167.251Z" fill="#2B2B2B"/>
<path d="M189.046 156.36L186.179 163.115L187.868 164.866L190.298 159.168L200.926 165.31L203.172 173.67L204.878 173.932L202.194 163.939L189.046 156.36Z" fill="#575757"/>
<path d="M189.045 156.36L202.193 163.939L207.833 160.695L194.687 153.104L189.045 156.36Z" fill="#8C8C8C"/>
<path d="M202.193 163.939L204.878 173.932L210.518 170.696L207.833 160.695L202.193 163.939Z" fill="#787878"/>
<path d="M207.083 175.896L213.712 172.629L209.511 170.202L207.083 175.896Z" fill="#242424"/>
<path d="M214.41 173.796C211.121 171.897 208.473 173.439 208.473 177.212C208.473 180.993 211.123 185.599 214.41 187.477C217.676 189.374 220.339 187.845 220.339 184.065C220.337 180.277 217.676 175.694 214.41 173.796Z" fill="#333333"/>
<path d="M219.806 170.657C218.206 169.745 216.76 169.642 215.699 170.215H215.689L210.251 173.355C211.318 172.761 212.772 172.86 214.406 173.794C217.671 175.692 220.335 180.277 220.335 184.063C220.335 185.867 219.718 187.163 218.728 187.816L224.123 184.701C225.123 184.045 225.741 182.752 225.741 180.94C225.745 177.163 223.086 172.557 219.806 170.657Z" fill="#474747"/>
<path d="M214.657 173.649C213.054 172.723 211.591 172.629 210.53 173.195L210.256 173.357C211.323 172.762 212.776 172.862 214.41 173.796C217.676 175.694 220.339 180.279 220.339 184.065C220.339 185.869 219.723 187.165 218.733 187.818L218.956 187.677C218.956 187.677 220.574 186.748 220.574 183.918C220.574 180.14 217.931 175.533 214.657 173.649Z" fill="#575757"/>
<path d="M216.414 172.637C214.814 171.713 213.358 171.617 212.297 172.183L212.007 172.351C213.09 171.75 214.553 171.848 216.17 172.778C219.449 174.676 222.106 179.257 222.106 183.055C222.106 184.861 221.49 186.156 220.484 186.798H220.506L220.731 186.673C220.731 186.673 222.341 185.738 222.341 182.904C222.339 179.122 219.682 174.537 216.414 172.637Z" fill="#2B2B2B"/>
<path d="M218.23 171.582C216.639 170.652 215.195 170.558 214.123 171.124L213.837 171.286C214.898 170.695 216.365 170.779 217.993 171.724C221.267 173.624 223.915 178.209 223.915 181.994C223.915 183.813 223.312 185.101 222.312 185.749L222.547 185.606C222.547 185.606 224.173 184.676 224.173 181.845C224.177 178.072 221.514 173.466 218.23 171.582Z" fill="#2B2B2B"/>
<path d="M220.805 182.387L221.268 181.037L220.18 180.01L220.445 178.57L219.108 177.779L219.245 176.264L217.705 175.797L217.549 174.36L215.971 174.133L215.6 173.089L213.676 172.889L213.064 172.339C213.064 172.339 211.67 172.697 211.283 172.828C211.134 172.889 210.991 172.944 210.87 173.02L210.635 173.132C210.819 173.04 211.029 172.952 211.252 172.899C211.582 172.795 212.884 172.439 212.884 172.439L213.502 173.002L215.416 173.204L215.784 174.247L217.365 174.472L217.498 175.887L219.028 176.345L218.916 177.873L220.247 178.648L219.961 180.066L221.057 181.086L220.603 182.462L221.394 183.671L220.654 184.835L221.022 185.636L220.032 186.653L219.889 187.162L220.063 187.046L220.133 186.665L221.18 185.61L220.834 184.804L221.599 183.671L220.805 182.387Z" fill="#333333"/>
<path d="M222.714 181.28L223.178 179.934L222.086 178.902L222.346 177.46L221.016 176.672L221.163 175.155L219.617 174.685L219.458 173.249L217.881 173.036L217.509 171.981L215.576 171.772L214.983 171.226C214.983 171.226 213.566 171.59 213.189 171.731C213.052 171.774 212.913 171.844 212.772 171.905L212.531 172.044C212.741 171.928 212.95 171.844 213.148 171.791C213.484 171.686 214.791 171.337 214.791 171.337L215.419 171.895L217.316 172.095L217.683 173.13L219.274 173.374L219.388 174.777L220.938 175.235L220.814 176.787L222.157 177.536L221.871 178.965L222.967 179.981L222.525 181.346L223.305 182.577L222.556 183.736L222.924 184.538L221.936 185.552L221.793 186.052L221.988 185.953L222.049 185.571L223.088 184.509L222.736 183.698L223.517 182.567L222.714 181.28Z" fill="#333333"/>
<path d="M224.597 180.192L225.066 178.843L223.969 177.82L224.244 176.366L222.908 175.585L223.045 174.075L221.495 173.605L221.337 172.173L219.771 171.938L219.409 170.903L217.476 170.693L216.873 170.134C216.873 170.134 215.455 170.504 215.073 170.635C214.926 170.693 214.793 170.746 214.666 170.821V170.813L214.431 170.954C214.619 170.842 214.828 170.754 215.038 170.693C215.384 170.603 216.676 170.239 216.676 170.239L217.317 170.795L219.204 171.005L219.562 172.04L221.162 172.273L221.286 173.691L222.822 174.153L222.714 175.685L224.035 176.45L223.759 177.865L224.857 178.888L224.403 180.266L225.19 181.485L224.45 182.638L224.824 183.44L223.824 184.459L223.675 184.954L223.865 184.853L223.935 184.469L224.982 183.415L224.636 182.608L225.401 181.487L224.597 180.192Z" fill="#333333"/>
<path d="M214.41 175.782C212.079 174.45 210.199 175.524 210.199 178.211C210.199 180.897 212.079 184.161 214.41 185.504C216.726 186.836 218.609 185.75 218.609 183.066C218.609 180.393 216.724 177.127 214.41 175.782Z" fill="#1F1F1F"/>
<path d="M214.41 176.4C212.377 175.23 210.729 176.175 210.729 178.521C210.729 180.863 212.377 183.708 214.41 184.888C216.441 186.062 218.069 185.102 218.069 182.759C218.067 180.429 216.441 177.574 214.41 176.4Z" fill="#919191"/>
<path d="M213.104 179.886C213.104 180.721 213.691 181.721 214.409 182.138C215.123 182.557 215.701 182.22 215.701 181.389C215.701 180.557 215.123 179.551 214.409 179.136C213.691 178.728 213.104 179.068 213.104 179.886Z" fill="#707070"/>
<path d="M214.063 180.441C214.063 180.662 214.219 180.93 214.407 181.034C214.603 181.151 214.75 181.065 214.75 180.844C214.75 180.621 214.601 180.355 214.407 180.253C214.221 180.141 214.063 180.227 214.063 180.441Z" fill="#575757"/>
<path d="M214.875 180C214.849 180 214.828 180.007 214.802 180.021C214.707 180.072 214.707 180.256 214.802 180.412C214.9 180.577 215.053 180.665 215.145 180.612C215.196 180.592 215.196 180.563 215.211 180.528C215.123 180.528 215.012 180.438 214.936 180.307C214.875 180.191 214.849 180.072 214.875 180Z" fill="#4F4F4F"/>
<path d="M214.876 180C214.851 180.072 214.876 180.191 214.937 180.305C215.013 180.436 215.124 180.526 215.213 180.526C215.232 180.442 215.213 180.322 215.146 180.217C215.074 180.088 214.966 180 214.876 180Z" fill="#2B2B2B"/>
<path d="M214.863 181.325C214.838 181.325 214.814 181.331 214.793 181.341C214.691 181.402 214.691 181.574 214.793 181.744C214.9 181.907 215.047 181.995 215.135 181.934C215.17 181.918 215.196 181.893 215.196 181.846C215.11 181.846 215 181.758 214.926 181.638C214.863 181.525 214.838 181.413 214.863 181.325Z" fill="#4F4F4F"/>
<path d="M214.865 181.325C214.839 181.413 214.865 181.527 214.927 181.637C215.004 181.756 215.111 181.844 215.197 181.844C215.223 181.779 215.197 181.656 215.137 181.539C215.074 181.413 214.962 181.329 214.865 181.325Z" fill="#2B2B2B"/>
<path d="M213.716 180.645C213.691 180.645 213.654 180.653 213.644 180.665C213.542 180.723 213.542 180.897 213.644 181.066C213.73 181.23 213.888 181.318 213.986 181.254C214.012 181.24 214.027 181.205 214.037 181.166C213.951 181.166 213.838 181.081 213.767 180.95C213.716 180.856 213.691 180.733 213.716 180.645Z" fill="#4F4F4F"/>
<path d="M213.718 180.645C213.692 180.733 213.718 180.856 213.769 180.948C213.841 181.079 213.952 181.164 214.039 181.164C214.064 181.079 214.048 180.978 213.988 180.862C213.906 180.733 213.804 180.653 213.718 180.645Z" fill="#2B2B2B"/>
<path d="M213.717 179.321C213.692 179.321 213.66 179.321 213.655 179.329C213.559 179.38 213.559 179.573 213.655 179.734C213.743 179.886 213.889 179.982 213.991 179.933C214.026 179.91 214.046 179.88 214.046 179.845C213.954 179.845 213.852 179.757 213.78 179.628C213.717 179.513 213.698 179.389 213.717 179.321Z" fill="#4F4F4F"/>
<path d="M213.717 179.321C213.697 179.389 213.717 179.513 213.781 179.626C213.854 179.755 213.956 179.843 214.048 179.843C214.079 179.763 214.063 179.64 213.993 179.538C213.926 179.405 213.803 179.321 213.717 179.321Z" fill="#2B2B2B"/>
<path d="M213.508 176.005C213.365 175.964 213.236 175.945 213.124 175.917C213.228 176.692 213.749 177.545 214.41 177.913C214.882 178.189 215.283 178.138 215.518 177.825C215.298 177.894 215.023 177.864 214.727 177.692C214.165 177.357 213.692 176.692 213.508 176.005Z" fill="#575757"/>
<path d="M213.509 176.005C213.693 176.694 214.166 177.357 214.728 177.69C215.023 177.862 215.299 177.893 215.518 177.823C215.604 177.727 215.667 177.571 215.692 177.416C215.283 177.005 214.865 176.657 214.411 176.398C214.1 176.215 213.783 176.085 213.509 176.005Z" fill="#2B2B2B"/>
<path d="M215.961 183.706C215.961 183.706 215.935 183.706 215.926 183.706C215.454 183.9 215.317 184.575 215.577 185.332C216.254 185.465 216.847 185.307 217.282 184.925C216.9 185.143 216.429 185.207 215.9 185.109C215.701 184.53 215.736 184 215.961 183.706Z" fill="#575757"/>
<path d="M215.902 185.11C216.432 185.208 216.902 185.145 217.283 184.926C217.391 184.84 217.477 184.74 217.563 184.631C217.093 183.952 216.452 183.558 215.96 183.701C215.737 184.001 215.702 184.531 215.902 185.11Z" fill="#2B2B2B"/>
<path d="M217.13 179.701C216.701 179.832 216.501 180.38 216.676 181.114C216.883 181.928 217.466 182.681 218.067 182.941C218.067 182.892 218.067 182.818 218.067 182.757C218.067 182.681 218.067 182.605 218.067 182.525C217.587 182.176 217.171 181.55 217.006 180.887C216.873 180.38 216.934 179.957 217.13 179.701Z" fill="#575757"/>
<path d="M217.13 179.702C216.934 179.959 216.873 180.381 217.006 180.888C217.171 181.551 217.587 182.178 218.067 182.526C218.032 181.596 217.736 180.602 217.282 179.679C217.231 179.679 217.18 179.688 217.13 179.702Z" fill="#2B2B2B"/>
<path d="M211.257 181.019C211.709 182.134 212.415 183.201 213.261 183.999C213.333 183.88 213.356 183.743 213.384 183.578C212.681 182.854 212.088 181.95 211.662 180.991C211.523 180.958 211.38 180.98 211.257 181.019Z" fill="#575757"/>
<path d="M211.662 180.993C212.09 181.952 212.681 182.856 213.384 183.58C213.435 183.114 213.272 182.519 212.914 181.979C212.546 181.421 212.079 181.071 211.662 180.993Z" fill="#2B2B2B"/>
<path d="M211.052 178.284C211.052 177.486 211.242 176.844 211.583 176.409C211.571 176.384 211.551 176.364 211.526 176.339C211.033 176.783 210.728 177.521 210.728 178.521C210.728 178.581 210.728 178.644 210.728 178.705C211.258 179.086 211.763 179.098 212.033 178.75C211.763 178.826 211.41 178.74 211.058 178.482C211.052 178.417 211.052 178.358 211.052 178.284Z" fill="#575757"/>
<path d="M211.053 178.283C211.053 178.357 211.053 178.416 211.059 178.482C211.411 178.741 211.763 178.827 212.033 178.751C212.09 178.668 212.131 178.602 212.166 178.506C212.36 177.94 212.094 177.054 211.585 176.41C211.241 176.843 211.053 177.484 211.053 178.283Z" fill="#2B2B2B"/>
<path d="M208.262 167.395L205.397 174.148L207.084 175.898L209.512 170.203L220.14 176.344L222.39 184.703L224.094 184.967L221.41 174.972L208.262 167.395Z" fill="#575757"/>
<path d="M208.261 167.395L221.409 174.972L227.048 171.727L213.901 164.137L208.261 167.395Z" fill="#8C8C8C"/>
<path d="M221.408 174.972L224.093 184.967L229.732 181.73L227.048 171.727L221.408 174.972Z" fill="#787878"/>
<path d="M153.978 166.949L218.916 204.437L220.799 203.357L220.783 212.965L153.978 174.399V166.949Z" fill="#424242"/>
<path d="M180.868 151.428L245.806 188.919L250.07 189.502L220.783 205.516L153.978 166.95L180.868 151.428Z" fill="#F3F1EE"/>
<path d="M154.806 183.967L161.438 180.699L157.236 178.271L154.806 183.967Z" fill="#242424"/>
<path d="M162.134 181.864C158.845 179.966 156.196 181.508 156.196 185.281C156.196 189.061 158.845 193.67 162.134 195.546C165.4 197.444 168.062 195.914 168.062 192.134C168.062 188.347 165.4 183.763 162.134 181.864Z" fill="#333333"/>
<path d="M167.534 178.729C165.933 177.811 164.487 177.711 163.427 178.285H163.415L157.979 181.425C159.045 180.834 160.499 180.93 162.135 181.864C165.401 183.762 168.062 188.347 168.062 192.133C168.062 193.937 167.446 195.232 166.458 195.886L171.852 192.771C172.852 192.117 173.469 190.822 173.469 189.01C173.469 185.231 170.813 180.625 167.534 178.729Z" fill="#474747"/>
<path d="M162.382 181.723C160.779 180.795 159.316 180.697 158.255 181.265L157.979 181.427C159.046 180.836 160.5 180.932 162.135 181.865C165.401 183.764 168.063 188.348 168.063 192.135C168.063 193.939 167.446 195.234 166.458 195.888L166.681 195.747C166.681 195.747 168.297 194.817 168.297 191.986C168.297 188.207 165.656 183.607 162.382 181.723Z" fill="#575757"/>
<path d="M164.14 180.706C162.537 179.784 161.083 179.686 160.023 180.254L159.733 180.424C160.813 179.819 162.279 179.917 163.895 180.847C167.175 182.745 169.834 187.331 169.834 191.126C169.834 192.93 169.216 194.225 168.21 194.867H168.229L168.455 194.742C168.455 194.742 170.067 193.804 170.067 190.971C170.065 187.189 167.41 182.606 164.14 180.706Z" fill="#2B2B2B"/>
<path d="M165.956 179.65C164.365 178.721 162.921 178.625 161.848 179.192L161.563 179.355C162.621 178.764 164.091 178.85 165.719 179.795C168.995 181.693 171.64 186.278 171.64 190.062C171.64 191.884 171.039 193.17 170.039 193.817L170.274 193.675C170.274 193.675 171.9 192.745 171.9 189.914C171.902 186.137 169.241 181.533 165.956 179.65Z" fill="#2B2B2B"/>
<path d="M168.531 190.455L168.996 189.103L167.91 188.08L168.175 186.635L166.838 185.847L166.977 184.33L165.435 183.863L165.277 182.424L163.701 182.201L163.33 181.154L161.406 180.955L160.794 180.405C160.794 180.405 159.4 180.763 159.013 180.896C158.866 180.955 158.723 181.01 158.602 181.086L158.365 181.198C158.549 181.106 158.759 181.019 158.984 180.965C159.314 180.861 160.615 180.505 160.615 180.505L161.232 181.07L163.146 181.272L163.514 182.317L165.095 182.54L165.228 183.953L166.758 184.413L166.644 185.941L167.979 186.716L167.693 188.134L168.791 189.154L168.337 190.529L169.128 191.739L168.39 192.903L168.758 193.703L167.77 194.723L167.625 195.23L167.801 195.114L167.871 194.733L168.916 193.678L168.57 192.872L169.335 191.739L168.531 190.455Z" fill="#333333"/>
<path d="M170.44 189.348L170.904 188.001L169.812 186.97L170.072 185.53L168.741 184.739L168.89 183.223L167.344 182.755L167.186 181.317L165.611 181.104L165.239 180.049L163.305 179.84L162.713 179.296C162.713 179.296 161.294 179.658 160.918 179.8C160.779 179.842 160.642 179.914 160.499 179.973L160.261 180.112C160.47 179.998 160.677 179.914 160.877 179.861C161.214 179.754 162.521 179.407 162.521 179.407L163.147 179.963L165.043 180.162L165.411 181.198L167.002 181.442L167.115 182.845L168.663 183.303L168.542 184.855L169.884 185.604L169.598 187.033L170.696 188.046L170.252 189.414L171.033 190.645L170.283 191.803L170.651 192.608L169.663 193.619L169.52 194.12L169.714 194.02L169.775 193.639L170.816 192.58L170.461 191.766L171.242 190.635L170.44 189.348Z" fill="#333333"/>
<path d="M172.321 188.261L172.791 186.908L171.695 185.885L171.971 184.431L170.635 183.65L170.771 182.142L169.222 181.67L169.063 180.242L167.498 180.005L167.136 178.972L165.202 178.762L164.6 178.203C164.6 178.203 163.181 178.569 162.801 178.7C162.653 178.762 162.52 178.815 162.394 178.891V178.882L162.16 179.022C162.347 178.909 162.557 178.823 162.766 178.762C163.115 178.668 164.404 178.308 164.404 178.308L165.046 178.862L166.934 179.073L167.292 180.109L168.893 180.341L169.014 181.762L170.55 182.226L170.443 183.754L171.764 184.521L171.488 185.934L172.583 186.957L172.131 188.335L172.916 189.554L172.176 190.708L172.548 191.509L171.548 192.53L171.4 193.023L171.589 192.922L171.66 192.54L172.707 191.483L172.36 190.677L173.125 189.556L172.321 188.261Z" fill="#333333"/>
<path d="M162.135 183.851C159.805 182.518 157.922 183.595 157.922 186.279C157.922 188.966 159.805 192.23 162.135 193.572C164.452 194.905 166.334 193.819 166.334 191.136C166.334 188.461 164.452 185.197 162.135 183.851Z" fill="#1F1F1F"/>
<path d="M162.135 184.466C160.1 183.295 158.453 184.241 158.453 186.587C158.453 188.929 160.1 191.772 162.135 192.954C164.166 194.128 165.792 193.168 165.792 190.825C165.792 188.495 164.166 185.638 162.135 184.466Z" fill="#919191"/>
<path d="M160.83 187.955C160.83 188.792 161.417 189.79 162.135 190.207C162.849 190.626 163.426 190.289 163.426 189.457C163.426 188.626 162.849 187.622 162.135 187.203C161.417 186.796 160.83 187.137 160.83 187.955Z" fill="#707070"/>
<path d="M161.788 188.508C161.788 188.73 161.947 189 162.135 189.101C162.328 189.221 162.477 189.133 162.477 188.913C162.477 188.686 162.328 188.422 162.135 188.321C161.947 188.207 161.788 188.295 161.788 188.508Z" fill="#575757"/>
<path d="M162.599 188.066C162.574 188.066 162.554 188.078 162.529 188.088C162.433 188.139 162.433 188.323 162.529 188.479C162.624 188.644 162.779 188.732 162.869 188.681C162.92 188.659 162.92 188.63 162.938 188.595C162.849 188.595 162.738 188.507 162.662 188.374C162.599 188.26 162.574 188.139 162.599 188.066Z" fill="#4F4F4F"/>
<path d="M162.6 188.066C162.575 188.139 162.6 188.262 162.663 188.372C162.739 188.505 162.851 188.593 162.939 188.593C162.958 188.509 162.939 188.391 162.87 188.288C162.802 188.154 162.692 188.066 162.6 188.066Z" fill="#2B2B2B"/>
<path d="M162.592 189.392C162.566 189.392 162.541 189.396 162.519 189.407C162.418 189.468 162.418 189.642 162.519 189.812C162.625 189.973 162.774 190.061 162.862 190C162.897 189.985 162.922 189.959 162.922 189.912C162.834 189.912 162.729 189.828 162.652 189.707C162.592 189.591 162.566 189.48 162.592 189.392Z" fill="#4F4F4F"/>
<path d="M162.591 189.392C162.566 189.48 162.591 189.593 162.652 189.705C162.728 189.828 162.836 189.91 162.922 189.91C162.947 189.846 162.922 189.722 162.861 189.605C162.801 189.48 162.687 189.396 162.591 189.392Z" fill="#2B2B2B"/>
<path d="M161.441 188.714C161.416 188.714 161.381 188.72 161.371 188.731C161.267 188.792 161.267 188.964 161.371 189.133C161.457 189.297 161.615 189.383 161.711 189.32C161.737 189.307 161.752 189.272 161.762 189.236C161.676 189.236 161.565 189.148 161.492 189.017C161.441 188.921 161.416 188.8 161.441 188.714Z" fill="#4F4F4F"/>
<path d="M161.442 188.714C161.417 188.8 161.442 188.921 161.493 189.015C161.566 189.146 161.677 189.234 161.763 189.234C161.789 189.146 161.773 189.045 161.712 188.929C161.63 188.8 161.528 188.72 161.442 188.714Z" fill="#2B2B2B"/>
<path d="M161.442 187.39C161.417 187.39 161.387 187.39 161.382 187.397C161.284 187.45 161.284 187.642 161.382 187.803C161.468 187.955 161.616 188.051 161.718 188.002C161.755 187.979 161.775 187.951 161.775 187.914C161.683 187.914 161.581 187.83 161.509 187.697C161.442 187.581 161.421 187.458 161.442 187.39Z" fill="#4F4F4F"/>
<path d="M161.441 187.39C161.419 187.458 161.441 187.581 161.508 187.695C161.58 187.828 161.682 187.912 161.774 187.912C161.803 187.83 161.789 187.709 161.717 187.607C161.65 187.476 161.527 187.39 161.441 187.39Z" fill="#2B2B2B"/>
<path d="M161.234 184.075C161.091 184.034 160.964 184.012 160.85 183.987C160.952 184.762 161.472 185.613 162.136 185.981C162.605 186.257 163.008 186.208 163.243 185.895C163.024 185.961 162.748 185.932 162.453 185.76C161.891 185.425 161.417 184.762 161.234 184.075Z" fill="#575757"/>
<path d="M161.234 184.074C161.418 184.761 161.891 185.424 162.453 185.757C162.748 185.929 163.024 185.96 163.243 185.892C163.329 185.796 163.392 185.636 163.416 185.485C163.009 185.072 162.592 184.724 162.136 184.465C161.827 184.281 161.508 184.156 161.234 184.074Z" fill="#2B2B2B"/>
<path d="M163.688 191.773C163.688 191.773 163.663 191.773 163.651 191.773C163.181 191.969 163.044 192.646 163.304 193.403C163.983 193.535 164.572 193.376 165.007 192.994C164.625 193.214 164.156 193.274 163.625 193.178C163.428 192.601 163.463 192.071 163.688 191.773Z" fill="#575757"/>
<path d="M163.625 193.179C164.156 193.277 164.625 193.217 165.007 192.996C165.116 192.909 165.202 192.81 165.287 192.7C164.819 192.019 164.175 191.63 163.686 191.771C163.463 192.072 163.428 192.602 163.625 193.179Z" fill="#2B2B2B"/>
<path d="M164.855 187.771C164.427 187.905 164.227 188.449 164.401 189.184C164.611 189.996 165.192 190.752 165.794 191.01C165.794 190.961 165.794 190.887 165.794 190.826C165.794 190.752 165.794 190.673 165.794 190.593C165.315 190.247 164.896 189.619 164.734 188.953C164.599 188.449 164.661 188.026 164.855 187.771Z" fill="#575757"/>
<path d="M164.855 187.771C164.661 188.025 164.599 188.448 164.732 188.953C164.894 189.618 165.313 190.246 165.792 190.593C165.755 189.663 165.46 188.671 165.006 187.746C164.957 187.746 164.906 187.755 164.855 187.771Z" fill="#2B2B2B"/>
<path d="M158.984 189.088C159.438 190.205 160.141 191.27 160.988 192.07C161.059 191.951 161.084 191.812 161.111 191.647C160.407 190.921 159.816 190.021 159.387 189.06C159.248 189.027 159.106 189.049 158.984 189.088Z" fill="#575757"/>
<path d="M159.385 189.06C159.813 190.02 160.404 190.921 161.109 191.646C161.159 191.183 160.997 190.586 160.639 190.046C160.273 189.488 159.803 189.138 159.385 189.06Z" fill="#2B2B2B"/>
<path d="M158.778 186.354C158.778 185.554 158.968 184.91 159.308 184.477C159.298 184.45 159.277 184.43 159.253 184.405C158.758 184.849 158.451 185.589 158.451 186.587C158.451 186.647 158.451 186.71 158.451 186.771C158.981 187.152 159.486 187.164 159.758 186.816C159.486 186.894 159.134 186.806 158.784 186.546C158.778 186.485 158.778 186.422 158.778 186.354Z" fill="#575757"/>
<path d="M158.78 186.354C158.78 186.422 158.78 186.485 158.786 186.547C159.138 186.808 159.488 186.896 159.76 186.817C159.815 186.737 159.856 186.669 159.891 186.573C160.085 186.007 159.819 185.121 159.31 184.479C158.97 184.909 158.78 185.553 158.78 186.354Z" fill="#2B2B2B"/>
<path d="M155.985 175.462L153.118 182.217L154.807 183.966L157.237 178.27L167.865 184.413L170.111 192.77L171.817 193.034L169.133 183.039L155.985 175.462Z" fill="#575757"/>
<path d="M155.983 175.463L169.131 183.04L174.771 179.795L161.625 172.205L155.983 175.463Z" fill="#8C8C8C"/>
<path d="M169.131 183.04L171.816 193.035L177.456 189.798L174.771 179.795L169.131 183.04Z" fill="#787878"/>
<path d="M174.02 194.998L180.65 191.73L176.449 189.304L174.02 194.998Z" fill="#242424"/>
<path d="M181.35 192.899C178.061 191.001 175.413 192.542 175.413 196.315C175.413 200.096 178.063 204.702 181.35 206.58C184.616 208.477 187.279 206.948 187.279 203.168C187.277 199.38 184.616 194.795 181.35 192.899Z" fill="#333333"/>
<path d="M186.747 189.76C185.146 188.848 183.7 188.745 182.639 189.318H182.63L177.192 192.459C178.258 191.864 179.712 191.963 181.348 192.897C184.614 194.795 187.277 199.38 187.277 203.166C187.277 204.97 186.661 206.266 185.67 206.919L191.065 203.804C192.065 203.148 192.684 201.855 192.684 200.043C192.686 196.264 190.026 191.66 186.747 189.76Z" fill="#474747"/>
<path d="M181.597 192.751C179.995 191.826 178.531 191.732 177.47 192.297L177.196 192.46C178.263 191.865 179.717 191.965 181.353 192.898C184.619 194.796 187.282 199.381 187.282 203.167C187.282 204.971 186.665 206.267 185.675 206.92L185.898 206.779C185.898 206.779 187.517 205.85 187.517 203.02C187.515 199.244 184.871 194.636 181.597 192.751Z" fill="#575757"/>
<path d="M183.356 191.741C181.755 190.817 180.299 190.721 179.238 191.287L178.949 191.455C180.031 190.854 181.495 190.952 183.111 191.882C186.391 193.78 189.048 198.363 189.048 202.159C189.048 203.965 188.432 205.26 187.426 205.902H187.447L187.672 205.777C187.672 205.777 189.283 204.842 189.283 202.008C189.281 198.224 186.623 193.641 183.356 191.741Z" fill="#2B2B2B"/>
<path d="M185.171 190.686C183.58 189.757 182.136 189.663 181.064 190.229L180.778 190.391C181.839 189.8 183.306 189.884 184.934 190.829C188.208 192.729 190.855 197.314 190.855 201.099C190.855 202.918 190.253 204.206 189.253 204.854L189.488 204.711C189.488 204.711 191.114 203.781 191.114 200.95C191.118 197.175 188.454 192.571 185.171 190.686Z" fill="#2B2B2B"/>
<path d="M187.746 201.487L188.21 200.137L187.122 199.11L187.386 197.67L186.05 196.879L186.187 195.365L184.647 194.897L184.488 193.461L182.911 193.234L182.539 192.189L180.616 191.989L180.003 191.439C180.003 191.439 178.61 191.797 178.222 191.928C178.074 191.989 177.931 192.044 177.809 192.12L177.575 192.232C177.759 192.14 177.968 192.052 178.191 191.999C178.522 191.895 179.823 191.539 179.823 191.539L180.441 192.103L182.355 192.304L182.723 193.347L184.304 193.572L184.437 194.987L185.967 195.445L185.856 196.973L187.186 197.748L186.901 199.167L187.997 200.188L187.543 201.564L188.333 202.773L187.593 203.937L187.961 204.738L186.971 205.755L186.828 206.264L187.002 206.148L187.073 205.767L188.12 204.712L187.773 203.906L188.539 202.773L187.746 201.487Z" fill="#333333"/>
<path d="M189.656 200.382L190.119 199.036L189.028 198.004L189.288 196.562L187.957 195.774L188.104 194.257L186.56 193.788L186.402 192.351L184.824 192.138L184.453 191.083L182.519 190.872L181.926 190.326C181.926 190.326 180.51 190.688 180.13 190.831C179.993 190.872 179.854 190.944 179.713 191.005L179.473 191.144C179.682 191.028 179.891 190.944 180.089 190.891C180.426 190.786 181.733 190.437 181.733 190.437L182.361 190.995L184.257 191.195L184.625 192.23L186.216 192.475L186.329 193.878L187.879 194.335L187.756 195.887L189.098 196.637L188.812 198.065L189.908 199.081L189.464 200.446L190.245 201.677L189.495 202.836L189.863 203.638L188.875 204.652L188.732 205.153L188.928 205.053L188.988 204.671L190.028 203.609L189.675 202.799L190.456 201.668L189.656 200.382Z" fill="#333333"/>
<path d="M191.538 199.293L192.008 197.945L190.91 196.921L191.186 195.467L189.849 194.686L189.986 193.178L188.435 192.708L188.278 191.278L186.713 191.043L186.351 190.008L184.417 189.798L183.815 189.239C183.815 189.239 182.396 189.609 182.014 189.74C181.868 189.798 181.735 189.851 181.607 189.926V189.918L181.373 190.059C181.56 189.947 181.77 189.859 181.979 189.798C182.325 189.708 183.617 189.344 183.617 189.344L184.259 189.9L186.145 190.11L186.503 191.145L188.104 191.378L188.227 192.796L189.763 193.258L189.656 194.79L190.976 195.555L190.701 196.97L191.796 197.993L191.342 199.371L192.129 200.59L191.389 201.743L191.763 202.545L190.763 203.564L190.614 204.06L190.804 203.958L190.875 203.574L191.922 202.52L191.575 201.713L192.34 200.592L191.538 199.293Z" fill="#333333"/>
<path d="M181.35 194.883C179.019 193.551 177.139 194.625 177.139 197.312C177.139 199.999 179.019 203.262 181.35 204.605C183.667 205.937 185.549 204.851 185.549 202.167C185.549 199.496 183.665 196.23 181.35 194.883Z" fill="#1F1F1F"/>
<path d="M181.35 195.502C179.317 194.332 177.669 195.277 177.669 197.623C177.669 199.965 179.317 202.81 181.35 203.99C183.381 205.164 185.009 204.204 185.009 201.861C185.007 199.529 183.381 196.674 181.35 195.502Z" fill="#919191"/>
<path d="M180.044 198.99C180.044 199.825 180.631 200.825 181.35 201.242C182.064 201.661 182.641 201.324 182.641 200.493C182.641 199.661 182.064 198.655 181.35 198.24C180.631 197.831 180.044 198.172 180.044 198.99Z" fill="#707070"/>
<path d="M181.003 199.544C181.003 199.765 181.16 200.033 181.347 200.137C181.543 200.254 181.69 200.168 181.69 199.947C181.69 199.724 181.541 199.458 181.347 199.356C181.162 199.244 181.003 199.33 181.003 199.544Z" fill="#575757"/>
<path d="M181.816 199.103C181.79 199.103 181.769 199.11 181.743 199.124C181.647 199.175 181.647 199.359 181.743 199.515C181.841 199.68 181.994 199.768 182.086 199.715C182.137 199.695 182.137 199.666 182.152 199.631C182.064 199.631 181.953 199.541 181.876 199.41C181.816 199.292 181.79 199.175 181.816 199.103Z" fill="#4F4F4F"/>
<path d="M181.817 199.103C181.791 199.175 181.817 199.294 181.878 199.408C181.954 199.539 182.065 199.629 182.153 199.629C182.173 199.545 182.153 199.425 182.087 199.32C182.014 199.191 181.907 199.103 181.817 199.103Z" fill="#2B2B2B"/>
<path d="M181.805 200.426C181.779 200.426 181.756 200.432 181.734 200.441C181.632 200.502 181.632 200.674 181.734 200.845C181.842 201.007 181.988 201.095 182.077 201.034C182.112 201.019 182.137 200.993 182.137 200.946C182.051 200.946 181.942 200.858 181.867 200.739C181.805 200.627 181.779 200.514 181.805 200.426Z" fill="#4F4F4F"/>
<path d="M181.805 200.426C181.78 200.514 181.805 200.627 181.868 200.737C181.944 200.856 182.052 200.944 182.138 200.944C182.163 200.88 182.138 200.756 182.077 200.639C182.014 200.514 181.903 200.432 181.805 200.426Z" fill="#2B2B2B"/>
<path d="M180.656 199.749C180.631 199.749 180.594 199.757 180.584 199.768C180.482 199.827 180.482 200.001 180.584 200.169C180.672 200.334 180.828 200.422 180.926 200.357C180.952 200.344 180.967 200.308 180.977 200.269C180.891 200.269 180.777 200.185 180.707 200.054C180.656 199.96 180.631 199.837 180.656 199.749Z" fill="#4F4F4F"/>
<path d="M180.658 199.749C180.633 199.837 180.658 199.96 180.709 200.052C180.781 200.183 180.893 200.267 180.979 200.267C181.004 200.183 180.989 200.081 180.928 199.966C180.846 199.837 180.744 199.757 180.658 199.749Z" fill="#2B2B2B"/>
<path d="M180.659 198.424C180.633 198.424 180.602 198.424 180.596 198.432C180.5 198.483 180.5 198.676 180.596 198.837C180.684 198.989 180.831 199.085 180.933 199.036C180.968 199.013 180.987 198.983 180.987 198.948C180.895 198.948 180.794 198.86 180.721 198.731C180.659 198.616 180.639 198.492 180.659 198.424Z" fill="#4F4F4F"/>
<path d="M180.658 198.424C180.638 198.492 180.658 198.616 180.722 198.729C180.795 198.858 180.897 198.946 180.989 198.946C181.02 198.866 181.004 198.743 180.934 198.641C180.867 198.508 180.744 198.424 180.658 198.424Z" fill="#2B2B2B"/>
<path d="M180.448 195.108C180.306 195.067 180.176 195.048 180.065 195.02C180.169 195.795 180.689 196.648 181.35 197.016C181.822 197.292 182.223 197.241 182.458 196.928C182.239 196.997 181.963 196.967 181.667 196.795C181.106 196.46 180.632 195.795 180.448 195.108Z" fill="#575757"/>
<path d="M180.448 195.109C180.632 195.798 181.106 196.461 181.667 196.794C181.963 196.966 182.237 196.997 182.458 196.927C182.544 196.831 182.606 196.675 182.632 196.52C182.223 196.109 181.804 195.761 181.35 195.501C181.039 195.319 180.722 195.189 180.448 195.109Z" fill="#2B2B2B"/>
<path d="M182.901 202.809C182.901 202.809 182.876 202.809 182.866 202.809C182.395 203.003 182.258 203.678 182.518 204.435C183.195 204.568 183.788 204.41 184.222 204.028C183.841 204.246 183.369 204.31 182.841 204.212C182.641 203.633 182.676 203.103 182.901 202.809Z" fill="#575757"/>
<path d="M182.842 204.213C183.372 204.311 183.842 204.248 184.224 204.029C184.331 203.943 184.417 203.843 184.505 203.734C184.036 203.055 183.394 202.661 182.903 202.804C182.678 203.104 182.643 203.634 182.842 204.213Z" fill="#2B2B2B"/>
<path d="M184.07 198.804C183.641 198.935 183.442 199.483 183.616 200.217C183.823 201.031 184.407 201.784 185.007 202.044C185.007 201.995 185.007 201.921 185.007 201.86C185.007 201.784 185.007 201.708 185.007 201.628C184.528 201.279 184.109 200.653 183.945 199.99C183.814 199.483 183.874 199.06 184.07 198.804Z" fill="#575757"/>
<path d="M184.07 198.805C183.874 199.062 183.814 199.484 183.947 199.989C184.111 200.652 184.528 201.279 185.009 201.627C184.974 200.697 184.679 199.703 184.225 198.78C184.172 198.78 184.121 198.79 184.07 198.805Z" fill="#2B2B2B"/>
<path d="M178.197 200.122C178.649 201.237 179.356 202.304 180.201 203.102C180.273 202.983 180.297 202.846 180.324 202.681C179.622 201.957 179.029 201.053 178.602 200.095C178.463 200.061 178.32 200.083 178.197 200.122Z" fill="#575757"/>
<path d="M178.601 200.095C179.03 201.054 179.621 201.958 180.323 202.682C180.374 202.216 180.212 201.621 179.854 201.081C179.486 200.525 179.018 200.173 178.601 200.095Z" fill="#2B2B2B"/>
<path d="M177.994 197.387C177.994 196.589 178.184 195.947 178.524 195.512C178.512 195.487 178.493 195.467 178.467 195.442C177.974 195.884 177.669 196.622 177.669 197.624C177.669 197.684 177.669 197.747 177.669 197.808C178.199 198.189 178.704 198.201 178.974 197.853C178.704 197.929 178.352 197.843 178 197.585C177.994 197.52 177.994 197.461 177.994 197.387Z" fill="#575757"/>
<path d="M177.995 197.386C177.995 197.46 177.995 197.519 178 197.585C178.353 197.844 178.705 197.93 178.975 197.854C179.032 197.771 179.073 197.705 179.108 197.609C179.302 197.043 179.036 196.157 178.527 195.513C178.182 195.944 177.995 196.586 177.995 197.386Z" fill="#2B2B2B"/>
<path d="M175.2 186.494L172.335 193.247L174.022 194.998L176.45 189.304L187.078 195.442L189.328 203.803L191.032 204.068L188.348 194.072L175.2 186.494Z" fill="#575757"/>
<path d="M175.198 186.494L188.346 194.073L193.985 190.828L180.838 183.238L175.198 186.494Z" fill="#8C8C8C"/>
<path d="M188.346 194.073L191.031 204.068L196.67 200.83L193.986 190.828L188.346 194.073Z" fill="#787878"/>
<path d="M195.078 206.655L211.989 216.417V209.547L195.078 199.787V206.655Z" fill="#A1A1A1"/>
<path d="M211.989 209.545L220.124 204.851V211.721L211.989 216.415V209.545Z" fill="#C7C7C7"/>
<path d="M195.079 199.785L211.989 209.545L220.124 204.851L203.211 195.089L195.079 199.785Z" fill="#D1D1D1"/>
<path d="M196.741 187.102L213.654 196.864V193.002L196.741 183.241V187.102Z" fill="#595959"/>
<path opacity="0.3" d="M209.366 196.864H213.654V193.002L196.741 183.241V184.707L192.43 187.157L209.366 196.864Z" fill="black"/>
<path d="M213.654 193.001L231.342 182.833V186.696L213.654 196.864V193.001Z" fill="#696969"/>
<path d="M196.742 183.241L213.654 193.001L231.342 182.834L214.429 173.071L196.742 183.241Z" fill="#7D7D7D"/>
<path d="M221.68 165.403L225.151 163.597L209.923 134.096L208.72 134.789L206.221 135.449L221.68 165.403Z" fill="#969696"/>
<path d="M220.948 159.23L222.061 158.909L211.16 137.854L210.093 138.196L220.948 159.23Z" fill="#CFCFCF"/>
<path d="M226.031 163.167L239.624 189.347L234.416 192.051L220.823 165.871L226.031 163.167Z" fill="#2E2E2E"/>
<path d="M235.745 186.279L236.86 185.96L225.928 164.852L224.891 165.245L235.745 186.279Z" fill="#8A8A8A"/>
<path d="M227.271 225.695L236.646 220.283V213.624L227.271 219.036V225.695Z" fill="#781C1C"/>
<path d="M233.795 223.245C230.503 221.345 227.856 222.885 227.856 226.662C227.856 230.442 230.503 235.047 233.795 236.925C237.058 238.821 239.722 237.293 239.722 233.51C239.722 229.728 237.058 225.141 233.795 223.245Z" fill="#333333"/>
<path d="M239.19 220.109C237.589 219.195 236.145 219.092 235.083 219.663H235.073L229.635 222.804C230.701 222.213 232.155 222.311 233.793 223.246C237.057 225.142 239.72 229.729 239.72 233.511C239.72 235.317 239.102 236.615 238.114 237.268L243.511 234.149C244.511 233.496 245.127 232.2 245.127 230.39C245.127 226.61 242.47 222.007 239.19 220.109Z" fill="#474747"/>
<path d="M234.039 223.102C232.439 222.172 230.975 222.078 229.914 222.644L229.638 222.806C230.705 222.215 232.159 222.313 233.797 223.249C237.06 225.145 239.724 229.731 239.724 233.514C239.724 235.32 239.105 236.617 238.117 237.271L238.342 237.126C238.342 237.126 239.958 236.199 239.958 233.369C239.957 229.592 237.315 224.982 234.039 223.102Z" fill="#575757"/>
<path d="M235.797 222.089C234.196 221.164 232.742 221.07 231.679 221.635L231.39 221.804C232.47 221.201 233.934 221.297 235.55 222.226C238.83 224.124 241.487 228.709 241.487 232.505C241.487 234.311 240.87 235.605 239.865 236.251H239.884L240.109 236.12C240.109 236.12 241.72 235.188 241.72 232.351C241.724 228.57 239.066 223.983 235.797 222.089Z" fill="#2B2B2B"/>
<path d="M237.614 221.035C236.023 220.105 234.581 220.009 233.509 220.575L233.223 220.739C234.285 220.146 235.753 220.234 237.381 221.179C240.655 223.076 243.302 227.662 243.302 231.447C243.302 233.269 242.7 234.552 241.7 235.202L241.934 235.057C241.934 235.057 243.562 234.128 243.562 231.3C243.562 227.521 240.899 222.917 237.614 221.035Z" fill="#2B2B2B"/>
<path d="M240.189 231.835L240.653 230.487L239.567 229.46L239.833 228.016L238.497 227.227L238.634 225.712L237.092 225.245L236.935 223.807L235.358 223.582L234.986 222.539L233.063 222.339L232.45 221.785C232.45 221.785 231.057 222.145 230.668 222.278C230.521 222.339 230.378 222.39 230.257 222.468L230.022 222.58C230.206 222.486 230.413 222.4 230.638 222.345C230.969 222.241 232.268 221.887 232.268 221.887L232.885 222.452L234.798 222.652L235.166 223.699L236.747 223.922L236.88 225.335L238.411 225.795L238.297 227.323L239.63 228.098L239.344 229.52L240.442 230.54L239.988 231.917L240.778 233.125L240.039 234.289L240.407 235.089L239.416 236.109L239.274 236.616L239.448 236.5L239.518 236.121L240.565 235.064L240.219 234.258L240.984 233.127L240.189 231.835Z" fill="#333333"/>
<path d="M242.099 230.729L242.562 229.381L241.47 228.351L241.731 226.909L240.4 226.119L240.547 224.604L239.001 224.136L238.842 222.698L237.267 222.483L236.894 221.428L234.962 221.219L234.371 220.677C234.371 220.677 232.953 221.039 232.575 221.182C232.438 221.221 232.299 221.293 232.158 221.354L231.917 221.491C232.127 221.379 232.336 221.291 232.536 221.24C232.872 221.135 234.178 220.788 234.178 220.788L234.804 221.342L236.702 221.546L237.07 222.579L238.661 222.823L238.772 224.228L240.322 224.684L240.201 226.236L241.541 226.983L241.255 228.412L242.351 229.429L241.907 230.793L242.688 232.024L241.936 233.183L242.304 233.989L241.314 234.999L241.171 235.499L241.365 235.4L241.425 235.022L242.468 233.959L242.116 233.149L242.897 232.016L242.099 230.729Z" fill="#333333"/>
<path d="M243.98 229.643L244.45 228.292L243.352 227.269L243.628 225.815L242.289 225.034L242.426 223.526L240.876 223.056L240.718 221.624L239.151 221.391L238.789 220.354L236.857 220.144L236.255 219.583C236.255 219.583 234.836 219.951 234.454 220.084C234.306 220.144 234.174 220.195 234.047 220.274V220.26L233.812 220.405C234 220.291 234.21 220.205 234.419 220.144C234.765 220.05 236.057 219.69 236.057 219.69L236.701 220.246L238.587 220.453L238.943 221.489L240.544 221.723L240.667 223.142L242.201 223.606L242.094 225.134L243.416 225.903L243.14 227.314L244.238 228.339L243.784 229.717L244.569 230.936L243.829 232.089L244.201 232.889L243.201 233.908L243.052 234.404L243.242 234.302L243.315 233.92L244.36 232.863L244.011 232.057L244.778 230.936L243.98 229.643Z" fill="#333333"/>
<path d="M233.792 225.231C231.46 223.896 229.579 224.975 229.579 227.657C229.579 230.346 231.46 233.61 233.792 234.95C236.107 236.283 237.99 235.199 237.99 232.512C237.992 229.841 236.107 226.577 233.792 225.231Z" fill="#1F1F1F"/>
<path d="M233.793 225.847C231.756 224.677 230.111 225.622 230.111 227.968C230.111 230.308 231.758 233.155 233.793 234.333C235.823 235.507 237.451 234.547 237.451 232.208C237.451 229.874 235.823 227.019 233.793 225.847Z" fill="#919191"/>
<path d="M232.488 229.336C232.488 230.174 233.073 231.172 233.795 231.591C234.507 232.009 235.084 231.673 235.084 230.841C235.084 230.009 234.507 229.002 233.795 228.587C233.073 228.178 232.488 228.52 232.488 229.336Z" fill="#707070"/>
<path d="M233.446 229.893C233.446 230.108 233.605 230.382 233.793 230.486C233.987 230.602 234.133 230.515 234.133 230.294C234.133 230.071 233.985 229.805 233.793 229.701C233.605 229.592 233.446 229.678 233.446 229.893Z" fill="#575757"/>
<path d="M234.258 229.447C234.233 229.447 234.213 229.459 234.186 229.47C234.09 229.519 234.09 229.703 234.186 229.862C234.284 230.024 234.436 230.11 234.528 230.063C234.579 230.042 234.579 230.012 234.593 229.975C234.505 229.975 234.395 229.887 234.319 229.756C234.258 229.642 234.233 229.521 234.258 229.447Z" fill="#4F4F4F"/>
<path d="M234.258 229.447C234.233 229.519 234.258 229.642 234.321 229.754C234.397 229.885 234.509 229.973 234.595 229.973C234.616 229.893 234.595 229.774 234.53 229.668C234.458 229.535 234.35 229.447 234.258 229.447Z" fill="#2B2B2B"/>
<path d="M234.248 230.773C234.221 230.773 234.198 230.779 234.176 230.786C234.072 230.851 234.072 231.023 234.176 231.191C234.284 231.356 234.43 231.442 234.518 231.379C234.554 231.364 234.579 231.338 234.579 231.295C234.493 231.295 234.385 231.207 234.307 231.086C234.248 230.972 234.223 230.859 234.248 230.773Z" fill="#4F4F4F"/>
<path d="M234.248 230.773C234.221 230.859 234.248 230.972 234.309 231.084C234.385 231.207 234.493 231.293 234.581 231.293C234.606 231.227 234.581 231.101 234.52 230.988C234.458 230.859 234.346 230.779 234.248 230.773Z" fill="#2B2B2B"/>
<path d="M233.098 230.096C233.072 230.096 233.037 230.104 233.025 230.109C232.923 230.172 232.923 230.346 233.025 230.514C233.113 230.677 233.27 230.763 233.368 230.704C233.393 230.689 233.409 230.653 233.418 230.616C233.332 230.616 233.219 230.53 233.148 230.399C233.098 230.307 233.072 230.182 233.098 230.096Z" fill="#4F4F4F"/>
<path d="M233.099 230.096C233.074 230.182 233.099 230.305 233.15 230.397C233.22 230.528 233.334 230.614 233.42 230.614C233.445 230.528 233.43 230.426 233.369 230.309C233.289 230.182 233.187 230.104 233.099 230.096Z" fill="#2B2B2B"/>
<path d="M233.099 228.769C233.074 228.769 233.044 228.769 233.038 228.781C232.942 228.83 232.942 229.025 233.038 229.182C233.124 229.335 233.273 229.432 233.375 229.382C233.412 229.362 233.432 229.333 233.432 229.295C233.342 229.295 233.238 229.209 233.166 229.078C233.099 228.963 233.079 228.841 233.099 228.769Z" fill="#4F4F4F"/>
<path d="M233.099 228.769C233.08 228.841 233.099 228.965 233.166 229.076C233.238 229.207 233.34 229.293 233.432 229.293C233.463 229.211 233.448 229.09 233.375 228.988C233.309 228.855 233.187 228.769 233.099 228.769Z" fill="#2B2B2B"/>
<path d="M232.89 225.453C232.747 225.41 232.618 225.393 232.509 225.367C232.612 226.142 233.131 226.991 233.794 227.363C234.264 227.637 234.665 227.584 234.9 227.275C234.681 227.34 234.405 227.31 234.109 227.136C233.55 226.805 233.074 226.144 232.89 225.453Z" fill="#575757"/>
<path d="M232.889 225.454C233.073 226.143 233.546 226.804 234.108 227.135C234.404 227.309 234.679 227.339 234.899 227.274C234.985 227.176 235.047 227.018 235.071 226.865C234.664 226.452 234.245 226.104 233.791 225.845C233.482 225.664 233.165 225.536 232.889 225.454Z" fill="#2B2B2B"/>
<path d="M235.344 233.156C235.344 233.156 235.319 233.156 235.309 233.156C234.839 233.35 234.702 234.027 234.963 234.782C235.642 234.913 236.231 234.757 236.665 234.375C236.283 234.593 235.814 234.655 235.284 234.559C235.084 233.982 235.121 233.45 235.344 233.156Z" fill="#575757"/>
<path d="M235.284 234.559C235.816 234.655 236.283 234.595 236.665 234.376C236.773 234.287 236.861 234.192 236.947 234.078C236.479 233.401 235.835 233.008 235.346 233.149C235.121 233.45 235.084 233.982 235.284 234.559Z" fill="#2B2B2B"/>
<path d="M236.513 229.151C236.085 229.284 235.887 229.83 236.059 230.566C236.267 231.376 236.85 232.131 237.451 232.391C237.451 232.34 237.451 232.268 237.451 232.209C237.451 232.131 237.451 232.055 237.451 231.973C236.971 231.624 236.553 230.998 236.39 230.337C236.257 229.83 236.318 229.407 236.513 229.151Z" fill="#575757"/>
<path d="M236.513 229.152C236.32 229.408 236.259 229.831 236.39 230.336C236.553 230.997 236.971 231.624 237.451 231.972C237.415 231.044 237.12 230.052 236.664 229.127C236.613 229.127 236.562 229.136 236.513 229.152Z" fill="#2B2B2B"/>
<path d="M230.643 230.467C231.095 231.586 231.799 232.651 232.646 233.451C232.719 233.328 232.744 233.191 232.77 233.026C232.065 232.304 231.474 231.402 231.046 230.443C230.907 230.408 230.764 230.428 230.643 230.467Z" fill="#575757"/>
<path d="M231.043 230.443C231.471 231.401 232.062 232.304 232.767 233.026C232.818 232.564 232.653 231.967 232.297 231.427C231.931 230.871 231.46 230.519 231.043 230.443Z" fill="#2B2B2B"/>
<path d="M230.437 227.733C230.437 226.933 230.625 226.291 230.967 225.857C230.958 225.831 230.936 225.812 230.911 225.786C230.416 226.23 230.11 226.968 230.11 227.968C230.11 228.031 230.11 228.087 230.11 228.154C230.641 228.533 231.145 228.545 231.416 228.197C231.145 228.273 230.793 228.187 230.441 227.927C230.437 227.868 230.437 227.807 230.437 227.733Z" fill="#575757"/>
<path d="M230.438 227.734C230.438 227.806 230.438 227.867 230.442 227.929C230.794 228.19 231.144 228.276 231.416 228.199C231.473 228.117 231.512 228.053 231.549 227.953C231.743 227.387 231.477 226.501 230.968 225.859C230.626 226.292 230.438 226.933 230.438 227.734Z" fill="#2B2B2B"/>
<path d="M234.319 222.414C230.634 220.289 227.625 221.78 227.273 225.698L220.8 221.96V177.817L244.543 191.526L251.637 211.744V239.765L241.356 233.826C241 229.492 237.974 224.539 234.319 222.414Z" fill="#BEBBB6"/>
<path d="M286.381 219.702L251.637 239.763V211.74L286.381 191.681V219.702Z" fill="#F3F1EE"/>
<path d="M274.538 217.24L263.482 223.623V208.781L274.538 202.4V217.24Z" fill="#919191"/>
<path d="M254.074 241.173L288.822 221.112V213.753L254.074 233.816V241.173Z" fill="#5C5C5C"/>
<path d="M251.637 239.767L254.073 241.174V233.816L251.637 232.407V239.767Z" fill="#424242"/>
<path d="M251.637 232.407L254.074 233.816L288.822 213.753L286.382 212.346L251.637 232.407Z" fill="#828282"/>
<path d="M231.619 186.622V200.185L248.379 209.863L247.929 208.54L232.627 199.703V187.205L231.619 186.622Z" fill="#2565C4"/>
<path d="M232.627 187.205V199.703L247.929 208.54L242.618 192.973L232.627 187.205Z" fill="url(#paint17_linear_588_21549)"/>
<path d="M229.626 215.732L250.07 227.534V210.79L250.055 210.741L243.609 192.04L229.628 183.966L229.626 215.732ZM249.738 226.957L229.96 215.537V184.541L243.404 192.304L249.74 210.692L249.738 226.957Z" fill="#88380B"/>
<path d="M231.619 203.32L235.415 205.511V204.104L231.619 201.911V203.32Z" fill="#731A1A"/>
<path d="M253.777 229.228L256.366 227.733V222.551L253.777 224.046V229.228Z" fill="#FF6B00"/>
<path d="M256.366 227.732L262.311 224.302V219.118L256.366 222.55V227.732Z" fill="#FFEAC3"/>
<path d="M281.815 213.038L284.404 211.543V206.359L281.815 207.854V213.038Z" fill="#FF6B00"/>
<path d="M275.87 216.471L281.814 213.039V207.855L275.87 211.288V216.471Z" fill="#FFEAC3"/>
<path d="M220.798 177.817L255.545 157.756L279.289 171.465L244.544 191.526L220.798 177.817Z" fill="#FCFBFA"/>
<path d="M251.637 211.742L286.381 191.683L279.288 171.465L244.543 191.526L251.637 211.742Z" fill="#C0BAB1"/>
<path d="M251.777 208.777L252.156 209.863L284.909 190.951L278.669 173.165L277.677 173.735L283.537 190.44L251.777 208.777Z" fill="#2565C4"/>
<path d="M245.915 192.075L251.775 208.776L283.536 190.439L277.676 173.734L245.915 192.075Z" fill="url(#paint18_linear_588_21549)"/>
<path d="M266.929 179.902L282.229 188.735L277.206 174.008L266.929 179.902Z" fill="url(#paint19_linear_588_21549)"/>
<path d="M249.048 201.001L261.865 193.6L266.003 195.991L282.227 186.622L283.536 190.44L251.775 208.777L249.048 201.001Z" fill="#1F8BA6"/>
<path d="M231.901 60.4955L205.623 45.3242V15.1721L231.901 30.3434V60.4955Z" fill="#EAC87C"/>
<path d="M205.623 15.1721L231.901 30.3434L217.721 22.7571L205.623 15.1721Z" fill="#A88B4E"/>
<path d="M231.901 60.4955L258.178 45.3242V15.1721L231.901 30.3434V60.4955Z" fill="#CFAF6C"/>
<path d="M231.901 30.3425L258.178 15.1713L231.901 0L205.623 15.1713L231.901 30.3425Z" fill="#FDDB93"/>
<path d="M220.059 35.4165L215.837 32.9789V21.0674L220.059 23.5049V35.4165Z" fill="#F4D795"/>
<path d="M220.059 23.5041L246.337 8.3328L242.114 5.89526L215.837 21.0665L220.059 23.5041Z" fill="#FFEABA"/>
<path d="M258.178 15.1721L231.901 30.3434L246.08 22.7571L258.178 15.1721Z" fill="#A88B4E"/>
<path d="M243.299 35.673L247.521 33.2355V21.324L243.299 23.7615V35.673Z" fill="#BD9F5E"/>
<path d="M243.298 23.7607L217.02 8.5894L221.243 6.15186L247.52 21.3231L243.298 23.7607Z" fill="#756B56"/>
<path d="M245.25 22.6349L218.973 7.46361L219.263 7.2959L245.541 22.4672L245.25 22.6349Z" fill="#ECD097"/>
<path d="M243.299 23.7615V24.2533L245.873 22.8763L247.521 21.8423V21.324L243.299 23.7615Z" fill="#CFAF6C"/>
<path d="M217.721 22.7554L220.059 24.0063V23.5044L215.837 21.0669V21.5738L217.721 22.7554Z" fill="#CFAF6C"/>
<path d="M233.502 30.9878L239.047 27.7861V34.153L233.502 37.3547V30.9878ZM238.684 28.4179L233.868 31.1984V36.7217L238.684 33.9411V28.4179Z" fill="#A88B4E"/>
<path d="M235.662 35.3152L236.885 34.6091V31.4036L235.662 32.1097V35.3152Z" fill="#A88B4E"/>
<path d="M234.46 33.4135L238.09 31.319L236.275 30.1777L234.46 33.4135Z" fill="#A88B4E"/>
<path d="M217.54 41.0949V49.6294L206.246 43.11V34.5754L217.54 41.0949Z" fill="#FFF8E6"/>
<path d="M184.755 29.1772L186.223 30.1999C186.381 30.5202 186.599 30.8127 186.932 31.0044L189.528 32.5038L194.401 35.8997C195.35 44.6524 200.898 54.1529 208.08 59.2764L208.6 65.2031V71.0252C208.6 71.6015 208.85 72.1122 209.238 72.4792L209.385 74.1651L211.737 72.6872L211.733 72.6456C212.256 72.2825 212.619 71.7087 212.619 71.0252V61.7807C214.368 62.4755 216.073 62.8564 217.675 62.8564C219.429 62.8564 221.068 62.4377 222.527 61.5941C224.779 60.294 226.349 58.1061 227.17 55.2701L232.055 58.6635L234.417 57.1831L234.415 57.1717C234.632 57.0204 234.828 56.8312 234.969 56.5854C235.483 55.6938 235.178 54.5526 234.287 54.0381L227.827 50.308C227.796 40.3838 221.173 28.7813 212.62 23.5027V14.0186C212.62 12.9089 211.721 12.0098 210.611 12.0098C210.359 12.0098 210.123 12.069 209.9 12.1535V12.1434L209.876 12.1586C209.705 12.2267 209.561 12.3364 209.417 12.4461L207.408 13.7033L208.106 21.4245C204.947 20.4775 201.992 20.6742 199.545 22.0891C196.648 23.7612 194.869 26.8885 194.388 31.0006L188.799 27.7737C188.208 27.432 187.52 27.4799 186.963 27.7926L186.934 27.775L184.755 29.1772ZM198.261 33.2389C198.275 29.5114 199.441 26.7876 201.551 25.5695C201.845 25.3992 202.174 25.2971 202.499 25.1874C203.094 24.9856 203.721 24.8481 204.407 24.8481C204.826 24.8481 205.259 24.8847 205.706 24.9591C206.6 25.1079 207.547 25.403 208.529 25.8456C208.552 25.8557 208.576 25.8708 208.599 25.8809V33.1608C208.599 33.4672 208.679 33.7496 208.802 34.0094L208.087 34.3965L209.445 36.2729L211.52 34.9501L211.505 34.9363C212.157 34.6034 212.617 33.9451 212.617 33.1633V28.4017C214.838 30.1696 216.867 32.442 218.573 34.9791C219.23 35.9564 219.836 36.9728 220.388 38.0144C221.81 40.6991 222.853 43.5452 223.389 46.3333C223.395 46.3623 223.4 46.39 223.407 46.4178C223.5 46.9121 223.576 47.4026 223.636 47.8907L219.484 45.4935C218.944 45.182 218.327 45.2022 217.799 45.438L217.761 45.3926L215.32 46.9979L217.079 48.9297L217.563 48.675C217.585 48.6876 217.596 48.7103 217.617 48.7229L223.692 52.2311C223.669 52.4253 223.648 52.6207 223.619 52.8074C223.521 53.4076 223.381 53.965 223.211 54.4858C223.192 54.545 223.171 54.6018 223.149 54.6598C222.975 55.1591 222.774 55.6245 222.532 56.0419C222.529 56.0456 222.528 56.0507 222.525 56.0545C222.289 56.4592 222.012 56.8123 221.714 57.1352C221.65 57.2045 221.585 57.2688 221.519 57.3331C221.211 57.6332 220.882 57.9056 220.516 58.1175C219.979 58.4277 219.389 58.6358 218.754 58.7455C218.436 58.8009 218.105 58.83 217.766 58.835C216.228 58.8577 214.476 58.3546 212.617 57.3735V51.8843C212.617 50.7746 211.718 49.8755 210.609 49.8755C210.218 49.8755 209.873 50.0167 209.565 50.2097L209.547 50.187L207.319 51.6359L208.6 54.2991V54.5652C208.256 54.2651 207.916 53.9561 207.582 53.6321C206.247 52.3357 205.006 50.8616 203.89 49.2765C203.858 49.2311 203.827 49.1857 203.795 49.1403C202.724 47.6006 201.777 45.9563 200.977 44.264C200.932 44.1681 200.885 44.0736 200.841 43.9765C200.465 43.1581 200.123 42.3308 199.823 41.4973C199.787 41.3964 199.755 41.2943 199.72 41.1922C199.452 40.4267 199.219 39.6588 199.022 38.8908C198.996 38.7849 198.962 38.6789 198.937 38.573C198.879 38.3334 198.852 38.0976 198.801 37.858L200.373 38.766L200.29 38.8088L201.567 40.8567L203.716 39.481L203.71 39.4671C203.934 39.3145 204.136 39.1228 204.281 38.8719C204.797 37.9803 204.49 36.8391 203.599 36.3246L198.261 33.2389Z" fill="#FF4C4A"/>
<path d="M215.565 47.4112L216.465 47.9307V41.5525L215.565 41.033V47.4112Z" fill="#2D2D2D"/>
<path d="M208.999 43.6201L209.898 44.1397V37.7615L208.999 37.2419V43.6201Z" fill="#2D2D2D"/>
<path d="M214.572 46.8382L215.123 47.156V40.7778L214.572 40.4587V46.8382Z" fill="#2D2D2D"/>
<path d="M210.287 44.3638L210.838 44.6816V38.3034L210.287 37.9856V44.3638Z" fill="#2D2D2D"/>
<path d="M213.774 46.3772L214.164 46.603V40.2247L213.774 39.999V46.3772Z" fill="#2D2D2D"/>
<path d="M212.873 45.8584L213.263 46.0842V39.7047L212.873 39.4802V45.8584Z" fill="#2D2D2D"/>
<path d="M208.219 43.171L208.61 43.3954V37.0172L208.219 36.7915V43.171Z" fill="#2D2D2D"/>
<path d="M207.319 42.6522L207.978 43.0317V36.6535L207.319 36.2727V42.6522Z" fill="#2D2D2D"/>
<path d="M212.231 45.4873L212.622 45.7131V39.3336L212.231 39.1091V45.4873Z" fill="#2D2D2D"/>
<path d="M211.227 44.9073L211.916 45.3057V38.9275L211.227 38.5291V44.9073Z" fill="#2D2D2D"/>
<path d="M208.031 61.8321C199.178 56.7199 192.241 44.7554 192.241 34.5917C192.241 29.332 194.125 25.3484 197.543 23.3749C200.987 21.3838 205.426 21.7583 210.041 24.4228C218.895 29.535 225.829 41.4995 225.829 51.6633C225.829 56.923 223.945 60.9065 220.527 62.88C219.068 63.7236 217.429 64.1423 215.675 64.1423C213.29 64.141 210.691 63.3667 208.031 61.8321ZM199.552 26.8541C197.43 28.0798 196.26 30.8275 196.26 34.5904C196.26 43.3053 202.442 53.9646 210.041 58.3504C213.36 60.2672 216.371 60.6366 218.519 59.3983C220.641 58.1726 221.811 55.4236 221.811 51.6607C221.811 42.9459 215.63 32.2878 208.032 27.9007C206.001 26.728 204.084 26.1328 202.41 26.1328C201.348 26.134 200.386 26.3736 199.552 26.8541Z" fill="#FF7270"/>
<path d="M208.609 36.4559C209.719 36.4559 210.618 35.5568 210.618 34.4471V15.3049C210.618 14.1952 209.719 13.2961 208.609 13.2961C207.499 13.2961 206.6 14.1952 206.6 15.3049V34.4471C206.6 35.5568 207.499 36.4559 208.609 36.4559Z" fill="#FF7270"/>
<path d="M208.609 74.3187C209.719 74.3187 210.618 73.4196 210.618 72.3099V53.1677C210.618 52.058 209.719 51.1589 208.609 51.1589C207.499 51.1589 206.6 52.058 206.6 53.1677V72.3099C206.6 73.4184 207.499 74.3187 208.609 74.3187Z" fill="#FF7270"/>
<path d="M202.283 40.1554C202.799 39.2639 202.492 38.1226 201.601 37.6081L186.798 29.061C185.906 28.5465 184.766 28.8517 184.251 29.7432C183.735 30.6347 184.041 31.7759 184.933 32.2904L199.736 40.8376C200.627 41.3521 201.767 41.0457 202.283 40.1554Z" fill="#FF7270"/>
<path d="M232.969 57.8736C233.485 56.9821 233.178 55.8409 232.287 55.3264L217.484 46.7792C216.592 46.2648 215.452 46.5699 214.937 47.4615C214.421 48.353 214.727 49.4942 215.619 50.0087L230.422 58.5559C231.313 59.0703 232.455 58.7652 232.969 57.8736Z" fill="#FF7270"/>
<path d="M318.871 263.714C315.837 265.465 310.905 265.456 307.853 263.694C304.801 261.932 304.785 259.083 307.818 257.332C310.852 255.581 315.784 255.59 318.836 257.352C321.89 259.114 321.904 261.963 318.871 263.714Z" fill="url(#paint20_linear_588_21549)"/>
<path d="M318.935 190.607L318.926 190.62C316.177 189.475 312.599 189.878 308.677 192.143C300.018 197.142 293 209.247 293 219.183C293 232.705 308.677 248.087 308.677 248.087L313.341 250.392L323.687 192.967L318.935 190.607Z" fill="#FF4C4A"/>
<path d="M313.34 194.446C321.999 189.447 329.017 193.447 329.017 203.385C329.017 216.907 313.34 250.391 313.34 250.391C313.34 250.391 297.663 235.009 297.663 221.487C297.663 211.55 304.681 199.447 313.34 194.446Z" fill="#FF4C4A"/>
<path d="M304.26 217.676C304.26 223.431 308.327 225.75 313.342 222.854C318.357 219.958 322.424 212.944 322.424 207.189C322.424 201.433 318.357 199.115 313.342 202.011C308.327 204.908 304.26 211.92 304.26 217.676Z" fill="#FCFBFA"/>
<path d="M298.909 222.012C298.909 212.305 305.764 200.481 314.223 195.599C322.591 190.768 328.861 194.313 329.007 203.79C329.01 203.658 329.02 203.516 329.02 203.386C329.02 193.45 322.002 189.449 313.343 194.448C304.684 199.448 297.666 211.552 297.666 221.489C297.666 235.011 313.343 250.393 313.343 250.393C313.341 250.39 298.909 235.219 298.909 222.012Z" fill="#FF8685"/>
<defs>
<filter id="filter0_d_588_21549" x="15.3613" y="125.205" width="339.75" height="199.535" filterUnits="userSpaceOnUse" color-interpolation-filters="sRGB">
<feFlood flood-opacity="0" result="BackgroundImageFix"/>
<feColorMatrix in="SourceAlpha" type="matrix" values="0 0 0 0 0 0 0 0 0 0 0 0 0 0 0 0 0 0 127 0" result="hardAlpha"/>
<feOffset dy="4"/>
<feGaussianBlur stdDeviation="2"/>
<feComposite in2="hardAlpha" operator="out"/>
<feColorMatrix type="matrix" values="0 0 0 0 0 0 0 0 0 0 0 0 0 0 0 0 0 0 0.25 0"/>
<feBlend mode="normal" in2="BackgroundImageFix" result="effect1_dropShadow_588_21549"/>
<feBlend mode="normal" in="SourceGraphic" in2="effect1_dropShadow_588_21549" result="shape"/>
</filter>
<filter id="filter1_d_588_21549" x="12" y="90.5964" width="351" height="213.738" filterUnits="userSpaceOnUse" color-interpolation-filters="sRGB">
<feFlood flood-opacity="0" result="BackgroundImageFix"/>
<feColorMatrix in="SourceAlpha" type="matrix" values="0 0 0 0 0 0 0 0 0 0 0 0 0 0 0 0 0 0 127 0" result="hardAlpha"/>
<feOffset dy="1"/>
<feGaussianBlur stdDeviation="2"/>
<feComposite in2="hardAlpha" operator="out"/>
<feColorMatrix type="matrix" values="0 0 0 0 0 0 0 0 0 0 0 0 0 0 0 0 0 0 0.25 0"/>
<feBlend mode="normal" in2="BackgroundImageFix" result="effect1_dropShadow_588_21549"/>
<feBlend mode="normal" in="SourceGraphic" in2="effect1_dropShadow_588_21549" result="shape"/>
</filter>
<linearGradient id="paint0_linear_588_21549" x1="9.86894" y1="237.596" x2="196.249" y2="129.093" gradientUnits="userSpaceOnUse">
<stop stop-color="#FFE25B"/>
<stop offset="1" stop-color="#FF7270"/>
</linearGradient>
<linearGradient id="paint1_linear_588_21549" x1="9.90739" y1="237.661" x2="196.288" y2="129.157" gradientUnits="userSpaceOnUse">
<stop stop-color="#FFE25B"/>
<stop offset="1" stop-color="#FF7270"/>
</linearGradient>
<linearGradient id="paint2_linear_588_21549" x1="9.94348" y1="237.725" x2="196.324" y2="129.222" gradientUnits="userSpaceOnUse">
<stop stop-color="#FFE25B"/>
<stop offset="1" stop-color="#FF7270"/>
</linearGradient>
<linearGradient id="paint3_linear_588_21549" x1="9.98203" y1="237.79" x2="196.361" y2="129.287" gradientUnits="userSpaceOnUse">
<stop stop-color="#FFE25B"/>
<stop offset="1" stop-color="#FF7270"/>
</linearGradient>
<linearGradient id="paint4_linear_588_21549" x1="10.0211" y1="237.855" x2="196.402" y2="129.352" gradientUnits="userSpaceOnUse">
<stop stop-color="#FFE25B"/>
<stop offset="1" stop-color="#FF7270"/>
</linearGradient>
<linearGradient id="paint5_linear_588_21549" x1="10.0584" y1="237.921" x2="196.439" y2="129.418" gradientUnits="userSpaceOnUse">
<stop stop-color="#FFE25B"/>
<stop offset="1" stop-color="#FF7270"/>
</linearGradient>
<linearGradient id="paint6_linear_588_21549" x1="12.1827" y1="241.569" x2="198.563" y2="133.065" gradientUnits="userSpaceOnUse">
<stop stop-color="#FFE25B"/>
<stop offset="1" stop-color="#FF7270"/>
</linearGradient>
<linearGradient id="paint7_linear_588_21549" x1="20.6819" y1="256.169" x2="207.063" y2="147.666" gradientUnits="userSpaceOnUse">
<stop stop-color="#FFE25B"/>
<stop offset="1" stop-color="#FF7270"/>
</linearGradient>
<linearGradient id="paint8_linear_588_21549" x1="29.8585" y1="271.932" x2="216.238" y2="163.429" gradientUnits="userSpaceOnUse">
<stop stop-color="#FFE25B"/>
<stop offset="1" stop-color="#FF7270"/>
</linearGradient>
<linearGradient id="paint9_linear_588_21549" x1="39.0327" y1="287.696" x2="225.415" y2="179.193" gradientUnits="userSpaceOnUse">
<stop stop-color="#FFE25B"/>
<stop offset="1" stop-color="#FF7270"/>
</linearGradient>
<linearGradient id="paint10_linear_588_21549" x1="48.2102" y1="303.459" x2="234.592" y2="194.955" gradientUnits="userSpaceOnUse">
<stop stop-color="#FFE25B"/>
<stop offset="1" stop-color="#FF7270"/>
</linearGradient>
<linearGradient id="paint11_linear_588_21549" x1="57.3876" y1="319.223" x2="243.768" y2="210.72" gradientUnits="userSpaceOnUse">
<stop stop-color="#FFE25B"/>
<stop offset="1" stop-color="#FF7270"/>
</linearGradient>
<linearGradient id="paint12_linear_588_21549" x1="66.5663" y1="334.986" x2="252.946" y2="226.484" gradientUnits="userSpaceOnUse">
<stop stop-color="#FFE25B"/>
<stop offset="1" stop-color="#FF7270"/>
</linearGradient>
<linearGradient id="paint13_linear_588_21549" x1="75.7415" y1="350.75" x2="262.122" y2="242.247" gradientUnits="userSpaceOnUse">
<stop stop-color="#FFE25B"/>
<stop offset="1" stop-color="#FF7270"/>
</linearGradient>
<linearGradient id="paint14_linear_588_21549" x1="84.9177" y1="366.514" x2="271.298" y2="258.01" gradientUnits="userSpaceOnUse">
<stop stop-color="#FFE25B"/>
<stop offset="1" stop-color="#FF7270"/>
</linearGradient>
<linearGradient id="paint15_linear_588_21549" x1="137.294" y1="129.218" x2="137.294" y2="97.7627" gradientUnits="userSpaceOnUse">
<stop offset="0.645" stop-color="white"/>
<stop offset="1" stop-color="#8B8B8B"/>
</linearGradient>
<linearGradient id="paint16_linear_588_21549" x1="200.422" y1="140.003" x2="200.422" y2="79.1038" gradientUnits="userSpaceOnUse">
<stop offset="0.645" stop-color="white"/>
<stop offset="1" stop-color="#8B8B8B"/>
</linearGradient>
<linearGradient id="paint17_linear_588_21549" x1="235.723" y1="214.475" x2="241.192" y2="194.537" gradientUnits="userSpaceOnUse">
<stop stop-color="#BDE3FF"/>
<stop offset="1" stop-color="#175688"/>
</linearGradient>
<linearGradient id="paint18_linear_588_21549" x1="275.491" y1="209.834" x2="260.676" y2="184.266" gradientUnits="userSpaceOnUse">
<stop stop-color="#D3ECFF"/>
<stop offset="1" stop-color="#175688"/>
</linearGradient>
<linearGradient id="paint19_linear_588_21549" x1="276.02" y1="182.008" x2="284.08" y2="169.085" gradientUnits="userSpaceOnUse">
<stop stop-color="#52B4FF"/>
<stop offset="1" stop-color="#175688"/>
</linearGradient>
<linearGradient id="paint20_linear_588_21549" x1="58.0044" y1="260.523" x2="310.079" y2="260.523" gradientUnits="userSpaceOnUse">
<stop stop-color="#57A2FF"/>
<stop offset="1" stop-color="#FF7270"/>
</linearGradient>
</defs>
</svg>
