<svg width="273" height="227" viewBox="0 0 273 227" fill="none" xmlns="http://www.w3.org/2000/svg">
<g clip-path="url(#clip0_47_44541)">
<path d="M82.2454 30.2912L358.808 73.217V3.12891L6.86688 15.2255L82.2454 30.2912Z" fill="#EF7B64"/>
<path d="M36.9048 3.13108L37.4737 10.2881L37.7852 14.1625L38.3686 21.5231L51.412 185.145L51.4597 185.139L54.4766 184.605L67.5865 182.305L66.729 171.329L69.9576 173.306L68.2862 155.68L65.3628 153.884L63.4173 128.993L56.5156 40.7601L57.4043 40.947L55.8948 25.0237L55.8906 25.0009L54.8587 14.1023L54.8068 13.5791L53.5195 0L45.4011 1.53024L39.3631 2.67014L36.9048 3.13108Z" fill="#3E4D64"/>
<path d="M50.4985 174.504L51.4121 185.145L47.575 185.685V200.694L74.9575 220L75.9168 219.83H75.9209L474.029 149.943L475.013 140.645L494.581 30.2145L495 30.1979V14.1127L358.808 3.13108L359.037 19.2329L358.808 19.2433L82.2454 30.2913L55.8907 25.0009L43.5698 22.5301L43.574 22.5633L45.2496 38.3827L56.5157 40.7601L57.4043 40.947L83.0032 46.3475L89.2696 46.1004L91.2234 142.495L91.2254 142.678L130.505 193.909L68.2863 155.68L65.3629 153.884L66.729 171.329L69.9577 173.306L82.2454 180.824L67.6302 182.871L54.4892 184.715L54.4767 184.605L40.663 21.9799L39.9923 14.0857L39.3632 6.67743H53.5196V1.53024H39.3632L31.3777 0L31.2345 6.67743L36.527 12.0987L36.7076 14.202L37.3181 21.3134L40.8769 62.6694L37.6689 144.055L36.9049 163.578L36.3422 177.807L50.4985 174.504Z" fill="#3E4D64"/>
<path d="M4.32115 28.578L29.6729 35.2014L30.491 20.2935L4.32115 14.1123V28.578Z" fill="#3E4D64"/>
<path d="M-0.443901 149.355V162.037L21.8806 177.807L23.6185 146.008L-0.443901 149.355Z" fill="#3E4D64"/>
<path d="M82.2454 30.2909L83.0032 46.3471L89.2695 46.1L164.671 43.0831L358.808 35.3281L494.581 30.2141L495 30.1975V14.1123L359.037 19.2325L358.808 19.2429L82.2454 30.2909Z" stroke="black" stroke-width="0.2" stroke-miterlimit="10"/>
<path d="M75.9187 202.842V219.998" stroke="black" stroke-width="0.2" stroke-miterlimit="10"/>
<path d="M56.5155 40.7593L45.2495 38.382L43.5739 22.5625L43.5697 22.5293L55.8906 25.0001L82.2452 30.2906" stroke="black" stroke-width="0.2" stroke-miterlimit="10"/>
<path d="M4.32115 14.1123V28.578L29.6729 35.2014L30.491 20.2935L4.32115 14.1123Z" stroke="black" stroke-width="0.2" stroke-miterlimit="10"/>
<path d="M65.3295 153.863L65.3628 153.884" stroke="black" stroke-width="0.2" stroke-linecap="round" stroke-linejoin="round"/>
<path d="M89.2612 45.7969L89.2695 46.1" stroke="black" stroke-width="0.2" stroke-linecap="round" stroke-linejoin="round"/>
<path d="M91.2236 142.495L91.5952 142.678" stroke="black" stroke-width="0.2" stroke-miterlimit="10"/>
<path d="M63.2844 128.928L63.4172 128.994" stroke="black" stroke-width="0.2" stroke-miterlimit="10"/>
<path d="M55.0622 24.2755L54.1258 13.6032L53.5195 6.67871H39.3631L39.9923 14.087L40.6629 21.9811L54.4766 184.606L54.4891 184.716L54.4995 184.833L67.6758 183.429L67.6301 182.873L67.5865 182.306L66.729 171.33L65.3628 153.885" stroke="black" stroke-width="0.2" stroke-miterlimit="10"/>
<path d="M63.4172 128.992L65.3628 153.883L68.2862 155.679L130.505 193.908L91.2253 142.677L91.2232 142.494L65.8694 130.182L63.4172 128.992Z" fill="#506583" stroke="black" stroke-width="0.2" stroke-miterlimit="10"/>
<path d="M56.5157 40.7617L63.4174 128.995L65.8695 130.184L91.2234 142.497L89.2696 46.102L83.0033 46.3491L57.4044 40.9486L56.5157 40.7617Z" fill="#506583" stroke="black" stroke-width="0.2" stroke-miterlimit="10"/>
<path d="M47.5751 185.685L51.4121 185.145L51.4598 185.139L54.4892 184.716L67.6302 182.872L82.2454 180.825L103.773 177.808" stroke="black" stroke-width="0.2" stroke-miterlimit="10"/>
<path d="M21.8809 177.809H36.3424L36.9051 163.58L37.6713 144.056L40.8771 62.6707L36.5272 12.1L31.2347 6.67871L30.4913 20.2952L29.6733 35.2031L23.6188 146.01L21.8809 177.809Z" fill="#506583" stroke="black" stroke-width="0.2" stroke-miterlimit="10"/>
<path d="M-0.443781 149.354V162.036L21.8808 177.805L22.2649 164.787L-0.443781 149.354Z" stroke="black" stroke-width="0.2" stroke-miterlimit="10"/>
<path d="M-0.4439 149.355L23.6185 146.008" stroke="black" stroke-width="0.2" stroke-miterlimit="10"/>
<path d="M37.6708 144.054L47.5769 142.678" stroke="black" stroke-width="0.2" stroke-miterlimit="10"/>
<path d="M36.9049 163.581L49.3192 160.805" stroke="black" stroke-width="0.2" stroke-miterlimit="10"/>
<path d="M36.342 177.805L50.4983 174.504" stroke="black" stroke-width="0.2" stroke-miterlimit="10"/>
<path d="M54.4996 14.1125L358.808 3.13086L495 14.1125" stroke="black" stroke-width="0.2" stroke-miterlimit="10"/>
<path d="M53.5195 6.67843V1.53125H39.3653V6.67843L36.527 12.0997" stroke="black" stroke-width="0.2" stroke-miterlimit="10"/>
<path d="M40.877 62.6699L49.3194 160.805L50.4987 174.506L51.4123 185.145L51.46 185.139L54.4998 184.832" stroke="black" stroke-width="0.2" stroke-miterlimit="10"/>
<path d="M39.3651 1.53024L31.3775 0L31.2343 6.67743" stroke="black" stroke-width="0.2" stroke-miterlimit="10"/>
<path d="M241.991 176.736V46.2959L234.198 49.8775V177.805" fill="#506583"/>
<path d="M241.991 176.736V46.2959L234.198 49.8775V177.805" stroke="black" stroke-width="0.2" stroke-miterlimit="10"/>
<path d="M166.608 188.576V51.5332L158.816 55.2249V189.814" fill="#506583"/>
<path d="M166.608 188.576V51.5332L158.816 55.2249V189.814" stroke="black" stroke-width="0.2" stroke-miterlimit="10"/>
<path d="M441.894 91.9688L166.608 121.533" stroke="black" stroke-width="0.2" stroke-miterlimit="10"/>
<path d="M47.5769 185.684V200.696L74.9594 219.999L75.9166 219.829L474.029 149.942L475.013 140.645L438.312 145.875L374.329 155.932L374.291 156.757L370.616 156.576L370.618 156.516L308.327 166.308L302.592 167.211L241.991 176.733V176.739L158.818 189.812L75.9166 202.841L47.5769 185.684Z" fill="#506583" stroke="black" stroke-width="0.2" stroke-miterlimit="10"/>
<path d="M4.32127 14.1152H31.3798" stroke="black" stroke-width="0.2" stroke-miterlimit="10"/>
<path d="M74.9577 219.999L75.7467 202.917" stroke="black" stroke-width="0.2" stroke-miterlimit="10"/>
<path d="M228.726 79.9549C232.31 80.0823 234.692 77.7448 233.664 76.969C232.636 76.1933 224.254 75.9232 223.302 76.969C222.343 78.0238 226.529 79.8772 228.726 79.9549Z" fill="#F09E00"/>
<path d="M245.846 83.4011C244.223 81.4253 239.707 78.6738 228.977 78.6738C218.248 78.6738 213.732 81.4253 212.109 83.4011C210.486 85.3768 217.435 124.112 217.435 124.112C217.435 124.112 217.131 125.927 228.977 125.927C240.824 125.927 240.52 124.112 240.52 124.112C240.52 124.112 247.469 85.3768 245.846 83.4011Z" fill="#FFAE12"/>
<path d="M240.661 123.318C239.079 123.462 237.02 123.555 234.336 123.555C222.49 123.555 222.794 121.739 222.794 121.739C222.794 121.739 215.845 83.0042 217.468 81.0284C217.79 80.6361 218.229 80.2119 218.806 79.7852C215.075 80.7673 213.077 82.222 212.109 83.4003C210.486 85.3761 217.435 124.111 217.435 124.111C217.435 124.111 217.131 125.927 228.977 125.927C240.824 125.927 240.52 124.111 240.52 124.111C240.52 124.111 240.571 123.831 240.661 123.318Z" fill="#F09E00"/>
<path d="M235.605 207.285C235.473 208.836 235.336 210.392 235.218 211.932L235.126 213.09C235.094 213.477 235.074 213.852 235.049 214.234L234.973 215.374L234.954 215.659C234.948 215.753 234.948 215.839 234.944 215.928L234.926 216.46C234.674 216.904 233.442 217.258 231.973 217.264C231.103 217.264 230.328 217.128 229.791 216.893C229.421 216.732 229.166 216.525 229.077 216.297L229.098 215.659C229.102 215.555 229.105 215.443 229.111 215.343L229.13 215.044L229.209 213.846C229.237 213.449 229.259 213.044 229.291 212.653L229.385 211.476C229.506 209.901 229.642 208.346 229.776 206.785C229.831 206.145 231.181 205.742 232.791 205.882C234.401 206.022 235.66 206.652 235.606 207.287L235.605 207.285Z" fill="#FFD7BE"/>
<path d="M230.571 206.081C230.421 207.859 230.261 209.627 230.124 211.417L230.017 212.756C229.982 213.203 229.956 213.659 229.925 214.11L229.837 215.468L229.79 216.892C229.419 216.73 229.165 216.524 229.075 216.296L229.097 215.658C229.101 215.553 229.103 215.441 229.11 215.342L229.129 215.043L229.208 213.845C229.236 213.448 229.258 213.043 229.289 212.652L229.384 211.475C229.505 209.9 229.641 208.345 229.775 206.784C229.8 206.491 230.1 206.247 230.571 206.082V206.081Z" fill="#F5BE97"/>
<path d="M232.691 207.035C230.269 206.827 228.374 205.877 228.458 204.92L229.195 196.359L229.598 191.492L229.979 186.628C230.11 185.006 230.218 183.384 230.338 181.763C230.456 180.141 230.574 178.52 230.675 176.898L230.993 172.033L231.272 167.167L231.409 164.734L231.528 162.301L231.763 157.435L231.952 152.569L232.046 150.136C232.078 149.324 232.093 148.514 232.119 147.703L232.254 142.837L232.287 141.62L232.306 140.403L232.344 137.97L232.418 133.104L232.431 128.92C232.433 127.966 233.144 125.018 236.842 125C240.708 124.981 241.233 127.972 241.231 128.941L241.218 133.186L241.144 138.116L241.104 140.581L241.085 141.814L241.052 143.045L240.915 147.973C240.889 148.793 240.874 149.615 240.841 150.436L240.745 152.897L240.555 157.821L240.317 162.74L240.197 165.2L240.059 167.659L239.777 172.575L239.457 177.486C239.355 179.125 239.236 180.76 239.117 182.396C238.997 184.032 238.887 185.668 238.755 187.302L238.372 192.203L237.968 197.1L237.228 205.683C237.144 206.642 235.116 207.245 232.694 207.037L232.691 207.035Z" fill="#082640"/>
<path d="M229.747 206.312C228.914 205.92 228.414 205.422 228.458 204.92L229.195 196.358L229.598 191.492L229.979 186.627C230.11 185.006 230.218 183.384 230.338 181.763C230.456 180.141 230.573 178.519 230.675 176.898L230.993 172.033L231.272 167.167L231.409 164.734L231.528 162.301L231.763 157.435L231.952 152.569L232.046 150.135C232.078 149.324 232.093 148.514 232.119 147.702L232.254 142.836L232.287 141.62L232.306 140.403L232.344 137.97L232.418 133.104L232.431 128.92C232.433 128.109 232.993 126.576 233.843 125.979L233.833 129.437L233.826 131.93C233.823 132.76 233.823 133.591 233.805 134.423L233.726 139.408L233.684 141.901L233.614 144.394L233.475 149.38C233.236 156.027 232.957 162.675 232.554 169.318L232.412 171.81L232.252 174.302L231.925 179.284L231.566 184.264C231.449 185.924 231.311 187.585 231.184 189.245C231.058 190.905 230.92 192.566 230.781 194.226L230.362 199.208L229.748 206.314L229.747 206.312Z" fill="#082640"/>
<path d="M236.378 211.443L228.318 210.797C227.678 210.746 227.202 210.178 227.254 209.53L227.621 205.243C227.677 204.604 228.24 204.131 228.879 204.186L236.935 204.885C237.575 204.941 238.047 205.504 237.991 206.143L237.627 210.395C237.576 211.025 237.018 211.493 236.378 211.443Z" fill="#082640"/>
<path d="M229.577 209.723L229.944 205.444C230 204.804 230.563 204.332 231.203 204.386L228.881 204.185C228.241 204.129 227.678 204.603 227.622 205.242L227.255 209.529C227.203 210.177 227.679 210.747 228.319 210.796L230.642 210.982C230.003 210.931 229.526 210.367 229.577 209.723Z" fill="#082640"/>
<path d="M237.333 137.953C242.141 133.144 242.141 125.348 237.333 120.539C232.524 115.731 224.728 115.731 219.92 120.539C215.111 125.348 215.111 133.144 219.92 137.953C224.728 142.761 232.524 142.761 237.333 137.953Z" fill="#082640"/>
<path d="M231.3 138.885C224.5 138.885 219.776 133.196 219.776 126.397C219.776 123.678 219.869 121.345 221.361 119.308C218.301 121.548 216.314 125.164 216.314 129.246C216.314 136.046 221.827 141.559 228.627 141.559C232.71 141.559 236.326 139.571 238.566 136.512C236.529 138.004 234.018 138.887 231.3 138.887V138.885Z" fill="#082640"/>
<path d="M203.874 207.153C203.588 210.224 203.363 213.298 203.22 216.364C202.96 216.844 201.725 217.172 200.256 217.113C199.387 217.077 198.613 216.912 198.08 216.671C197.711 216.504 197.46 216.305 197.373 216.091C197.521 212.918 197.753 209.76 198.046 206.611C198.104 205.964 199.458 205.569 201.069 205.729C202.675 205.888 203.93 206.525 203.872 207.153H203.874Z" fill="#FFD7BE"/>
<path d="M198.847 205.908C198.504 209.483 198.241 213.069 198.08 216.67C197.711 216.503 197.46 216.304 197.373 216.09C197.521 212.917 197.753 209.759 198.046 206.61C198.073 206.313 198.374 206.069 198.847 205.908Z" fill="#F5BE97"/>
<path d="M200.96 206.883C198.543 206.661 196.647 205.687 196.75 204.71L196.883 203.412C196.973 202.526 197.08 201.645 197.177 200.761C197.385 198.995 197.606 197.232 197.848 195.473C198.332 191.953 198.885 188.445 199.506 184.949C199.665 184.075 199.813 183.2 199.983 182.328L200.485 179.712L201.018 177.1C201.195 176.23 201.391 175.363 201.577 174.494C202.341 171.023 203.162 167.563 204.074 164.124C204.987 160.684 205.968 157.26 207.03 153.856C208.105 150.457 209.257 147.077 210.491 143.723C211.745 140.374 213.085 137.054 214.519 133.768L215.626 131.314L215.903 130.702L216.192 130.093L216.773 128.878L217.353 127.662C217.547 127.257 217.757 126.858 217.959 126.456L218.821 124.754C219.036 124.308 219.683 123.499 220.66 123.02C221.641 122.541 222.961 122.409 224.577 123.306C226.268 124.243 226.886 125.418 227.032 126.448C227.181 127.483 226.84 128.373 226.637 128.795L225.826 130.397C225.636 130.777 225.439 131.15 225.255 131.533L224.706 132.682L224.157 133.832L223.883 134.406L223.621 134.987L222.571 137.31C221.212 140.429 219.934 143.59 218.738 146.787C217.559 149.99 216.455 153.227 215.424 156.489C214.403 159.757 213.461 163.052 212.58 166.367C211.701 169.681 210.91 173.023 210.172 176.377C209.992 177.216 209.802 178.053 209.631 178.895L209.117 181.42L208.631 183.951C208.467 184.794 208.324 185.642 208.17 186.486C207.57 189.869 207.035 193.265 206.568 196.669C206.333 198.371 206.119 200.074 205.918 201.78C205.824 202.632 205.721 203.486 205.634 204.338L205.505 205.589C205.406 206.525 203.382 207.103 200.96 206.882V206.883Z" fill="#082640"/>
<path d="M198.02 206.136C197.188 205.734 196.697 205.221 196.75 204.711L196.883 203.413C196.973 202.527 197.08 201.646 197.177 200.762C197.385 198.996 197.606 197.233 197.848 195.474C198.332 191.954 198.885 188.446 199.506 184.949C199.665 184.076 199.813 183.2 199.983 182.329L200.485 179.713L201.018 177.101C201.195 176.231 201.391 175.364 201.577 174.495C202.341 171.024 203.162 167.564 204.074 164.125C204.987 160.685 205.968 157.261 207.03 153.857C208.105 150.457 209.257 147.078 210.491 143.724C211.745 140.375 213.085 137.055 214.519 133.769L215.626 131.315L215.903 130.703L216.192 130.094L216.773 128.878L217.353 127.663C217.547 127.258 217.757 126.859 217.959 126.457L218.821 124.755C219.006 124.378 219.421 123.907 219.91 123.512C220.401 123.117 220.969 122.798 221.486 122.733L220.646 124.296C220.508 124.558 220.364 124.816 220.23 125.08L219.83 125.871C218.152 129.11 216.631 132.418 215.193 135.757L214.658 137.011C214.478 137.429 214.301 137.846 214.134 138.269L213.115 140.795C212.466 142.49 211.805 144.181 211.201 145.891C210.573 147.593 210.001 149.312 209.417 151.028L208.582 153.614C208.3 154.475 208.047 155.344 207.779 156.209C206.732 159.675 205.747 163.159 204.867 166.667C203.981 170.174 203.167 173.696 202.425 177.234C201.684 180.771 201.024 184.324 200.427 187.887C199.832 191.45 199.306 195.026 198.855 198.611C198.745 199.508 198.628 200.404 198.531 201.303L198.379 202.651L198.306 203.325L198.239 203.967C198.168 204.69 198.087 205.413 198.022 206.136H198.02Z" fill="#082640"/>
<path d="M204.648 211.267L196.583 210.667C195.941 210.62 195.465 210.051 195.518 209.395C195.632 207.936 195.767 206.483 195.908 205.029C195.974 204.377 196.546 203.902 197.185 203.968L205.228 204.802C205.866 204.869 206.331 205.429 206.267 206.053C206.132 207.443 206.002 208.834 205.895 210.223C205.844 210.847 205.286 211.313 204.648 211.266V211.267Z" fill="#082640"/>
<path d="M197.842 209.582C197.954 208.139 198.088 206.7 198.228 205.261C198.294 204.616 198.865 204.146 199.503 204.212L197.185 203.971C196.546 203.905 195.976 204.379 195.908 205.032C195.767 206.486 195.632 207.939 195.518 209.398C195.465 210.052 195.941 210.623 196.583 210.67L198.908 210.843C198.266 210.796 197.788 210.232 197.842 209.584V209.582Z" fill="#082640"/>
<path d="M236.996 218.021V214.081H228.479V225.285H241.827C241.827 225.285 242.693 224.672 242.481 222.934C242.348 221.829 241.456 220.43 239.659 220.388L238.138 219.682C237.45 219.417 236.996 218.757 236.996 218.021Z" fill="#FFAE12"/>
<path d="M229.853 214.081H228.479V225.285H241.656L229.853 223.923V214.081Z" fill="#F09E00"/>
<path d="M236.766 211.908H228.653C228.209 211.908 227.85 212.268 227.85 212.711V214.135C227.85 214.578 228.209 214.937 228.653 214.937H236.766C237.209 214.937 237.568 214.578 237.568 214.135V212.711C237.568 212.268 237.209 211.908 236.766 211.908Z" fill="#AB785B"/>
<path d="M234.418 220.43C234.366 220.43 234.315 220.403 234.288 220.353C234.247 220.281 234.273 220.19 234.344 220.148C235.348 219.579 236.889 219.338 238.273 219.538C238.354 219.55 238.412 219.626 238.4 219.708C238.389 219.789 238.312 219.846 238.231 219.835C236.91 219.645 235.442 219.869 234.493 220.41C234.47 220.422 234.445 220.429 234.419 220.429L234.418 220.43Z" fill="#AB785B"/>
<path d="M234.418 218.5C234.345 218.5 234.282 218.448 234.27 218.374C234.257 218.292 234.312 218.215 234.394 218.202C235.085 218.088 236.065 218.02 237.083 218.011C237.166 218.011 237.232 218.077 237.233 218.16C237.233 218.243 237.167 218.31 237.084 218.311C236.082 218.319 235.119 218.388 234.442 218.497C234.435 218.499 234.426 218.5 234.418 218.5Z" fill="#AB785B"/>
<path d="M234.418 216.88C234.337 216.88 234.27 216.815 234.268 216.734C234.265 216.651 234.331 216.582 234.414 216.579C235.102 216.562 236.074 216.55 237.084 216.549C237.167 216.549 237.235 216.616 237.235 216.699C237.235 216.782 237.167 216.849 237.084 216.849C236.078 216.851 235.107 216.862 234.422 216.88C234.421 216.88 234.419 216.88 234.418 216.88Z" fill="#AB785B"/>
<path d="M234.671 225.435C234.604 225.435 234.543 225.389 234.526 225.321C234.171 223.886 234.519 222.576 235.503 221.634C236.605 220.579 238.357 220.169 239.86 220.612C239.939 220.635 239.985 220.719 239.962 220.798C239.939 220.877 239.856 220.923 239.776 220.9C238.372 220.486 236.739 220.868 235.711 221.85C234.807 222.715 234.489 223.922 234.818 225.249C234.838 225.329 234.789 225.411 234.708 225.431C234.696 225.434 234.684 225.435 234.673 225.435H234.671Z" fill="#AB785B"/>
<path d="M237.968 220.682C237.943 220.682 237.919 220.676 237.894 220.663C235.843 219.505 235.841 218.886 235.824 215.449C235.822 214.984 235.819 214.465 235.812 213.885C235.812 213.802 235.877 213.735 235.959 213.733H235.962C236.043 213.733 236.111 213.8 236.112 213.881C236.12 214.462 236.122 214.982 236.125 215.448C236.142 218.814 236.144 219.331 238.042 220.402C238.115 220.443 238.14 220.534 238.099 220.606C238.071 220.654 238.02 220.682 237.968 220.682Z" fill="#AB785B"/>
<path d="M242.769 226.999H239.023L234.159 226.728L234.136 226.999H227.85V225.714C227.85 225.193 228.272 224.785 228.793 224.803L241.825 225.252C242.346 225.27 242.768 225.706 242.768 226.227V226.999H242.769Z" fill="#AB785B"/>
<path d="M229.479 219.139C229.396 219.139 229.329 219.071 229.329 218.988V213.883C229.329 213.8 229.396 213.732 229.479 213.732C229.562 213.732 229.63 213.8 229.63 213.883V218.988C229.63 219.071 229.562 219.139 229.479 219.139Z" fill="#AB785B"/>
<path d="M230.379 214.938H228.65C228.208 214.938 227.85 214.58 227.85 214.138V212.709C227.85 212.267 228.208 211.909 228.65 211.909H230.379V214.938Z" fill="#94674E"/>
<path d="M230.379 226.999H227.85V225.714C227.85 225.193 228.272 224.785 228.793 224.803C228.793 224.803 229.41 224.825 230.379 224.858V226.999Z" fill="#94674E"/>
<path d="M236.057 223.817C236.307 223.817 236.529 223.638 236.572 223.383C236.58 223.347 236.837 222.258 238.866 222.095C239.154 222.072 239.369 221.82 239.347 221.532C239.324 221.244 239.071 221.027 238.784 221.052C235.905 221.282 235.556 223.127 235.542 223.204C235.493 223.49 235.684 223.76 235.968 223.808C235.999 223.813 236.028 223.816 236.057 223.816V223.817Z" fill="#FFD88A"/>
<path d="M228.487 82.8949C225.419 82.8949 223.134 80.5472 223.364 77.8759L224.442 65.3043C224.464 65.0648 224.487 64.8291 224.507 64.6024C224.73 63.1655 226.469 62.084 228.488 62.084C230.507 62.084 232.246 63.1655 232.469 64.6024C232.491 64.8291 232.512 65.0648 232.534 65.3043L233.613 77.8759C233.842 80.5472 231.557 82.8949 228.489 82.8949H228.487Z" fill="#FFD7BE"/>
<path d="M226.239 77.8759L226.712 65.3043C226.723 65.0648 226.734 64.8304 226.744 64.6024C226.87 63.4203 228.032 62.4827 229.548 62.1859C229.21 62.1209 228.855 62.084 228.488 62.084C226.469 62.084 224.73 63.1655 224.507 64.6024C224.486 64.8291 224.464 65.0648 224.442 65.3043L223.364 77.8759C223.134 80.5472 225.419 82.8949 228.487 82.8949C229.028 82.8949 229.549 82.8159 230.04 82.6745C227.747 82.0248 226.156 80.058 226.239 77.8759Z" fill="#F5BE97"/>
<path d="M196.586 104.161C197.734 103.764 198.837 103.583 199.683 103.588C199.735 103.588 199.787 103.591 199.838 103.592L199.913 103.596L199.983 103.588C200.074 103.579 200.16 103.571 200.244 103.564C200.409 103.55 200.55 103.542 200.669 103.541C200.914 103.564 201.025 103.505 201.041 103.547C201.061 103.597 201.08 103.647 201.102 103.695C201.123 103.745 201.144 103.788 201.173 103.85C201.229 103.966 201.291 104.078 201.365 104.184C201.439 104.287 201.525 104.389 201.638 104.452C201.694 104.482 201.759 104.5 201.823 104.49C201.886 104.482 201.945 104.449 201.993 104.407C202.186 104.23 202.265 103.973 202.369 103.741L202.442 103.563L202.628 103.085L203.025 102.034L203.446 100.894L205.135 96.2073C205.717 94.615 206.326 92.9921 207.029 91.3399C207.391 90.5107 207.76 89.6788 208.189 88.8343C208.606 87.9935 209.085 87.1388 209.619 86.2853L210.038 85.6433C210.179 85.4293 210.342 85.2153 210.495 85.0013L210.728 84.6815L210.984 84.3631C211.16 84.1516 211.322 83.9389 211.51 83.73C212.244 82.8905 213.123 82.074 214.14 81.3581C214.355 81.2128 214.57 81.0689 214.788 80.9275C214.943 80.832 215.159 80.73 215.404 80.6243C215.652 80.5199 215.932 80.4129 216.255 80.3479C216.415 80.3122 216.579 80.2817 216.747 80.2562C216.915 80.232 217.085 80.2078 217.263 80.2103C217.616 80.2065 217.974 80.2332 218.315 80.2982C219.006 80.4727 219.63 80.7836 220.063 81.3415C220.502 81.8829 220.747 82.6001 220.799 83.5223C220.853 84.4866 220.732 85.2637 220.59 85.8764C220.439 86.4738 220.285 86.9681 220.13 87.3018C220.062 87.4891 219.993 87.6432 219.923 87.7642C219.886 87.8203 219.857 87.8891 219.825 87.9439C219.793 87.9999 219.761 88.0483 219.729 88.0916C219.663 88.1693 219.603 88.2534 219.544 88.3107C219.486 88.3693 219.429 88.4024 219.38 88.433C219.313 88.4827 219.244 88.5298 219.173 88.5757C218.835 88.819 218.477 89.1273 218.118 89.54C218.027 89.6381 217.941 89.7591 217.849 89.8661L217.713 90.0317L217.58 90.2164C217.492 90.3412 217.401 90.4559 217.314 90.5896L217.052 90.9922C216.706 91.5476 216.368 92.1412 216.048 92.7896C215.723 93.424 215.418 94.1118 215.115 94.8048C213.919 97.62 212.868 100.738 211.706 103.915L211.264 105.113L211.038 105.714L210.924 106.015L210.779 106.39L210.431 107.277L210.257 107.72L210.214 107.831L210.159 107.962L210.048 108.226L209.607 109.281L209.387 109.808L209.147 110.313L208.666 111.32L208.546 111.572C208.505 111.655 208.468 111.746 208.42 111.812L208.141 112.239L207.583 113.091L207.444 113.304L207.41 113.357L207.372 113.402L207.296 113.49L206.995 113.842L206.844 114.02C206.792 114.074 206.738 114.124 206.686 114.176L206.369 114.487C206.266 114.597 206.151 114.677 206.04 114.771C205.928 114.86 205.82 114.957 205.707 115.04C205.247 115.363 204.767 115.649 204.242 115.867L203.838 116.018L203.412 116.139L202.968 116.235C202.814 116.253 202.662 116.276 202.508 116.287C201.885 116.341 201.26 116.279 200.689 116.144L200.475 116.091L200.267 116.028C200.128 115.986 199.99 115.946 199.86 115.887C199.591 115.785 199.335 115.659 199.078 115.533C198.573 115.258 198.09 114.921 197.622 114.535C196.692 113.743 195.836 112.691 195.083 111.464L194.94 111.237L194.805 110.998L194.567 110.573C194.413 110.311 194.28 110.025 194.139 109.75L193.93 109.332L193.735 108.9C193.606 108.612 193.471 108.328 193.354 108.031C193.19 107.629 193.121 107.151 193.224 106.782C193.269 106.587 193.341 106.393 193.441 106.206C193.49 106.113 193.545 106.021 193.608 105.931L193.655 105.863L193.71 105.807C193.748 105.77 193.786 105.734 193.825 105.696C194.461 105.106 195.434 104.557 196.582 104.161H196.586Z" fill="#FFAE12"/>
<path d="M199.56 103.588C199.674 103.587 199.785 103.588 199.889 103.593C199.991 103.589 200.084 103.575 200.174 103.569C200.353 103.554 200.507 103.544 200.635 103.541C200.902 103.561 201.028 103.508 201.042 103.546C201.062 103.596 201.081 103.645 201.103 103.694C201.125 103.744 201.145 103.787 201.174 103.849C201.23 103.965 201.293 104.077 201.367 104.183C201.441 104.286 201.526 104.388 201.639 104.451C201.695 104.481 201.76 104.499 201.824 104.489C201.888 104.481 201.946 104.448 201.995 104.406C202.187 104.229 202.266 103.972 202.37 103.74L202.443 103.561L202.629 103.084L203.026 102.033L203.447 100.893L205.136 96.2061C205.718 94.6138 206.327 92.991 207.03 91.3388C207.392 90.5095 207.761 89.6777 208.191 88.8331C208.607 87.9924 209.086 87.1376 209.62 86.2841L210.039 85.6421C210.18 85.4281 210.343 85.2141 210.496 85.0001L210.729 84.6804L210.985 84.3619C211.161 84.1504 211.323 83.9377 211.512 83.7288C212.245 82.8893 213.124 82.0728 214.141 81.3569C214.356 81.2117 214.571 81.0677 214.789 80.9263C215.058 80.7658 215.418 80.6117 215.811 80.4779C216.212 80.3544 216.667 80.2741 217.103 80.2283C217.55 80.2104 217.987 80.227 218.367 80.3009C218.751 80.3913 219.078 80.5225 219.315 80.6919L218.73 80.813C218.634 80.8346 218.536 80.8537 218.44 80.8779L218.152 80.9645L217.578 81.1454C217.481 81.1735 217.388 81.2104 217.296 81.2499L217.018 81.3658L216.467 81.6053L215.942 81.8868C215.585 82.069 215.267 82.2906 214.942 82.5084C214.717 82.6524 214.518 82.818 214.315 82.9785C214.114 83.1416 213.905 83.3008 213.727 83.4766L213.175 83.9963L212.673 84.5364C212.025 85.2638 211.456 86.0192 210.968 86.7822C209.971 88.3096 209.217 89.8547 208.54 91.3859C207.198 94.4495 206.178 97.4711 205.112 100.407C204.847 101.141 204.581 101.87 204.311 102.593L203.923 103.617L203.663 104.285C203.54 104.596 203.412 104.904 203.28 105.211C203.145 105.517 203.018 105.826 202.84 106.112C202.666 106.392 202.451 106.672 202.137 106.802C201.983 106.866 201.807 106.873 201.647 106.828C201.485 106.782 201.341 106.691 201.213 106.585C200.954 106.373 200.754 106.099 200.573 105.819C200.395 105.536 200.239 105.239 200.098 104.937C200.006 104.745 199.925 104.549 199.843 104.352L199.723 104.048L199.646 103.839L199.554 103.587L199.56 103.588Z" fill="#F09E00"/>
<path d="M195.203 99.4341C196.599 99.0915 197.916 98.9998 198.915 99.1042C199.914 99.2099 200.597 99.5106 200.737 100.007C200.907 100.601 201.084 101.188 201.272 101.765C201.369 102.051 201.462 102.34 201.563 102.62L201.691 102.983L201.744 103.123C201.749 103.137 201.746 103.137 201.742 103.138L201.725 103.147C201.709 103.156 201.685 103.169 201.656 103.187C201.596 103.224 201.508 103.281 201.4 103.364C201.182 103.528 200.878 103.797 200.52 104.165C200.162 104.533 199.749 105.002 199.294 105.531C198.839 106.058 198.343 106.643 197.797 107.206C197.269 107.751 196.737 108.217 196.205 108.547C195.675 108.877 195.144 109.068 194.632 109.103C194.504 109.112 194.377 109.11 194.252 109.099C194.13 109.086 194.01 109.062 193.893 109.03C193.659 108.964 193.433 108.859 193.225 108.719C193.014 108.582 192.834 108.397 192.671 108.188C192.59 108.082 192.516 107.97 192.447 107.85C192.413 107.791 192.381 107.729 192.35 107.667C192.319 107.603 192.29 107.54 192.271 107.486L191.963 106.671L191.891 106.479L191.842 106.343L191.747 106.073C191.617 105.712 191.501 105.354 191.38 104.994C191.147 104.276 190.93 103.56 190.726 102.844C190.557 102.246 190.976 101.55 191.79 100.935C192.605 100.317 193.813 99.7768 195.208 99.4341H195.203Z" fill="#FFAE12"/>
<path d="M200.699 99.9082C200.494 99.456 199.796 99.1834 198.81 99.0942C197.825 99.0063 196.55 99.1031 195.203 99.4343C193.855 99.7655 192.683 100.28 191.869 100.871C191.057 101.461 190.608 102.13 190.694 102.72C190.929 103.27 191.662 103.611 192.664 103.693C193.666 103.777 194.936 103.601 196.257 103.174C197.58 102.748 198.713 102.163 199.509 101.577C200.304 100.99 200.759 100.399 200.699 99.9056V99.9082Z" fill="#F09E00"/>
<path d="M199.283 99.1546C200.08 99.2922 200.615 99.5737 200.736 100.007C200.906 100.6 201.083 101.188 201.271 101.765C201.368 102.05 201.461 102.339 201.562 102.619L201.69 102.983L201.742 103.123C201.742 103.123 201.745 103.132 201.746 103.135H201.742L201.728 103.144C201.711 103.154 201.693 103.163 201.675 103.174C201.629 103.2 201.562 103.244 201.476 103.305C201.306 103.427 201.067 103.625 200.781 103.902L200.709 103.726L200.675 103.639L200.609 103.461L200.518 103.211L200.392 102.854L200.149 102.13C199.833 101.158 199.545 100.162 199.283 99.1533V99.1546Z" fill="#F09E00"/>
<path d="M192.445 102.003C191.708 98.741 191.227 95.4787 190.975 92.1743C190.852 90.5221 190.789 88.861 190.822 87.177C190.857 85.493 190.968 83.7924 191.306 82.0255C191.561 81.7262 192.575 81.6638 193.739 81.8816C194.428 82.0077 195.037 82.1911 195.456 82.3708C195.746 82.4956 195.945 82.6179 196.011 82.73C195.889 84.0917 195.93 85.563 196.048 87.0343C196.167 88.5094 196.372 89.9986 196.632 91.4826C197.158 94.4481 197.902 97.4009 198.844 100.23C198.948 100.554 198.688 100.947 198.173 101.338C197.661 101.727 196.903 102.109 196.01 102.38C195.118 102.652 194.271 102.751 193.625 102.681C192.982 102.612 192.53 102.377 192.446 102.005L192.445 102.003Z" fill="#FFD7BE"/>
<path d="M198.294 101.238C197.279 98.1999 196.498 95.0268 195.964 91.8345C195.698 90.2371 195.497 88.6321 195.391 87.0385C195.287 85.4487 195.271 83.8539 195.455 82.3711C195.745 82.4959 195.944 82.6182 196.01 82.7303C195.888 84.0921 195.929 85.5634 196.047 87.0347C196.166 88.5098 196.371 89.9989 196.63 91.4829C197.157 94.4485 197.901 97.4012 198.843 100.23C198.937 100.526 198.727 100.88 198.294 101.239V101.238Z" fill="#F5BE97"/>
<path d="M238.85 125.524L229.966 129.724L223.176 127.099C220.748 126.16 219.202 123.764 219.345 121.165L220.374 102.476C220.458 100.946 221.723 99.749 223.255 99.749H234.967C236.512 99.749 237.784 100.966 237.85 102.509L238.85 125.524Z" fill="#082640"/>
<path d="M239.254 125.524L230.121 130.58L219.508 126.508L220.776 102.476C220.86 100.946 222.125 99.749 223.658 99.749H235.37C236.915 99.749 238.186 100.966 238.252 102.509L239.252 125.524H239.254Z" fill="#082640"/>
<path d="M223.302 76.9697C223.302 78.9773 233.664 79.1506 233.664 76.9697C235.785 78.3913 236.35 83.7886 228.977 83.7886C218.523 83.7886 223.302 76.9697 223.302 76.9697Z" fill="#FFAE12"/>
<path d="M230.084 83.096C222.594 83.096 222.924 79.5954 223.714 77.6095C223.453 77.4222 223.302 77.2082 223.302 76.9688C223.302 76.9688 218.523 83.7877 228.977 83.7877C231.349 83.7877 232.9 83.2284 233.84 82.4234C232.921 82.8386 231.691 83.096 230.084 83.096Z" fill="#F09E00"/>
<path d="M235.27 103.84C234.719 103.84 234.204 103.621 233.822 103.225C233.438 102.827 233.24 102.304 233.26 101.752C233.429 97.2707 234.217 86.1042 237.851 79.2063L237.907 79.1719L241.59 80.1502L241.502 80.2457C237.898 87.0876 237.35 97.644 237.282 101.865C237.264 102.955 236.362 103.841 235.271 103.841L235.27 103.84Z" fill="#082640"/>
<path d="M241.669 80.1747L238.284 79.2754C234.661 86.1529 233.879 97.2991 233.711 101.758C233.671 102.812 234.515 103.69 235.571 103.69C236.586 103.69 237.415 102.877 237.432 101.862C237.501 97.6405 238.047 87.0522 241.67 80.1747H241.669Z" fill="#082640"/>
<path d="M222.418 103.84C221.327 103.84 220.425 102.954 220.408 101.864C220.339 97.6441 219.793 87.0877 216.188 80.2446L216.211 80.2752L219.894 79.2969L219.95 79.4179C223.584 86.3171 224.26 97.2709 224.43 101.752C224.45 102.304 224.251 102.827 223.868 103.225C223.486 103.622 222.971 103.841 222.42 103.841L222.418 103.84Z" fill="#082640"/>
<path d="M216.62 80.1747L220.004 79.2754C223.627 86.1529 224.409 97.2991 224.577 101.758C224.617 102.812 223.774 103.69 222.718 103.69C221.702 103.69 220.873 102.877 220.857 101.862C220.788 97.6405 220.241 87.0522 216.618 80.1747H216.62Z" fill="#082640"/>
<path d="M221.614 61.7325C220.315 52.7621 223.702 49.715 228.663 49.7673C232.745 49.8106 237.601 51.2526 235.805 60.9134C234.009 70.5743 221.613 61.7325 221.613 61.7325H221.614Z" fill="#915C3B"/>
<path d="M238.131 63.4325C238.339 62.1499 237.468 60.9414 236.185 60.7332C234.903 60.525 233.694 61.3959 233.486 62.6786C233.278 63.9612 234.149 65.1698 235.431 65.378C236.714 65.5862 237.922 64.7152 238.131 63.4325Z" fill="#F5BE97"/>
<path d="M236.627 65.0346C237.72 64.5818 238.239 63.3284 237.786 62.2351C237.333 61.1419 236.08 60.6227 234.987 61.0756C233.894 61.5284 233.374 62.7818 233.827 63.875C234.28 64.9683 235.533 65.4874 236.627 65.0346Z" fill="#FFD7BE"/>
<path d="M237.115 63.2681C237.232 62.5466 236.742 61.8667 236.02 61.7496C235.299 61.6325 234.619 62.1224 234.502 62.844C234.385 63.5655 234.875 64.2453 235.596 64.3625C236.318 64.4796 236.998 63.9896 237.115 63.2681Z" fill="#F5BE97"/>
<path d="M223.278 64.7184C224.197 63.7995 224.197 62.3098 223.278 61.391C222.36 60.4722 220.87 60.4722 219.951 61.391C219.032 62.3098 219.032 63.7995 219.951 64.7184C220.87 65.6372 222.36 65.6372 223.278 64.7184Z" fill="#F5BE97"/>
<path d="M222.435 65.0336C223.528 64.5808 224.047 63.3274 223.594 62.2342C223.142 61.1409 221.888 60.6217 220.795 61.0746C219.702 61.5274 219.182 62.7808 219.635 63.874C220.088 64.9673 221.342 65.4865 222.435 65.0336Z" fill="#FFD7BE"/>
<path d="M222.551 63.9906C223.067 63.4737 223.067 62.6357 222.551 62.1188C222.034 61.6019 221.196 61.6019 220.679 62.1188C220.162 62.6357 220.162 63.4737 220.679 63.9906C221.196 64.5074 222.034 64.5074 222.551 63.9906Z" fill="#F5BE97"/>
<path d="M235.622 57.3309C235.622 53.5221 232.534 50.4355 228.726 50.4355C224.919 50.4355 221.831 53.5234 221.831 57.3309V68.6134C221.831 72.4222 224.919 75.5087 228.726 75.5087C232.534 75.5087 235.622 72.4209 235.622 68.6134V57.3309Z" fill="#FFD7BE"/>
<path d="M223.795 59.3984C223.746 59.3984 223.696 59.3819 223.655 59.3488C223.558 59.2711 223.543 59.1297 223.621 59.0328C224.946 57.3819 227.176 57.5131 227.27 57.5195C227.394 57.5284 227.488 57.6354 227.479 57.759C227.47 57.8826 227.362 57.9781 227.24 57.9679C227.219 57.9679 225.146 57.8494 223.971 59.3144C223.927 59.3704 223.862 59.3984 223.795 59.3984Z" fill="#915C3B"/>
<path d="M232.877 57.964C232.815 57.964 232.753 57.9385 232.71 57.8901C232.07 57.1793 231.403 56.8621 230.545 56.8621C230.422 56.8621 230.32 56.7614 230.32 56.6366C230.32 56.5118 230.421 56.4111 230.545 56.4111C231.529 56.4111 232.323 56.7844 233.045 57.5882C233.128 57.6799 233.12 57.8226 233.028 57.9054C232.985 57.9436 232.931 57.9627 232.878 57.9627L232.877 57.964Z" fill="#915C3B"/>
<path d="M230.088 62.442C230.088 61.5974 229.403 60.9121 228.558 60.9121C227.714 60.9121 227.028 61.5974 227.028 62.442V65.3298C227.028 66.1744 227.714 66.8597 228.558 66.8597C229.403 66.8597 230.088 66.1744 230.088 65.3298V62.442Z" fill="#FFD7BE"/>
<path d="M228.97 66.205C228.244 66.205 227.654 65.6165 227.654 64.8891V61.209C227.276 61.488 227.028 61.9351 227.028 62.4408V65.3286C227.028 66.1732 227.714 66.8585 228.558 66.8585C229.301 66.8585 229.919 66.3299 230.058 65.628C229.821 65.9757 229.422 66.2037 228.97 66.2037V66.205Z" fill="#F5BE97"/>
<path d="M226.281 61.4229C226.281 61.8203 226.036 62.1426 225.734 62.1426C225.432 62.1426 225.188 61.8203 225.188 61.4229C225.188 61.0254 225.432 60.7031 225.734 60.7031C226.036 60.7031 226.281 61.0254 226.281 61.4229Z" fill="#915C3B"/>
<path d="M231.596 61.4229C231.596 61.8203 231.352 62.1426 231.05 62.1426C230.748 62.1426 230.503 61.8203 230.503 61.4229C230.503 61.0254 230.748 60.7031 231.05 60.7031C231.352 60.7031 231.596 61.0254 231.596 61.4229Z" fill="#915C3B"/>
<path d="M235.478 64.5915C235.478 66.7571 234.335 68.6666 232.596 69.7952C232.721 69.6321 232.835 69.4602 232.931 69.2793C233.21 68.7608 233.195 68.1481 232.891 67.6424C232.589 67.1392 232.038 66.8271 231.454 66.8271C231.357 66.8271 231.26 66.836 231.165 66.8526C230.405 66.9838 229.598 67.0513 228.762 67.0513C227.926 67.0513 227.119 66.9851 226.36 66.8526C226.264 66.836 226.167 66.8271 226.07 66.8271C225.486 66.8271 224.935 67.1392 224.634 67.6424C224.329 68.1481 224.315 68.7608 224.593 69.2793C224.595 69.2831 224.598 69.2882 224.6 69.292C223.246 68.1417 222.392 66.4628 222.392 64.5915V54.6211C222.107 55.2542 221.915 55.937 221.834 56.6542C221.832 56.714 221.828 56.7739 221.828 56.8338V68.7659C221.828 72.6779 224.849 75.5084 228.933 75.5084C229.813 75.5084 230.655 75.3479 231.433 75.0562C233.894 74.0002 235.619 71.5607 235.619 68.7201V57.4376C235.619 56.9561 235.57 56.4873 235.475 56.0338V64.5928L235.478 64.5915Z" fill="#F5BE97"/>
<path d="M228.558 68.4758C227.658 68.4758 226.8 68.4006 226.021 68.2643C225.676 68.2044 225.404 68.5713 225.57 68.8796C226.073 69.8184 227.221 70.4744 228.558 70.4744C229.896 70.4744 231.044 69.8184 231.547 68.8796C231.712 68.5713 231.441 68.2044 231.096 68.2643C230.316 68.4006 229.459 68.4758 228.558 68.4758Z" fill="white"/>
<path d="M228.558 70.7417C227.165 70.7417 225.9 70.0602 225.334 69.0055C225.209 68.7736 225.23 68.4959 225.385 68.2806C225.543 68.0628 225.804 67.9558 226.067 68.0017C226.856 68.1393 227.695 68.2093 228.558 68.2093C229.422 68.2093 230.26 68.1393 231.05 68.0017C231.314 67.9558 231.573 68.0628 231.731 68.2806C231.887 68.4959 231.906 68.7736 231.782 69.0055C231.218 70.0602 229.952 70.7417 228.558 70.7417ZM225.947 68.524C225.874 68.524 225.831 68.5749 225.818 68.5927C225.802 68.6169 225.766 68.6794 225.805 68.7532C226.278 69.6373 227.36 70.208 228.558 70.208C229.757 70.208 230.838 69.6373 231.311 68.7532C231.351 68.6794 231.315 68.6169 231.298 68.5927C231.284 68.5736 231.231 68.5112 231.142 68.5265C230.323 68.6692 229.452 68.7418 228.558 68.7418C227.664 68.7418 226.795 68.6692 225.975 68.5265C225.965 68.5252 225.956 68.524 225.947 68.524Z" fill="#F28A7E"/>
<path d="M221.831 60.4489C222.29 55.0299 222.752 52.4109 225.734 51.8924C228.717 51.374 229.798 52.2185 231.408 53.1382C232.562 53.7968 234.107 53.6287 234.107 53.6287C234.107 53.6287 233.001 53.8134 234.052 56.0388C235.103 58.2642 235.837 59.3139 235.806 60.2807C236.008 55.4732 235.689 49.7702 229.349 50.0301C219.473 50.4351 221.831 60.4489 221.831 60.4489Z" fill="#915C3B"/>
<path d="M229.154 53.3005C231.06 53.3005 232.557 53.6189 234.057 54.3399C235.622 55.0915 236.001 55.9144 236.176 56.5246C236.338 56.4507 236.415 56.2978 236.404 56.0762C236.367 55.4138 236.404 54.0482 236.404 53.745C236.404 49.6407 233.84 47 228.614 47C222.323 47 220.928 49.963 220.928 54.0673V56.2978C222.739 54.4788 225.891 53.3005 229.153 53.3005H229.154Z" fill="#FFAE12"/>
<path d="M223.347 54.3019V52.0714C223.347 50.3759 223.586 48.8753 224.31 47.6982C221.636 48.8065 220.929 51.1478 220.929 54.0688V56.2993C221.825 55.3999 223.049 54.6586 224.45 54.1375C224.054 53.9439 223.686 53.963 223.347 54.3032V54.3019Z" fill="#F09E00"/>
<path d="M234.057 53.9907V54.3398C233.659 54.1653 232.849 53.4825 232.413 53.3551C231.421 53.0659 230.338 52.908 229.204 52.908C225.744 52.908 222.758 54.3856 221.362 56.5257L219.281 54.6277C219.054 54.4213 218.922 54.4353 218.895 54.1512C218.888 54.0837 218.894 53.7258 218.899 53.6583C218.919 53.4022 219.023 53.1525 219.217 52.9538C220.789 51.3297 223.38 50.2686 226.31 50.2686C228.04 50.2686 229.652 50.638 231.007 51.2762C231.112 51.3258 231.208 51.3921 231.294 51.4711L234.059 53.9933L234.057 53.9907Z" fill="#FFD47D"/>
<path d="M234.057 54.3404C232.671 53.6563 231.001 53.2576 229.203 53.2576C225.743 53.2576 222.757 54.7352 221.361 56.8753L219.28 54.9773C218.794 54.5353 218.759 53.7748 219.215 53.3034C220.786 51.6793 223.377 50.6182 226.307 50.6182C228.037 50.6182 229.65 50.9876 231.004 51.6258C231.11 51.6755 231.205 51.7417 231.292 51.8207L234.056 54.3429L234.057 54.3404Z" fill="#F09E00"/>
<path d="M222.664 103.214C223.443 103.214 224.074 102.583 224.074 101.804C224.074 101.025 223.443 100.394 222.664 100.394C221.885 100.394 221.254 101.025 221.254 101.804C221.254 102.583 221.885 103.214 222.664 103.214Z" fill="#FFAE12"/>
<path d="M223.46 101.804C223.46 102.243 223.104 102.6 222.664 102.6C222.225 102.6 221.868 102.243 221.868 101.804C221.868 101.364 222.225 101.008 222.664 101.008C223.104 101.008 223.46 101.364 223.46 101.804Z" fill="#F09E00"/>
<path d="M235.471 103.214C236.25 103.214 236.882 102.583 236.882 101.804C236.882 101.025 236.25 100.394 235.471 100.394C234.693 100.394 234.061 101.025 234.061 101.804C234.061 102.583 234.693 103.214 235.471 103.214Z" fill="#FFAE12"/>
<path d="M236.266 101.804C236.266 102.243 235.91 102.6 235.47 102.6C235.031 102.6 234.674 102.243 234.674 101.804C234.674 101.364 235.031 101.008 235.47 101.008C235.91 101.008 236.266 101.364 236.266 101.804Z" fill="#F09E00"/>
<path d="M235.522 107.778H222.663C222.58 107.778 222.513 107.711 222.513 107.628C222.513 107.545 222.58 107.478 222.663 107.478H235.522C235.605 107.478 235.673 107.545 235.673 107.628C235.673 107.711 235.605 107.778 235.522 107.778Z" fill="#082640"/>
<path d="M195.56 215.658V214.042H204.104V225.28H184.947V223.226C184.947 221.987 185.837 220.926 187.059 220.712L192.054 219.835C194.083 219.479 195.562 217.717 195.562 215.657L195.56 215.658Z" fill="#FFAE12"/>
<path d="M202.509 214.042H204.104V225.28H202.509V214.042Z" fill="#F09E00"/>
<path d="M203.932 211.863H195.79C195.347 211.863 194.987 212.223 194.987 212.666V214.1C194.987 214.543 195.347 214.903 195.79 214.903H203.932C204.375 214.903 204.735 214.543 204.735 214.1V212.666C204.735 212.223 204.375 211.863 203.932 211.863Z" fill="#AB785B"/>
<path d="M196.506 220.177C196.48 220.177 196.455 220.171 196.432 220.158C195.549 219.66 194.364 219.439 193.093 219.537C193.008 219.543 192.939 219.481 192.933 219.399C192.926 219.316 192.987 219.245 193.07 219.239C194.4 219.135 195.646 219.37 196.58 219.897C196.652 219.938 196.678 220.03 196.636 220.101C196.608 220.149 196.558 220.177 196.504 220.177H196.506Z" fill="#AB785B"/>
<path d="M197.111 218.335C197.103 218.335 197.094 218.335 197.087 218.334C196.204 218.19 195.313 218.16 194.636 218.149C194.553 218.148 194.487 218.079 194.488 217.997C194.489 217.914 194.56 217.845 194.641 217.849C195.329 217.86 196.233 217.891 197.135 218.037C197.216 218.05 197.273 218.128 197.258 218.209C197.247 218.283 197.183 218.335 197.111 218.335Z" fill="#AB785B"/>
<path d="M197.777 216.703C197.777 216.703 197.774 216.703 197.773 216.703C196.889 216.68 196.028 216.675 195.304 216.673C195.222 216.673 195.155 216.606 195.155 216.523C195.155 216.44 195.223 216.374 195.306 216.374C196.032 216.375 196.894 216.38 197.782 216.405C197.865 216.407 197.93 216.476 197.929 216.559C197.926 216.64 197.86 216.705 197.778 216.705L197.777 216.703Z" fill="#AB785B"/>
<path d="M184 227.001H193.527L198.406 226.728L198.429 227.001H204.735V225.712C204.735 225.189 204.311 224.781 203.788 224.798L184.945 225.248C184.423 225.266 183.999 225.704 183.999 226.226V227.001H184Z" fill="#AB785B"/>
<path d="M203.1 219.115C203.018 219.115 202.95 219.047 202.95 218.965V213.844C202.95 213.761 203.018 213.693 203.1 213.693C203.183 213.693 203.251 213.761 203.251 213.844V218.965C203.251 219.047 203.183 219.115 203.1 219.115Z" fill="#AB785B"/>
<path d="M201.635 214.902H203.932C204.375 214.902 204.735 214.543 204.735 214.1V212.667C204.735 212.223 204.375 211.864 203.932 211.864H201.635V214.904V214.902Z" fill="#94674E"/>
<path d="M201.635 227.001H204.735V225.712C204.735 225.189 204.311 224.781 203.788 224.798C203.788 224.798 202.953 224.819 201.634 224.849V227.001H201.635Z" fill="#94674E"/>
<path d="M191.873 225.232C191.865 225.232 191.857 225.232 191.85 225.231C191.768 225.218 191.712 225.142 191.724 225.061C191.729 225.027 192.199 221.712 189.424 220.422C189.349 220.388 189.316 220.299 189.352 220.224C189.386 220.149 189.475 220.115 189.55 220.151C192.531 221.536 192.026 225.071 192.02 225.106C192.009 225.18 191.945 225.234 191.873 225.234V225.232Z" fill="#AB785B"/>
<path d="M185.961 223.555C186.212 223.555 186.433 223.374 186.477 223.119C186.484 223.083 186.743 221.99 188.777 221.827C189.066 221.804 189.282 221.551 189.259 221.262C189.236 220.973 188.982 220.756 188.693 220.78C185.807 221.012 185.455 222.862 185.442 222.939C185.393 223.225 185.585 223.496 185.87 223.546C185.901 223.551 185.93 223.553 185.959 223.553L185.961 223.555Z" fill="#FFD88A"/>
<path d="M191.91 220.41C191.842 220.41 191.782 220.366 191.764 220.297C191.744 220.217 191.792 220.135 191.873 220.115C193.441 219.715 195.811 219.11 195.917 213.84C195.918 213.757 195.985 213.696 196.07 213.693C196.153 213.695 196.219 213.763 196.217 213.846C196.106 219.344 193.502 220.009 191.947 220.407C191.934 220.41 191.921 220.412 191.91 220.412V220.41Z" fill="#AB785B"/>
<path d="M195.697 74.7983L196.955 79.8109C197.455 81.7981 196.357 83.8911 194.395 84.4834C192.301 85.1152 190.128 83.8656 189.6 81.7688L189.427 76.4148C189.242 75.6811 189.688 74.9372 190.422 74.7525L194.033 73.8034C194.767 73.6187 195.511 74.0646 195.696 74.7983H195.697Z" fill="#FFCEC7"/>
<path d="M195.641 82.5793C195.377 82.5793 195.112 82.4863 194.898 82.2991C194.432 81.8889 194.387 81.1781 194.797 80.7118C197.362 77.8011 196.495 74.1923 196.457 74.0394C196.307 73.4382 196.67 72.8267 197.27 72.6739C197.871 72.521 198.48 72.8802 198.636 73.4789C198.686 73.6764 199.853 78.3731 196.484 82.1972C196.262 82.4494 195.952 82.578 195.639 82.578L195.641 82.5793Z" fill="#FFD7BE"/>
<path d="M195.32 77.8611C194.912 77.8611 194.539 77.5885 194.431 77.1745C193.161 72.3364 190.11 67.3926 190.079 67.3429C189.812 66.9111 189.944 66.3442 190.375 66.0767C190.805 65.8092 191.372 65.9417 191.641 66.3723C191.772 66.5837 194.866 71.5963 196.209 76.707C196.338 77.1987 196.045 77.7006 195.553 77.8305C195.475 77.8509 195.396 77.8611 195.318 77.8611H195.32Z" fill="#FFD7BE"/>
<path d="M193.446 78.3329C193.037 78.3329 192.665 78.059 192.557 77.645C191.646 74.1521 187.829 71.0566 187.791 71.0261C187.395 70.7089 187.331 70.1293 187.65 69.7331C187.967 69.3369 188.545 69.2732 188.942 69.5904C189.117 69.7318 193.271 73.0922 194.336 77.1813C194.465 77.673 194.169 78.1749 193.679 78.3036C193.601 78.3239 193.524 78.3341 193.446 78.3341V78.3329Z" fill="#FFD7BE"/>
<path d="M191.572 78.8029C191.154 78.8029 190.777 78.5175 190.678 78.0933C190.562 77.5978 190.469 77.1673 190.386 76.7864C190.219 76.0132 190.047 75.2144 189.892 75.0794C189.736 74.9431 188.668 75.0081 188.316 75.0297C187.812 75.0616 187.373 74.6743 187.343 74.1673C187.312 73.6604 187.698 73.2247 188.205 73.1941C189.519 73.1139 190.431 73.1062 191.105 73.6947C191.717 74.231 191.893 75.0463 192.185 76.3979C192.265 76.7698 192.357 77.1927 192.469 77.6717C192.585 78.166 192.278 78.6615 191.784 78.7774C191.712 78.794 191.642 78.8016 191.572 78.8016V78.8029Z" fill="#FFD7BE"/>
<path d="M189.698 79.2722C189.312 79.2722 188.959 79.0276 188.831 78.6531C188.584 78.8238 188.258 78.8709 187.959 78.7487C187.491 78.5563 187.265 78.0251 187.454 77.5563C187.587 77.2251 188.101 76.15 189.077 76.2201C190.148 76.299 190.471 77.634 190.592 78.1359C190.712 78.6302 190.409 79.127 189.915 79.2455C189.842 79.2633 189.77 79.2709 189.698 79.2709V79.2722Z" fill="#FFD7BE"/>
<path d="M196.261 66.8594H189.475C188.999 66.8594 188.613 67.2455 188.613 67.7218V83.171C188.613 83.6473 188.999 84.0334 189.475 84.0334H196.261C196.737 84.0334 197.124 83.6473 197.124 83.171V67.7218C197.124 67.2455 196.737 66.8594 196.261 66.8594Z" fill="#4F5869"/>
<path d="M196.749 67.9766H188.986V82.915H196.749V67.9766Z" fill="white"/>
<path d="M241.308 135.358C252.156 133.62 272.083 130.429 272.083 130.429C272.185 130.413 272.255 130.317 272.239 130.214L267.186 98.6735C267.17 98.5716 267.074 98.5015 266.971 98.518C266.971 98.518 247.044 101.709 236.196 103.447L241.307 135.356L241.308 135.358Z" fill="#F7CD81"/>
<path d="M241.308 135.358C243.369 135.028 272.083 130.429 272.083 130.429C272.185 130.413 272.255 130.317 272.239 130.214L267.186 98.6735C267.17 98.5716 267.074 98.5015 266.971 98.518C266.971 98.518 238.257 103.117 236.196 103.447L241.307 135.356L241.308 135.358Z" fill="#D7B063"/>
<path d="M236.22 103.589C247.165 101.836 267.18 98.6301 267.18 98.6301C267.167 98.5524 267.094 98.4989 267.016 98.5116C267.016 98.5116 247.069 101.706 236.198 103.448L236.22 103.589Z" fill="#F7CD81"/>
<path d="M241.308 135.357C252.179 133.616 272.127 130.421 272.127 130.421C272.204 130.408 272.258 130.335 272.245 130.257C272.245 130.257 252.229 133.463 241.285 135.216L241.308 135.357Z" fill="#D7B063"/>
<path d="M236.198 103.448C228.76 104.639 222.501 105.642 222.501 105.642C222.399 105.658 222.329 105.754 222.346 105.857L227.398 137.398C227.414 137.5 227.51 137.57 227.613 137.553C227.613 137.553 233.871 136.55 241.309 135.359L236.199 103.45L236.198 103.448Z" fill="#F7CD81"/>
<path d="M227.607 137.553L227.623 137.551L222.513 105.641L222.496 105.643C222.397 105.658 222.329 105.751 222.346 105.851L227.399 137.403C227.414 137.502 227.507 137.57 227.607 137.553Z" fill="#E8BD6D"/>
<path d="M236.198 103.448C228.737 104.643 222.458 105.648 222.458 105.648C222.38 105.661 222.327 105.735 222.339 105.813C222.339 105.813 228.687 104.796 236.22 103.59L236.198 103.448Z" fill="#F7CD81"/>
<path d="M241.285 135.217C233.752 136.423 227.404 137.44 227.404 137.44C227.417 137.518 227.491 137.571 227.568 137.558C227.568 137.558 233.847 136.553 241.308 135.357L241.285 135.216V135.217Z" fill="#D7B063"/>
<path d="M258.878 131.081L269.453 129.387C269.921 129.312 270.24 128.871 270.165 128.403L269.119 121.876C269.044 121.408 268.604 121.089 268.136 121.164L257.561 122.858C257.093 122.933 256.774 123.374 256.849 123.842L257.895 130.369C257.97 130.837 258.41 131.156 258.878 131.081Z" fill="white"/>
<path d="M258.759 124.603C258.686 124.603 258.622 124.551 258.611 124.477C258.598 124.395 258.653 124.318 258.736 124.305L267.385 122.92C267.467 122.906 267.543 122.962 267.557 123.045C267.57 123.126 267.515 123.204 267.432 123.217L258.783 124.602C258.775 124.603 258.766 124.604 258.759 124.604V124.603Z" fill="#9E9E9E"/>
<path d="M259.017 126.218C258.945 126.218 258.881 126.166 258.87 126.092C258.857 126.01 258.912 125.933 258.994 125.92L267.644 124.535C267.725 124.521 267.802 124.577 267.816 124.66C267.828 124.742 267.774 124.819 267.691 124.832L259.041 126.217C259.034 126.218 259.025 126.218 259.017 126.218Z" fill="#9E9E9E"/>
<path d="M259.276 127.833C259.203 127.833 259.14 127.781 259.128 127.707C259.115 127.626 259.17 127.548 259.253 127.535L267.901 126.151C267.983 126.137 268.059 126.193 268.073 126.275C268.086 126.357 268.031 126.435 267.948 126.447L259.3 127.832C259.292 127.833 259.284 127.835 259.276 127.835V127.833Z" fill="#9E9E9E"/>
<path d="M262.827 128.921C262.755 128.921 262.691 128.869 262.68 128.795C262.667 128.714 262.722 128.636 262.804 128.623L268.161 127.766C268.243 127.752 268.319 127.808 268.333 127.891C268.346 127.972 268.291 128.05 268.208 128.063L262.852 128.92C262.844 128.921 262.835 128.921 262.827 128.921Z" fill="#9E9E9E"/>
<path d="M232.059 110.194L231.593 109.892L231.245 110.325L230.779 110.022L230.431 110.455L229.965 110.152L229.617 110.585L229.151 110.283L228.803 110.716L228.337 110.413L227.989 110.846L227.523 110.543L227.348 110.761L226.427 105.012L231.422 104.212L232.326 109.861L232.059 110.194Z" fill="#D7B063"/>
<path d="M261.952 111.458C261.948 115.109 261.617 118.674 261.11 122.186C260.857 123.941 260.552 125.684 260.206 127.413C259.858 129.147 259.475 130.859 259.024 132.589C258.761 132.84 257.743 132.849 256.591 132.578C255.909 132.417 255.309 132.208 254.903 132.001C254.62 131.855 254.431 131.713 254.374 131.584C254.643 129.952 254.861 128.278 255.039 126.615C255.216 124.949 255.354 123.279 255.44 121.614C255.615 118.285 255.611 114.964 255.318 111.744C255.29 111.406 255.63 111.084 256.219 110.819C256.806 110.555 257.633 110.353 258.564 110.288C259.494 110.223 260.338 110.317 260.952 110.53C261.565 110.741 261.953 111.075 261.952 111.457V111.458Z" fill="#FFD7BE"/>
<path d="M256.079 110.889C256.405 114.332 256.392 117.875 256.17 121.415C256.061 123.187 255.898 124.96 255.687 126.729C255.476 128.495 255.221 130.274 254.907 132C254.624 131.855 254.435 131.713 254.378 131.584C254.647 129.952 254.865 128.278 255.043 126.615C255.22 124.948 255.358 123.278 255.444 121.614C255.619 118.285 255.615 114.964 255.322 111.744C255.298 111.435 255.579 111.139 256.081 110.888L256.079 110.889Z" fill="#F5BE97"/>
<path d="M258.681 115.264C257.245 115.238 255.946 114.99 255.006 114.632C254.536 114.452 254.156 114.244 253.894 114.016C253.63 113.79 253.479 113.544 253.476 113.284C253.454 112.042 253.402 110.809 253.286 109.61C253.238 109.111 253.764 108.604 254.659 108.145C254.77 108.09 254.886 108.029 255.01 107.981C255.133 107.932 255.261 107.885 255.394 107.84C255.661 107.747 255.947 107.659 256.25 107.576C256.856 107.41 257.527 107.268 258.239 107.167C258.951 107.066 259.635 107.018 260.264 107.022C260.579 107.024 260.88 107.04 261.164 107.068C261.305 107.082 261.443 107.099 261.575 107.12C261.708 107.14 261.838 107.178 261.961 107.212C262.942 107.493 263.59 108.009 263.652 108.642C263.797 110.154 263.86 111.646 263.886 113.125C263.89 113.433 263.75 113.73 263.487 113.996C263.222 114.261 262.84 114.497 262.367 114.69C261.424 115.078 260.12 115.29 258.682 115.265L258.681 115.264Z" fill="#FFAE12"/>
<path d="M254.663 114.488C254.295 114.319 254.002 114.13 253.8 113.928C253.593 113.726 253.48 113.51 253.477 113.283C253.456 112.041 253.403 110.808 253.288 109.609C253.247 109.172 253.638 108.734 254.336 108.321C254.575 110.323 254.681 112.391 254.663 114.487V114.488Z" fill="#F09E00"/>
<path d="M258.566 110.339C257.355 110.42 256.247 110.303 255.426 110.072C255.017 109.957 254.681 109.811 254.444 109.642C254.326 109.557 254.231 109.466 254.164 109.369C254.094 109.274 254.052 109.172 254.04 109.065C254.003 108.755 253.977 108.441 253.932 108.135C253.803 107.145 253.629 106.181 253.42 105.246C253.365 105.014 253.303 104.789 253.245 104.559C253.216 104.447 253.188 104.326 253.158 104.22L253.067 103.934L252.979 103.647L252.87 103.357L252.763 103.065C252.726 102.967 252.679 102.869 252.637 102.771C251.97 101.198 250.947 99.5887 249.733 98.0664C248.521 96.5391 247.121 95.0792 245.615 93.7302C244.862 93.0551 244.084 92.4067 243.287 91.7953C242.49 91.1838 241.675 90.608 240.867 90.0985C240.708 89.9966 240.46 89.794 240.232 89.5189C240.118 89.3851 240 89.217 239.899 89.0476C239.796 88.873 239.699 88.6718 239.627 88.4629C239.59 88.3571 239.553 88.2399 239.524 88.1228C239.498 88.0094 239.474 87.8871 239.455 87.7572C239.409 87.4909 239.41 87.2272 239.408 86.91C239.408 86.8323 239.408 86.7495 239.413 86.6693C239.419 86.589 239.425 86.5075 239.432 86.4234C239.446 86.254 239.462 86.0757 239.483 85.8871C239.526 85.5101 239.589 85.0948 239.703 84.6477C239.824 84.1802 239.978 83.7764 240.185 83.4363C240.288 83.2668 240.403 83.1127 240.531 82.9739C240.595 82.9051 240.662 82.8401 240.732 82.7777C240.801 82.7165 240.866 82.6605 240.936 82.607C241.209 82.3942 241.543 82.2388 241.845 82.1344C242 82.0822 242.16 82.0414 242.322 82.0121C242.481 81.9828 242.632 81.9637 242.788 81.9535C244.036 81.8707 245.107 82.3688 245.553 82.649C246.642 83.3369 247.658 84.0579 248.643 84.8133C249.625 85.5674 250.572 86.3559 251.49 87.1788C253.324 88.8234 255.047 90.6093 256.625 92.5952C258.199 94.5799 259.643 96.7722 260.734 99.3301C260.802 99.4906 260.873 99.6473 260.937 99.8103L261.123 100.307L261.306 100.805L261.468 101.321L261.627 101.838C261.673 102.003 261.71 102.154 261.752 102.313C261.832 102.628 261.917 102.944 261.99 103.257C262.273 104.511 262.495 105.758 262.655 106.992C262.71 107.377 262.745 107.758 262.789 108.14C262.803 108.271 262.788 108.404 262.742 108.534C262.695 108.662 262.618 108.79 262.517 108.912C262.314 109.158 262.01 109.386 261.626 109.585C260.862 109.982 259.777 110.255 258.564 110.336L258.566 110.339Z" fill="#FFAE12"/>
<path d="M255.545 110.104C255.101 109.99 254.737 109.84 254.479 109.666C254.35 109.578 254.247 109.484 254.174 109.383C254.099 109.284 254.053 109.178 254.04 109.066C254.003 108.756 253.977 108.442 253.932 108.136C253.803 107.146 253.629 106.182 253.42 105.247C253.365 105.015 253.303 104.79 253.245 104.56C253.216 104.448 253.188 104.327 253.158 104.222L253.067 103.935L252.979 103.648L252.87 103.358L252.763 103.066C252.726 102.968 252.679 102.87 252.637 102.772C251.97 101.199 250.947 99.5898 249.733 98.0675C248.521 96.5402 247.121 95.0804 245.615 93.7314C244.862 93.0562 244.084 92.4078 243.287 91.7964C242.49 91.1849 241.675 90.6092 240.867 90.0996C240.734 90.0104 240.566 89.8741 240.409 89.7022C240.251 89.5315 240.096 89.334 239.957 89.1175C239.82 88.9073 239.697 88.6704 239.611 88.4423C239.518 88.2029 239.47 87.9748 239.453 87.7354C240.093 88.008 240.852 88.4296 241.581 88.8895C243.293 89.971 244.969 91.2716 246.528 92.6652C248.091 94.0613 249.545 95.5759 250.82 97.1784C252.096 98.7771 253.188 100.481 253.924 102.215C253.97 102.323 254.02 102.432 254.063 102.54L254.183 102.865L254.305 103.19L254.405 103.515L254.507 103.838C254.54 103.951 254.569 104.079 254.6 104.199C254.661 104.442 254.726 104.683 254.784 104.927C255.005 105.914 255.188 106.925 255.322 107.956C255.412 108.667 255.487 109.383 255.542 110.108L255.545 110.104Z" fill="#F09E00"/>
<path d="M259.48 127.592C257.222 127.455 253.961 130.632 253.521 131.148C254.431 132.381 250.96 133.974 249.73 134.009C248.916 137.56 257.573 135.407 259.277 134.164C260.98 132.921 259.481 127.591 259.481 127.591L259.48 127.592Z" fill="#FFD7BE"/>
<path d="M249.731 133.627C249.406 133.627 249.085 133.476 248.88 133.194C248.54 132.725 248.643 132.069 249.112 131.729C249.223 131.648 251.853 129.754 255.535 128.666C256.091 128.502 256.675 128.819 256.839 129.375C257.003 129.93 256.686 130.515 256.131 130.679C252.811 131.661 250.37 133.41 250.346 133.427C250.16 133.562 249.945 133.627 249.731 133.627Z" fill="#FFD7BE"/>
<path d="M192.868 80.4026C192.856 80.4026 192.841 80.3988 192.829 80.3823C192.424 79.7746 191.638 78.5632 190.939 77.2779C190.084 75.7072 189.632 74.5226 189.632 73.8525C189.632 71.9978 191.084 70.4883 192.868 70.4883C194.651 70.4883 196.103 71.9978 196.103 73.8525C196.103 74.5226 195.651 75.706 194.796 77.2779C194.097 78.5632 193.312 79.7746 192.906 80.3823C192.894 80.4001 192.878 80.4026 192.868 80.4026ZM192.868 72.0895C191.933 72.0895 191.172 72.8806 191.172 73.8525C191.172 74.8245 191.933 75.6155 192.868 75.6155C193.803 75.6155 194.563 74.8245 194.563 73.8525C194.563 72.8806 193.803 72.0895 192.868 72.0895Z" fill="#C80E03"/>
</g>
<defs>
<clipPath id="clip0_47_44541">
<rect width="273" height="227" fill="white"/>
</clipPath>
</defs>
</svg>
