<svg width="281" height="227" viewBox="0 0 281 227" fill="none" xmlns="http://www.w3.org/2000/svg">
<g clip-path="url(#clip0_5_5025)">
<path d="M168.755 46.2912L-107.808 89.217V19.1289L244.133 31.2255L168.755 46.2912Z" fill="#EF7B64"/>
<path d="M214.095 19.1311L213.526 26.2881L213.215 30.1625L212.631 37.5231L199.588 201.145L199.54 201.139L196.523 200.605L183.413 198.305L184.271 187.329L181.042 189.306L182.714 171.68L185.637 169.884L187.583 144.993L194.484 56.7601L193.596 56.947L195.105 41.0237L195.109 41.0009L196.141 30.1023L196.193 29.5791L197.481 16L205.599 17.5302L211.637 18.6701L214.095 19.1311Z" fill="#3E4D64"/>
<path d="M200.501 190.504L199.588 201.145L203.425 201.685V216.694L176.042 236L175.083 235.83H175.079L-223.029 165.943L-224.013 156.645L-243.581 46.2145L-244 46.1979V30.1127L-107.808 19.1311L-108.037 35.2329L-107.808 35.2433L168.755 46.2913L195.109 41.0009L207.43 38.5301L207.426 38.5633L205.75 54.3827L194.484 56.7601L193.596 56.947L167.997 62.3475L161.73 62.1004L159.777 158.495L159.775 158.678L120.495 209.909L182.714 171.68L185.637 169.884L184.271 187.329L181.042 189.306L168.755 196.824L183.37 198.871L196.511 200.715L196.523 200.605L210.337 37.9799L211.008 30.0857L211.637 22.6774H197.48V17.5302H211.637L219.622 16L219.766 22.6774L214.473 28.0987L214.292 30.202L213.682 37.3134L210.123 78.6694L213.331 160.055L214.095 179.578L214.658 193.807L200.501 190.504Z" fill="#3E4D64"/>
<path d="M246.679 44.578L221.327 51.2014L220.509 36.2935L246.679 30.1123V44.578Z" fill="#3E4D64"/>
<path d="M251.444 165.355V178.037L229.119 193.807L227.381 162.008L251.444 165.355Z" fill="#3E4D64"/>
<path d="M168.755 46.2909L167.997 62.3471L161.73 62.1L86.3291 59.0831L-107.808 51.3281L-243.581 46.2141L-244 46.1975V30.1123L-108.037 35.2325L-107.808 35.2429L168.755 46.2909Z" stroke="black" stroke-width="0.2" stroke-miterlimit="10"/>
<path d="M175.081 218.842V235.998" stroke="black" stroke-width="0.2" stroke-miterlimit="10"/>
<path d="M194.484 56.7593L205.751 54.382L207.426 38.5625L207.43 38.5293L195.109 41.0001L168.755 46.2906" stroke="black" stroke-width="0.2" stroke-miterlimit="10"/>
<path d="M246.679 30.1123V44.578L221.327 51.2014L220.509 36.2935L246.679 30.1123Z" stroke="black" stroke-width="0.2" stroke-miterlimit="10"/>
<path d="M185.67 169.863L185.637 169.884" stroke="black" stroke-width="0.2" stroke-linecap="round" stroke-linejoin="round"/>
<path d="M161.739 61.7969L161.73 62.1" stroke="black" stroke-width="0.2" stroke-linecap="round" stroke-linejoin="round"/>
<path d="M159.776 158.495L159.405 158.678" stroke="black" stroke-width="0.2" stroke-miterlimit="10"/>
<path d="M187.716 144.928L187.583 144.994" stroke="black" stroke-width="0.2" stroke-miterlimit="10"/>
<path d="M195.938 40.2755L196.874 29.6032L197.481 22.6787H211.637L211.008 30.087L210.337 37.9811L196.523 200.606L196.511 200.716L196.5 200.833L183.324 199.429L183.37 198.873L183.413 198.306L184.271 187.33L185.637 169.885" stroke="black" stroke-width="0.2" stroke-miterlimit="10"/>
<path d="M187.583 144.992L185.637 169.883L182.714 171.679L120.495 209.908L159.775 158.677L159.777 158.494L185.131 146.182L187.583 144.992Z" fill="#506583" stroke="black" stroke-width="0.2" stroke-miterlimit="10"/>
<path d="M194.484 56.7617L187.583 144.995L185.13 146.184L159.777 158.497L161.73 62.102L167.997 62.3491L193.596 56.9486L194.484 56.7617Z" fill="#506583" stroke="black" stroke-width="0.2" stroke-miterlimit="10"/>
<path d="M203.425 201.685L199.588 201.145L199.54 201.139L196.511 200.716L183.37 198.872L168.755 196.825L147.227 193.808" stroke="black" stroke-width="0.2" stroke-miterlimit="10"/>
<path d="M229.119 193.809H214.658L214.095 179.58L213.329 160.056L210.123 78.6707L214.473 28.1L219.765 22.6787L220.509 36.2952L221.327 51.2031L227.381 162.01L229.119 193.809Z" fill="#506583" stroke="black" stroke-width="0.2" stroke-miterlimit="10"/>
<path d="M251.444 165.354V178.036L229.119 193.805L228.735 180.787L251.444 165.354Z" stroke="black" stroke-width="0.2" stroke-miterlimit="10"/>
<path d="M251.444 165.355L227.381 162.008" stroke="black" stroke-width="0.2" stroke-miterlimit="10"/>
<path d="M213.329 160.054L203.423 158.678" stroke="black" stroke-width="0.2" stroke-miterlimit="10"/>
<path d="M214.095 179.581L201.681 176.805" stroke="black" stroke-width="0.2" stroke-miterlimit="10"/>
<path d="M214.658 193.805L200.502 190.504" stroke="black" stroke-width="0.2" stroke-miterlimit="10"/>
<path d="M196.5 30.1125L-107.808 19.1309L-244 30.1125" stroke="black" stroke-width="0.2" stroke-miterlimit="10"/>
<path d="M197.48 22.6784V17.5312H211.635V22.6784L214.473 28.0997" stroke="black" stroke-width="0.2" stroke-miterlimit="10"/>
<path d="M210.123 78.6699L201.681 176.805L200.501 190.506L199.588 201.145L199.54 201.139L196.5 200.832" stroke="black" stroke-width="0.2" stroke-miterlimit="10"/>
<path d="M211.635 17.5302L219.622 16L219.766 22.6774" stroke="black" stroke-width="0.2" stroke-miterlimit="10"/>
<path d="M9.00928 192.736V62.2959L16.8017 65.8775V193.805" fill="#506583"/>
<path d="M9.00928 192.736V62.2959L16.8017 65.8775V193.805" stroke="black" stroke-width="0.2" stroke-miterlimit="10"/>
<path d="M84.3921 204.576V67.5332L92.1845 71.2249V205.814" fill="#506583"/>
<path d="M84.3921 204.576V67.5332L92.1845 71.2249V205.814" stroke="black" stroke-width="0.2" stroke-miterlimit="10"/>
<path d="M-190.894 107.969L84.392 137.533" stroke="black" stroke-width="0.2" stroke-miterlimit="10"/>
<path d="M203.423 201.684V216.696L176.041 235.999L175.083 235.829L-223.029 165.942L-224.013 156.645L-187.312 161.875L-123.329 171.932L-123.291 172.757L-119.616 172.576L-119.618 172.516L-57.3267 182.308L-51.5919 183.211L9.00943 192.733V192.739L92.1824 205.812L175.083 218.841L203.423 201.684Z" fill="#506583" stroke="black" stroke-width="0.2" stroke-miterlimit="10"/>
<path d="M246.679 30.1152H219.62" stroke="black" stroke-width="0.2" stroke-miterlimit="10"/>
<path d="M176.042 235.999L175.253 218.917" stroke="black" stroke-width="0.2" stroke-miterlimit="10"/>
<g clip-path="url(#clip1_5_5025)">
<path d="M254.795 116.446C246.106 116.454 238.529 116.469 238.529 116.469C238.447 116.469 238.381 116.4 238.381 116.316L238.359 94.0628C238.359 93.979 238.424 93.9101 238.507 93.9101C238.507 93.9101 246.082 93.8952 254.772 93.8877L254.795 116.446Z" fill="#F7CD81"/>
<path d="M254.795 116.446C253.144 116.448 238.529 116.469 238.529 116.469C238.447 116.469 238.381 116.4 238.381 116.316L238.359 94.0628C238.359 93.979 238.424 93.9101 238.507 93.9101C238.507 93.9101 253.12 93.8892 254.772 93.8877L254.795 116.446Z" fill="#E6BC69"/>
<path d="M254.772 94.0025C246.006 94.01 238.359 94.0249 238.359 94.0249C238.359 93.9606 238.41 93.9082 238.472 93.9082C238.472 93.9082 246.064 93.8932 254.772 93.8857V94.0025Z" fill="#F7CD81"/>
<path d="M254.795 116.446C246.088 116.453 238.495 116.468 238.495 116.468C238.432 116.468 238.381 116.416 238.381 116.352C238.381 116.352 246.028 116.337 254.795 116.329V116.446Z" fill="#D7B063"/>
<path d="M254.783 104.527L254.772 93.8855C260.73 93.8795 271.871 93.875 271.871 93.875C271.954 93.875 272.02 93.9438 272.02 94.0276L272.042 116.281C272.042 116.365 271.976 116.433 271.894 116.433C271.894 116.433 260.752 116.438 254.795 116.444L254.783 104.526" fill="#F7CD81"/>
<path d="M271.933 116.435H271.886L271.864 93.877H271.91C271.972 93.877 272.021 93.9278 272.021 93.9907L272.044 116.322C272.044 116.384 271.994 116.435 271.933 116.435Z" fill="#E8BD6D"/>
<path d="M254.772 93.8855C260.748 93.8795 271.906 93.875 271.906 93.875C271.969 93.875 272.02 93.9274 272.02 93.9917C272.02 93.9917 260.806 93.9962 254.772 94.0022V93.8855Z" fill="#F7CD81"/>
<path d="M254.795 116.329C260.829 116.323 272.042 116.318 272.042 116.318C272.042 116.383 271.991 116.435 271.928 116.435C271.928 116.435 260.769 116.44 254.795 116.446V116.329Z" fill="#D7B063"/>
<path d="M261.742 100.074L262.153 99.6892L262.566 100.072L262.978 99.6892L263.389 100.072L263.801 99.6877L264.214 100.071L264.625 99.6877L265.037 100.071L265.45 99.6862L265.861 100.069L266.273 99.6862L266.481 99.8793L266.475 93.8857L261.42 93.8917L261.424 99.779L261.742 100.074Z" fill="#D7B063"/>
<path d="M269.163 113.791L261.269 113.807C260.742 113.807 260.312 113.367 260.308 112.821L260.267 107.986C260.263 107.439 260.687 106.996 261.212 106.995L269.106 106.979C269.633 106.979 270.062 107.418 270.067 107.965L270.107 112.8C270.112 113.346 269.688 113.789 269.163 113.791Z" fill="white"/>
<path d="M264.432 108.614C264.335 108.614 264.256 108.535 264.256 108.439C264.256 108.342 264.334 108.262 264.431 108.262L268.236 108.255C268.334 108.255 268.413 108.334 268.413 108.43C268.413 108.527 268.335 108.607 268.238 108.607L264.432 108.614Z" fill="#9E9E9E"/>
<path d="M264.443 109.952C264.346 109.952 264.266 109.873 264.266 109.777C264.266 109.68 264.344 109.6 264.441 109.6L268.236 109.593C268.334 109.593 268.413 109.672 268.413 109.768C268.413 109.865 268.335 109.944 268.238 109.944L264.443 109.952Z" fill="#9E9E9E"/>
<path d="M264.453 111.29C264.356 111.29 264.277 111.211 264.277 111.115C264.277 111.017 264.354 110.938 264.452 110.938L268.235 110.931C268.332 110.931 268.411 111.01 268.411 111.106C268.411 111.203 268.334 111.282 268.236 111.282L264.453 111.29Z" fill="#9E9E9E"/>
<path d="M264.465 112.627C264.368 112.627 264.289 112.548 264.289 112.452C264.289 112.355 264.367 112.276 264.464 112.276L268.742 112.267C268.84 112.267 268.919 112.346 268.919 112.442C268.919 112.539 268.841 112.618 268.744 112.618L264.465 112.627Z" fill="#9E9E9E"/>
<path d="M250.898 154.931C238.677 154.942 228.022 154.963 228.022 154.963C227.907 154.963 227.814 154.857 227.813 154.725L227.774 116.717C227.774 116.585 227.867 116.479 227.982 116.479C227.982 116.479 238.637 116.458 250.858 116.447L250.896 154.931H250.898Z" fill="#F7CD81"/>
<path d="M250.898 154.931C248.575 154.933 228.022 154.963 228.022 154.963C227.907 154.963 227.814 154.857 227.813 154.725L227.774 116.717C227.774 116.585 227.867 116.479 227.982 116.479C227.982 116.479 248.535 116.45 250.858 116.447L250.896 154.931H250.898Z" fill="#D7AC58"/>
<path d="M250.859 116.628C238.529 116.638 227.775 116.659 227.775 116.659C227.775 116.559 227.847 116.477 227.936 116.477C227.936 116.477 238.613 116.456 250.861 116.445V116.628H250.859Z" fill="#F7CD81"/>
<path d="M250.898 154.931C238.652 154.941 227.973 154.962 227.973 154.962C227.885 154.962 227.813 154.881 227.813 154.779C227.813 154.779 238.568 154.759 250.897 154.748V154.931H250.898Z" fill="#D7B063"/>
<path d="M250.877 136.343L250.859 116.445C259.238 116.438 274.908 116.435 274.908 116.435C275.023 116.435 275.116 116.541 275.117 116.673L275.156 154.681C275.156 154.813 275.064 154.919 274.948 154.919C274.948 154.919 259.278 154.923 250.899 154.929L250.878 136.341" fill="#F7CD81"/>
<path d="M274.999 154.919H274.935L274.896 116.435H274.96C275.046 116.435 275.116 116.514 275.116 116.611L275.155 154.741C275.155 154.838 275.086 154.919 274.999 154.919Z" fill="#E8BD6D"/>
<path d="M250.859 116.447C259.263 116.44 274.957 116.437 274.957 116.437C275.046 116.437 275.117 116.517 275.117 116.619C275.117 116.619 259.346 116.624 250.859 116.63V116.447Z" fill="#F7CD81"/>
<path d="M250.896 154.748C259.383 154.74 275.155 154.737 275.155 154.737C275.155 154.838 275.083 154.92 274.995 154.92C274.995 154.92 259.301 154.924 250.896 154.93V154.748Z" fill="#D7B063"/>
<path d="M261.643 123.799L262.084 123.341L262.527 123.797L262.969 123.341L263.412 123.797L263.853 123.339L264.295 123.796L264.736 123.339L265.179 123.796L265.621 123.338L266.064 123.794L266.505 123.338L266.726 123.567L266.72 116.438L261.296 116.442L261.303 123.447L261.643 123.799Z" fill="#D7B063"/>
<path d="M225.002 226.922C196.802 226.95 172.215 227 172.215 227C171.948 227 171.733 226.781 171.733 226.51L171.664 155.22C171.664 154.949 171.879 154.73 172.144 154.73C172.144 154.73 196.732 154.681 224.932 154.652L225.001 226.922H225.002Z" fill="#F7CD81"/>
<path d="M225.002 226.922C219.643 226.928 172.215 227 172.215 227C171.948 227 171.733 226.781 171.733 226.51L171.664 155.22C171.664 154.949 171.879 154.73 172.144 154.73C172.144 154.73 219.573 154.658 224.932 154.652L225.001 226.922H225.002Z" fill="#D7AC58"/>
<path d="M224.934 155.026C196.482 155.055 171.664 155.104 171.664 155.104C171.664 154.898 171.828 154.73 172.032 154.73C172.032 154.73 196.673 154.681 224.934 154.652V155.026Z" fill="#F7CD81"/>
<path d="M225.002 226.922C196.742 226.95 172.101 227 172.101 227C171.897 227 171.733 226.832 171.733 226.626C171.733 226.626 196.551 226.576 225.002 226.548V226.922Z" fill="#D7B063"/>
<path d="M224.966 188.743L224.933 154.653C244.268 154.633 280.43 154.615 280.43 154.615C280.696 154.615 280.912 154.834 280.912 155.105L280.981 226.395C280.981 226.666 280.765 226.885 280.5 226.885C280.5 226.885 244.339 226.903 225.004 226.922L224.968 188.743" fill="#F7CD81"/>
<path d="M280.622 226.887H280.472L280.403 154.617H280.553C280.75 154.617 280.912 154.78 280.912 154.981L280.981 226.521C280.981 226.722 280.821 226.887 280.623 226.887H280.622Z" fill="#E8BD6D"/>
<path d="M224.933 154.653C244.327 154.633 280.544 154.615 280.544 154.615C280.747 154.615 280.912 154.783 280.912 154.989C280.912 154.989 244.517 155.007 224.933 155.027V154.653Z" fill="#F7CD81"/>
<path d="M225.002 226.548C244.586 226.529 280.981 226.511 280.981 226.511C280.981 226.717 280.816 226.885 280.613 226.885C280.613 226.885 244.397 226.903 225.002 226.922V226.548Z" fill="#D7B063"/>
<path d="M251.987 163.741L252.601 163.175L253.216 163.74L253.831 163.174L254.446 163.738L255.06 163.174L255.675 163.738L256.288 163.172L256.903 163.737L257.518 163.171L258.134 163.735L258.747 163.169L259.057 163.454L259.049 154.629L251.507 154.636L251.514 163.307L251.987 163.741Z" fill="#D7B063"/>
<path d="M273.362 178.947L263.901 181.813C263.27 182.005 262.632 181.581 262.476 180.869L261.092 174.555C260.937 173.843 261.321 173.109 261.951 172.918L271.412 170.052C272.042 169.86 272.681 170.284 272.837 170.996L274.221 177.31C274.377 178.022 273.992 178.756 273.362 178.947Z" fill="white"/>
<path d="M262.999 174.789C262.922 174.789 262.854 174.739 262.83 174.663C262.801 174.57 262.854 174.472 262.948 174.443L271.227 171.936C271.321 171.908 271.418 171.96 271.447 172.055C271.475 172.147 271.423 172.246 271.328 172.275L263.05 174.781C263.033 174.786 263.015 174.789 262.999 174.789Z" fill="#9E9E9E"/>
<path d="M263.382 176.535C263.305 176.535 263.237 176.485 263.213 176.409C263.184 176.316 263.237 176.218 263.331 176.189L271.61 173.683C271.704 173.654 271.801 173.706 271.83 173.801C271.858 173.894 271.806 173.992 271.711 174.021L263.433 176.527C263.416 176.532 263.398 176.535 263.382 176.535Z" fill="#9E9E9E"/>
<path d="M263.765 178.283C263.689 178.283 263.62 178.234 263.596 178.157C263.567 178.064 263.62 177.966 263.713 177.937L271.991 175.431C272.084 175.402 272.183 175.455 272.211 175.549C272.24 175.642 272.187 175.74 272.095 175.769L263.816 178.275C263.799 178.28 263.781 178.283 263.765 178.283Z" fill="#9E9E9E"/>
<path d="M264.148 180.029C264.072 180.029 264.003 179.979 263.979 179.903C263.95 179.81 264.003 179.712 264.096 179.683L269.223 178.13C269.315 178.101 269.414 178.154 269.443 178.247C269.471 178.339 269.419 178.438 269.324 178.467L264.197 180.02C264.181 180.024 264.163 180.027 264.147 180.027L264.148 180.029Z" fill="#9E9E9E"/>
<path d="M188.381 157.29L180.541 156.885C180.019 156.858 179.634 156.359 179.684 155.773L180.116 150.577C180.165 149.99 180.628 149.537 181.15 149.564L188.99 149.969C189.513 149.996 189.897 150.494 189.848 151.081L189.415 156.277C189.366 156.864 188.904 157.317 188.381 157.29Z" fill="white"/>
<path d="M188.407 151.674C188.407 151.674 188.401 151.674 188.398 151.674L181.538 151.32C181.441 151.315 181.366 151.231 181.372 151.134C181.376 151.037 181.46 150.959 181.557 150.966L188.417 151.321C188.515 151.325 188.589 151.409 188.583 151.507C188.579 151.601 188.501 151.674 188.408 151.674H188.407Z" fill="#9E9E9E"/>
<path d="M188.287 153.112C188.287 153.112 188.281 153.112 188.278 153.112L181.418 152.757C181.321 152.753 181.246 152.669 181.252 152.572C181.256 152.474 181.343 152.4 181.437 152.406L188.297 152.76C188.395 152.765 188.47 152.849 188.464 152.946C188.459 153.04 188.381 153.113 188.289 153.113L188.287 153.112Z" fill="#9E9E9E"/>
<path d="M188.167 154.55C188.167 154.55 188.161 154.55 188.158 154.55L181.298 154.196C181.201 154.191 181.126 154.107 181.132 154.01C181.137 153.913 181.219 153.838 181.318 153.844L188.178 154.199C188.275 154.203 188.35 154.287 188.344 154.384C188.339 154.479 188.262 154.552 188.169 154.552L188.167 154.55Z" fill="#9E9E9E"/>
<path d="M185.436 155.853C185.436 155.853 185.43 155.853 185.427 155.853L181.179 155.633C181.081 155.629 181.007 155.545 181.013 155.448C181.017 155.351 181.102 155.274 181.198 155.282L185.447 155.502C185.544 155.506 185.619 155.59 185.613 155.687C185.608 155.782 185.53 155.855 185.438 155.855L185.436 155.853Z" fill="#9E9E9E"/>
<path d="M255.2 118.473C253.773 118.469 252.471 118.258 251.525 118.015C251.049 117.891 250.675 117.755 250.4 117.605C250.117 117.456 249.952 117.293 249.933 117.102C249.924 117.026 249.921 116.95 249.907 116.874L249.862 116.643L249.779 116.182C249.75 116.028 249.699 115.874 249.662 115.72C249.62 115.566 249.588 115.41 249.541 115.256C249.262 114.311 248.846 113.36 248.339 112.415C247.826 111.471 247.23 110.53 246.524 109.617C245.822 108.704 245.053 107.808 244.219 106.94C243.376 106.076 242.486 105.235 241.549 104.423C239.665 102.803 237.619 101.292 235.467 99.8926C234.391 99.1923 233.294 98.5159 232.171 97.8709C231.053 97.2199 229.909 96.6018 228.754 96.0047L228.283 95.7623C228.048 95.6381 227.707 95.4151 227.359 95.0814C227.012 94.7447 226.653 94.3122 226.375 93.7659C225.822 92.6765 225.574 91.156 226.454 89.1657C227.37 87.0915 228.72 86.2729 229.99 86.0724C230.625 85.9706 231.237 86.0155 231.752 86.1293C232.269 86.2385 232.694 86.4046 232.959 86.5423L233.489 86.8132C234.788 87.4821 236.075 88.1795 237.344 88.9187C238.616 89.649 239.87 90.4227 241.111 91.2294C243.589 92.8411 246 94.6145 248.306 96.5958C249.457 97.5925 250.576 98.6475 251.661 99.7624C252.742 100.886 253.779 102.085 254.757 103.363L255.479 104.34L256.166 105.361C256.282 105.528 256.392 105.705 256.498 105.883L256.821 106.417C256.927 106.597 257.038 106.771 257.14 106.955L257.441 107.511C258.238 108.997 258.94 110.588 259.446 112.294C259.531 112.573 259.599 112.861 259.675 113.144C259.745 113.43 259.826 113.711 259.884 114.002L260.049 114.879L260.128 115.317C260.152 115.464 260.166 115.615 260.185 115.763C260.229 116.134 260.124 116.507 259.896 116.844C259.663 117.182 259.287 117.487 258.831 117.733C257.914 118.229 256.628 118.475 255.202 118.472L255.2 118.473Z" fill="#FFAE12"/>
<path d="M251.663 118.05C251.148 117.923 250.736 117.782 250.441 117.627C250.135 117.471 249.954 117.302 249.934 117.103C249.925 117.026 249.922 116.95 249.909 116.874L249.864 116.643L249.78 116.182C249.752 116.028 249.701 115.874 249.663 115.72C249.621 115.566 249.59 115.41 249.542 115.256C249.264 114.312 248.848 113.36 248.34 112.416C247.827 111.471 247.231 110.53 246.525 109.617C245.823 108.704 245.054 107.808 244.22 106.94C243.378 106.077 242.488 105.235 241.551 104.423C239.667 102.804 237.621 101.292 235.469 99.8929C234.393 99.1926 233.296 98.5162 232.172 97.8712C231.054 97.2202 229.911 96.6021 228.756 96.005L228.284 95.7626C227.885 95.5531 227.368 95.1266 226.931 94.5878C226.488 94.0626 226.125 93.428 226.024 92.8369C227.198 93.3816 228.366 93.9398 229.513 94.5369C230.692 95.1445 231.858 95.7761 233 96.4405C234.146 97.099 235.27 97.7904 236.371 98.5087C238.576 99.9408 240.68 101.496 242.631 103.172C243.602 104.014 244.529 104.89 245.41 105.792C246.284 106.701 247.095 107.645 247.841 108.616C248.592 109.586 249.235 110.6 249.795 111.63C250.349 112.661 250.811 113.715 251.125 114.78C251.446 115.865 251.63 116.958 251.667 118.046L251.663 118.05Z" fill="#F09E00"/>
<path d="M216.191 159.56C224.398 159.56 231.051 153.409 231.051 145.82C231.051 138.232 224.398 132.081 216.191 132.081C207.984 132.081 201.331 138.232 201.331 145.82C201.331 153.409 207.984 159.56 216.191 159.56Z" fill="#082640"/>
<path d="M218.049 157.3C226.188 156.112 227.825 150.425 227.825 142.838C227.825 139.804 226.759 137.003 224.959 134.729C228.651 137.229 231.05 141.265 231.05 145.82C231.05 153.409 224.396 159.56 216.189 159.56C211.263 159.56 206.898 157.342 204.195 153.928C206.654 155.592 211.73 158.223 218.048 157.301L218.049 157.3Z" fill="#082640"/>
<path d="M222.934 137.34C222.964 137.912 222.99 138.477 222.997 139.025C223.033 141.123 222.844 143.07 222.358 144.586C222.117 145.345 221.81 145.985 221.451 146.51C221.089 147.039 220.676 147.462 220.163 147.835C220.083 147.889 220.017 147.953 219.932 148.002C219.845 148.05 219.76 148.101 219.676 148.152C219.519 148.264 219.316 148.344 219.13 148.439C218.955 148.543 218.75 148.64 218.579 148.785C218.49 148.854 218.416 148.944 218.323 149.02C218.234 149.098 218.147 149.185 218.063 149.279C217.743 149.671 217.403 150.113 217.137 150.663C217.005 150.943 216.866 151.211 216.755 151.512C216.641 151.81 216.546 152.124 216.472 152.45C216.326 153.104 216.266 153.806 216.352 154.521C216.495 155.723 217.056 156.769 218.008 157.514C218.183 157.656 218.376 157.785 218.579 157.887C219.229 158.221 219.998 158.466 220.86 158.46C221.074 158.465 221.294 158.457 221.515 158.442C221.737 158.429 221.966 158.376 222.195 158.328C222.653 158.221 223.118 158.095 223.578 157.858C224.04 157.633 224.501 157.419 224.95 157.134L225.625 156.726C225.848 156.586 226.063 156.42 226.28 156.266C227.739 155.214 229.047 153.867 230.056 152.381C231.071 150.897 231.792 149.301 232.286 147.741C232.783 146.175 233.065 144.64 233.23 143.158C233.393 141.677 233.435 140.245 233.414 138.862C233.404 138.134 233.372 137.425 233.335 136.723C233.26 135.435 232.768 134.256 231.946 133.425C231.886 133.364 231.822 133.304 231.758 133.245C231.699 133.193 231.638 133.141 231.576 133.09C231.392 132.937 231.199 132.798 230.997 132.677C230.761 132.533 230.512 132.406 230.254 132.298C229.996 132.193 229.728 132.107 229.451 132.038C228.899 131.902 228.313 131.845 227.711 131.887C226.942 131.942 226.225 132.157 225.592 132.518C225.275 132.701 224.98 132.91 224.71 133.15C224.44 133.392 224.194 133.655 223.979 133.94C223.202 134.96 222.867 136.186 222.934 137.334V137.34Z" fill="#082640"/>
<path d="M230.999 132.683C231.086 133.652 231.186 134.673 231.264 135.712C231.342 136.752 231.4 137.816 231.418 138.898C231.437 140.218 231.397 141.567 231.244 142.946C231.092 144.322 230.83 145.731 230.382 147.14C229.936 148.547 229.294 149.96 228.405 151.26C227.521 152.562 226.385 153.733 225.107 154.654L224.696 154.952C224.558 155.051 224.413 155.13 224.271 155.219C223.983 155.388 223.699 155.572 223.407 155.723L222.521 156.157C222.373 156.233 222.223 156.293 222.074 156.35L221.623 156.526C221.023 156.781 220.419 156.935 219.814 157.122C219.512 157.206 219.211 157.264 218.91 157.335C218.609 157.397 218.305 157.48 218.008 157.519C218.183 157.661 218.376 157.79 218.579 157.891C219.229 158.225 219.998 158.47 220.86 158.464C221.074 158.469 221.294 158.461 221.516 158.447C221.737 158.433 221.966 158.381 222.195 158.333C222.653 158.225 223.118 158.099 223.578 157.863C224.04 157.637 224.501 157.423 224.95 157.139L225.625 156.73C225.848 156.591 226.063 156.425 226.28 156.271C227.739 155.219 229.047 153.872 230.056 152.386C231.071 150.901 231.792 149.306 232.286 147.745C232.783 146.18 233.066 144.644 233.23 143.163C233.393 141.681 233.435 140.249 233.414 138.866C233.396 137.811 233.344 136.782 233.272 135.782C233.031 134.845 232.561 134.049 231.946 133.431C231.886 133.37 231.822 133.31 231.758 133.251C231.699 133.199 231.638 133.147 231.577 133.096C231.392 132.943 231.199 132.804 230.997 132.683H230.999Z" fill="#082640"/>
<path d="M253.104 110.524C252.498 110.844 246.548 112.963 245.942 113.282C243.686 114.473 242.823 117.267 244.014 119.524C245.205 121.78 247.999 122.642 250.256 121.451C250.862 121.131 256.812 119.012 257.418 118.693C259.673 117.502 260.537 114.708 259.346 112.451C258.155 110.196 255.361 109.332 253.104 110.524Z" fill="#FFAE12"/>
<path d="M245.799 121.373C247.127 122.134 248.803 122.221 250.256 121.453C250.862 121.133 256.812 119.013 257.418 118.693C258.94 117.89 259.826 116.357 259.878 114.753L245.799 121.373Z" fill="#F09E00"/>
<path d="M246.904 121.224C248.815 121.224 250.365 119.674 250.365 117.762C250.365 115.851 248.815 114.301 246.904 114.301C244.992 114.301 243.442 115.851 243.442 117.762C243.442 119.674 244.992 121.224 246.904 121.224Z" fill="#F09E00"/>
<path d="M246.286 120.816C247.78 120.816 248.991 119.604 248.991 118.11C248.991 116.616 247.78 115.404 246.286 115.404C244.791 115.404 243.58 116.616 243.58 118.11C243.58 119.604 244.791 120.816 246.286 120.816Z" fill="#FFD7BE"/>
<path d="M216.695 85.7151C220.905 85.8647 223.703 83.1186 222.496 82.2073C221.288 81.2959 211.441 80.9786 210.323 82.2073C209.196 83.4464 214.114 85.6238 216.695 85.7151Z" fill="#F09E00"/>
<path d="M236.807 89.7645C234.9 87.4434 229.595 84.2109 216.99 84.2109C204.385 84.2109 199.08 87.4434 197.173 89.7645C195.267 92.0856 203.43 137.591 203.43 137.591C203.43 137.591 203.072 139.724 216.99 139.724C230.908 139.724 230.55 137.591 230.55 137.591C230.55 137.591 238.713 92.0856 236.807 89.7645Z" fill="#FFAE12"/>
<path d="M230.717 136.657C228.859 136.826 226.44 136.936 223.287 136.936C209.37 136.936 209.727 134.803 209.727 134.803C209.727 134.803 201.564 89.2973 203.471 86.9762C203.849 86.5153 204.364 86.017 205.042 85.5156C200.659 86.6694 198.312 88.3784 197.175 89.7627C195.268 92.0838 203.432 137.59 203.432 137.59C203.432 137.59 203.074 139.722 216.991 139.722C230.909 139.722 230.551 137.59 230.551 137.59C230.551 137.59 230.611 137.26 230.717 136.657Z" fill="#F09E00"/>
<path d="M216.414 89.1682C212.81 89.1682 210.126 86.4101 210.395 83.2719L211.663 68.5029C211.688 68.2216 211.715 67.9447 211.739 67.6783C212.001 65.9903 214.043 64.7197 216.415 64.7197C218.787 64.7197 220.83 65.9903 221.092 67.6783C221.117 67.9447 221.143 68.2216 221.168 68.5029L222.436 83.2719C222.705 86.4101 220.021 89.1682 216.417 89.1682H216.414Z" fill="#FFD7BE"/>
<path d="M213.773 83.2719L214.329 68.5029C214.341 68.2231 214.355 67.9462 214.367 67.6783C214.515 66.2896 215.88 65.1881 217.661 64.8394C217.264 64.7631 216.846 64.7197 216.415 64.7197C214.043 64.7197 212.001 65.9903 211.739 67.6783C211.713 67.9447 211.688 68.2216 211.663 68.5029L210.395 83.2719C210.126 86.4101 212.81 89.1682 216.414 89.1682C217.05 89.1682 217.662 89.0754 218.238 88.9093C215.544 88.1461 213.675 85.8355 213.773 83.2719Z" fill="#F5BE97"/>
<path d="M228.589 139.249L218.153 144.183L210.176 141.099C207.324 139.996 205.507 137.181 205.675 134.128L206.884 112.173C206.983 110.375 208.469 108.969 210.269 108.969H224.028C225.843 108.969 227.337 110.398 227.415 112.212L228.589 139.249Z" fill="#082640"/>
<path d="M229.062 139.249L218.334 145.189L205.865 140.404L207.356 112.173C207.454 110.375 208.94 108.969 210.741 108.969H224.5C226.315 108.969 227.808 110.398 227.886 112.212L229.061 139.249H229.062Z" fill="#082640"/>
<path d="M210.325 82.208C210.325 84.5665 222.497 84.77 222.497 82.208C224.989 83.8781 225.653 90.2188 216.992 90.2188C204.71 90.2188 210.325 82.208 210.325 82.208Z" fill="#FFAE12"/>
<path d="M218.292 89.4052C209.493 89.4052 209.88 85.2928 210.808 82.9598C210.501 82.7398 210.325 82.4884 210.325 82.207C210.325 82.207 204.71 90.2178 216.992 90.2178C219.778 90.2178 221.599 89.5609 222.704 88.6151C221.625 89.1029 220.179 89.4052 218.292 89.4052Z" fill="#F09E00"/>
<path d="M225.176 113.984C224.528 113.984 223.923 113.726 223.474 113.261C223.024 112.794 222.79 112.179 222.814 111.531C223.013 106.266 223.938 93.1479 228.208 85.0443L228.274 85.0039L232.6 86.1532L232.497 86.2655C228.263 94.3032 227.62 106.705 227.539 111.664C227.518 112.944 226.458 113.985 225.177 113.985L225.176 113.984Z" fill="#082640"/>
<path d="M232.693 86.1815L228.717 85.125C224.461 93.2046 223.542 106.299 223.344 111.537C223.298 112.776 224.289 113.807 225.529 113.807C226.722 113.807 227.696 112.852 227.716 111.66C227.796 106.7 228.438 94.2612 232.694 86.1815H232.693Z" fill="#082640"/>
<path d="M208.342 64.3075C206.815 53.7691 210.795 50.1894 216.622 50.2508C221.418 50.3017 227.123 51.9957 225.013 63.3452C222.903 74.6947 208.34 64.3075 208.34 64.3075H208.342Z" fill="#915C3B"/>
<path d="M227.743 66.3058C227.988 64.799 226.965 63.3792 225.458 63.1346C223.951 62.89 222.531 63.9133 222.287 65.4201C222.042 66.9269 223.065 68.3467 224.572 68.5913C226.079 68.8359 227.499 67.8127 227.743 66.3058Z" fill="#F5BE97"/>
<path d="M225.013 68.378C226.403 68.378 227.53 67.251 227.53 65.8609C227.53 64.4707 226.403 63.3438 225.013 63.3438C223.623 63.3438 222.496 64.4707 222.496 65.8609C222.496 67.251 223.623 68.378 225.013 68.378Z" fill="#FFD7BE"/>
<path d="M226.523 66.2176C226.72 65.3819 226.202 64.5444 225.367 64.3472C224.531 64.1499 223.693 64.6675 223.496 65.5033C223.299 66.3391 223.817 67.1765 224.652 67.3738C225.488 67.571 226.326 67.0534 226.523 66.2176Z" fill="#F5BE97"/>
<path d="M210.296 67.8148C211.375 66.7354 211.375 64.9853 210.296 63.9059C209.217 62.8264 207.467 62.8264 206.387 63.9059C205.308 64.9853 205.308 66.7354 206.387 67.8148C207.467 68.8943 209.217 68.8943 210.296 67.8148Z" fill="#F5BE97"/>
<path d="M208.342 68.378C209.732 68.378 210.859 67.251 210.859 65.8609C210.859 64.4707 209.732 63.3438 208.342 63.3438C206.952 63.3438 205.825 64.4707 205.825 65.8609C205.825 67.251 206.952 68.378 208.342 68.378Z" fill="#FFD7BE"/>
<path d="M209.441 66.9598C210.048 66.3526 210.048 65.3681 209.441 64.7609C208.834 64.1537 207.849 64.1537 207.242 64.7609C206.635 65.3681 206.635 66.3526 207.242 66.9598C207.849 67.567 208.834 67.567 209.441 66.9598Z" fill="#F5BE97"/>
<path d="M224.796 59.1367C224.796 54.6622 221.168 51.0361 216.695 51.0361C212.222 51.0361 208.595 54.6637 208.595 59.1367V72.3913C208.595 76.8659 212.222 80.4919 216.695 80.4919C221.168 80.4919 224.796 76.8644 224.796 72.3913V59.1367Z" fill="#FFD7BE"/>
<path d="M210.904 61.5656C210.845 61.5656 210.787 61.5461 210.739 61.5072C210.625 61.4159 210.607 61.2498 210.699 61.1361C212.255 59.1966 214.875 59.3508 214.986 59.3582C215.131 59.3687 215.242 59.4944 215.232 59.6396C215.221 59.7848 215.094 59.891 214.95 59.885C214.925 59.8835 212.49 59.7443 211.11 61.4668C211.058 61.5312 210.982 61.5656 210.904 61.5656Z" fill="#915C3B"/>
<path d="M221.571 59.8804C221.499 59.8804 221.427 59.8505 221.375 59.7921C220.624 58.9571 219.839 58.5845 218.832 58.5845C218.687 58.5845 218.567 58.4662 218.567 58.3196C218.567 58.1729 218.686 58.0547 218.832 58.0547C219.988 58.0547 220.92 58.4932 221.768 59.4375C221.866 59.5467 221.857 59.7128 221.749 59.8101C221.698 59.855 221.635 59.8774 221.572 59.8774L221.571 59.8804Z" fill="#915C3B"/>
<path d="M218.295 65.1411C218.295 64.1489 217.49 63.3438 216.498 63.3438C215.506 63.3438 214.7 64.1489 214.7 65.1411V68.5336C214.7 69.5258 215.506 70.3309 216.498 70.3309C217.49 70.3309 218.295 69.5258 218.295 68.5336V65.1411Z" fill="#FFD7BE"/>
<path d="M216.983 69.5617C216.13 69.5617 215.437 68.8703 215.437 68.0158V63.6924C214.992 64.0201 214.702 64.5454 214.702 65.1395V68.5321C214.702 69.5243 215.507 70.3294 216.499 70.3294C217.372 70.3294 218.097 69.7083 218.261 68.8838C217.982 69.2923 217.514 69.5602 216.983 69.5602V69.5617Z" fill="#F5BE97"/>
<path d="M213.822 63.9432C213.822 64.4101 213.535 64.7887 213.18 64.7887C212.825 64.7887 212.538 64.4101 212.538 63.9432C212.538 63.4763 212.825 63.0977 213.18 63.0977C213.535 63.0977 213.822 63.4763 213.822 63.9432Z" fill="#915C3B"/>
<path d="M220.067 63.9432C220.067 64.4101 219.78 64.7887 219.425 64.7887C219.07 64.7887 218.783 64.4101 218.783 63.9432C218.783 63.4763 219.07 63.0977 219.425 63.0977C219.78 63.0977 220.067 63.4763 220.067 63.9432Z" fill="#915C3B"/>
<path d="M224.628 67.6663C224.628 70.2104 223.286 72.4536 221.243 73.7795C221.39 73.588 221.523 73.3859 221.637 73.1734C221.964 72.5644 221.946 71.8445 221.589 71.2504C221.234 70.6593 220.588 70.2927 219.901 70.2927C219.787 70.2927 219.673 70.3031 219.561 70.3226C218.669 70.4767 217.72 70.5561 216.739 70.5561C215.757 70.5561 214.808 70.4782 213.916 70.3226C213.804 70.3031 213.69 70.2927 213.577 70.2927C212.89 70.2927 212.243 70.6593 211.888 71.2504C211.531 71.8445 211.514 72.5644 211.841 73.1734C211.844 73.1779 211.847 73.1839 211.85 73.1884C210.259 71.8371 209.255 69.8647 209.255 67.6663V55.9531C208.921 56.6969 208.695 57.499 208.599 58.3416C208.598 58.4119 208.593 58.4822 208.593 58.5526V72.5703C208.593 77.1661 212.141 80.4914 216.939 80.4914C217.973 80.4914 218.962 80.3028 219.877 79.9601C222.768 78.7195 224.794 75.8537 224.794 72.5165V59.2619C224.794 58.6962 224.736 58.1455 224.625 57.6128V67.6678L224.628 67.6663Z" fill="#F5BE97"/>
<path d="M216.499 72.2287C215.441 72.2287 214.434 72.1404 213.518 71.9803C213.113 71.9099 212.794 72.3409 212.988 72.7031C213.58 73.806 214.928 74.5767 216.499 74.5767C218.071 74.5767 219.419 73.806 220.01 72.7031C220.205 72.3409 219.886 71.9099 219.48 71.9803C218.564 72.1404 217.557 72.2287 216.499 72.2287Z" fill="white"/>
<path d="M216.499 74.8914C214.862 74.8914 213.376 74.0908 212.712 72.8517C212.565 72.5793 212.589 72.2531 212.771 72.0002C212.957 71.7443 213.264 71.6186 213.572 71.6724C214.498 71.8341 215.483 71.9164 216.499 71.9164C217.515 71.9164 218.499 71.8341 219.426 71.6724C219.735 71.6186 220.042 71.7443 220.227 72.0002C220.41 72.2531 220.432 72.5793 220.287 72.8517C219.624 74.0908 218.136 74.8914 216.499 74.8914ZM213.431 72.286C213.346 72.286 213.295 72.3459 213.28 72.3668C213.261 72.3953 213.219 72.4686 213.265 72.5554C213.822 73.594 215.091 74.2644 216.499 74.2644C217.907 74.2644 219.178 73.594 219.733 72.5554C219.78 72.4686 219.738 72.3953 219.718 72.3668C219.702 72.3444 219.639 72.2726 219.534 72.289C218.572 72.4566 217.551 72.5419 216.499 72.5419C215.447 72.5419 214.427 72.4566 213.464 72.289C213.452 72.2875 213.442 72.286 213.431 72.286Z" fill="#F28A7E"/>
<path d="M208.595 62.7998C209.133 56.4337 209.677 53.3568 213.18 52.7478C216.685 52.1387 217.954 53.1309 219.845 54.2113C221.201 54.985 223.016 54.7875 223.016 54.7875C223.016 54.7875 221.717 55.0045 222.952 57.6189C224.187 60.2333 225.049 61.4664 225.013 62.6023C225.249 56.9544 224.875 50.2546 217.427 50.5599C205.825 51.0358 208.595 62.7998 208.595 62.7998Z" fill="#915C3B"/>
<path d="M217.198 54.4017C219.437 54.4017 221.195 54.7759 222.958 55.6229C224.796 56.5058 225.242 57.4726 225.447 58.1894C225.637 58.1026 225.728 57.923 225.715 57.6626C225.671 56.8844 225.715 55.2802 225.715 54.924C225.715 50.1023 222.702 47 216.564 47C209.171 47 207.534 50.4809 207.534 55.3026V57.923C209.662 55.786 213.364 54.4017 217.197 54.4017H217.198Z" fill="#FFAE12"/>
<path d="M210.377 55.5782V52.9578C210.377 50.966 210.658 49.2031 211.508 47.8203C208.367 49.1223 207.537 51.8729 207.537 55.3043V57.9247C208.589 56.8682 210.027 55.9972 211.673 55.3852C211.208 55.1577 210.775 55.1801 210.377 55.5797V55.5782Z" fill="#F09E00"/>
<path d="M222.958 55.2126V55.6227C222.49 55.4177 221.538 54.6155 221.026 54.4659C219.86 54.1262 218.588 53.9406 217.256 53.9406C213.192 53.9406 209.684 55.6766 208.044 58.1907L205.599 55.9609C205.332 55.7185 205.177 55.7349 205.145 55.4012C205.138 55.3219 205.144 54.9014 205.15 54.8221C205.174 54.5213 205.296 54.2279 205.524 53.9945C207.371 52.0864 210.414 50.8398 213.856 50.8398C215.889 50.8398 217.783 51.2738 219.374 52.0236C219.498 52.0819 219.61 52.1598 219.712 52.2525L222.96 55.2156L222.958 55.2126Z" fill="#FFD47D"/>
<path d="M222.958 55.6228C221.33 54.8192 219.368 54.3508 217.255 54.3508C213.19 54.3508 209.683 56.0867 208.042 58.6008L205.597 56.3711C205.027 55.8518 204.985 54.9583 205.521 54.4046C207.368 52.4966 210.411 51.25 213.853 51.25C215.886 51.25 217.78 51.684 219.371 52.4337C219.495 52.4921 219.607 52.5699 219.709 52.6627L222.957 55.6258L222.958 55.6228Z" fill="#F09E00"/>
<path d="M226.584 112.763C227.231 112.116 227.231 111.067 226.584 110.42C225.937 109.773 224.888 109.773 224.241 110.42C223.595 111.067 223.595 112.116 224.241 112.763C224.888 113.41 225.937 113.41 226.584 112.763Z" fill="#FFAE12"/>
<path d="M226.348 111.593C226.348 112.109 225.929 112.528 225.412 112.528C224.896 112.528 224.477 112.109 224.477 111.593C224.477 111.076 224.896 110.657 225.412 110.657C225.929 110.657 226.348 111.076 226.348 111.593Z" fill="#F09E00"/>
<path d="M224.681 118.401H209.573C209.476 118.401 209.397 118.322 209.397 118.224C209.397 118.127 209.476 118.048 209.573 118.048H224.681C224.778 118.048 224.857 118.127 224.857 118.224C224.857 118.322 224.778 118.401 224.681 118.401Z" fill="#082640"/>
<path d="M229.423 226.088C231.404 224.73 232.519 223.023 232.65 221.151C232.816 218.758 231.413 216.19 228.483 213.52C227.3 212.442 226.038 210.898 224.703 209.262C221.397 205.217 217.652 200.632 213.996 202.395C213.693 202.542 213.416 202.699 213.176 202.865C209.672 205.265 212.581 209.511 216.984 215.935C217.72 217.01 218.44 218.171 219.136 219.293C221.373 222.903 223.486 226.314 226.101 226.903C227.117 227.132 228.145 226.918 229.155 226.267C229.247 226.209 229.336 226.149 229.425 226.088H229.423Z" fill="#AB785B"/>
<path d="M214.238 202.902C210.248 204.825 212.441 208.315 217.445 215.62C221.261 221.19 224.389 228.672 228.848 225.796C232.714 223.304 233.896 219.214 228.103 213.938C223.92 210.128 218.826 200.692 214.238 202.904V202.902Z" fill="#FFAE12"/>
<path d="M214.672 211.462C211.79 206.906 211.095 204.417 214.238 202.901C218.826 200.689 223.92 210.125 228.103 213.935C231.198 216.754 232.301 219.232 232.069 221.311C227.882 211.406 217.898 208.636 214.674 211.461L214.672 211.462Z" fill="#F09E00"/>
<path d="M222.807 224.309C222.737 224.309 222.669 224.266 222.642 224.197C222.395 223.558 223.343 222.407 223.928 221.777C225.629 219.949 229.197 217.313 231.527 218.026C231.62 218.054 231.672 218.153 231.644 218.246C231.615 218.338 231.517 218.392 231.424 218.362C229.365 217.734 225.951 220.121 224.185 222.017C223.205 223.07 222.868 223.807 222.97 224.07C223.005 224.161 222.96 224.263 222.87 224.297C222.849 224.305 222.828 224.309 222.807 224.309Z" fill="#AB785B"/>
<path d="M220.45 211.977C213.828 216.514 207.99 205.445 213.002 202.012C218.942 197.943 225.968 208.197 220.45 211.977Z" fill="#AB785B"/>
<path d="M219.319 210.485C214.69 213.656 210.607 205.919 214.111 203.518C218.264 200.674 223.175 207.842 219.319 210.485Z" fill="#85553A"/>
<path d="M222.413 217.934C222.374 217.934 222.336 217.921 222.303 217.894C222.228 217.833 222.216 217.722 222.277 217.646C222.785 217.023 223.76 216.125 225.519 215.374C225.608 215.335 225.712 215.377 225.749 215.467C225.788 215.556 225.746 215.66 225.656 215.697C223.962 216.42 223.031 217.276 222.55 217.867C222.515 217.911 222.464 217.931 222.413 217.931V217.934Z" fill="#AB785B"/>
<path d="M221.109 216.03C221.064 216.03 221.02 216.014 220.986 215.98C220.917 215.911 220.915 215.8 220.983 215.731C221.653 215.046 222.756 214.094 224.202 213.456C224.29 213.418 224.395 213.456 224.434 213.546C224.473 213.636 224.434 213.739 224.344 213.778C222.951 214.393 221.884 215.314 221.234 215.977C221.2 216.012 221.153 216.029 221.109 216.029V216.03Z" fill="#AB785B"/>
<path d="M219.733 214.024C219.685 214.024 219.637 214.004 219.601 213.965C219.537 213.893 219.543 213.781 219.615 213.717C220.305 213.097 221.436 212.22 222.903 211.565C222.991 211.526 223.096 211.565 223.136 211.653C223.177 211.741 223.136 211.846 223.048 211.887C221.623 212.524 220.523 213.377 219.851 213.98C219.817 214.01 219.775 214.025 219.733 214.025V214.024Z" fill="#AB785B"/>
<path d="M226.117 220.466C226.06 220.466 226.007 220.439 225.972 220.39L220 211.673C219.944 211.592 219.965 211.483 220.046 211.427C220.127 211.372 220.236 211.393 220.291 211.474L226.264 220.191C226.319 220.272 226.298 220.381 226.218 220.436C226.188 220.457 226.152 220.468 226.119 220.468L226.117 220.466Z" fill="#AB785B"/>
<path d="M176.949 153.817C173.445 154.745 169.913 155.622 166.398 156.404C165.893 156.801 165.775 158.29 166.124 159.981C166.33 160.982 166.68 161.846 167.068 162.414C167.337 162.809 167.617 163.061 167.885 163.118C171.534 162.305 175.125 161.412 178.714 160.463C179.45 160.265 179.643 158.619 179.146 156.786C178.649 154.953 177.666 153.625 176.949 153.818V153.817Z" fill="#FFD7BE"/>
<path d="M179.369 159.393C177.334 159.94 175.294 160.469 173.246 160.971C171.195 161.476 169.15 161.961 167.068 162.414C167.337 162.809 167.617 163.061 167.885 163.117C171.534 162.305 175.125 161.411 178.714 160.463C179.051 160.371 179.275 159.975 179.369 159.394V159.393Z" fill="#F5BE97"/>
<path d="M177.829 157.139C178.558 159.898 180.052 161.893 181.165 161.594L183.699 160.891C184.739 160.591 185.782 160.301 186.819 159.991L188.377 159.532L189.932 159.059C190.969 158.746 192.003 158.417 193.037 158.089C197.17 156.772 201.283 155.357 205.364 153.797C209.445 152.236 213.496 150.542 217.494 148.63C221.49 146.711 225.442 144.595 229.27 142.054L230.474 141.219L231.075 140.802C231.276 140.662 231.476 140.525 231.672 140.371C231.919 140.182 232.266 139.853 232.602 139.413C232.935 138.97 233.265 138.436 233.447 137.773C233.633 137.122 233.691 136.402 233.514 135.648C233.338 134.892 232.926 134.106 232.196 133.303C231.433 132.461 230.673 131.939 229.966 131.625C229.26 131.311 228.606 131.206 228.03 131.222C227.466 131.246 226.925 131.36 226.502 131.525C226.075 131.688 225.746 131.89 225.546 132.044C225.39 132.17 225.218 132.285 225.05 132.402L224.544 132.752L223.534 133.455C220.27 135.622 216.706 137.544 213.032 139.306C209.352 141.066 205.546 142.662 201.679 144.14C197.811 145.62 193.872 146.976 189.897 148.242C188.902 148.556 187.908 148.874 186.909 149.174L185.411 149.631L183.908 150.075C182.907 150.376 181.9 150.655 180.896 150.945L178.447 151.624C177.379 151.912 177.104 154.382 177.832 157.142L177.829 157.139Z" fill="#082640"/>
<path d="M179.267 160.395C179.894 161.277 180.584 161.749 181.165 161.592L183.699 160.889C184.739 160.59 185.782 160.299 186.819 159.99L188.377 159.53L189.932 159.057C190.969 158.744 192.003 158.415 193.037 158.088C197.17 156.771 201.283 155.355 205.364 153.796C209.445 152.235 213.496 150.541 217.494 148.628C221.49 146.71 225.442 144.594 229.27 142.052L230.473 141.217L231.075 140.8C231.276 140.661 231.476 140.523 231.672 140.369C232.093 140.049 232.604 139.452 232.998 138.786C233.095 138.616 233.19 138.453 233.267 138.271C233.345 138.09 233.414 137.909 233.468 137.731C233.577 137.373 233.634 137.026 233.616 136.713L232.98 137.256C232.768 137.437 232.557 137.621 232.337 137.783L231.026 138.787C230.806 138.952 230.59 139.127 230.367 139.282L229.697 139.749L228.354 140.68C224.778 143.058 221.059 145.068 217.288 146.897C213.515 148.721 209.679 150.349 205.813 151.852C201.944 153.353 198.041 154.726 194.116 156.007C190.19 157.287 186.241 158.474 182.271 159.577L180.771 159.993L179.269 160.397L179.267 160.395Z" fill="#082640"/>
<path d="M172.02 153.726L174.311 162.946C174.492 163.677 175.246 164.123 175.992 163.931C177.653 163.514 179.306 163.075 180.959 162.628C181.702 162.43 182.139 161.668 181.939 160.944L179.411 151.787C179.209 151.058 178.471 150.635 177.759 150.825C176.171 151.253 174.582 151.675 172.988 152.076C172.273 152.26 171.84 152.993 172.021 153.725L172.02 153.726Z" fill="#082640"/>
<path d="M175.318 161.277C176.964 160.862 178.603 160.428 180.242 159.985C180.978 159.789 181.411 159.03 181.21 158.305L181.939 160.945C182.139 161.669 181.702 162.431 180.959 162.628C179.306 163.074 177.653 163.513 175.992 163.932C175.246 164.123 174.492 163.677 174.311 162.947L173.651 160.289C173.832 161.019 174.58 161.467 175.318 161.277Z" fill="#082640"/>
<path d="M218.418 202.034C218.795 202.902 219.169 203.772 219.564 204.625C219.95 205.485 220.353 206.334 220.754 207.169C220.752 207.48 220.478 207.894 220.013 208.325C219.545 208.749 218.894 209.208 218.126 209.606C217.22 210.078 216.327 210.349 215.636 210.391C215.16 210.425 214.786 210.358 214.572 210.178C214.135 209.271 213.71 208.375 213.306 207.471C212.89 206.57 212.499 205.665 212.107 204.761C211.954 204.408 212.168 203.938 212.643 203.465C213.12 202.99 213.853 202.514 214.727 202.146C215.603 201.777 216.451 201.584 217.117 201.564C217.785 201.545 218.273 201.697 218.419 202.036L218.418 202.034Z" fill="#FFD7BE"/>
<path d="M212.532 203.58C213.517 205.862 214.516 208.12 215.636 210.391C215.16 210.425 214.786 210.358 214.572 210.178C214.135 209.271 213.71 208.375 213.306 207.471C212.89 206.57 212.499 205.665 212.107 204.761C211.966 204.438 212.137 204.013 212.533 203.58H212.532Z" fill="#F5BE97"/>
<path d="M217.661 208.665C216.143 209.406 214.644 209.825 213.452 209.889C212.263 209.955 211.357 209.663 211.074 209.027C210.374 207.505 209.714 205.985 209.068 204.458C208.936 204.139 208.967 203.768 209.138 203.373C209.181 203.274 209.232 203.174 209.292 203.072C209.323 203.021 209.355 202.971 209.388 202.918C209.418 202.857 209.449 202.795 209.484 202.734C209.62 202.489 209.789 202.243 209.988 202.001C210.383 201.51 210.911 201.064 211.531 200.646C212.149 200.23 212.866 199.852 213.648 199.536C214.431 199.22 215.208 198.997 215.943 198.86C216.677 198.723 217.367 198.667 217.991 198.725C218.301 198.75 218.591 198.798 218.859 198.867C218.927 198.885 218.991 198.903 219.055 198.922C219.114 198.934 219.172 198.946 219.229 198.958C219.341 198.984 219.447 199.014 219.545 199.05C219.938 199.19 220.214 199.407 220.336 199.705C220.938 201.124 221.551 202.538 222.189 203.922C222.451 204.507 222.078 205.302 221.258 206.163C220.438 207.02 219.18 207.922 217.662 208.665H217.661Z" fill="#082640"/>
<path d="M213.009 209.896C212.041 209.875 211.321 209.581 211.074 209.027C210.374 207.505 209.714 205.985 209.068 204.458C208.952 204.18 208.961 203.862 209.08 203.524C209.138 203.355 209.225 203.18 209.335 203.003C209.394 202.923 209.443 202.801 209.506 202.698C209.567 202.59 209.633 202.484 209.707 202.378L209.853 202.733L210.601 204.531L211.38 206.323C211.634 206.92 211.909 207.515 212.18 208.111L212.587 209.004L213.011 209.899L213.009 209.896Z" fill="#082640"/>
<path d="M219.531 199.617C219.92 200.575 218.041 202.299 215.297 203.495C212.559 204.688 209.964 204.83 209.545 203.802C209.439 203.547 209.478 203.245 209.641 202.92C209.662 202.88 209.683 202.838 209.706 202.797C209.729 202.748 209.751 202.699 209.774 202.648C209.822 202.548 209.879 202.446 209.941 202.344C210.067 202.141 210.223 201.937 210.404 201.733C211.13 200.927 212.289 200.189 213.674 199.623C215.062 199.07 216.411 198.79 217.491 198.835C217.762 198.847 218.014 198.878 218.246 198.926C218.361 198.95 218.472 198.98 218.575 199.013C218.626 199.031 218.677 199.049 218.726 199.065C218.771 199.076 218.816 199.088 218.858 199.101C219.197 199.204 219.432 199.375 219.531 199.614V199.617Z" fill="#71A6E0"/>
<path d="M215.263 203.397C212.646 204.535 210.138 204.587 209.696 203.507L209.09 202.044C208.713 201.138 208.367 200.22 208.004 199.307L207.468 197.937L206.957 196.558C206.621 195.638 206.269 194.722 205.944 193.799L204.982 191.023C204.823 190.559 204.657 190.099 204.506 189.632L204.057 188.233L203.159 185.436C202.869 184.501 202.603 183.558 202.323 182.62C202.05 181.679 201.762 180.743 201.501 179.799C199.405 172.248 197.726 164.569 196.539 156.792L196.34 155.313C196.262 154.737 196.308 153.526 196.914 152.402C197.52 151.277 198.686 150.252 200.844 150.006C203.101 149.751 204.499 150.452 205.347 151.338C206.197 152.226 206.501 153.311 206.573 153.854L206.758 155.246C207.876 162.576 209.466 169.852 211.457 177.023C211.704 177.919 211.978 178.81 212.237 179.703C212.504 180.595 212.756 181.49 213.032 182.38L213.886 185.04L214.313 186.369C214.455 186.812 214.615 187.249 214.765 187.688L215.678 190.327C215.986 191.205 216.32 192.073 216.64 192.946L217.125 194.254L217.632 195.551C217.976 196.413 218.302 197.286 218.66 198.142L219.232 199.521C219.643 200.533 217.879 202.258 215.26 203.397H215.263Z" fill="#082640"/>
<path d="M211.809 204.28C210.72 204.331 209.931 204.069 209.696 203.507L209.09 202.045C208.713 201.138 208.367 200.22 208.004 199.308L207.468 197.937L206.957 196.558C206.621 195.638 206.269 194.722 205.944 193.799L204.982 191.023C204.823 190.559 204.657 190.1 204.506 189.633L204.057 188.233L203.159 185.436C202.869 184.501 202.603 183.558 202.323 182.62C202.05 181.679 201.762 180.743 201.501 179.799C199.405 172.248 197.726 164.569 196.539 156.792L196.34 155.313C196.208 154.333 196.608 152.394 197.503 151.564L197.992 155.223L198.168 156.545C199.345 164.25 201.009 171.866 203.089 179.356C203.346 180.293 203.632 181.222 203.903 182.155C204.18 183.085 204.445 184.021 204.734 184.949L205.624 187.723L206.07 189.11C206.22 189.573 206.386 190.029 206.541 190.489L207.495 193.244C207.816 194.161 208.165 195.068 208.499 195.981L209.005 197.349L209.536 198.707C209.895 199.611 210.238 200.521 210.612 201.421L210.964 202.269C211.245 202.94 211.513 203.612 211.805 204.279L211.809 204.28Z" fill="#082640"/>
<path d="M163.55 155.853L168.026 154.685L171.695 164.026L158.816 166.957L156.887 162.047L155.298 158.003L153.216 152.705C153.216 152.705 156.563 150.127 159.46 153.154L161.17 155.092C161.767 155.769 162.712 156.07 163.55 155.853Z" fill="#FFAE12"/>
<path d="M171.104 162.521L171.695 164.027L164.219 165.728C164.219 165.728 161.133 168.177 159.586 167.844C158.572 167.625 158.71 166.688 158.376 165.838L171.103 162.521H171.104Z" fill="#F09E00"/>
<path d="M167.631 154.875L169.419 164.272C169.516 164.783 169.994 165.122 170.486 165.027L172.077 164.722C172.569 164.628 172.888 164.137 172.791 163.625L171.002 154.229C170.905 153.717 170.428 153.379 169.935 153.473L168.345 153.778C167.852 153.872 167.533 154.363 167.631 154.875Z" fill="#AB785B"/>
<path d="M162.094 159.526C162.083 159.526 162.074 159.526 162.064 159.523C161.968 159.507 161.904 159.416 161.92 159.32C162.098 158.271 162.14 156.719 161.33 155.284C161.283 155.198 161.312 155.092 161.398 155.044C161.483 154.996 161.589 155.026 161.637 155.112C162.498 156.637 162.454 158.274 162.267 159.38C162.252 159.465 162.177 159.526 162.094 159.526Z" fill="#AB785B"/>
<path d="M164.196 159.061C164.189 159.061 164.181 159.061 164.172 159.059C164.077 159.046 164.008 158.958 164.021 158.862C164.114 158.166 163.888 156.946 163.458 155.827C163.424 155.736 163.469 155.634 163.56 155.599C163.652 155.565 163.753 155.61 163.788 155.701C164.162 156.674 164.487 158.043 164.371 158.908C164.359 158.997 164.285 159.061 164.196 159.061Z" fill="#AB785B"/>
<path d="M166.128 158.475C166.037 158.475 165.959 158.403 165.953 158.31C165.881 157.207 165.684 156.258 165.35 155.405C165.314 155.316 165.359 155.212 165.45 155.176C165.54 155.141 165.643 155.185 165.679 155.277C166.026 156.163 166.231 157.147 166.306 158.286C166.312 158.383 166.239 158.467 166.142 158.473C166.137 158.473 166.134 158.473 166.13 158.473L166.128 158.475Z" fill="#AB785B"/>
<path d="M156.299 160.728C156.215 160.728 156.14 160.668 156.125 160.582C156.109 160.486 156.173 160.395 156.269 160.378C157.764 160.118 158.888 159.39 159.52 158.274C160.218 157.036 160.271 155.357 159.66 153.783C159.626 153.692 159.671 153.59 159.761 153.556C159.85 153.521 159.954 153.566 159.988 153.656C160.637 155.327 160.576 157.119 159.825 158.448C159.141 159.658 157.932 160.447 156.328 160.725C156.317 160.727 156.307 160.728 156.298 160.728H156.299Z" fill="#AB785B"/>
<path d="M163.556 156.918C162.224 156.918 161.446 156.414 160.121 155.266C160.048 155.202 160.04 155.091 160.103 155.018C160.168 154.944 160.278 154.937 160.352 155C162.721 157.053 163.168 156.942 168.653 155.591C168.747 155.567 168.843 155.625 168.865 155.719C168.889 155.814 168.831 155.909 168.737 155.932C166.184 156.562 164.674 156.917 163.554 156.917L163.556 156.918Z" fill="#AB785B"/>
<path d="M151 152.487L157.429 168.852L158.809 168.29C159.368 168.063 159.623 167.422 159.38 166.858L153.284 152.76C153.04 152.195 152.389 151.923 151.831 152.151L151.003 152.487H151Z" fill="#AB785B"/>
<path d="M165.69 164.56C165.612 164.56 165.54 164.507 165.519 164.428C165.495 164.334 165.551 164.238 165.645 164.212L171.445 162.701C171.538 162.677 171.635 162.732 171.661 162.827C171.685 162.921 171.629 163.017 171.535 163.042L165.735 164.554C165.72 164.558 165.705 164.56 165.69 164.56Z" fill="#AB785B"/>
<path d="M169.037 162.271C169.26 163.44 169.417 164.272 169.417 164.272C169.515 164.784 169.992 165.122 170.484 165.028L172.075 164.723C172.568 164.628 172.886 164.138 172.789 163.626C172.789 163.626 172.63 162.794 172.409 161.625L169.037 162.271Z" fill="#94674E"/>
<path d="M156.473 166.418L157.562 169.191L158.942 168.63C159.502 168.402 159.756 167.762 159.514 167.197C159.514 167.197 159.225 166.528 158.771 165.482L156.473 166.416V166.418Z" fill="#94674E"/>
<path d="M157.371 158.599C157.263 158.325 157.371 158.029 157.643 157.906C157.68 157.886 158.807 157.282 158.117 155.009C158.02 154.685 158.213 154.376 158.55 154.316C158.887 154.256 159.241 154.468 159.337 154.792C160.316 158.017 158.372 158.946 158.288 158.985C157.986 159.123 157.597 158.994 157.417 158.696C157.398 158.665 157.383 158.633 157.369 158.6L157.371 158.599Z" fill="#FFD88A"/>
<path d="M236.795 123.976L239.872 118.741C241.091 116.665 243.736 115.818 245.865 116.938C248.14 118.134 248.93 120.971 247.643 123.162L244.503 128.506C244.053 129.272 243.067 129.528 242.301 129.078L237.368 126.179C236.602 125.728 236.346 124.742 236.796 123.976H236.795Z" fill="#FFD7BE"/>
<path d="M234.641 123.195C234.118 123.195 233.622 122.882 233.416 122.366C233.143 121.689 233.471 120.92 234.149 120.648C234.185 120.633 237.781 119.182 241.751 117.258C242.408 116.939 243.198 117.213 243.516 117.87C243.834 118.527 243.561 119.317 242.904 119.634C238.85 121.601 235.171 123.084 235.135 123.097C234.974 123.162 234.806 123.193 234.643 123.193L234.641 123.195Z" fill="#FFD7BE"/>
<path d="M235.063 132.431C234.987 132.431 234.909 132.423 234.831 132.406C234.249 132.278 233.88 131.704 234.007 131.122C234.04 130.97 234.849 127.344 237.938 121.954C238.235 121.436 238.894 121.258 239.412 121.554C239.93 121.851 240.11 122.511 239.812 123.028C236.906 128.099 236.124 131.547 236.117 131.581C236.006 132.085 235.559 132.429 235.062 132.429L235.063 132.431Z" fill="#FFD7BE"/>
<path d="M236.814 135.756C236.73 135.756 236.645 135.746 236.56 135.726C235.979 135.586 235.623 135.002 235.764 134.423C235.834 134.131 237.521 127.231 239.896 123.103C240.193 122.585 240.853 122.409 241.371 122.705C241.889 123.003 242.066 123.663 241.769 124.181C239.545 128.043 237.88 134.861 237.863 134.93C237.744 135.424 237.301 135.756 236.814 135.756Z" fill="#FFD7BE"/>
<path d="M239.411 135.819C239.348 135.819 239.283 135.813 239.219 135.803C238.633 135.698 238.24 135.137 238.345 134.55C238.393 134.285 239.53 128.009 241.871 124.224C242.185 123.717 242.85 123.56 243.358 123.874C243.866 124.188 244.023 124.853 243.709 125.361C241.587 128.793 240.484 134.87 240.473 134.93C240.38 135.454 239.924 135.82 239.411 135.82V135.819Z" fill="#FFD7BE"/>
<path d="M242.32 135.347C242.288 135.347 242.257 135.347 242.226 135.342C241.632 135.291 241.192 134.768 241.242 134.174C241.259 133.979 241.675 129.374 243.794 125.429C244.077 124.904 244.732 124.707 245.256 124.989C245.781 125.272 245.979 125.926 245.696 126.452C243.792 129.994 243.397 134.314 243.394 134.358C243.345 134.92 242.874 135.344 242.32 135.344V135.347Z" fill="#FFD7BE"/>
<path d="M184.737 122.028C183.311 122.04 182.014 121.801 181.083 121.329C180.626 121.1 180.261 120.817 180.017 120.502C179.775 120.187 179.642 119.834 179.685 119.498L179.823 118.272L180.014 117.085C180.07 116.713 180.149 116.361 180.222 116.005C180.299 115.65 180.369 115.289 180.451 114.939L180.713 113.904C180.8 113.558 180.888 113.214 180.99 112.867C181.385 111.482 181.848 110.138 182.364 108.82C183.399 106.186 184.658 103.654 186.141 101.239C187.626 98.8263 189.335 96.5321 191.268 94.4146C192.238 93.358 193.263 92.3479 194.339 91.3886C195.413 90.4294 196.542 89.5225 197.723 88.6859C197.91 88.5512 198.097 88.4136 198.29 88.2864C198.821 87.9212 200.054 87.3496 201.42 87.4378C201.76 87.4588 202.104 87.5127 202.446 87.6219C202.79 87.7342 203.128 87.8928 203.453 88.1098C204.104 88.5438 204.693 89.2097 205.186 90.178C205.7 91.1896 205.917 92.083 205.964 92.8492C205.986 93.2323 205.965 93.5825 205.913 93.9043C205.862 94.2275 205.783 94.5268 205.681 94.7947C205.272 95.8572 204.556 96.5276 204.156 96.8C204.012 96.8928 203.873 96.996 203.734 97.0978C202.857 97.7189 202.016 98.3953 201.209 99.1151C200.403 99.8334 199.629 100.595 198.893 101.396C197.425 103.005 196.105 104.77 194.948 106.653C193.791 108.536 192.795 110.536 191.986 112.597C191.582 113.627 191.223 114.671 190.927 115.711C190.851 115.969 190.782 116.235 190.717 116.502L190.514 117.299C190.451 117.563 190.403 117.821 190.348 118.083C190.294 118.344 190.231 118.607 190.198 118.859L190.063 119.679L189.977 120.473C189.945 120.698 189.8 120.882 189.526 121.057C189.255 121.23 188.866 121.388 188.389 121.528C187.454 121.798 186.164 122.018 184.736 122.028H184.737Z" fill="#FFAE12"/>
<path d="M181.216 121.394C180.718 121.163 180.321 120.875 180.053 120.547C179.787 120.222 179.64 119.85 179.685 119.498L179.823 118.272L180.014 117.086C180.07 116.713 180.149 116.361 180.222 116.005C180.299 115.65 180.369 115.29 180.451 114.94L180.713 113.904C180.8 113.558 180.888 113.214 180.99 112.867C181.385 111.483 181.848 110.139 182.364 108.82C183.399 106.186 184.658 103.654 186.141 101.239C187.626 98.8266 189.335 96.5325 191.268 94.4149C192.238 93.3584 193.263 92.3482 194.339 91.389C195.413 90.4297 196.542 89.5228 197.723 88.6863C197.91 88.5516 198.097 88.4139 198.29 88.2867C198.517 88.1326 198.819 87.9784 199.162 87.8407C199.506 87.7061 199.897 87.5998 200.291 87.5235C200.681 87.4427 201.09 87.4157 201.465 87.4307C201.842 87.4472 202.187 87.5055 202.478 87.6342C201.169 88.36 199.901 89.1607 198.683 90.0301C197.552 90.8323 196.468 91.7032 195.437 92.6236C194.405 93.5439 193.419 94.5152 192.486 95.5298C190.628 97.5665 188.98 99.7754 187.548 102.104C186.116 104.434 184.899 106.881 183.901 109.423C183.402 110.695 182.955 111.99 182.576 113.32C182.478 113.653 182.392 113.985 182.31 114.318L182.057 115.317C181.978 115.653 181.912 115.998 181.839 116.337C181.768 116.678 181.692 117.017 181.64 117.37L181.481 118.35C181.429 118.676 181.402 119.017 181.361 119.351C181.274 120.014 181.255 120.712 181.218 121.395L181.216 121.394Z" fill="#F09E00"/>
<path d="M185.825 127.672C184.273 128.326 182.729 128.65 181.5 128.472C180.888 128.387 180.327 128.191 179.928 127.883C179.724 127.73 179.549 127.552 179.411 127.354C179.342 127.256 179.281 127.151 179.232 127.043C179.187 126.934 179.151 126.822 179.127 126.703C178.629 124.453 178.542 122.23 178.681 120.191C178.699 119.754 178.92 119.377 179.266 119.055C179.615 118.735 180.089 118.471 180.674 118.298C181.851 117.949 183.404 117.919 185.07 118.197C186.735 118.476 188.202 118.98 189.239 119.496C189.758 119.757 190.188 120.013 190.469 120.267C190.753 120.52 190.888 120.776 190.883 121.006C190.804 122.154 190.871 123.16 191.062 124.035C191.071 124.082 191.068 124.131 191.057 124.18C191.05 124.228 191.033 124.279 191.006 124.331C190.952 124.436 190.859 124.553 190.732 124.679C190.47 124.933 190.116 125.22 189.641 125.55C188.687 126.202 187.386 127.015 185.828 127.67L185.825 127.672Z" fill="#FFAE12"/>
<path d="M179.176 126.892C179.323 127.327 179.643 127.698 180.058 127.974C180.474 128.249 181.027 128.42 181.629 128.489C182.835 128.631 184.329 128.305 185.827 127.673C187.334 127.038 188.594 126.26 189.543 125.62C190.015 125.297 190.378 125.012 190.65 124.759C190.924 124.505 191.063 124.3 191.066 124.114C190.991 123.947 190.756 123.822 190.402 123.71C190.06 123.592 189.59 123.495 189.026 123.412C188.745 123.371 188.437 123.335 188.112 123.303C187.792 123.27 187.45 123.243 187.093 123.224C186.377 123.188 185.598 123.185 184.785 123.246C183.973 123.308 183.2 123.432 182.501 123.623C182.151 123.719 181.821 123.833 181.511 123.962C181.204 124.092 180.924 124.24 180.668 124.402C180.158 124.728 179.755 125.115 179.486 125.54C179.233 125.967 179.125 126.434 179.176 126.889V126.892Z" fill="#F09E00"/>
<path d="M181.041 128.384C180.79 128.323 180.555 128.239 180.338 128.136C180.127 128.031 179.941 127.904 179.776 127.76C179.453 127.473 179.202 127.112 179.125 126.703C178.627 124.453 178.54 122.23 178.679 120.191C178.696 119.809 178.865 119.474 179.137 119.181C179.41 118.887 179.787 118.637 180.245 118.447C180.044 119.987 179.95 121.602 180.047 123.284C180.145 124.962 180.462 126.715 181.041 128.386V128.384Z" fill="#F09E00"/>
<path d="M188.959 124.785C189.073 125.442 189.269 126.078 189.517 126.721C189.764 127.363 190.116 128.01 190.515 128.674C190.913 129.336 191.397 130.014 191.918 130.708C192.435 131.401 193.004 132.113 193.585 132.851C194.749 134.318 195.966 135.897 197.064 137.586C198.167 139.274 199.135 141.085 199.925 142.951C199.87 143.39 198.927 144.115 197.661 144.687C196.911 145.027 196.199 145.256 195.672 145.356C195.304 145.425 195.027 145.431 194.885 145.36C194.073 143.879 193.142 142.486 192.073 141.163C191.006 139.835 189.825 138.575 188.543 137.254C187.905 136.592 187.244 135.914 186.572 135.183C185.903 134.454 185.222 133.683 184.567 132.815C183.916 131.95 183.275 131.019 182.735 129.981C182.196 128.947 181.728 127.841 181.396 126.694C181.244 126.171 181.578 125.59 182.204 125.146C182.85 124.695 183.803 124.375 184.888 124.225C185.973 124.076 186.97 124.101 187.696 124.206C188.443 124.308 188.904 124.492 188.96 124.788L188.959 124.785Z" fill="#FFD7BE"/>
<path d="M182.054 125.26C182.296 126.424 182.672 127.572 183.151 128.657C183.627 129.748 184.228 130.753 184.87 131.675C185.514 132.597 186.201 133.443 186.892 134.227C187.584 135.01 188.277 135.744 188.953 136.463C189.628 137.178 190.282 137.878 190.913 138.582C191.539 139.287 192.142 139.996 192.708 140.725C193.842 142.179 194.83 143.719 195.672 145.355C195.304 145.424 195.027 145.43 194.885 145.359C194.073 143.878 193.142 142.485 192.073 141.162C191.006 139.834 189.825 138.574 188.543 137.253C187.905 136.591 187.244 135.913 186.572 135.182C185.903 134.453 185.222 133.682 184.567 132.814C183.916 131.949 183.275 131.018 182.735 129.98C182.196 128.946 181.728 127.84 181.396 126.693C181.256 126.216 181.527 125.686 182.054 125.261V125.26Z" fill="#F5BE97"/>
<path d="M204.313 147.996L201.995 142.384C201.076 140.16 198.575 138.951 196.311 139.765C193.893 140.633 192.715 143.333 193.685 145.681L196.051 151.41C196.391 152.231 197.33 152.622 198.152 152.282L203.441 150.097C204.262 149.758 204.653 148.818 204.313 147.996Z" fill="#FFD7BE"/>
<path d="M206.737 147.535C206.514 147.535 206.287 147.478 206.08 147.359C206.046 147.339 202.612 145.359 198.869 142.848C198.263 142.441 198.101 141.621 198.508 141.015C198.915 140.409 199.735 140.247 200.341 140.654C204.005 143.112 207.364 145.05 207.397 145.069C208.03 145.433 208.247 146.241 207.884 146.872C207.64 147.297 207.195 147.535 206.737 147.535Z" fill="#FFD7BE"/>
<path d="M205 156.62C204.44 156.62 203.966 156.188 203.924 155.621C203.921 155.588 203.628 152.065 201.455 146.639C201.233 146.085 201.503 145.456 202.056 145.233C202.61 145.01 203.239 145.281 203.462 145.835C205.771 151.603 206.069 155.305 206.079 155.459C206.124 156.055 205.676 156.572 205.082 156.616C205.055 156.617 205.028 156.619 205.002 156.619L205 156.62Z" fill="#FFD7BE"/>
<path d="M202.805 159.67C202.255 159.67 201.786 159.253 201.73 158.696C201.723 158.626 201.021 151.637 199.358 147.508C199.135 146.954 199.403 146.326 199.957 146.103C200.511 145.88 201.139 146.148 201.362 146.702C203.141 151.119 203.851 158.187 203.879 158.485C203.938 159.079 203.504 159.607 202.909 159.666C202.874 159.669 202.838 159.67 202.803 159.67H202.805Z" fill="#FFD7BE"/>
<path d="M200.226 159.371C199.648 159.371 199.17 158.913 199.147 158.331C199.146 158.27 198.897 152.098 197.275 148.405C197.036 147.859 197.282 147.221 197.829 146.982C198.375 146.741 199.012 146.989 199.252 147.535C201.043 151.609 201.296 157.983 201.307 158.252C201.329 158.848 200.864 159.349 200.267 159.371C200.253 159.371 200.24 159.371 200.226 159.371Z" fill="#FFD7BE"/>
<path d="M197.411 158.499C197.392 158.499 197.372 158.499 197.351 158.497C196.756 158.464 196.299 157.955 196.331 157.36C196.332 157.318 196.543 152.982 195.151 149.211C194.945 148.652 195.231 148.03 195.79 147.824C196.35 147.617 196.971 147.903 197.178 148.463C198.728 152.664 198.498 157.282 198.487 157.476C198.456 158.053 197.98 158.499 197.41 158.499H197.411Z" fill="#FFD7BE"/>
<path d="M209.093 114.037C207.812 114.037 206.751 112.996 206.731 111.716C206.651 106.758 206.009 94.3567 201.774 86.3175L201.8 86.3534L206.127 85.2041L206.193 85.3463C210.462 93.4514 211.257 106.32 211.456 111.585C211.48 112.233 211.246 112.848 210.796 113.315C210.347 113.781 209.742 114.037 209.094 114.037H209.093Z" fill="#082640"/>
<path d="M202.281 86.2352L206.257 85.1787C210.513 93.2584 211.432 106.353 211.629 111.591C211.676 112.83 210.685 113.861 209.445 113.861C208.252 113.861 207.278 112.906 207.258 111.713C207.177 106.754 206.535 94.3149 202.279 86.2352H202.281Z" fill="#082640"/>
<path d="M211.021 111.915C211.168 111.012 210.554 110.161 209.651 110.015C208.748 109.868 207.897 110.481 207.751 111.384C207.604 112.287 208.217 113.138 209.12 113.285C210.024 113.432 210.875 112.818 211.021 111.915Z" fill="#FFAE12"/>
<path d="M210.319 111.646C210.319 112.163 209.9 112.582 209.383 112.582C208.867 112.582 208.448 112.163 208.448 111.646C208.448 111.13 208.867 110.711 209.383 110.711C209.9 110.711 210.319 111.13 210.319 111.646Z" fill="#F09E00"/>
<path d="M177.582 226.972C166.733 226.982 157.273 227 157.273 227C157.172 227 157.088 226.915 157.088 226.81L157.059 199.025C157.059 198.92 157.142 198.835 157.245 198.833C157.245 198.833 166.704 198.815 177.554 198.805L177.582 226.972Z" fill="#F7CD81"/>
<path d="M177.582 226.972C175.52 226.973 157.273 227 157.273 227C157.172 227 157.088 226.915 157.088 226.81L157.059 199.025C157.059 198.92 157.142 198.835 157.245 198.833C157.245 198.833 175.492 198.806 177.554 198.805L177.582 226.972Z" fill="#E6BC69"/>
<path d="M177.554 198.949C166.609 198.96 157.061 198.978 157.061 198.978C157.061 198.897 157.124 198.831 157.203 198.831C157.203 198.831 166.683 198.813 177.555 198.803V198.949H177.554Z" fill="#F7CD81"/>
<path d="M177.582 226.971C166.71 226.982 157.23 227 157.23 227C157.152 227 157.088 226.934 157.088 226.855C157.088 226.855 166.635 226.837 177.581 226.826V226.973L177.582 226.971Z" fill="#D7B063"/>
<path d="M177.567 212.09L177.554 198.803C184.993 198.796 198.905 198.791 198.905 198.791C199.006 198.791 199.09 198.876 199.09 198.981L199.119 226.767C199.119 226.871 199.036 226.957 198.933 226.958C198.933 226.958 185.022 226.964 177.582 226.972L177.567 212.09Z" fill="#F7CD81"/>
<path d="M198.981 226.958H198.924L198.896 198.791H198.952C199.029 198.791 199.09 198.854 199.09 198.933L199.119 226.818C199.119 226.895 199.057 226.96 198.981 226.96V226.958Z" fill="#E8BD6D"/>
<path d="M177.554 198.804C185.016 198.797 198.948 198.791 198.948 198.791C199.026 198.791 199.09 198.857 199.09 198.936C199.09 198.936 185.089 198.942 177.554 198.95V198.803V198.804Z" fill="#F7CD81"/>
<path d="M177.582 226.825C185.116 226.818 199.119 226.812 199.119 226.812C199.119 226.892 199.056 226.958 198.976 226.958C198.976 226.958 185.044 226.964 177.582 226.972V226.825Z" fill="#D7B063"/>
<path d="M186.258 206.53L186.771 206.051L187.286 206.528L187.801 206.049L188.315 206.528L188.829 206.048L189.343 206.527L189.857 206.048L190.372 206.525L190.886 206.046L191.401 206.525L191.914 206.046L192.173 206.286L192.167 198.805L185.855 198.809L185.861 206.162L186.258 206.53Z" fill="#D7B063"/>
<path d="M194.562 224.437L186.612 224.453C186.083 224.453 185.649 224.01 185.644 223.459L185.604 218.59C185.599 218.041 186.026 217.593 186.555 217.592L194.505 217.575C195.035 217.575 195.469 218.018 195.473 218.569L195.514 223.439C195.518 223.988 195.092 224.435 194.562 224.437Z" fill="white"/>
<path d="M189.798 219.222C189.701 219.222 189.622 219.143 189.622 219.047C189.622 218.95 189.7 218.871 189.797 218.871L193.629 218.863C193.727 218.863 193.806 218.943 193.806 219.038C193.806 219.136 193.728 219.215 193.631 219.215L189.798 219.222Z" fill="#9E9E9E"/>
<path d="M189.809 220.571C189.712 220.571 189.632 220.492 189.632 220.396C189.632 220.299 189.71 220.219 189.807 220.219L193.628 220.212C193.725 220.212 193.805 220.291 193.805 220.387C193.805 220.484 193.727 220.564 193.629 220.564L189.809 220.571Z" fill="#9E9E9E"/>
<path d="M189.821 221.918C189.724 221.918 189.644 221.838 189.644 221.743C189.644 221.645 189.722 221.566 189.819 221.566L193.629 221.559C193.727 221.559 193.806 221.638 193.806 221.734C193.806 221.831 193.728 221.91 193.631 221.91L189.821 221.918Z" fill="#9E9E9E"/>
<path d="M189.831 223.266C189.734 223.266 189.655 223.187 189.655 223.091C189.655 222.994 189.733 222.914 189.83 222.914L194.138 222.905C194.236 222.905 194.315 222.985 194.315 223.08C194.315 223.178 194.237 223.257 194.14 223.257L189.831 223.266Z" fill="#9E9E9E"/>
</g>
</g>
<defs>
<clipPath id="clip0_5_5025">
<rect width="281" height="227" fill="white"/>
</clipPath>
<clipPath id="clip1_5_5025">
<rect width="129.981" height="180" fill="white" transform="translate(151 47)"/>
</clipPath>
</defs>
</svg>
