<svg width="287" height="227" viewBox="0 0 287 227" fill="none" xmlns="http://www.w3.org/2000/svg">
<g clip-path="url(#clip0_47_45859)">
<path d="M142.755 37.2912L-133.808 80.217V10.1289L218.133 22.2255L142.755 37.2912Z" fill="#EF7B64"/>
<path d="M188.095 10.1311L187.526 17.2881L187.215 21.1625L186.631 28.5231L173.588 192.145L173.54 192.139L170.523 191.605L157.413 189.305L158.271 178.329L155.042 180.306L156.714 162.68L159.637 160.884L161.583 135.993L168.484 47.7601L167.596 47.947L169.105 32.0237L169.109 32.0009L170.141 21.1023L170.193 20.5791L171.481 7L179.599 8.53024L185.637 9.67014L188.095 10.1311Z" fill="#3E4D64"/>
<path d="M174.501 181.504L173.588 192.145L177.425 192.685V207.694L150.042 227L149.083 226.83H149.079L-249.029 156.943L-250.013 147.645L-269.581 37.2145L-270 37.1979V21.1127L-133.808 10.1311L-134.037 26.2329L-133.808 26.2433L142.755 37.2913L169.109 32.0009L181.43 29.5301L181.426 29.5633L179.75 45.3827L168.484 47.7601L167.596 47.947L141.997 53.3475L135.73 53.1004L133.777 149.495L133.775 149.678L94.4949 200.909L156.714 162.68L159.637 160.884L158.271 178.329L155.042 180.306L142.755 187.824L157.37 189.871L170.511 191.715L170.523 191.605L184.337 28.9799L185.008 21.0857L185.637 13.6774H171.48V8.53024H185.637L193.622 7L193.766 13.6774L188.473 19.0987L188.292 21.202L187.682 28.3134L184.123 69.6694L187.331 151.055L188.095 170.578L188.658 184.807L174.501 181.504Z" fill="#3E4D64"/>
<path d="M220.679 35.578L195.327 42.2014L194.509 27.2935L220.679 21.1123V35.578Z" fill="#3E4D64"/>
<path d="M225.444 156.355V169.037L203.119 184.807L201.381 153.008L225.444 156.355Z" fill="#3E4D64"/>
<path d="M142.755 37.2909L141.997 53.3471L135.73 53.1L60.3291 50.0831L-133.808 42.3281L-269.581 37.2141L-270 37.1975V21.1123L-134.037 26.2325L-133.808 26.2429L142.755 37.2909Z" stroke="black" stroke-width="0.2" stroke-miterlimit="10"/>
<path d="M149.081 209.842V226.998" stroke="black" stroke-width="0.2" stroke-miterlimit="10"/>
<path d="M168.484 47.7593L179.751 45.382L181.426 29.5625L181.43 29.5293L169.109 32.0001L142.755 37.2906" stroke="black" stroke-width="0.2" stroke-miterlimit="10"/>
<path d="M220.679 21.1123V35.578L195.327 42.2014L194.509 27.2935L220.679 21.1123Z" stroke="black" stroke-width="0.2" stroke-miterlimit="10"/>
<path d="M159.67 160.863L159.637 160.884" stroke="black" stroke-width="0.2" stroke-linecap="round" stroke-linejoin="round"/>
<path d="M135.739 52.7969L135.73 53.1" stroke="black" stroke-width="0.2" stroke-linecap="round" stroke-linejoin="round"/>
<path d="M133.776 149.495L133.405 149.678" stroke="black" stroke-width="0.2" stroke-miterlimit="10"/>
<path d="M161.716 135.928L161.583 135.994" stroke="black" stroke-width="0.2" stroke-miterlimit="10"/>
<path d="M169.938 31.2755L170.874 20.6032L171.481 13.6787H185.637L185.008 21.087L184.337 28.9811L170.523 191.606L170.511 191.716L170.5 191.833L157.324 190.429L157.37 189.873L157.413 189.306L158.271 178.33L159.637 160.885" stroke="black" stroke-width="0.2" stroke-miterlimit="10"/>
<path d="M161.583 135.992L159.637 160.883L156.714 162.679L94.495 200.908L133.775 149.677L133.777 149.494L159.131 137.182L161.583 135.992Z" fill="#506583" stroke="black" stroke-width="0.2" stroke-miterlimit="10"/>
<path d="M168.484 47.7617L161.583 135.995L159.131 137.184L133.777 149.497L135.73 53.102L141.997 53.3491L167.596 47.9486L168.484 47.7617Z" fill="#506583" stroke="black" stroke-width="0.2" stroke-miterlimit="10"/>
<path d="M177.425 192.685L173.588 192.145L173.54 192.139L170.511 191.716L157.37 189.872L142.755 187.825L121.227 184.808" stroke="black" stroke-width="0.2" stroke-miterlimit="10"/>
<path d="M203.119 184.809H188.658L188.095 170.58L187.329 151.056L184.123 69.6707L188.473 19.1L193.765 13.6787L194.509 27.2952L195.327 42.2031L201.381 153.01L203.119 184.809Z" fill="#506583" stroke="black" stroke-width="0.2" stroke-miterlimit="10"/>
<path d="M225.444 156.354V169.036L203.119 184.805L202.735 171.787L225.444 156.354Z" stroke="black" stroke-width="0.2" stroke-miterlimit="10"/>
<path d="M225.444 156.355L201.381 153.008" stroke="black" stroke-width="0.2" stroke-miterlimit="10"/>
<path d="M187.329 151.054L177.423 149.678" stroke="black" stroke-width="0.2" stroke-miterlimit="10"/>
<path d="M188.095 170.581L175.681 167.805" stroke="black" stroke-width="0.2" stroke-miterlimit="10"/>
<path d="M188.658 184.805L174.502 181.504" stroke="black" stroke-width="0.2" stroke-miterlimit="10"/>
<path d="M170.5 21.1125L-133.808 10.1309L-270 21.1125" stroke="black" stroke-width="0.2" stroke-miterlimit="10"/>
<path d="M171.48 13.6784V8.53125H185.635V13.6784L188.473 19.0997" stroke="black" stroke-width="0.2" stroke-miterlimit="10"/>
<path d="M184.123 69.6699L175.681 167.805L174.501 181.506L173.588 192.145L173.54 192.139L170.5 191.832" stroke="black" stroke-width="0.2" stroke-miterlimit="10"/>
<path d="M185.635 8.53024L193.622 7L193.766 13.6774" stroke="black" stroke-width="0.2" stroke-miterlimit="10"/>
<path d="M58.392 195.576V58.5332L66.1844 62.2249V196.814" fill="#506583"/>
<path d="M58.392 195.576V58.5332L66.1844 62.2249V196.814" stroke="black" stroke-width="0.2" stroke-miterlimit="10"/>
<path d="M-216.894 98.9688L58.3921 128.533" stroke="black" stroke-width="0.2" stroke-miterlimit="10"/>
<path d="M177.423 192.684V207.696L150.041 226.999L149.083 226.829L-249.029 156.942L-250.013 147.645L-213.312 152.875L-149.329 162.932L-149.291 163.757L-145.616 163.576L-145.618 163.516L-83.3267 173.308L-77.5919 174.211L-16.9906 183.733V183.739L66.1824 196.812L149.083 209.841L177.423 192.684Z" fill="#506583" stroke="black" stroke-width="0.2" stroke-miterlimit="10"/>
<path d="M220.679 21.1152H193.62" stroke="black" stroke-width="0.2" stroke-miterlimit="10"/>
<path d="M150.042 226.999L149.253 209.917" stroke="black" stroke-width="0.2" stroke-miterlimit="10"/>
<g clip-path="url(#clip1_47_45859)">
<path d="M244.978 226.951C224.498 226.968 206.64 227 206.64 227C206.448 227 206.291 226.854 206.291 226.676L206.237 179.361C206.237 179.181 206.394 179.036 206.587 179.036C206.587 179.036 224.443 179.004 244.924 178.987L244.979 226.952L244.978 226.951Z" fill="#F7CD81"/>
<path d="M244.978 226.951C241.086 226.955 206.64 227 206.64 227C206.448 227 206.291 226.854 206.291 226.676L206.237 179.361C206.237 179.181 206.394 179.036 206.587 179.036C206.587 179.036 241.031 178.99 244.924 178.987L244.979 226.952L244.978 226.951Z" fill="#D7AC58"/>
<path d="M244.924 179.235C224.262 179.253 206.237 179.283 206.237 179.283C206.237 179.146 206.357 179.035 206.505 179.035C206.505 179.035 224.401 179.003 244.924 178.986V179.235Z" fill="#F7CD81"/>
<path d="M244.978 226.952C224.454 226.968 206.559 227 206.559 227C206.411 227 206.291 226.889 206.291 226.752C206.291 226.752 224.315 226.72 244.978 226.703V226.952Z" fill="#D7B063"/>
<path d="M244.95 201.612L244.924 178.987C258.966 178.975 285.228 178.965 285.228 178.965C285.421 178.965 285.578 179.11 285.578 179.289L285.631 226.603C285.631 226.783 285.476 226.929 285.282 226.929C285.282 226.929 259.02 226.939 244.978 226.95L244.949 201.61" fill="#F7CD81"/>
<path d="M285.371 226.93H285.263L285.208 178.965H285.316C285.46 178.965 285.576 179.073 285.576 179.206L285.63 226.686C285.63 226.82 285.514 226.929 285.37 226.929L285.371 226.93Z" fill="#E8BD6D"/>
<path d="M244.923 178.987C259.007 178.975 285.31 178.965 285.31 178.965C285.458 178.965 285.578 179.076 285.578 179.213C285.578 179.213 259.146 179.224 244.923 179.235V178.987Z" fill="#F7CD81"/>
<path d="M244.978 226.703C259.2 226.692 285.632 226.682 285.632 226.682C285.632 226.819 285.513 226.93 285.365 226.93C285.365 226.93 259.063 226.94 244.978 226.952V226.703Z" fill="#D7B063"/>
<path d="M264.104 186.204L264.637 185.755L265.171 186.203L265.704 185.754L266.239 186.202L266.773 185.753L267.307 186.202L267.84 185.753L268.374 186.2L268.907 185.751L269.442 186.199L269.975 185.75L270.244 185.976L270.236 178.973L263.687 178.978L263.693 185.86L264.104 186.204Z" fill="#D7B063"/>
<path d="M232.298 161.846C222.091 161.855 213.192 161.871 213.192 161.871C213.096 161.871 213.017 161.798 213.017 161.709L212.991 138.129C212.991 138.039 213.068 137.967 213.165 137.967C213.165 137.967 222.065 137.951 232.271 137.942L232.298 161.846Z" fill="#F7CD81"/>
<path d="M232.298 161.846C230.358 161.848 213.192 161.871 213.192 161.871C213.096 161.871 213.017 161.798 213.017 161.709L212.991 138.129C212.991 138.039 213.068 137.967 213.165 137.967C213.165 137.967 230.331 137.944 232.271 137.942L232.298 161.846Z" fill="#D7AC58"/>
<path d="M232.27 138.067C221.973 138.076 212.989 138.091 212.989 138.091C212.989 138.022 213.049 137.968 213.122 137.968C213.122 137.968 222.04 137.952 232.268 137.943V138.067H232.27Z" fill="#F7CD81"/>
<path d="M232.298 161.846C222.07 161.855 213.151 161.871 213.151 161.871C213.077 161.871 213.017 161.816 213.017 161.747C213.017 161.747 222 161.732 232.298 161.723V161.846Z" fill="#D7B063"/>
<path d="M232.282 149.219L232.27 137.944C239.268 137.937 252.356 137.934 252.356 137.934C252.452 137.934 252.531 138.006 252.531 138.096L252.557 161.676C252.557 161.765 252.48 161.838 252.383 161.838C252.383 161.838 239.295 161.843 232.296 161.848L232.282 149.22" fill="#F7CD81"/>
<path d="M252.427 161.837H252.374L252.347 137.933H252.401C252.472 137.933 252.531 137.986 252.531 138.052L252.557 161.716C252.557 161.782 252.5 161.837 252.427 161.837Z" fill="#E8BD6D"/>
<path d="M232.27 137.944C239.289 137.938 252.397 137.933 252.397 137.933C252.471 137.933 252.531 137.987 252.531 138.056C252.531 138.056 239.358 138.061 232.271 138.068V137.944H232.27Z" fill="#F7CD81"/>
<path d="M232.296 161.723C239.384 161.717 252.556 161.712 252.556 161.712C252.556 161.781 252.496 161.836 252.424 161.836C252.424 161.836 239.316 161.841 232.296 161.847V161.723Z" fill="#D7B063"/>
<path d="M241.276 142.938L241.646 142.627L242.014 142.936L242.384 142.627L242.753 142.936L243.121 142.625L243.491 142.935L243.86 142.625L244.229 142.935L244.598 142.624L244.968 142.934L245.336 142.624L245.522 142.78L245.517 137.937L240.988 137.94L240.992 142.699L241.276 142.938Z" fill="#D7B063"/>
<path d="M233.644 137.925C225.069 137.933 217.591 137.945 217.591 137.945C217.511 137.945 217.445 137.884 217.445 137.809L217.422 117.997C217.422 117.921 217.487 117.86 217.568 117.86C217.568 117.86 225.046 117.847 233.621 117.84L233.644 137.924V137.925Z" fill="#F7CD81"/>
<path d="M233.644 137.925C232.015 137.926 217.591 137.945 217.591 137.945C217.511 137.945 217.445 137.884 217.445 137.809L217.422 117.997C217.422 117.921 217.487 117.86 217.568 117.86C217.568 117.86 231.992 117.841 233.621 117.84L233.644 137.924V137.925Z" fill="#E6BC69"/>
<path d="M233.621 117.944C224.969 117.952 217.422 117.965 217.422 117.965C217.422 117.907 217.471 117.86 217.534 117.86C217.534 117.86 225.027 117.847 233.621 117.84V117.944Z" fill="#F7CD81"/>
<path d="M233.644 137.925C225.051 137.933 217.557 137.945 217.557 137.945C217.494 137.945 217.445 137.899 217.445 137.841C217.445 137.841 224.992 137.828 233.644 137.82V137.925Z" fill="#D7B063"/>
<path d="M233.633 127.314L233.623 117.84C239.502 117.835 250.499 117.831 250.499 117.831C250.58 117.831 250.646 117.892 250.646 117.967L250.669 137.78C250.669 137.855 250.604 137.916 250.522 137.916C250.522 137.916 239.525 137.92 233.646 137.925L233.634 127.314" fill="#F7CD81"/>
<path d="M250.558 137.916H250.512L250.489 117.832H250.535C250.595 117.832 250.645 117.877 250.645 117.933L250.668 137.814C250.668 137.87 250.619 137.914 250.559 137.916H250.558Z" fill="#E8BD6D"/>
<path d="M233.621 117.841C239.519 117.836 250.533 117.832 250.533 117.832C250.595 117.832 250.645 117.878 250.645 117.937C250.645 117.937 239.578 117.94 233.621 117.946V117.841Z" fill="#F7CD81"/>
<path d="M233.644 137.82C239.599 137.815 250.668 137.812 250.668 137.812C250.668 137.869 250.618 137.916 250.555 137.916C250.555 137.916 239.542 137.92 233.644 137.925V137.82Z" fill="#D7B063"/>
<path d="M241.189 122.037L241.499 121.775L241.809 122.037L242.119 121.775L242.43 122.035L242.74 121.775L243.05 122.035L243.36 121.774L243.671 122.034L243.981 121.774L244.291 122.034L244.6 121.773L244.756 121.904L244.752 117.835L240.946 117.838L240.95 121.836L241.189 122.037Z" fill="#D7B063"/>
<path d="M235.924 179.03C217.25 179.045 200.968 179.074 200.968 179.074C200.792 179.074 200.65 178.942 200.65 178.779L200.601 162.232C200.601 162.069 200.744 161.936 200.92 161.936C200.92 161.936 217.201 161.907 235.876 161.892L235.926 179.03H235.924Z" fill="#F7CD81"/>
<path d="M235.924 179.03C232.376 179.032 200.968 179.074 200.968 179.074C200.792 179.074 200.65 178.942 200.65 178.779L200.601 162.232C200.601 162.069 200.744 161.936 200.92 161.936C200.92 161.936 232.327 161.895 235.876 161.892L235.926 179.03H235.924Z" fill="#E6BC69"/>
<path d="M235.876 162.118C217.035 162.133 200.601 162.162 200.601 162.162C200.601 162.037 200.71 161.935 200.845 161.935C200.845 161.935 217.163 161.906 235.876 161.891V162.118Z" fill="#F7CD81"/>
<path d="M235.924 179.03C217.211 179.045 200.893 179.074 200.893 179.074C200.758 179.074 200.65 178.974 200.65 178.847C200.65 178.847 217.084 178.818 235.924 178.803V179.03Z" fill="#D7B063"/>
<path d="M235.899 175.026L235.876 161.89C248.68 161.88 272.626 161.871 272.626 161.871C272.802 161.871 272.945 162.004 272.945 162.167L272.993 178.713C272.993 178.877 272.85 179.009 272.674 179.009C272.674 179.009 248.728 179.018 235.924 179.028L235.897 175.024" fill="#F7CD81"/>
<path d="M272.756 179.009H272.656L272.607 161.871H272.706C272.838 161.871 272.943 161.969 272.943 162.092L272.993 178.789C272.993 178.911 272.887 179.009 272.756 179.009Z" fill="#E8BD6D"/>
<path d="M235.875 161.891C248.717 161.881 272.7 161.871 272.7 161.871C272.835 161.871 272.943 161.972 272.943 162.098C272.943 162.098 248.843 162.107 235.875 162.118V161.891Z" fill="#F7CD81"/>
<path d="M235.924 178.803C248.893 178.791 272.993 178.782 272.993 178.782C272.993 178.907 272.885 179.009 272.75 179.009C272.75 179.009 248.768 179.018 235.924 179.03V178.803Z" fill="#D7B063"/>
<path d="M253.729 167.548L254.148 167.196L254.566 167.548L254.984 167.196L255.404 167.547L255.822 167.195L256.24 167.547L256.658 167.195L257.077 167.546L257.495 167.194L257.914 167.546L258.333 167.194L258.543 167.37L258.538 161.879L253.402 161.883L253.407 167.278L253.729 167.548Z" fill="#D7B063"/>
<path d="M229.602 145.506L222.988 145.517C222.547 145.517 222.187 145.179 222.183 144.76L222.153 141.048C222.149 140.628 222.503 140.288 222.944 140.288L229.559 140.276C230 140.276 230.36 140.614 230.363 141.034L230.394 144.746C230.398 145.165 230.043 145.506 229.602 145.506Z" fill="white"/>
<path d="M223.397 141.395L229.185 141.386" stroke="#9E9E9E" stroke-width="2" stroke-linecap="round" stroke-linejoin="round"/>
<path d="M223.406 142.422L229.194 142.412" stroke="#9E9E9E" stroke-width="2" stroke-linecap="round" stroke-linejoin="round"/>
<path d="M223.414 143.449L229.202 143.44" stroke="#9E9E9E" stroke-width="2" stroke-linecap="round" stroke-linejoin="round"/>
<path d="M223.423 144.477L227.007 144.471" stroke="#9E9E9E" stroke-width="2" stroke-linecap="round" stroke-linejoin="round"/>
<path d="M282.077 191.289L275.667 192.918C275.24 193.027 274.808 192.787 274.702 192.382L273.763 188.791C273.657 188.385 273.918 187.968 274.345 187.86L280.755 186.23C281.182 186.122 281.614 186.361 281.72 186.767L282.659 190.358C282.765 190.763 282.505 191.18 282.076 191.289H282.077Z" fill="white"/>
<path d="M275.054 188.822L280.663 187.396" stroke="#9E9E9E" stroke-width="2" stroke-linecap="round" stroke-linejoin="round"/>
<path d="M275.314 189.816L280.923 188.391" stroke="#9E9E9E" stroke-width="2" stroke-linecap="round" stroke-linejoin="round"/>
<path d="M275.573 190.811L281.183 189.384" stroke="#9E9E9E" stroke-width="2" stroke-linecap="round" stroke-linejoin="round"/>
<path d="M275.833 191.804L279.306 190.92" stroke="#9E9E9E" stroke-width="2" stroke-linecap="round" stroke-linejoin="round"/>
<path d="M197.042 207.685C195.947 210.549 194.946 213.419 194.225 216.267C193.88 216.662 192.602 216.738 191.169 216.408C190.321 216.212 189.593 215.902 189.12 215.558C188.792 215.319 188.585 215.067 188.547 214.831C189.362 211.615 190.434 208.573 191.57 205.597C191.806 204.986 193.219 204.97 194.726 205.559C196.234 206.148 197.27 207.099 197.043 207.685H197.042Z" fill="#FFD7BE"/>
<path d="M192.534 205.133C191.876 206.81 191.262 208.521 190.669 210.244L190.247 211.552L190.036 212.206L189.843 212.87C189.715 213.314 189.581 213.754 189.46 214.202L189.117 215.556C188.789 215.317 188.583 215.065 188.544 214.829C189.359 211.613 190.432 208.572 191.568 205.596C191.676 205.316 192.033 205.161 192.534 205.133Z" fill="#F5BE97"/>
<path d="M194.306 206.642C192.031 205.778 190.478 204.328 190.836 203.403L191.313 202.208C191.625 201.421 191.943 200.643 192.262 199.868L193.222 197.548L194.187 195.244C195.475 192.18 196.76 189.143 198.007 186.104C200.512 180.03 202.836 173.944 204.878 167.78C205.887 164.697 206.83 161.598 207.69 158.48L208.308 156.136C208.409 155.745 208.516 155.356 208.613 154.963L208.897 153.786C209.083 153.001 209.285 152.219 209.458 151.431L209.977 149.068C210.634 145.911 211.235 142.742 211.689 139.554C211.944 137.964 212.121 136.364 212.325 134.767C212.378 134.368 212.415 133.968 212.455 133.567L212.574 132.366L212.744 130.642C212.78 130.176 213.024 129.241 213.722 128.446C214.421 127.653 215.574 126.99 217.422 127.099C219.354 127.213 220.397 128.032 220.948 128.959C221.498 129.885 221.558 130.909 221.52 131.402L221.339 133.23L221.213 134.502C221.171 134.927 221.131 135.351 221.075 135.773C220.861 137.464 220.671 139.16 220.402 140.842C219.921 144.218 219.287 147.565 218.594 150.897L218.047 153.39C217.863 154.22 217.653 155.044 217.456 155.871L217.156 157.111C217.054 157.523 216.942 157.933 216.836 158.344L216.186 160.807C215.283 164.081 214.296 167.323 213.243 170.541C211.116 176.964 208.705 183.268 206.156 189.451C204.886 192.545 203.589 195.612 202.307 198.658L201.352 200.939L200.411 203.213C200.099 203.97 199.79 204.726 199.492 205.48L199.033 206.63C198.696 207.5 196.579 207.506 194.306 206.643V206.642Z" fill="#082640"/>
<path d="M191.675 205.13C190.985 204.518 190.649 203.887 190.836 203.404L191.313 202.209C191.625 201.422 191.943 200.644 192.262 199.869L193.222 197.55L194.187 195.245C195.475 192.181 196.76 189.144 198.007 186.105C200.512 180.031 202.836 173.945 204.878 167.781C205.887 164.698 206.83 161.599 207.69 158.481L208.308 156.138C208.409 155.746 208.516 155.357 208.613 154.964L208.897 153.787C209.083 153.002 209.285 152.22 209.458 151.432L209.977 149.069C210.634 145.912 211.235 142.743 211.689 139.555C211.944 137.965 212.121 136.365 212.325 134.768C212.378 134.369 212.415 133.969 212.455 133.568L212.574 132.367L212.744 130.643C212.803 129.854 213.466 128.4 214.358 127.871L214.233 129.571C214.189 130.137 214.157 130.704 214.095 131.269C213.928 132.922 213.782 134.577 213.559 136.223L213.405 137.46L213.328 138.079C213.302 138.284 213.269 138.489 213.238 138.696L212.869 141.161C212.336 144.442 211.743 147.715 211.001 150.96L210.732 152.179L210.439 153.393C210.24 154.202 210.056 155.013 209.846 155.819L209.211 158.235C209.002 159.041 208.762 159.841 208.539 160.643C207.623 163.848 206.634 167.036 205.546 170.199C204.466 173.362 203.316 176.507 202.108 179.636C200.897 182.765 199.629 185.881 198.334 188.995L194.403 198.371C194.074 199.155 193.748 199.944 193.426 200.737L192.941 201.926L192.475 203.094C192.202 203.767 191.939 204.451 191.675 205.133V205.13Z" fill="#082640"/>
<path d="M196.736 211.806L189.075 209.191C188.467 208.985 188.154 208.298 188.377 207.658C188.88 206.245 189.404 204.858 189.939 203.487C190.177 202.866 190.863 202.572 191.458 202.808L198.98 205.798C199.58 206.035 199.865 206.702 199.645 207.281C199.14 208.574 198.654 209.862 198.199 211.143C198 211.716 197.344 212.013 196.736 211.806Z" fill="#082640"/>
<path d="M190.577 208.438C191.069 207.055 191.584 205.689 192.112 204.336C192.346 203.724 193.032 203.432 193.626 203.668L191.458 202.806C190.863 202.57 190.177 202.864 189.939 203.485C189.404 204.855 188.881 206.242 188.377 207.656C188.154 208.297 188.467 208.984 189.075 209.189L191.284 209.943C190.675 209.736 190.359 209.062 190.577 208.437V208.438Z" fill="#082640"/>
<path d="M196.059 214.028H187.507V225.278H196.059V214.028Z" fill="#FFAE12"/>
<path d="M192.124 220.255C192.124 220.255 188.252 220.074 187.505 225.278V214.028H189.278C190.152 218.618 192.124 220.254 192.124 220.254V220.255Z" fill="#F09E00"/>
<path d="M195.828 211.848H187.677C187.234 211.848 186.874 212.207 186.874 212.651V214.087C186.874 214.531 187.234 214.89 187.677 214.89H195.828C196.272 214.89 196.632 214.531 196.632 214.087V212.651C196.632 212.207 196.272 211.848 195.828 211.848Z" fill="#AB785B"/>
<path d="M193.528 219.576C193.514 219.576 193.5 219.575 193.486 219.57C192.487 219.275 191.185 219.271 190.086 219.558C190.006 219.58 189.924 219.532 189.903 219.451C189.882 219.371 189.929 219.289 190.01 219.268C191.159 218.967 192.523 218.971 193.571 219.28C193.65 219.303 193.696 219.388 193.672 219.467C193.653 219.532 193.593 219.574 193.528 219.574V219.576Z" fill="#AB785B"/>
<path d="M193.528 217.944C193.528 217.944 193.519 217.944 193.515 217.944C192.5 217.857 191.175 217.856 190.058 217.94C189.973 217.948 189.904 217.884 189.897 217.801C189.891 217.718 189.954 217.647 190.036 217.64C191.167 217.555 192.51 217.556 193.541 217.644C193.623 217.652 193.685 217.723 193.677 217.806C193.671 217.884 193.604 217.944 193.528 217.944Z" fill="#AB785B"/>
<path d="M193.528 216.422H193.525C192.5 216.408 191.168 216.408 190.049 216.422H190.048C189.966 216.422 189.899 216.355 189.897 216.274C189.897 216.191 189.962 216.123 190.045 216.122C191.166 216.109 192.501 216.109 193.53 216.122C193.613 216.122 193.68 216.191 193.678 216.274C193.678 216.355 193.611 216.422 193.528 216.422Z" fill="#AB785B"/>
<path d="M191.701 221.311C191.618 221.311 191.55 221.243 191.55 221.16V213.829C191.55 213.746 191.618 213.679 191.701 213.679C191.783 213.679 191.851 213.746 191.851 213.829V221.16C191.851 221.243 191.783 221.311 191.701 221.311Z" fill="#AB785B"/>
<path d="M195.898 225.838C196.144 225.357 196.281 224.829 196.281 224.275C196.281 222.054 194.093 220.255 191.393 220.255C188.694 220.255 186.505 222.055 186.505 224.275C186.505 224.83 186.642 225.358 186.888 225.838H195.898Z" fill="#FFAE12"/>
<path d="M195.898 225.988H186.888C186.832 225.988 186.78 225.956 186.754 225.906C186.489 225.39 186.355 224.842 186.355 224.276C186.355 221.975 188.615 220.104 191.393 220.104C194.172 220.104 196.431 221.975 196.431 224.276C196.431 224.842 196.297 225.39 196.032 225.906C196.007 225.956 195.954 225.988 195.898 225.988ZM186.981 225.687H195.805C196.021 225.237 196.13 224.763 196.13 224.274C196.13 222.14 194.005 220.403 191.393 220.403C188.782 220.403 186.656 222.14 186.656 224.274C186.656 224.763 186.766 225.237 186.981 225.687Z" fill="#AB785B"/>
<path d="M196.481 227H186.378V226.225C186.378 225.702 186.803 225.277 187.325 225.277H195.535C196.058 225.277 196.482 225.702 196.482 226.225V227H196.481Z" fill="#AB785B"/>
<path d="M194.528 223.938C194.276 223.938 194.054 223.757 194.011 223.502C194.003 223.465 193.745 222.372 191.708 222.209C191.419 222.186 191.203 221.932 191.226 221.643C191.249 221.354 191.503 221.137 191.791 221.161C194.681 221.392 195.033 223.245 195.045 223.322C195.095 223.608 194.902 223.88 194.617 223.929C194.586 223.934 194.557 223.937 194.528 223.937V223.938Z" fill="#FFD88A"/>
<path d="M197.613 131.203C197.613 124.738 202.938 119.496 209.931 119.496C216.924 119.496 222.594 121.753 222.594 131.203C222.594 137.67 216.924 142.911 209.931 142.911C202.938 142.911 197.613 137.67 197.613 131.203Z" fill="#082640"/>
<path d="M208.346 140.985C201.412 139.972 200.017 135.127 200.017 128.662C200.017 126.077 200.925 123.69 202.459 121.753C199.313 123.882 197.613 127.322 197.613 131.203C197.613 137.669 202.938 142.91 209.931 142.91C214.129 142.91 217.848 141.021 220.152 138.112C218.057 139.53 213.731 141.772 208.348 140.986L208.346 140.985Z" fill="#082640"/>
<path d="M213.595 201.984C213.904 202.678 214.245 203.356 214.572 204.041C214.901 204.724 215.255 205.395 215.594 206.073C216.302 207.414 217.021 208.749 217.792 210.051C217.831 210.589 216.972 211.536 215.712 212.294C214.964 212.741 214.226 213.026 213.647 213.114C213.247 213.175 212.925 213.143 212.734 213.006C211.913 211.617 211.148 210.199 210.396 208.774C210.035 208.055 209.66 207.342 209.31 206.618C208.965 205.892 208.603 205.173 208.276 204.439C208.001 203.837 208.976 202.814 210.454 202.155C211.932 201.496 213.337 201.419 213.595 201.983V201.984Z" fill="#FFD7BE"/>
<path d="M208.617 203.418L209.184 204.659L209.775 205.89C210.162 206.712 210.586 207.519 210.995 208.331C211.842 209.943 212.711 211.546 213.647 213.112C213.247 213.173 212.925 213.141 212.734 213.005C211.913 211.615 211.148 210.197 210.396 208.773C210.035 208.053 209.66 207.341 209.31 206.616C208.965 205.891 208.603 205.172 208.276 204.437C208.15 204.162 208.288 203.794 208.617 203.417V203.418Z" fill="#F5BE97"/>
<path d="M210.936 203.212C209.832 203.722 208.751 204.005 207.89 204.039C207.032 204.074 206.385 203.864 206.188 203.403L205.67 202.204C205.328 201.435 205.026 200.651 204.705 199.873C204.543 199.486 204.392 199.093 204.243 198.7L203.793 197.523C203.64 197.132 203.501 196.735 203.358 196.341L202.933 195.155C201.823 191.986 200.854 188.772 200.017 185.526C199.181 182.281 198.478 179.005 197.898 175.71C197.321 172.415 196.892 169.099 196.564 165.775C195.915 159.127 195.786 152.446 196.067 145.798C196.164 144.137 196.227 142.475 196.377 140.819C196.444 139.992 196.501 139.162 196.579 138.334L196.836 135.856C196.879 135.443 196.918 135.03 196.967 134.618L197.125 133.384L197.441 130.914L197.814 128.454L198.001 127.225L198.044 126.943C198.058 126.854 198.071 126.765 198.088 126.677C198.173 126.191 198.524 125.224 199.306 124.468C200.089 123.712 201.301 123.175 203.12 123.522C205.02 123.884 205.975 124.81 206.435 125.75C206.895 126.691 206.861 127.653 206.778 128.115L206.166 132.132L205.868 134.469L205.717 135.637C205.671 136.027 205.635 136.418 205.593 136.808L205.351 139.149C205.277 139.929 205.225 140.712 205.16 141.494C205.018 143.057 204.96 144.623 204.868 146.188C204.605 152.448 204.726 158.716 205.333 164.931C205.641 168.038 206.04 171.132 206.578 174.202C207.118 177.27 207.771 180.316 208.548 183.327C209.323 186.337 210.222 189.315 211.247 192.244L211.64 193.339C211.771 193.704 211.899 194.071 212.041 194.431L212.456 195.516C212.594 195.878 212.733 196.24 212.882 196.597C213.178 197.313 213.457 198.037 213.771 198.743L214.248 199.846C214.429 200.27 214.16 200.846 213.559 201.457C212.961 202.065 212.042 202.703 210.938 203.213L210.936 203.212Z" fill="#082640"/>
<path d="M208.015 204.032C207.094 204.094 206.397 203.886 206.189 203.402L205.671 202.204C205.329 201.435 205.027 200.651 204.706 199.873C204.544 199.485 204.393 199.092 204.244 198.7L203.794 197.523C203.641 197.131 203.502 196.735 203.359 196.341L202.935 195.155C201.824 191.986 200.855 188.771 200.018 185.526C199.182 182.281 198.479 179.005 197.899 175.71C197.323 172.415 196.893 169.098 196.565 165.775C195.916 159.126 195.787 152.446 196.068 145.797C196.165 144.137 196.229 142.474 196.378 140.819C196.445 139.991 196.503 139.161 196.581 138.334L196.837 135.856C196.88 135.443 196.92 135.03 196.968 134.618L197.126 133.384L197.443 130.914L197.815 128.454L198.002 127.225L198.046 126.943C198.06 126.853 198.072 126.764 198.089 126.676C198.236 125.85 199.059 124.382 200.002 123.938L199.693 125.68L199.539 126.551C199.485 126.841 199.437 127.133 199.395 127.425L199.015 129.919C198.954 130.335 198.883 130.749 198.829 131.166L198.668 132.418L198.348 134.921L198.088 137.433L197.958 138.69L197.857 139.948L197.658 142.467L197.52 144.99C197.499 145.411 197.472 145.832 197.454 146.252L197.416 147.516C197.286 150.885 197.316 154.262 197.432 157.635L197.543 160.164L197.713 162.692L197.755 163.323L197.812 163.954L197.927 165.217L198.043 166.479L198.186 167.739L198.331 168.997L198.404 169.627L198.489 170.256L198.841 172.768L199.252 175.271C199.316 175.689 199.399 176.104 199.476 176.52L199.711 177.767C200.355 181.088 201.13 184.387 202.046 187.65C202.961 190.912 204.017 194.138 205.217 197.312C205.522 198.104 205.818 198.9 206.146 199.683L206.626 200.862C206.704 201.06 206.792 201.253 206.876 201.449L207.117 202.007L207.557 203.025L208.016 204.035L208.015 204.032Z" fill="#082640"/>
<path d="M216.334 205.057L209.129 208.747C208.558 209.042 207.847 208.789 207.541 208.186C207.206 207.513 206.885 206.833 206.557 206.156L205.619 204.108C205.346 203.49 205.61 202.781 206.199 202.527L213.628 199.311C214.219 199.056 214.891 199.306 215.135 199.863L215.985 201.715C216.28 202.324 216.57 202.938 216.871 203.545C217.146 204.085 216.905 204.762 216.334 205.057Z" fill="#082640"/>
<path d="M209.629 207.146C209.302 206.488 208.988 205.823 208.668 205.161L207.75 203.158C207.483 202.553 207.752 201.853 208.34 201.601L206.199 202.528C205.61 202.781 205.346 203.49 205.619 204.109L206.557 206.157C206.885 206.834 207.206 207.512 207.541 208.187C207.847 208.791 208.558 209.042 209.129 208.748L211.207 207.684C210.635 207.979 209.93 207.738 209.63 207.148L209.629 207.146Z" fill="#082640"/>
<path d="M239.365 106.717C238.756 106.734 238.177 106.702 237.65 106.641C237.122 106.58 236.65 106.488 236.237 106.377C235.829 106.266 235.495 106.136 235.26 105.989C235.021 105.843 234.9 105.678 234.866 105.491L234.773 104.817C234.761 104.705 234.737 104.593 234.714 104.481L234.647 104.144C234.576 103.721 234.449 103.304 234.346 102.884C234.321 102.778 234.288 102.675 234.254 102.572L234.153 102.261L234.054 101.95C234.022 101.845 233.989 101.742 233.945 101.641C233.779 101.235 233.644 100.818 233.448 100.423L233.176 99.8213L232.866 99.2347C232.674 98.8369 232.428 98.4658 232.205 98.082C232.098 97.8882 231.962 97.7096 231.84 97.5235L231.466 96.97L231.058 96.4383C230.919 96.2636 230.796 96.0762 230.644 95.9117L230.205 95.4016L229.987 95.1453L229.752 94.903C227.288 92.2762 224.123 90.2576 220.605 88.9455L220.188 88.7874C219.996 88.7057 219.706 88.5744 219.398 88.3474C219.245 88.2339 219.086 88.0975 218.932 87.9356C218.776 87.7749 218.625 87.5849 218.479 87.3872C218.189 86.983 217.946 86.4691 217.821 85.8303C217.697 85.1914 217.69 84.4263 217.9 83.5261C218.119 82.5837 218.476 81.8926 218.924 81.3953C219.369 80.898 219.903 80.5919 220.446 80.4172C220.719 80.3241 220.991 80.2833 221.256 80.2629C221.521 80.2425 221.778 80.2464 222.016 80.2629C222.494 80.2999 222.901 80.3892 223.155 80.4937L223.703 80.7003C226.011 81.5661 228.257 82.673 230.363 84.0387C232.47 85.4018 234.435 87.0238 236.178 88.8779L236.507 89.2222L236.819 89.5831L237.442 90.3099C237.655 90.5471 237.838 90.811 238.036 91.061L238.616 91.8235L239.157 92.6179C239.334 92.8844 239.521 93.1446 239.682 93.4238C240.01 93.976 240.355 94.5179 240.644 95.0956L241.091 95.9525L241.494 96.8336C241.773 97.4151 241.989 98.0297 242.226 98.6316C242.287 98.782 242.337 98.9363 242.387 99.0906L242.537 99.5548L242.686 100.019C242.737 100.173 242.786 100.329 242.824 100.487C242.987 101.119 243.167 101.747 243.282 102.395L243.384 102.908C243.418 103.079 243.453 103.25 243.474 103.425L243.619 104.467C243.664 104.755 243.551 105.051 243.352 105.319C243.149 105.588 242.845 105.832 242.459 106.035C242.078 106.239 241.604 106.402 241.08 106.517C240.554 106.632 239.977 106.698 239.368 106.715L239.365 106.717Z" fill="#FFAE12"/>
<path d="M236.355 106.409C235.913 106.297 235.549 106.163 235.294 106.011C235.167 105.934 235.066 105.854 234.995 105.767C234.959 105.724 234.932 105.679 234.912 105.633C234.889 105.588 234.874 105.54 234.866 105.491L234.773 104.817C234.761 104.705 234.737 104.593 234.714 104.481L234.647 104.144C234.576 103.721 234.449 103.304 234.346 102.884C234.321 102.778 234.288 102.675 234.254 102.572L234.153 102.261L234.054 101.95C234.022 101.845 233.989 101.742 233.945 101.641C233.779 101.235 233.644 100.818 233.448 100.423L233.176 99.8213L232.866 99.2347C232.674 98.8369 232.428 98.4658 232.205 98.082C232.098 97.8882 231.962 97.7096 231.84 97.5235L231.466 96.9701L231.058 96.4383C230.919 96.2636 230.796 96.0762 230.644 95.9117L230.205 95.4016L229.987 95.1453L229.753 94.903C227.288 92.2762 224.123 90.2576 220.605 88.9455L220.188 88.7874C220.105 88.7568 220.018 88.7109 219.922 88.6611C219.827 88.6139 219.727 88.5553 219.625 88.489C219.421 88.3564 219.211 88.188 219.009 87.9955C218.613 87.5976 218.234 87.1564 218.078 86.6719L218.849 86.8721L219.604 87.1131L220.358 87.3528C220.607 87.4408 220.851 87.5377 221.097 87.6295C222.943 88.3219 224.705 89.1941 226.335 90.25C227.965 91.3045 229.46 92.5427 230.775 93.9403L231.025 94.1991L231.258 94.472L231.726 95.0165C231.888 95.1938 232.021 95.3927 232.17 95.5801L232.606 96.1488L233.007 96.7405C233.138 96.9394 233.282 97.1307 233.397 97.3386C233.637 97.7492 233.898 98.147 234.106 98.5742L234.437 99.2041L234.731 99.8506C234.94 100.277 235.089 100.724 235.266 101.161C235.312 101.27 235.348 101.382 235.382 101.494L235.491 101.83L235.599 102.165C235.637 102.276 235.673 102.388 235.699 102.502C235.812 102.956 235.948 103.406 236.025 103.865C236.066 104.077 236.113 104.287 236.149 104.497L236.235 105.134L236.28 105.451C236.293 105.557 236.297 105.663 236.306 105.77L236.355 106.406V106.409Z" fill="#F09E00"/>
<path d="M238.838 111.603C237.446 111.243 236.235 110.713 235.385 110.239C234.949 109.995 234.603 109.76 234.375 109.54C234.148 109.321 234.043 109.118 234.057 108.917L234.098 108.558C234.112 108.439 234.131 108.321 234.131 108.198L234.167 107.466C234.161 107.218 234.157 106.97 234.154 106.722C234.149 106.474 234.116 106.222 234.102 105.972C234.092 105.868 234.129 105.762 234.181 105.655C234.236 105.548 234.323 105.438 234.441 105.327C234.676 105.107 235.03 104.877 235.475 104.65C236.357 104.199 237.585 103.738 239 103.463C240.409 103.187 241.745 103.179 242.748 103.463C243.244 103.604 243.659 103.816 243.962 104.084C244.113 104.218 244.236 104.366 244.328 104.524C244.421 104.682 244.464 104.855 244.481 105.034C244.511 105.464 244.556 105.891 244.567 106.323L244.586 107.624C244.572 108.06 244.549 108.497 244.526 108.933C244.52 109.151 244.492 109.371 244.468 109.59L244.393 110.248C244.358 110.614 244.146 110.944 243.83 111.209C243.514 111.476 243.088 111.677 242.586 111.8C241.554 112.049 240.229 111.966 238.837 111.606L238.838 111.603Z" fill="#FFAE12"/>
<path d="M234.057 108.998C234.061 109.047 234.075 109.097 234.096 109.148C234.112 109.196 234.136 109.246 234.17 109.297C234.233 109.398 234.329 109.502 234.45 109.609C234.692 109.823 235.046 110.054 235.475 110.289C236.32 110.749 237.494 111.257 238.839 111.605C240.185 111.952 241.465 112.042 242.481 111.823C242.981 111.714 243.403 111.532 243.731 111.287C243.894 111.165 244.033 111.028 244.143 110.878C244.197 110.803 244.246 110.725 244.285 110.643C244.321 110.563 244.349 110.479 244.368 110.393C244.372 110.039 244.24 109.688 243.995 109.369C243.756 109.049 243.374 108.765 242.921 108.528C242.009 108.052 240.757 107.791 239.368 107.756C237.98 107.722 236.707 107.892 235.761 108.117C235.285 108.231 234.907 108.366 234.603 108.509C234.306 108.653 234.116 108.814 234.059 108.998H234.057Z" fill="#F09E00"/>
<path d="M235.069 110.053C234.731 109.844 234.465 109.644 234.293 109.457C234.208 109.362 234.145 109.272 234.108 109.182C234.07 109.093 234.047 109.003 234.057 108.916L234.098 108.558C234.112 108.438 234.131 108.32 234.131 108.197L234.167 107.465C234.161 107.217 234.157 106.969 234.154 106.721C234.149 106.473 234.116 106.221 234.102 105.972C234.094 105.88 234.119 105.788 234.162 105.695C234.202 105.602 234.268 105.507 234.356 105.412C234.534 105.22 234.805 105.023 235.151 104.825L235.245 105.492C235.276 105.714 235.28 105.936 235.302 106.158L235.329 106.491C235.34 106.601 235.334 106.711 235.338 106.822L235.349 107.484L235.317 108.138C235.311 108.246 235.311 108.357 235.301 108.464L235.262 108.786L235.227 109.107C235.215 109.214 235.208 109.323 235.183 109.426L235.07 110.055L235.069 110.053Z" fill="#F09E00"/>
<path d="M242.476 110.385C242.123 112.237 241.509 114.062 240.608 115.758L240.257 116.387L240.08 116.699L239.881 117.001C239.615 117.399 239.352 117.818 239.066 118.163C238.514 118.895 237.915 119.581 237.287 120.228C236.03 121.519 234.648 122.64 233.193 123.613C232.467 124.103 231.716 124.547 230.95 124.961C230.181 125.375 229.404 125.75 228.564 126.091C228.183 126.042 227.538 125.234 227.115 124.126C226.866 123.47 226.676 122.866 226.597 122.418C226.537 122.11 226.531 121.874 226.588 121.758C227.187 121.442 227.805 121.065 228.391 120.668C228.98 120.268 229.555 119.846 230.098 119.392C231.19 118.492 232.183 117.5 233.03 116.43C233.452 115.895 233.843 115.344 234.186 114.774C234.38 114.491 234.502 114.215 234.652 113.941L234.761 113.737L234.853 113.522L235.038 113.092C235.506 111.937 235.792 110.692 235.9 109.417C235.915 109.125 236.307 108.907 236.93 108.756C237.558 108.61 238.397 108.527 239.328 108.592C240.259 108.658 241.092 108.872 241.656 109.199C242.225 109.523 242.542 109.959 242.476 110.383V110.385Z" fill="#FFD7BE"/>
<path d="M236.78 108.797C236.701 110.237 236.418 111.655 235.917 112.979L235.826 113.231C235.793 113.312 235.753 113.391 235.718 113.472L235.5 113.955C235.433 114.121 235.338 114.267 235.256 114.423L235.002 114.887L234.398 115.819L233.726 116.718C232.786 117.893 231.683 118.966 230.476 119.932C230.18 120.18 229.86 120.4 229.551 120.635C229.231 120.855 228.916 121.083 228.586 121.287C228.423 121.393 228.259 121.499 228.092 121.596C227.926 121.695 227.761 121.798 227.592 121.89C227.26 122.083 226.915 122.263 226.594 122.421C226.534 122.112 226.529 121.876 226.585 121.76C227.184 121.444 227.803 121.068 228.388 120.67C228.977 120.271 229.552 119.849 230.096 119.395C231.187 118.494 232.18 117.502 233.027 116.433C233.449 115.897 233.841 115.346 234.184 114.776C234.378 114.493 234.5 114.218 234.649 113.943L234.759 113.739L234.851 113.524L235.035 113.094C235.503 111.939 235.789 110.694 235.897 109.419C235.912 109.151 236.242 108.947 236.776 108.799L236.78 108.797Z" fill="#F5BE97"/>
<path d="M174.718 88.5303C175.934 88.5112 177.039 88.6834 177.842 88.9588C178.648 89.2342 179.15 89.613 179.176 90.0414C179.2 90.5617 179.242 91.0679 179.288 91.5652C179.349 92.1671 179.426 92.7511 179.524 93.2969L179.587 93.6119L179.604 93.6909C179.617 93.7432 179.631 93.7955 179.649 93.8478C179.683 93.951 179.727 94.0518 179.788 94.141C179.85 94.229 179.935 94.3081 180.04 94.3374C180.145 94.3718 180.259 94.3553 180.361 94.3221C180.464 94.2902 180.565 94.2469 180.66 94.1946C180.684 94.1831 180.707 94.1678 180.732 94.1551L180.767 94.1347L180.825 94.0977L181.165 93.8822L181.518 93.6412C181.994 93.3084 182.48 92.9488 182.975 92.5509C183.963 91.768 184.98 90.8817 186.017 89.97C187.055 89.057 188.117 88.1083 189.215 87.1608C191.411 85.2647 193.752 83.3672 196.327 81.6662C196.482 81.5603 196.64 81.457 196.801 81.3563C197.245 81.0707 198.268 80.6346 199.41 80.7289C199.694 80.7519 199.983 80.8029 200.271 80.8998C200.56 80.998 200.846 81.1357 201.12 81.3219C201.67 81.6942 202.172 82.2642 202.592 83.0892C203.03 83.9513 203.214 84.7125 203.248 85.3667C203.265 85.6944 203.245 85.9941 203.195 86.2695C203.146 86.5462 203.072 86.8038 202.978 87.0333C202.603 87.9476 201.939 88.5265 201.573 88.7612C201.443 88.8428 201.313 88.9282 201.184 89.0149C199.067 90.4138 197.026 92.0536 194.97 93.8299C193.941 94.7174 192.907 95.6406 191.836 96.5842C190.762 97.5266 189.663 98.4906 188.449 99.4534C187.848 99.9341 187.207 100.415 186.53 100.887L186.012 101.239C185.832 101.356 185.655 101.467 185.464 101.588L185.278 101.705C185.214 101.745 185.14 101.787 185.071 101.825L184.648 102.061C184.363 102.214 184.087 102.386 183.793 102.514C183.503 102.649 183.214 102.792 182.922 102.921L182.035 103.253C181.887 103.312 181.736 103.355 181.587 103.405L181.363 103.476L181.14 103.534C180.841 103.618 180.543 103.652 180.245 103.705C179.057 103.899 177.855 103.834 176.719 103.437C176.432 103.352 176.161 103.22 175.89 103.094C175.756 103.026 175.628 102.95 175.498 102.877L175.303 102.767C175.241 102.728 175.18 102.685 175.118 102.643L174.75 102.39L174.408 102.103L174.237 101.959L174.079 101.801L173.762 101.485C173.66 101.375 173.566 101.256 173.468 101.143C173.374 101.026 173.269 100.919 173.183 100.794L172.92 100.421C172.832 100.298 172.748 100.17 172.671 100.036C172.516 99.7696 172.354 99.5082 172.226 99.22C172.094 98.9356 171.946 98.6615 171.839 98.3593C171.595 97.7752 171.404 97.1581 171.233 96.5371L171.001 95.5947L170.859 94.8768C170.709 94.039 170.604 93.2293 170.524 92.4336C170.463 91.782 170.412 91.1368 170.381 90.5043C170.352 89.9726 170.831 89.4791 171.618 89.1246C172.407 88.7688 173.504 88.552 174.721 88.5329L174.718 88.5303Z" fill="#FFAE12"/>
<path d="M177.726 88.9204C178.598 89.1996 179.15 89.5924 179.176 90.0425C179.2 90.5628 179.242 91.069 179.288 91.5663C179.349 92.1682 179.426 92.7522 179.524 93.298L179.587 93.6129L179.604 93.692C179.617 93.7443 179.631 93.7966 179.649 93.8489C179.683 93.9521 179.727 94.0529 179.788 94.1421C179.85 94.2301 179.935 94.3092 180.04 94.3385C180.145 94.3729 180.259 94.3564 180.361 94.3232C180.464 94.2913 180.565 94.248 180.66 94.1957C180.684 94.1842 180.707 94.1689 180.732 94.1562L180.767 94.1358L180.825 94.0988L181.165 93.8833L181.518 93.6423C181.994 93.3095 182.48 92.9499 182.975 92.552C183.963 91.7691 184.98 90.8828 186.017 89.9711C187.055 89.0581 188.117 88.1094 189.215 87.1619C191.411 85.2658 193.752 83.3683 196.327 81.6673C196.482 81.5614 196.64 81.4581 196.801 81.3574C196.991 81.2363 197.242 81.1177 197.527 81.0144C197.814 80.9137 198.139 80.8333 198.467 80.7785C198.793 80.7224 199.133 80.7058 199.447 80.7237C199.762 80.7441 200.052 80.7989 200.296 80.9111C199.197 81.513 198.132 82.1595 197.101 82.8404C194.6 84.4943 192.306 86.3496 190.132 88.2267C189.044 89.1652 187.987 90.1088 186.944 91.0269C185.901 91.9438 184.871 92.8428 183.847 93.6538C183.334 94.0656 182.824 94.4431 182.317 94.7988L181.937 95.0577L181.563 95.2949L181.502 95.3331L181.452 95.3637L181.355 95.4198C181.29 95.4568 181.228 95.4964 181.16 95.5295C180.899 95.6723 180.623 95.7922 180.339 95.8815C180.058 95.972 179.747 96.0179 179.46 95.9235C179.17 95.8407 178.94 95.6239 178.769 95.3841C178.6 95.138 178.481 94.8613 178.387 94.5795C178.339 94.438 178.3 94.2939 178.264 94.1498L178.214 93.9317L178.141 93.5517C178.035 92.9601 177.953 92.3391 177.889 91.7066C177.8 90.8012 177.75 89.8665 177.726 88.9229V88.9204Z" fill="#F09E00"/>
<path d="M174.817 83.6006C176.253 83.6745 177.544 83.9691 178.469 84.3682C179.395 84.7686 179.959 85.2723 179.945 85.8015C179.909 87.0728 179.909 88.3263 179.959 89.5377C179.979 90.0427 179.425 90.5196 178.51 90.9263C177.593 91.3318 176.321 91.6698 174.888 91.8062C173.457 91.9426 172.132 91.8215 171.163 91.4823C170.191 91.1457 169.573 90.5935 169.547 89.9598C169.487 88.4474 169.489 86.9733 169.529 85.5197C169.545 84.9101 170.15 84.3848 171.109 84.0392C172.069 83.6924 173.38 83.5253 174.819 83.5993L174.817 83.6006Z" fill="#FFAE12"/>
<path d="M179.94 85.6928C179.879 85.1853 179.291 84.7071 178.374 84.3271C177.456 83.9497 176.205 83.6717 174.819 83.6003C173.43 83.5289 172.16 83.6819 171.21 84.0045C170.259 84.3258 169.635 84.8193 169.542 85.397C169.601 85.9772 170.2 86.5127 171.128 86.8902C172.061 87.2702 173.322 87.4908 174.712 87.4908C176.102 87.4908 177.364 87.2804 178.3 86.959C179.238 86.6339 179.849 86.1965 179.941 85.6928H179.94Z" fill="#F09E00"/>
<path d="M178.807 84.5264C179.532 84.8974 179.956 85.3399 179.946 85.8015C179.91 87.0729 179.91 88.3263 179.96 89.5377C179.978 89.9777 179.557 90.3972 178.844 90.767C178.703 88.7688 178.717 86.6546 178.807 84.5264Z" fill="#F09E00"/>
<path d="M171.424 85.2355C171.687 81.9494 172.124 78.7398 172.645 75.557C173.17 72.373 173.777 69.231 174.481 66.0813C174.732 65.8276 175.748 65.7804 176.914 65.9972C177.604 66.126 178.212 66.3083 178.626 66.5034C178.914 66.6386 179.11 66.7763 179.171 66.9038C178.797 69.9871 178.51 73.1087 178.311 76.2074C178.116 79.3073 178.008 82.4046 178.068 85.442C178.078 86.1281 176.584 86.6738 174.717 86.6547C172.85 86.6356 171.371 85.9916 171.425 85.2355H171.424Z" fill="#FFD7BE"/>
<path d="M177.243 86.2529C177.185 83.0063 177.335 79.7011 177.581 76.3997C177.831 73.0996 178.179 69.7778 178.626 66.502C178.914 66.6371 179.11 66.7748 179.171 66.9024C178.797 69.9857 178.51 73.1073 178.311 76.2059C178.116 79.3058 178.008 82.4032 178.068 85.4406C178.074 85.7556 177.76 86.0386 177.243 86.2516V86.2529Z" fill="#F5BE97"/>
<path d="M183.718 65.2371L180.6 69.366C179.365 71.0021 177.044 71.4611 175.35 70.3033C173.542 69.0677 173.152 66.5887 174.457 64.8609L177.639 60.6465C178.096 60.0421 178.955 59.9222 179.56 60.3787L183.45 63.3167C184.055 63.7732 184.175 64.6327 183.718 65.2371Z" fill="#FFD7BE"/>
<path d="M178.495 70.5001C178.03 70.5001 177.595 70.2094 177.433 69.7452C177.227 69.1586 177.537 68.516 178.124 68.3119C181.749 67.0457 185.006 66.1518 185.039 66.1429C185.638 65.9784 186.258 66.3316 186.421 66.9322C186.586 67.5315 186.233 68.1513 185.633 68.3145C185.601 68.3234 182.415 69.1982 178.866 70.4376C178.744 70.481 178.617 70.5014 178.495 70.5014V70.5001Z" fill="#FFD7BE"/>
<path d="M181.81 67.2099C181.62 67.2099 181.429 67.1512 181.265 67.0301C180.855 66.7278 180.769 66.1515 181.071 65.7422C184.028 61.7356 185.028 58.8933 185.038 58.8652C185.204 58.3858 185.726 58.1295 186.207 58.294C186.688 58.4585 186.944 58.9813 186.78 59.462C186.736 59.587 185.696 62.5772 182.553 66.835C182.371 67.0798 182.093 67.2086 181.812 67.2086L181.81 67.2099Z" fill="#FFD7BE"/>
<path d="M180.267 66.0443C180.077 66.0443 179.885 65.9857 179.72 65.8633C179.312 65.5611 179.226 64.9834 179.529 64.5754C181.79 61.5252 183.869 55.9158 183.89 55.8597C184.066 55.3827 184.595 55.1379 185.072 55.3139C185.549 55.4899 185.794 56.019 185.618 56.496C185.53 56.7357 183.426 62.4101 181.01 65.6707C180.829 65.9143 180.551 66.0431 180.269 66.0431L180.267 66.0443Z" fill="#FFD7BE"/>
<path d="M178.725 64.8787C178.524 64.8787 178.323 64.8137 178.155 64.6798C177.755 64.3648 177.688 63.7859 178.004 63.3868C180.136 60.6911 181.666 55.6555 181.682 55.6045C181.828 55.1174 182.342 54.842 182.828 54.9886C183.315 55.1353 183.591 55.6479 183.445 56.135C183.379 56.3543 181.8 61.5557 179.448 64.5293C179.266 64.7589 178.996 64.8787 178.725 64.8787Z" fill="#FFD7BE"/>
<path d="M177.18 63.7136C176.999 63.7136 176.816 63.6601 176.655 63.5478C176.238 63.2571 176.135 62.6833 176.425 62.2663C178.384 59.4559 179.143 55.8357 179.149 55.8C179.251 55.3027 179.737 54.9813 180.236 55.0833C180.733 55.1854 181.054 55.6712 180.954 56.1685C180.92 56.3305 180.117 60.1891 177.936 63.3183C177.758 63.5746 177.471 63.7123 177.18 63.7123V63.7136Z" fill="#FFD7BE"/>
<path d="M209.733 79.988C213.32 80.1155 215.704 77.7756 214.675 76.999C213.646 76.2225 205.255 75.9521 204.303 76.999C203.343 78.0549 207.533 79.9102 209.733 79.988Z" fill="#F09E00"/>
<path d="M226.869 83.4391C225.245 81.4614 220.724 78.707 209.984 78.707C199.243 78.707 194.723 81.4614 193.098 83.4391C191.474 85.4169 198.43 124.192 198.43 124.192C198.43 124.192 198.125 126.009 209.984 126.009C221.843 126.009 221.538 124.192 221.538 124.192C221.538 124.192 228.494 85.4169 226.869 83.4391Z" fill="#FFAE12"/>
<path d="M221.679 123.396C220.096 123.54 218.035 123.633 215.348 123.633C203.489 123.633 203.794 121.816 203.794 121.816C203.794 121.816 196.838 83.0407 198.463 81.0629C198.785 80.6702 199.224 80.2455 199.802 79.8184C196.067 80.8015 194.067 82.2577 193.098 83.4373C191.474 85.415 198.43 124.19 198.43 124.19C198.43 124.19 198.125 126.007 209.984 126.007C221.843 126.007 221.538 124.19 221.538 124.19C221.538 124.19 221.589 123.909 221.679 123.396Z" fill="#F09E00"/>
<path d="M209.493 82.9319C206.422 82.9319 204.135 80.5817 204.364 77.9077L205.444 65.3232C205.466 65.0835 205.489 64.8476 205.509 64.6206C205.732 63.1822 207.473 62.0996 209.494 62.0996C211.515 62.0996 213.256 63.1822 213.479 64.6206C213.501 64.8476 213.522 65.0835 213.544 65.3232L214.624 77.9077C214.854 80.5817 212.566 82.9319 209.495 82.9319H209.493Z" fill="#FFD7BE"/>
<path d="M207.242 77.9077L207.717 65.3232C207.727 65.0835 207.738 64.8488 207.748 64.6206C207.875 63.4372 209.038 62.4987 210.555 62.2016C210.217 62.1366 209.861 62.0996 209.494 62.0996C207.473 62.0996 205.732 63.1822 205.509 64.6206C205.488 64.8476 205.466 65.0835 205.444 65.3232L204.364 77.9077C204.135 80.5817 206.422 82.9319 209.493 82.9319C210.035 82.9319 210.556 82.8528 211.047 82.7113C208.752 82.0609 207.159 80.0921 207.242 77.9077Z" fill="#F5BE97"/>
<path d="M219.867 125.604L210.975 129.808L204.178 127.18C202.372 126.482 201.072 127.114 200.572 125.32C200.398 124.7 200.469 120.469 200.504 119.801L201.371 102.533C201.455 101.001 202.722 99.8027 204.256 99.8027H215.98C217.526 99.8027 218.799 101.021 218.865 102.566L219.866 125.604H219.867Z" fill="#082640"/>
<path d="M220.27 125.604L211.129 130.665L200.504 126.589L201.774 102.533C201.858 101.001 203.125 99.8027 204.659 99.8027H216.382C217.929 99.8027 219.202 101.021 219.268 102.566L220.269 125.604H220.27Z" fill="#082640"/>
<path d="M204.303 77.001C204.303 79.0106 214.675 79.184 214.675 77.001C216.798 78.4241 217.364 83.8269 209.984 83.8269C199.518 83.8269 204.303 77.001 204.303 77.001Z" fill="#FFAE12"/>
<path d="M211.093 83.1345C203.595 83.1345 203.925 79.6304 204.716 77.6424C204.455 77.4549 204.304 77.2407 204.304 77.001C204.304 77.001 199.52 83.8269 209.985 83.8269C212.359 83.8269 213.911 83.2671 214.852 82.4612C213.933 82.8769 212.701 83.1345 211.093 83.1345Z" fill="#F09E00"/>
<path d="M216.283 103.899C215.731 103.899 215.216 103.679 214.833 103.283C214.449 102.885 214.25 102.361 214.271 101.809C214.44 97.3225 215.228 86.1445 218.866 79.2395L218.923 79.2051L222.609 80.1844L222.521 80.28C218.914 87.1289 218.365 97.6961 218.296 101.922C218.279 103.012 217.376 103.9 216.284 103.9L216.283 103.899Z" fill="#082640"/>
<path d="M222.688 80.2089L219.3 79.3086C215.673 86.1932 214.891 97.3508 214.722 101.814C214.683 102.87 215.527 103.748 216.584 103.748C217.6 103.748 218.43 102.935 218.447 101.918C218.516 97.6925 219.063 87.0934 222.689 80.2089H222.688Z" fill="#082640"/>
<path d="M203.418 103.899C202.326 103.899 201.422 103.011 201.406 101.921C201.337 97.6962 200.79 87.1289 197.181 80.2788L197.204 80.3094L200.891 79.3301L200.947 79.4512C204.585 86.3575 205.262 97.3226 205.431 101.809C205.452 102.361 205.253 102.885 204.869 103.283C204.487 103.68 203.971 103.9 203.419 103.9L203.418 103.899Z" fill="#082640"/>
<path d="M197.613 80.2089L201.002 79.3086C204.628 86.1932 205.411 97.3508 205.579 101.814C205.619 102.87 204.775 103.748 203.718 103.748C202.701 103.748 201.871 102.935 201.855 101.918C201.786 97.6925 201.239 87.0934 197.612 80.2089H197.613Z" fill="#082640"/>
<path d="M203.665 103.271C204.445 103.271 205.077 102.639 205.077 101.86C205.077 101.08 204.445 100.448 203.665 100.448C202.886 100.448 202.254 101.08 202.254 101.86C202.254 102.639 202.886 103.271 203.665 103.271Z" fill="#FFAE12"/>
<path d="M204.461 101.859C204.461 102.299 204.104 102.656 203.664 102.656C203.224 102.656 202.867 102.299 202.867 101.859C202.867 101.42 203.224 101.062 203.664 101.062C204.104 101.062 204.461 101.42 204.461 101.859Z" fill="#F09E00"/>
<path d="M216.484 103.271C217.264 103.271 217.896 102.639 217.896 101.86C217.896 101.08 217.264 100.448 216.484 100.448C215.705 100.448 215.073 101.08 215.073 101.86C215.073 102.639 215.705 103.271 216.484 103.271Z" fill="#FFAE12"/>
<path d="M217.281 101.859C217.281 102.299 216.924 102.656 216.484 102.656C216.045 102.656 215.688 102.299 215.688 101.859C215.688 101.42 216.045 101.062 216.484 101.062C216.924 101.062 217.281 101.42 217.281 101.859Z" fill="#F09E00"/>
<path d="M216.824 107.84H203.951C203.868 107.84 203.8 107.772 203.8 107.69C203.8 107.607 203.868 107.539 203.951 107.539H216.824C216.907 107.539 216.974 107.607 216.974 107.69C216.974 107.772 216.907 107.84 216.824 107.84Z" fill="#082640"/>
<path d="M201.263 61.7468C199.962 52.7671 203.353 49.7169 208.318 49.7692C212.405 49.8126 217.266 51.256 215.468 60.9268C213.67 70.5976 201.262 61.7468 201.262 61.7468H201.263Z" fill="#915C3B"/>
<path d="M217.791 63.4452C217.998 62.161 217.125 60.9521 215.841 60.7451C214.557 60.538 213.348 61.4112 213.141 62.6953C212.934 63.9795 213.807 65.1884 215.091 65.3954C216.375 65.6025 217.584 64.7294 217.791 63.4452Z" fill="#F5BE97"/>
<path d="M216.299 65.0454C217.391 64.5873 217.906 63.3304 217.447 62.238C216.989 61.1457 215.733 60.6314 214.64 61.0895C213.548 61.5476 213.034 62.8045 213.492 63.8969C213.95 64.9893 215.207 65.5035 216.299 65.0454Z" fill="#FFD7BE"/>
<path d="M216.778 63.2953C216.901 62.5738 216.415 61.8898 215.694 61.7674C214.972 61.645 214.288 62.1306 214.166 62.852C214.043 63.5734 214.529 64.2574 215.25 64.3798C215.972 64.5022 216.656 64.0167 216.778 63.2953Z" fill="#F5BE97"/>
<path d="M202.928 64.7377C203.848 63.8179 203.848 62.3266 202.928 61.4069C202.009 60.4871 200.517 60.4871 199.598 61.4069C198.678 62.3266 198.678 63.8179 199.598 64.7377C200.517 65.6574 202.009 65.6574 202.928 64.7377Z" fill="#F5BE97"/>
<path d="M202.034 65.0713C203.139 64.6451 203.69 63.4036 203.263 62.2984C202.837 61.1932 201.596 60.6428 200.49 61.069C199.385 61.4953 198.835 62.7368 199.261 63.842C199.687 64.9472 200.929 65.4976 202.034 65.0713Z" fill="#FFD7BE"/>
<path d="M202.2 64.0091C202.717 63.4917 202.717 62.6528 202.2 62.1354C201.682 61.618 200.843 61.618 200.326 62.1354C199.809 62.6528 199.809 63.4917 200.326 64.0091C200.843 64.5265 201.682 64.5265 202.2 64.0091Z" fill="#F5BE97"/>
<path d="M215.285 57.3419C215.285 53.5292 212.194 50.4395 208.382 50.4395C204.571 50.4395 201.48 53.5304 201.48 57.3419V68.636C201.48 72.4487 204.571 75.5384 208.382 75.5384C212.194 75.5384 215.285 72.4474 215.285 68.636V57.3419Z" fill="#FFD7BE"/>
<path d="M203.446 59.4101C203.396 59.4101 203.347 59.3936 203.306 59.3604C203.209 59.2826 203.194 59.1411 203.271 59.0442C204.597 57.3916 206.83 57.5229 206.925 57.5293C207.048 57.5382 207.143 57.6453 207.134 57.769C207.126 57.8927 207.019 57.9871 206.894 57.9781C206.872 57.9756 204.799 57.8583 203.622 59.326C203.577 59.3808 203.512 59.4101 203.446 59.4101Z" fill="#915C3B"/>
<path d="M212.537 57.9756C212.475 57.9756 212.414 57.9501 212.37 57.9004C211.729 57.1888 211.061 56.8713 210.203 56.8713C210.078 56.8713 209.977 56.7706 209.977 56.6456C209.977 56.5207 210.078 56.4199 210.203 56.4199C211.187 56.4199 211.982 56.7935 212.705 57.5982C212.788 57.6913 212.78 57.8328 212.688 57.9157C212.645 57.9539 212.591 57.9731 212.538 57.9731L212.537 57.9756Z" fill="#915C3B"/>
<path d="M209.745 62.4572C209.745 61.6118 209.059 60.9258 208.214 60.9258C207.368 60.9258 206.682 61.6118 206.682 62.4572V65.348C206.682 66.1935 207.368 66.8795 208.214 66.8795C209.059 66.8795 209.745 66.1935 209.745 65.348V62.4572Z" fill="#FFD7BE"/>
<path d="M208.626 66.2238C207.899 66.2238 207.308 65.6347 207.308 64.9066V61.2227C206.93 61.5019 206.682 61.9495 206.682 62.4557V65.3465C206.682 66.1919 207.368 66.878 208.214 66.878C208.957 66.878 209.576 66.3488 209.715 65.6462C209.478 65.9943 209.078 66.2226 208.626 66.2226V66.2238Z" fill="#F5BE97"/>
<path d="M205.934 61.4373C205.934 61.8351 205.689 62.1577 205.387 62.1577C205.085 62.1577 204.84 61.8351 204.84 61.4373C204.84 61.0394 205.085 60.7168 205.387 60.7168C205.689 60.7168 205.934 61.0394 205.934 61.4373Z" fill="#915C3B"/>
<path d="M211.255 61.4373C211.255 61.8351 211.01 62.1577 210.708 62.1577C210.406 62.1577 210.161 61.8351 210.161 61.4373C210.161 61.0394 210.406 60.7168 210.708 60.7168C211.01 60.7168 211.255 61.0394 211.255 61.4373Z" fill="#915C3B"/>
<path d="M215.14 64.6096C215.14 66.7773 213.997 68.6888 212.256 69.8186C212.381 69.6554 212.495 69.4832 212.591 69.3021C212.871 68.7832 212.855 68.1698 212.551 67.6636C212.248 67.1599 211.698 66.8475 211.112 66.8475C211.015 66.8475 210.918 66.8564 210.823 66.873C210.063 67.0043 209.254 67.0719 208.418 67.0719C207.581 67.0719 206.773 67.0056 206.013 66.873C205.917 66.8564 205.82 66.8475 205.723 66.8475C205.139 66.8475 204.587 67.1599 204.285 67.6636C203.98 68.1698 203.966 68.7832 204.244 69.3021C204.247 69.306 204.249 69.3111 204.252 69.3149C202.896 68.1634 202.041 66.4828 202.041 64.6096V54.6289C201.756 55.2627 201.564 55.9461 201.482 56.6641C201.481 56.724 201.477 56.7839 201.477 56.8439V68.7883C201.477 72.7043 204.501 75.5377 208.589 75.5377C209.47 75.5377 210.313 75.377 211.092 75.085C213.555 74.0279 215.282 71.586 215.282 68.7424V57.4483C215.282 56.9663 215.232 56.497 215.138 56.0431V64.6108L215.14 64.6096Z" fill="#F5BE97"/>
<path d="M208.214 68.4975C207.312 68.4975 206.454 68.4222 205.674 68.2858C205.328 68.2258 205.056 68.5931 205.222 68.9017C205.726 69.8415 206.875 70.4982 208.214 70.4982C209.553 70.4982 210.702 69.8415 211.205 68.9017C211.371 68.5931 211.099 68.2258 210.754 68.2858C209.973 68.4222 209.115 68.4975 208.214 68.4975Z" fill="white"/>
<path d="M208.214 70.766C206.819 70.766 205.553 70.0838 204.986 69.028C204.861 68.7959 204.882 68.5179 205.037 68.3024C205.195 68.0844 205.457 67.9773 205.72 68.0232C206.509 68.1609 207.348 68.231 208.214 68.231C209.08 68.231 209.917 68.1609 210.708 68.0232C210.971 67.9773 211.232 68.0844 211.39 68.3024C211.546 68.5179 211.566 68.7959 211.441 69.0293C210.876 70.0851 209.609 70.7673 208.214 70.7673V70.766ZM205.6 68.546C205.527 68.546 205.484 68.597 205.471 68.6148C205.454 68.6391 205.419 68.7016 205.458 68.7755C205.931 69.6605 207.014 70.2317 208.214 70.2317C209.414 70.2317 210.496 69.6605 210.969 68.7755C211.009 68.7016 210.973 68.6391 210.957 68.6148C210.943 68.5957 210.889 68.5345 210.8 68.5485C209.98 68.6914 209.11 68.764 208.214 68.764C207.317 68.764 206.448 68.6914 205.628 68.5485C205.618 68.5473 205.609 68.546 205.6 68.546Z" fill="#F28A7E"/>
<path d="M201.48 60.4635C201.939 55.039 202.402 52.4172 205.387 51.8982C208.373 51.3793 209.455 52.2247 211.066 53.1454C212.22 53.8046 213.768 53.6363 213.768 53.6363C213.768 53.6363 212.662 53.8212 213.714 56.0489C214.764 58.2766 215.5 59.3273 215.469 60.2952C215.671 55.4827 215.352 49.7738 209.006 50.034C199.119 50.4395 201.48 60.4635 201.48 60.4635Z" fill="#915C3B"/>
<path d="M208.811 53.3069C210.718 53.3069 212.217 53.6257 213.719 54.3475C215.285 55.0998 215.665 55.9236 215.839 56.5344C216.001 56.4604 216.079 56.3074 216.068 56.0855C216.031 55.4224 216.068 54.0554 216.068 53.752C216.068 49.6434 213.501 47 208.27 47C201.972 47 200.576 49.966 200.576 54.0746V56.3074C202.389 54.4865 205.544 53.3069 208.809 53.3069H208.811Z" fill="#FFAE12"/>
<path d="M202.997 54.3096V52.0768C202.997 50.3796 203.237 48.8775 203.961 47.6992C201.285 48.8086 200.577 51.1523 200.577 54.0763V56.3091C201.473 55.4088 202.699 54.6667 204.101 54.1451C203.705 53.9513 203.336 53.9704 202.997 54.3109V54.3096Z" fill="#F09E00"/>
<path d="M213.719 53.9985V54.3479C213.32 54.1732 212.509 53.4897 212.072 53.3622C211.079 53.0727 209.995 52.9146 208.86 52.9146C205.397 52.9146 202.408 54.3938 201.01 56.536L198.927 54.6361C198.7 54.4295 198.567 54.4435 198.54 54.1591C198.534 54.0916 198.539 53.7332 198.544 53.6657C198.565 53.4093 198.669 53.1594 198.862 52.9605C200.435 51.3347 203.029 50.2725 205.962 50.2725C207.694 50.2725 209.308 50.6423 210.663 51.2811C210.769 51.3308 210.865 51.3971 210.952 51.4762L213.719 54.001V53.9985Z" fill="#FFD47D"/>
<path d="M213.719 54.3471C212.331 53.6623 210.66 53.2632 208.859 53.2632C205.396 53.2632 202.407 54.7424 201.009 56.8847L198.926 54.9847C198.44 54.5422 198.404 53.7809 198.861 53.3091C200.434 51.6833 203.028 50.6211 205.961 50.6211C207.692 50.6211 209.307 50.9909 210.662 51.6297C210.768 51.6795 210.864 51.7458 210.95 51.8248L213.717 54.3497L213.719 54.3471Z" fill="#F09E00"/>
<path d="M222.809 129.18L224.413 124.26C225.05 122.311 227.095 121.121 229.072 121.665C231.183 122.246 232.359 124.462 231.688 126.52L230.051 131.542C229.816 132.262 229.042 132.655 228.322 132.42L223.687 130.909C222.966 130.674 222.573 129.9 222.808 129.18H222.809Z" fill="#FFD7BE"/>
<path d="M220.633 128.949C220.273 128.949 219.92 128.777 219.702 128.457C219.351 127.943 219.484 127.243 219.998 126.892C220.024 126.873 222.753 125.009 225.705 122.683C226.194 122.298 226.901 122.382 227.286 122.871C227.671 123.359 227.587 124.067 227.099 124.452C224.083 126.829 221.294 128.735 221.266 128.754C221.073 128.887 220.852 128.951 220.633 128.951V128.949Z" fill="#FFD7BE"/>
<path d="M222.715 136.554C222.207 136.554 221.796 136.145 221.794 135.636C221.794 135.503 221.804 132.338 223.391 127.287C223.542 126.802 224.06 126.532 224.545 126.685C225.029 126.837 225.3 127.355 225.147 127.84C223.655 132.591 223.634 135.603 223.634 135.633C223.634 136.141 223.222 136.553 222.715 136.554Z" fill="#FFD7BE"/>
<path d="M224.779 139.002C224.773 139.002 224.767 139.002 224.759 139.002C224.25 138.991 223.847 138.57 223.859 138.062C223.864 137.806 224.007 131.756 225.23 127.887C225.383 127.402 225.9 127.133 226.385 127.286C226.869 127.439 227.138 127.957 226.985 128.441C225.84 132.062 225.7 138.042 225.699 138.102C225.689 138.603 225.278 139.002 224.779 139.002Z" fill="#FFD7BE"/>
<path d="M226.951 138.581C226.46 138.581 226.052 138.192 226.032 137.697C226.023 137.468 225.822 132.035 227.079 128.459C227.247 127.979 227.772 127.727 228.252 127.895C228.731 128.063 228.984 128.589 228.815 129.068C227.677 132.311 227.869 137.571 227.87 137.623C227.891 138.131 227.495 138.559 226.987 138.579C226.974 138.579 226.962 138.579 226.95 138.579L226.951 138.581Z" fill="#FFD7BE"/>
<path d="M229.286 137.656C228.831 137.656 228.435 137.319 228.374 136.855C228.352 136.691 227.856 132.782 228.899 129.112C229.038 128.624 229.547 128.34 230.037 128.479C230.527 128.618 230.81 129.126 230.671 129.616C229.733 132.911 230.195 136.58 230.199 136.617C230.264 137.12 229.909 137.582 229.406 137.648C229.365 137.653 229.325 137.656 229.286 137.656Z" fill="#FFD7BE"/>
<path d="M206.95 220.344L211.389 218.911C213.151 216.867 212.322 214.339 210.748 212.456L217.823 207.652L224.142 216.961C221.282 218.903 213.436 224.087 213.416 224.055L205.488 225.164C205.17 223.369 204.717 221.07 206.949 220.344H206.95Z" fill="#FFAE12"/>
<path d="M217.823 207.652L224.142 216.961C223.131 217.647 219.809 219.859 219.809 219.859C221.129 214.789 215.607 209.157 215.607 209.157L217.823 207.652Z" fill="#F09E00"/>
<path d="M216.462 205.938L209.718 210.516C209.351 210.765 209.255 211.264 209.505 211.631L210.311 212.819C210.56 213.187 211.06 213.282 211.427 213.033L218.171 208.455C218.538 208.206 218.633 207.706 218.384 207.339L217.578 206.151C217.329 205.784 216.829 205.689 216.462 205.938Z" fill="#AB785B"/>
<path d="M211.7 218.426C211.655 218.426 211.612 218.407 211.583 218.37C211.531 218.305 211.542 218.211 211.607 218.16C212.65 217.327 213.814 216.821 214.884 216.733C214.968 216.727 215.04 216.788 215.046 216.871C215.052 216.953 214.991 217.026 214.908 217.033C213.897 217.115 212.792 217.599 211.794 218.394C211.766 218.416 211.733 218.428 211.701 218.428L211.7 218.426Z" fill="#AB785B"/>
<path d="M212.208 216.401C212.159 216.401 212.111 216.377 212.081 216.334C212.035 216.265 212.056 216.172 212.125 216.126C212.701 215.748 213.469 215.265 214.296 214.88C214.372 214.846 214.461 214.877 214.495 214.953C214.53 215.028 214.498 215.117 214.423 215.152C213.612 215.529 212.857 216.005 212.288 216.377C212.262 216.394 212.234 216.401 212.206 216.401H212.208Z" fill="#AB785B"/>
<path d="M211.93 214.804C211.881 214.804 211.834 214.781 211.805 214.738C211.759 214.669 211.777 214.576 211.845 214.53C212.413 214.148 213.16 213.647 213.914 213.163C213.984 213.119 214.077 213.139 214.122 213.209C214.166 213.279 214.146 213.372 214.076 213.417C213.325 213.899 212.58 214.399 212.014 214.78C211.988 214.798 211.959 214.806 211.93 214.806V214.804Z" fill="#AB785B"/>
<path d="M219.759 212.444C219.711 212.444 219.663 212.421 219.634 212.378L216.755 208.137C216.709 208.068 216.727 207.975 216.794 207.929C216.863 207.882 216.956 207.899 217.003 207.968L219.883 212.209C219.929 212.278 219.911 212.371 219.843 212.417C219.818 212.435 219.788 212.443 219.759 212.443V212.444Z" fill="#AB785B"/>
<path d="M205.484 225.133L213.381 223.927C213.614 223.891 213.836 223.8 214.029 223.661L223.61 216.738C224.032 216.43 224.614 216.531 224.907 216.963L225.631 218.03L220.686 221.918L220.236 221.362L216.348 224.331L215.392 224.98C214.658 225.496 214.104 225.7 213.087 225.843L204.786 227.001L204.679 226.233C204.606 225.716 204.966 225.222 205.481 225.133H205.484Z" fill="#AB785B"/>
<path d="M216.456 205.945C216.824 205.695 217.324 205.791 217.571 206.159L218.377 207.345C218.627 207.712 218.531 208.212 218.163 208.462L216.878 209.334L215.203 206.797L216.455 205.946L216.456 205.945Z" fill="#94674E"/>
<path d="M224.907 216.963L225.631 218.03L223.65 219.587L222.363 217.638L223.609 216.737C224.032 216.429 224.614 216.53 224.907 216.962V216.963Z" fill="#94674E"/>
<path d="M212.327 224.161H212.325C212.242 224.161 212.176 224.092 212.177 224.009C212.177 223.975 212.185 220.623 209.256 219.73C209.177 219.705 209.132 219.621 209.156 219.542C209.18 219.463 209.265 219.417 209.344 219.443C212.491 220.403 212.478 223.977 212.477 224.014C212.477 224.096 212.409 224.162 212.326 224.162L212.327 224.161Z" fill="#AB785B"/>
<path d="M206.18 223.469C206.429 223.434 206.624 223.224 206.631 222.965C206.634 222.928 206.738 221.81 208.734 221.367C209.017 221.305 209.196 221.024 209.133 220.741C209.071 220.458 208.789 220.278 208.507 220.342C205.676 220.971 205.584 222.853 205.582 222.933C205.573 223.223 205.8 223.466 206.091 223.475C206.121 223.475 206.151 223.475 206.18 223.47V223.469Z" fill="#FFD88A"/>
<path d="M211.564 219.035C211.52 219.035 211.477 219.016 211.448 218.98C211.395 218.916 211.404 218.822 211.469 218.769C212.129 218.229 214.043 216.137 210.982 211.855C210.934 211.787 210.949 211.694 211.017 211.645C211.084 211.597 211.177 211.612 211.226 211.68C214.438 216.175 212.37 218.42 211.659 219.001C211.631 219.024 211.598 219.035 211.565 219.035H211.564Z" fill="#AB785B"/>
</g>
</g>
<defs>
<clipPath id="clip0_47_45859">
<rect width="286" height="227" fill="white" transform="translate(0.5)"/>
</clipPath>
<clipPath id="clip1_47_45859">
<rect width="116.131" height="180" fill="white" transform="translate(169.5 47)"/>
</clipPath>
</defs>
</svg>
