<svg width="375" height="49" viewBox="0 0 375 49" fill="none" xmlns="http://www.w3.org/2000/svg">
<path d="M125 50.0326H100V25.0175L125 25.0175V50.0326Z" fill="url(#paint0_linear_91_61146)"/>
<path d="M325 50.0319V25.0167H350V50.0319H325Z" fill="url(#paint1_linear_91_61146)"/>
<path d="M350 25.0161V0.000976562L375 0.000976563V25.0161H350Z" fill="url(#paint2_linear_91_61146)"/>
<mask id="mask0_91_61146" style="mask-type:luminance" maskUnits="userSpaceOnUse" x="225" y="0" width="75" height="76">
<path d="M225 0.000976562H300V75.0464H225V0.000976562Z" fill="white"/>
</mask>
<g mask="url(#mask0_91_61146)">
<path d="M281.644 23.903L261.74 0.000976562L241.836 23.903H281.644Z" fill="url(#paint3_linear_91_61146)"/>
<path d="M302.811 49.4735L282.907 25.5715L263.018 49.4735H302.811Z" fill="url(#paint4_linear_91_61146)"/>
<path d="M260.478 49.4733L240.574 25.5713L220.67 49.4733H260.478Z" fill="url(#paint5_linear_91_61146)"/>
</g>
<mask id="mask1_91_61146" style="mask-type:luminance" maskUnits="userSpaceOnUse" x="150" y="0" width="75" height="76">
<path d="M150 0.000976562H225V75.0464H150V0.000976562Z" fill="white"/>
</mask>
<g mask="url(#mask1_91_61146)">
<path d="M213.74 -10.8589L186.876 21.3915L160.012 -10.8589H213.74Z" fill="url(#paint6_linear_91_61146)"/>
<path d="M213.74 21.3914L186.876 53.6568L160.012 21.3914H213.74Z" fill="url(#paint7_linear_91_61146)"/>
</g>
<mask id="mask2_91_61146" style="mask-type:luminance" maskUnits="userSpaceOnUse" x="0" y="0" width="75" height="76">
<path d="M-4.57764e-05 0.000976562H75V75.0464H-4.57764e-05V0.000976562Z" fill="white"/>
</mask>
<g mask="url(#mask2_91_61146)">
<path d="M37.4925 0.000976562C58.2231 0.000976562 75 16.8181 75 37.5312C75 58.2443 58.2231 75.0614 37.4925 75.0614C16.7618 75.0614 -4.57764e-05 58.2443 -4.57764e-05 37.5312C-4.57764e-05 16.8181 16.7769 0.000976562 37.4925 0.000976562ZM37.4925 52.5734C45.8058 52.5734 52.5255 45.8345 52.5255 37.5312C52.5255 29.2279 45.8058 22.489 37.4925 22.489C29.1792 22.489 22.4744 29.2279 22.4744 37.5312C22.4744 45.8345 29.1942 52.5734 37.4925 52.5734Z" fill="url(#paint8_linear_91_61146)"/>
</g>
<defs>
<linearGradient id="paint0_linear_91_61146" x1="120.582" y1="19.476" x2="92.7498" y2="31.9375" gradientUnits="userSpaceOnUse">
<stop stop-color="#1D1A39"/>
<stop offset="0.02" stop-color="#23193C"/>
<stop offset="0.1" stop-color="#351948"/>
<stop offset="0.19" stop-color="#41194F"/>
<stop offset="0.28" stop-color="#451952"/>
<stop offset="0.53" stop-color="#662549"/>
<stop offset="0.75" stop-color="#AE445A"/>
<stop offset="1" stop-color="#F39F5A"/>
</linearGradient>
<linearGradient id="paint1_linear_91_61146" x1="355.538" y1="45.611" x2="343.059" y2="17.7734" gradientUnits="userSpaceOnUse">
<stop stop-color="#1D1A39"/>
<stop offset="0.02" stop-color="#23193C"/>
<stop offset="0.1" stop-color="#351948"/>
<stop offset="0.19" stop-color="#41194F"/>
<stop offset="0.28" stop-color="#451952"/>
<stop offset="0.53" stop-color="#662549"/>
<stop offset="0.75" stop-color="#AE445A"/>
<stop offset="1" stop-color="#F39F5A"/>
</linearGradient>
<linearGradient id="paint2_linear_91_61146" x1="380.538" y1="20.5952" x2="368.059" y2="-7.24231" gradientUnits="userSpaceOnUse">
<stop stop-color="#1D1A39"/>
<stop offset="0.02" stop-color="#23193C"/>
<stop offset="0.1" stop-color="#351948"/>
<stop offset="0.19" stop-color="#41194F"/>
<stop offset="0.28" stop-color="#451952"/>
<stop offset="0.53" stop-color="#662549"/>
<stop offset="0.75" stop-color="#AE445A"/>
<stop offset="1" stop-color="#F39F5A"/>
</linearGradient>
<linearGradient id="paint3_linear_91_61146" x1="248.872" y1="29.1979" x2="283.047" y2="3.69848" gradientUnits="userSpaceOnUse">
<stop stop-color="#1D1A39"/>
<stop offset="0.02" stop-color="#23193C"/>
<stop offset="0.1" stop-color="#351948"/>
<stop offset="0.19" stop-color="#41194F"/>
<stop offset="0.28" stop-color="#451952"/>
<stop offset="0.53" stop-color="#662549"/>
<stop offset="0.75" stop-color="#AE445A"/>
<stop offset="1" stop-color="#F39F5A"/>
</linearGradient>
<linearGradient id="paint4_linear_91_61146" x1="270.051" y1="54.7685" x2="304.222" y2="29.2814" gradientUnits="userSpaceOnUse">
<stop stop-color="#1D1A39"/>
<stop offset="0.02" stop-color="#23193C"/>
<stop offset="0.1" stop-color="#351948"/>
<stop offset="0.19" stop-color="#41194F"/>
<stop offset="0.28" stop-color="#451952"/>
<stop offset="0.53" stop-color="#662549"/>
<stop offset="0.75" stop-color="#AE445A"/>
<stop offset="1" stop-color="#F39F5A"/>
</linearGradient>
<linearGradient id="paint5_linear_91_61146" x1="227.706" y1="54.7682" x2="261.881" y2="29.2688" gradientUnits="userSpaceOnUse">
<stop stop-color="#1D1A39"/>
<stop offset="0.02" stop-color="#23193C"/>
<stop offset="0.1" stop-color="#351948"/>
<stop offset="0.19" stop-color="#41194F"/>
<stop offset="0.28" stop-color="#451952"/>
<stop offset="0.53" stop-color="#662549"/>
<stop offset="0.75" stop-color="#AE445A"/>
<stop offset="1" stop-color="#F39F5A"/>
</linearGradient>
<linearGradient id="paint6_linear_91_61146" x1="169.507" y1="28.5358" x2="215.623" y2="-5.88375" gradientUnits="userSpaceOnUse">
<stop stop-color="#1D1A39"/>
<stop offset="0.02" stop-color="#23193C"/>
<stop offset="0.1" stop-color="#351948"/>
<stop offset="0.19" stop-color="#41194F"/>
<stop offset="0.28" stop-color="#451952"/>
<stop offset="0.53" stop-color="#662549"/>
<stop offset="0.75" stop-color="#AE445A"/>
<stop offset="1" stop-color="#F39F5A"/>
</linearGradient>
<linearGradient id="paint7_linear_91_61146" x1="169.507" y1="60.8045" x2="215.638" y2="26.3894" gradientUnits="userSpaceOnUse">
<stop stop-color="#1D1A39"/>
<stop offset="0.02" stop-color="#23193C"/>
<stop offset="0.1" stop-color="#351948"/>
<stop offset="0.19" stop-color="#41194F"/>
<stop offset="0.28" stop-color="#451952"/>
<stop offset="0.53" stop-color="#662549"/>
<stop offset="0.75" stop-color="#AE445A"/>
<stop offset="1" stop-color="#F39F5A"/>
</linearGradient>
<linearGradient id="paint8_linear_91_61146" x1="13.2545" y1="91.6893" x2="96.7561" y2="54.3097" gradientUnits="userSpaceOnUse">
<stop stop-color="#1D1A39"/>
<stop offset="0.02" stop-color="#23193C"/>
<stop offset="0.1" stop-color="#351948"/>
<stop offset="0.19" stop-color="#41194F"/>
<stop offset="0.28" stop-color="#451952"/>
<stop offset="0.53" stop-color="#662549"/>
<stop offset="0.75" stop-color="#AE445A"/>
<stop offset="1" stop-color="#F39F5A"/>
</linearGradient>
</defs>
</svg>
