<svg width="30" height="23" viewBox="0 0 30 23" fill="none" xmlns="http://www.w3.org/2000/svg">
    <path d="M29.8535 12.6465L23.6465 6.43951C23.5075 6.29966 23.3422 6.1888 23.1601 6.11335C22.9779 6.03791 22.7826 5.99938 22.5855 6.00001H14V7.00001H16.5V14.5H17.5V7.00001H22.5855C22.6512 6.99996 22.7163 7.01287 22.7771 7.03801C22.8378 7.06314 22.893 7.10002 22.9395 7.14651L23.793 8.00001H21.5C21.2348 8.00001 20.9804 8.10536 20.7929 8.2929C20.6054 8.48044 20.5 8.73479 20.5 9.00001V13.5C20.5 13.7652 20.6054 14.0196 20.7929 14.2071C20.9804 14.3947 21.2348 14.5 21.5 14.5H29V18.5C29 18.6326 28.9473 18.7598 28.8536 18.8536C28.7598 18.9473 28.6326 19 28.5 19H27.46C27.3404 18.1676 26.9248 17.4061 26.2893 16.8554C25.6538 16.3046 24.841 16.0014 24 16.0014C23.159 16.0014 22.3462 16.3046 21.7107 16.8554C21.0752 17.4061 20.6596 18.1676 20.54 19H13.46C13.3404 18.1676 12.9248 17.4061 12.2893 16.8554C11.6538 16.3046 10.841 16.0014 10 16.0014C9.15903 16.0014 8.34624 16.3046 7.71072 16.8554C7.0752 17.4061 6.65955 18.1676 6.54 19H5.5C5.36739 19 5.24021 18.9473 5.14645 18.8536C5.05268 18.7598 5 18.6326 5 18.5V14H4V18.5C4 18.8978 4.15804 19.2794 4.43934 19.5607C4.72064 19.842 5.10218 20 5.5 20H6.54C6.64913 20.7603 7.00609 21.4633 7.5555 22H0V23H24C24.8407 22.9984 25.6529 22.6945 26.2881 22.1437C26.9233 21.5929 27.3393 20.832 27.46 20H28.5C28.8978 20 29.2794 19.842 29.5607 19.5607C29.842 19.2794 30 18.8978 30 18.5V13C30 12.8674 29.9473 12.7403 29.8535 12.6465ZM7.5 19.5C7.5 19.0056 7.64662 18.5222 7.92133 18.1111C8.19603 17.7 8.58648 17.3795 9.04329 17.1903C9.50011 17.0011 10.0028 16.9516 10.4877 17.048C10.9727 17.1445 11.4181 17.3826 11.7678 17.7322C12.1174 18.0819 12.3555 18.5273 12.452 19.0123C12.5484 19.4972 12.4989 19.9999 12.3097 20.4567C12.1205 20.9135 11.8 21.304 11.3889 21.5787C10.9778 21.8534 10.4945 22 10 22C9.3372 21.9992 8.70178 21.7356 8.23311 21.2669C7.76444 20.7982 7.50079 20.1628 7.5 19.5ZM12.4445 22C12.9939 21.4633 13.3509 20.7603 13.46 20H20.54C20.6491 20.7603 21.0061 21.4633 21.5555 22H12.4445ZM24 22C23.5055 22 23.0222 21.8534 22.6111 21.5787C22.2 21.304 21.8795 20.9135 21.6903 20.4567C21.5011 19.9999 21.4516 19.4972 21.548 19.0123C21.6445 18.5273 21.8826 18.0819 22.2322 17.7322C22.5819 17.3826 23.0273 17.1445 23.5123 17.048C23.9972 16.9516 24.4999 17.0011 24.9567 17.1903C25.4135 17.3795 25.804 17.7 26.0787 18.1111C26.3534 18.5222 26.5 19.0056 26.5 19.5C26.4992 20.1628 26.2356 20.7982 25.7669 21.2669C25.2982 21.7356 24.6628 21.9992 24 22ZM21.5 13.5V9.00001H24.793L29 13.207V13.5H21.5Z" fill="#111D4C"/>
    <path d="M10.5 19H9.5V20H10.5V19Z" fill="#111D4C"/>
    <path d="M24.5 19H23.5V20H24.5V19Z" fill="#111D4C"/>
    <path d="M2.5 17.5H0V18.5H2.5V17.5Z" fill="#111D4C"/>
    <path d="M2.5 15.5H1V16.5H2.5V15.5Z" fill="#111D4C"/>
    <path d="M2.5 13.5H1.5V14.5H2.5V13.5Z" fill="#111D4C"/>
    <path d="M6.5 13C7.78558 13 9.04229 12.6188 10.1112 11.9046C11.1801 11.1903 12.0132 10.1752 12.5052 8.98744C12.9972 7.79973 13.1259 6.49279 12.8751 5.23192C12.6243 3.97104 12.0052 2.81285 11.0962 1.90381C10.1872 0.994767 9.02896 0.375703 7.76809 0.124899C6.50721 -0.125905 5.20028 0.00281635 4.01256 0.494786C2.82484 0.986756 1.80968 1.81988 1.09545 2.8888C0.381218 3.95772 0 5.21442 0 6.5C0.00198499 8.2233 0.687442 9.87545 1.906 11.094C3.12455 12.3126 4.7767 12.998 6.5 13ZM6.5 1C7.5878 1 8.65117 1.32257 9.55564 1.92692C10.4601 2.53127 11.1651 3.39025 11.5813 4.39524C11.9976 5.40024 12.1065 6.5061 11.8943 7.573C11.6821 8.6399 11.1583 9.6199 10.3891 10.3891C9.6199 11.1583 8.63989 11.6821 7.573 11.8943C6.5061 12.1065 5.40023 11.9976 4.39524 11.5813C3.39025 11.1651 2.53126 10.4601 1.92692 9.55564C1.32257 8.65117 1 7.5878 1 6.5C1.00172 5.04184 1.58174 3.64389 2.61281 2.61282C3.64389 1.58174 5.04184 1.00172 6.5 1Z" fill="#111D4C"/>
    <path d="M6.5 11C6.6326 11 6.75975 10.9473 6.8535 10.8535C7.1755 10.5315 10 7.645 10 5.5C10 4.57174 9.63125 3.6815 8.97487 3.02513C8.3185 2.36875 7.42826 2 6.5 2C5.57174 2 4.6815 2.36875 4.02513 3.02513C3.36875 3.6815 3 4.57174 3 5.5C3 7.645 5.8245 10.5315 6.1465 10.8535C6.24025 10.9473 6.3674 11 6.5 11ZM6.5 3C7.1628 3.00079 7.79822 3.26444 8.26689 3.73311C8.73556 4.20178 8.99921 4.8372 9 5.5C9 6.783 7.4265 8.7655 6.5 9.7755C5.5735 8.7655 4 6.783 4 5.5C4.00079 4.8372 4.26444 4.20178 4.73311 3.73311C5.20178 3.26444 5.8372 3.00079 6.5 3Z" fill="#111D4C"/>
    <path d="M8 5.5C8 5.20333 7.91203 4.91332 7.74721 4.66665C7.58238 4.41997 7.34811 4.22771 7.07403 4.11418C6.79994 4.00065 6.49834 3.97094 6.20737 4.02882C5.91639 4.0867 5.64912 4.22956 5.43934 4.43934C5.22956 4.64912 5.0867 4.91639 5.02882 5.20736C4.97094 5.49834 5.00065 5.79994 5.11418 6.07403C5.22771 6.34811 5.41997 6.58238 5.66665 6.74721C5.91332 6.91203 6.20333 7 6.5 7C6.89783 7 7.27936 6.84197 7.56066 6.56066C7.84197 6.27936 8 5.89783 8 5.5ZM6 5.5C6 5.40111 6.02933 5.30444 6.08427 5.22222C6.13921 5.13999 6.2173 5.0759 6.30866 5.03806C6.40002 5.00022 6.50056 4.99032 6.59755 5.00961C6.69454 5.0289 6.78363 5.07652 6.85355 5.14645C6.92348 5.21637 6.9711 5.30546 6.99039 5.40246C7.00969 5.49945 6.99978 5.59998 6.96194 5.69134C6.9241 5.78271 6.86001 5.8608 6.77779 5.91574C6.69556 5.97068 6.59889 6 6.5 6C6.36739 6 6.24022 5.94732 6.14645 5.85355C6.05268 5.75979 6 5.63261 6 5.5Z" fill="#111D4C"/>
    <path d="M21 15.5H19V16.5H21V15.5Z" fill="#111D4C"/>
</svg>
