<svg width="25" height="25" viewBox="0 0 25 25" fill="none" xmlns="http://www.w3.org/2000/svg">
<path d="M3.125 16.625H1.25V17.375H3.125V16.625Z" fill="#118C46"/>
<path d="M3.125 15.125H2V15.875H3.125V15.125Z" fill="#118C46"/>
<path d="M3.125 13.625H2.375V14.375H3.125V13.625Z" fill="#118C46"/>
<path d="M6.125 6.125C5.62772 6.125 5.15081 6.32254 4.79917 6.67417C4.44754 7.02581 4.25 7.50272 4.25 8C4.25 8.96375 5.43125 10.4487 6.125 11.2062C6.81875 10.4487 8 8.96375 8 8C8 7.50272 7.80246 7.02581 7.45083 6.67417C7.09919 6.32254 6.62228 6.125 6.125 6.125ZM6.125 9.125C5.9025 9.125 5.68499 9.05902 5.49998 8.9354C5.31498 8.81179 5.17078 8.63609 5.08564 8.43052C5.00049 8.22495 4.97821 7.99875 5.02162 7.78052C5.06502 7.56229 5.17217 7.36184 5.3295 7.2045C5.48684 7.04717 5.68729 6.94002 5.90552 6.89662C6.12375 6.85321 6.34995 6.87549 6.55552 6.96064C6.76109 7.04578 6.93679 7.18998 7.0604 7.37498C7.18402 7.55999 7.25 7.7775 7.25 8C7.24911 8.29809 7.1303 8.58373 6.91951 8.79451C6.70873 9.0053 6.42309 9.12411 6.125 9.125Z" fill="#118C46"/>
<path d="M6.125 8.375C6.33211 8.375 6.5 8.20711 6.5 8C6.5 7.79289 6.33211 7.625 6.125 7.625C5.91789 7.625 5.75 7.79289 5.75 8C5.75 8.20711 5.91789 8.375 6.125 8.375Z" fill="#118C46"/>
<path d="M19.25 16.625C18.7527 16.625 18.2758 16.8225 17.9242 17.1742C17.5725 17.5258 17.375 18.0027 17.375 18.5C17.3761 18.9073 17.5119 19.3029 17.7612 19.625H10.2387C10.4881 19.3029 10.6239 18.9073 10.625 18.5C10.625 18.0027 10.4275 17.5258 10.0758 17.1742C9.72419 16.8225 9.24728 16.625 8.75 16.625C8.25272 16.625 7.77581 16.8225 7.42417 17.1742C7.07254 17.5258 6.875 18.0027 6.875 18.5C6.87614 18.9073 7.01194 19.3029 7.26125 19.625H1.25V20.375H19.25C19.7473 20.375 20.2242 20.1775 20.5758 19.8258C20.9275 19.4742 21.125 18.9973 21.125 18.5C21.125 18.0027 20.9275 17.5258 20.5758 17.1742C20.2242 16.8225 19.7473 16.625 19.25 16.625ZM9.125 18.875H8.375V18.125H9.125V18.875ZM19.625 18.875H18.875V18.125H19.625V18.875Z" fill="#118C46"/>
<path d="M19.8447 10.625H17.375V14H23V13.7803L19.8447 10.625Z" fill="#118C46"/>
<path d="M17.375 14.75C17.1763 14.7494 16.9858 14.6702 16.8453 14.5297C16.7048 14.3892 16.6256 14.1987 16.625 14V10.625C16.6256 10.4263 16.7048 10.2359 16.8453 10.0953C16.9858 9.95482 17.1763 9.87561 17.375 9.87502H19.0963L18.455 9.23377C18.4201 9.19884 18.3786 9.17124 18.3328 9.15256C18.2871 9.13389 18.2381 9.12453 18.1887 9.12502H14.375V14.75H13.625V9.12502H10.985C10.8891 10.3488 10.3357 11.4914 9.43499 12.3254C8.53431 13.1594 7.35249 13.6234 6.125 13.625C5.74599 13.6245 5.36838 13.5792 5 13.49V17.75C5 17.8495 5.03951 17.9449 5.10984 18.0152C5.18016 18.0855 5.27554 18.125 5.375 18.125H6.155C6.24466 17.5007 6.5564 16.9296 7.03304 16.5165C7.50968 16.1035 8.11927 15.8761 8.75 15.8761C9.38073 15.8761 9.99032 16.1035 10.467 16.5165C10.9436 16.9296 11.2553 17.5007 11.345 18.125H16.655C16.7447 17.5007 17.0564 16.9296 17.533 16.5165C18.0097 16.1035 18.6193 15.8761 19.25 15.8761C19.8807 15.8761 20.4903 16.1035 20.967 16.5165C21.4436 16.9296 21.7553 17.5007 21.845 18.125H22.625C22.7245 18.125 22.8198 18.0855 22.8902 18.0152C22.9605 17.9449 23 17.8495 23 17.75V14.75H17.375ZM17 16.25H15.5V15.5H17V16.25Z" fill="#118C46"/>
<path d="M6.125 4.625C5.30915 4.625 4.51163 4.86693 3.83327 5.32019C3.15492 5.77345 2.62621 6.41769 2.314 7.17143C2.00179 7.92518 1.9201 8.75458 2.07926 9.55475C2.23843 10.3549 2.63129 11.0899 3.20819 11.6668C3.78508 12.2437 4.52008 12.6366 5.32025 12.7957C6.12043 12.9549 6.94983 12.8732 7.70357 12.561C8.45732 12.2488 9.10155 11.7201 9.55481 11.0417C10.0081 10.3634 10.25 9.56585 10.25 8.75C10.2493 7.6562 9.81449 6.60739 9.04105 5.83395C8.26761 5.06052 7.21881 4.6257 6.125 4.625ZM6.39125 12.0162C6.32017 12.086 6.22457 12.125 6.125 12.125C6.02543 12.125 5.92984 12.086 5.85875 12.0162C5.61875 11.7725 3.5 9.60875 3.5 8C3.5 7.30381 3.77656 6.63613 4.26885 6.14384C4.76113 5.65156 5.42881 5.375 6.125 5.375C6.8212 5.375 7.48887 5.65156 7.98116 6.14384C8.47344 6.63613 8.75 7.30381 8.75 8C8.75 9.60875 6.63125 11.7725 6.39125 12.0162Z" fill="#118C46"/>
</svg>
