<svg width="25" height="24" viewBox="0 0 25 24" fill="none" xmlns="http://www.w3.org/2000/svg">
<path d="M12.4102 3C9.79316 3 7.66406 5.1291 7.66406 7.74609C7.66406 10.3631 9.79316 12.4922 12.4102 12.4922C15.0272 12.4922 17.1562 10.3631 17.1562 7.74609C17.1562 5.1291 15.0272 3 12.4102 3ZM12.4102 11.4375C10.3747 11.4375 8.71875 9.78154 8.71875 7.74609C8.71875 5.71065 10.3747 4.05469 12.4102 4.05469C14.4456 4.05469 16.1016 5.71065 16.1016 7.74609C16.1016 9.78154 14.4456 11.4375 12.4102 11.4375ZM18.3152 15.5928C17.0158 14.2734 15.2933 13.5469 13.4648 13.5469H11.3555C9.52706 13.5469 7.80448 14.2734 6.5051 15.5928C5.21209 16.9057 4.5 18.6387 4.5 20.4727C4.5 20.7639 4.73611 21 5.02734 21H19.793C20.0842 21 20.3203 20.7639 20.3203 20.4727C20.3203 18.6387 19.6082 16.9057 18.3152 15.5928ZM5.57789 19.9453C5.84209 16.954 8.33242 14.6016 11.3555 14.6016H13.4648C16.4879 14.6016 18.9782 16.954 19.2424 19.9453H5.57789Z" fill="#024978"/>
</svg>
