<svg width="16" height="16" viewBox="0 0 16 16" fill="none" xmlns="http://www.w3.org/2000/svg">
<g id="Frame" clip-path="url(#clip0_730_21536)">
<g id="Group">
<g id="Group_2">
<path id="Vector" d="M3.71486 16C3.48969 16.0001 3.26671 15.9558 3.05865 15.8697C2.8506 15.7836 2.66155 15.6573 2.5023 15.4981C2.34306 15.3389 2.21673 15.1499 2.13055 14.9419C2.04436 14.7339 2 14.5109 2 14.2857V1.71429C2 1.48911 2.04436 1.26615 2.13055 1.05813C2.21673 0.850101 2.34306 0.661094 2.5023 0.501901C2.66155 0.342707 2.8506 0.216446 3.05865 0.130328C3.26671 0.044211 3.48969 -7.49619e-05 3.71486 9.52469e-08H10.004C10.2292 -7.49619e-05 10.4522 0.044211 10.6602 0.130328C10.8683 0.216446 11.0573 0.342707 11.2166 0.501901C11.3758 0.661094 11.5021 0.850101 11.5883 1.05813C11.6745 1.26615 11.7189 1.48911 11.7189 1.71429V5.14286H10.576V1.71429C10.576 1.6392 10.5612 1.56484 10.5324 1.49548C10.5037 1.42611 10.4616 1.36309 10.4084 1.31002C10.3553 1.25695 10.2922 1.21487 10.2229 1.18619C10.1535 1.15751 10.0791 1.14278 10.004 1.14286H8.64229L8.22857 1.96971C8.1811 2.0647 8.10811 2.14459 8.01777 2.20041C7.92744 2.25622 7.82333 2.28576 7.71714 2.28571H6.00171C5.89552 2.28576 5.79142 2.25622 5.70109 2.20041C5.61075 2.14459 5.53775 2.0647 5.49029 1.96971L5.07714 1.14286H3.71429C3.56273 1.14286 3.41739 1.20306 3.31022 1.31023C3.20306 1.41739 3.14286 1.56273 3.14286 1.71429V14.2857C3.14286 14.4373 3.20306 14.5826 3.31022 14.6898C3.41739 14.7969 3.56273 14.8571 3.71429 14.8571H10.0034C10.155 14.8571 10.3003 14.7969 10.4075 14.6898C10.5147 14.5826 10.5749 14.4373 10.5749 14.2857V13.1429H11.7183V14.2857C11.7183 14.5109 11.6739 14.7339 11.5877 14.9419C11.5016 15.1499 11.3752 15.3389 11.216 15.4981C11.0567 15.6573 10.8677 15.7836 10.6596 15.8697C10.4516 15.9558 10.2286 16.0001 10.0034 16H3.71486Z" fill="#451952"/>
<path id="Vector_2" d="M9.17519 4.92487C8.94925 4.69975 8.64352 4.57302 8.32458 4.57227C8.00564 4.57152 7.69932 4.69682 7.47233 4.92087C6.48833 5.89916 6.2449 7.46487 7.07804 8.65573C8.0929 10.106 9.14547 11.1694 10.4963 12.0929C11.6906 12.9094 13.2375 12.6283 14.2003 11.6717C14.6786 11.1963 14.7043 10.4174 14.2175 9.93459L13.3946 9.1163C13.1741 8.89644 12.8778 8.76923 12.5666 8.76074C12.2553 8.75224 11.9525 8.86309 11.7203 9.07058L11.3203 9.43059C11.0535 9.67059 9.64319 8.14487 9.67461 7.8523C9.6889 7.7243 9.96604 7.51687 10.0518 7.42258C10.2612 7.19167 10.3734 6.88877 10.3649 6.57712C10.3564 6.26546 10.2278 5.96914 10.006 5.75001L9.17519 4.92487Z" fill="#451952"/>
</g>
</g>
</g>
<defs>
<clipPath id="clip0_730_21536">
<rect width="16" height="16" fill="white"/>
</clipPath>
</defs>
</svg>
