<svg width="16" height="16" viewBox="0 0 16 16" fill="none" xmlns="http://www.w3.org/2000/svg">
<g clip-path="url(#clip0_124_620)">
<path d="M10.3333 0H5.66666C4.01266 0 2.66666 1.346 2.66666 3V13C2.66666 14.654 4.01266 16 5.66666 16H10.3333C11.9873 16 13.3333 14.654 13.3333 13V3C13.3333 1.346 11.9873 0 10.3333 0ZM9.87132 0.666667L9.65466 1.316C9.51799 1.72533 9.13666 2 8.70599 2H7.29466C6.86399 2 6.48266 1.72533 6.34599 1.316L6.12932 0.666667H9.87132ZM12.6667 13C12.6667 14.2867 11.62 15.3333 10.3333 15.3333H5.66666C4.37999 15.3333 3.33332 14.2867 3.33332 13V3C3.33332 1.79333 4.25799 0.808667 5.43399 0.69L5.71266 1.52667C5.93999 2.208 6.57532 2.666 7.29399 2.666H8.70532C9.42399 2.666 10.0593 2.208 10.2867 1.52667L10.5653 0.69C11.7413 0.808667 12.666 1.79267 12.666 3V13H12.6667Z" fill="#42B979" stroke="#42B979" stroke-width="0.4"/>
<path d="M8.99999 13.3335H6.99999C6.81599 13.3335 6.66666 13.4828 6.66666 13.6668C6.66666 13.8508 6.81599 14.0002 6.99999 14.0002H8.99999C9.18399 14.0002 9.33332 13.8508 9.33332 13.6668C9.33332 13.4828 9.18399 13.3335 8.99999 13.3335Z" fill="#42B979"/>
</g>
<defs>
<clipPath id="clip0_124_620">
<rect width="16" height="16" fill="white"/>
</clipPath>
</defs>
</svg>
