<svg width="17" height="16" viewBox="0 0 17 16" fill="none" xmlns="http://www.w3.org/2000/svg">
<g id="Frame" clip-path="url(#clip0_298_6776)">
<g id="Group">
<path id="Vector" d="M15.0714 6.57143H10.2143C10.1385 6.57143 10.0658 6.54133 10.0123 6.48775C9.95867 6.43416 9.92857 6.36149 9.92857 6.28571V1.42857C9.92857 0.639643 9.28893 0 8.5 0C7.71107 0 7.07143 0.639643 7.07143 1.42857V6.28571C7.07143 6.36149 7.04133 6.43416 6.98775 6.48775C6.93416 6.54133 6.86149 6.57143 6.78571 6.57143H1.92857C1.13964 6.57143 0.5 7.21107 0.5 8C0.5 8.78893 1.13964 9.42857 1.92857 9.42857H6.78571C6.86149 9.42857 6.93416 9.45867 6.98775 9.51226C7.04133 9.56584 7.07143 9.63851 7.07143 9.71429V14.5714C7.07143 15.3604 7.71107 16 8.5 16C9.28893 16 9.92857 15.3604 9.92857 14.5714V9.71429C9.92857 9.63851 9.95867 9.56584 10.0123 9.51226C10.0658 9.45867 10.1385 9.42857 10.2143 9.42857H15.0714C15.8604 9.42857 16.5 8.78893 16.5 8C16.5 7.21107 15.8604 6.57143 15.0714 6.57143Z" fill="#3169C3"/>
</g>
</g>
<defs>
<clipPath id="clip0_298_6776">
<rect width="16" height="16" fill="white" transform="translate(0.5)"/>
</clipPath>
</defs>
</svg>
