<svg width="32" height="32" viewBox="0 0 32 32" fill="none" xmlns="http://www.w3.org/2000/svg">
<path d="M21.675 16.4657L16.4875 21.6532C16.075 22.0657 15.3656 21.7751 15.3656 21.1876V19.6595C15.3656 19.4845 15.4344 19.3188 15.5594 19.1938L18.7531 16.0001L15.5594 12.8063C15.4375 12.6845 15.3656 12.5157 15.3656 12.3407V10.8126C15.3656 10.2282 16.0719 9.93447 16.4875 10.347L21.675 15.5345C21.9313 15.7938 21.9313 16.2063 21.675 16.4657ZM16.4406 16.4657L11.2531 21.6532C10.8406 22.0657 10.1313 21.7751 10.1313 21.1876V19.6595C10.1313 19.4845 10.2 19.3188 10.325 19.1938L13.5188 16.0001L10.325 12.8063C10.2031 12.6845 10.1313 12.5157 10.1313 12.3407V10.8126C10.1313 10.2282 10.8375 9.93447 11.2531 10.347L16.4406 15.5345C16.6969 15.7938 16.6969 16.2063 16.4406 16.4657Z" fill="#112C24"/>
</svg>
