<svg width="21" height="16" viewBox="0 0 21 16" fill="none" xmlns="http://www.w3.org/2000/svg">
<g clip-path="url(#clip0_190_15337)">
<mask id="mask0_190_15337" style="mask-type:alpha" maskUnits="userSpaceOnUse" x="0" y="0" width="21" height="16">
<path d="M19 0.5H2C0.89543 0.5 0 1.39543 0 2.5V13.5C0 14.6046 0.89543 15.5 2 15.5H19C20.1046 15.5 21 14.6046 21 13.5V2.5C21 1.39543 20.1046 0.5 19 0.5Z" fill="white"/>
</mask>
<g mask="url(#mask0_190_15337)">
<path d="M19 0.5H2C0.89543 0.5 0 1.39543 0 2.5V13.5C0 14.6046 0.89543 15.5 2 15.5H19C20.1046 15.5 21 14.6046 21 13.5V2.5C21 1.39543 20.1046 0.5 19 0.5Z" fill="#00773C"/>
<path fill-rule="evenodd" clip-rule="evenodd" d="M16 10.5002V9.50025H4.99998L6.99998 10.5002H13C13 11.0522 13.672 11.5002 14.5 11.5002C15.328 11.5002 16 11.0522 16 10.5002ZM8.72998 4.40625C8.71798 4.40625 8.69998 4.41225 8.67698 4.42625C8.62298 4.46225 8.51698 4.57325 8.51298 4.70125C8.50998 4.77425 8.49598 4.77425 8.54298 4.82125C8.57698 4.86925 8.61298 4.86525 8.68098 4.82825C8.72098 4.79825 8.73398 4.78125 8.74798 4.73225C8.76398 4.65225 8.66098 4.77225 8.64798 4.68025C8.62498 4.59625 8.69098 4.56025 8.75298 4.48025C8.75498 4.44025 8.75498 4.41025 8.72998 4.40825V4.40625ZM9.73298 4.41125C9.71298 4.41525 9.68998 4.44125 9.65698 4.49925C9.63398 4.56125 9.53298 4.65525 9.60698 4.84925C9.66498 4.97225 9.68998 5.17125 9.66298 5.39425C9.62098 5.45725 9.61298 5.47925 9.55798 5.54225C9.48198 5.62525 9.39798 5.60425 9.33598 5.57225C9.27598 5.53225 9.22998 5.51225 9.20298 5.38625C9.20798 5.18625 9.21998 4.85425 9.18298 4.78425C9.12898 4.67625 9.03898 4.71425 9.00098 4.74725C8.81798 4.91725 8.72698 5.20025 8.67098 5.42725C8.62098 5.59125 8.56598 5.54325 8.52798 5.47725C8.43498 5.38925 8.42798 4.70725 8.31598 4.82025C8.13598 5.33425 8.41898 5.89725 8.61598 5.84225C8.75598 5.90225 8.84598 5.63225 8.90398 5.33725C8.94398 5.25425 8.97398 5.24425 8.99398 5.28725C8.98898 5.67925 9.02398 5.76725 9.12398 5.88525C9.34798 6.05925 9.53398 5.90725 9.54898 5.89325L9.72398 5.71925C9.76398 5.67925 9.81398 5.67525 9.86898 5.71125C9.92298 5.76125 9.91598 5.84425 10.029 5.90125C10.127 5.94125 10.332 5.91125 10.379 5.82825C10.444 5.71825 10.459 5.68025 10.489 5.63825C10.535 5.57825 10.614 5.60525 10.614 5.62425C10.607 5.65925 10.561 5.69425 10.592 5.75425C10.647 5.79425 10.66 5.76825 10.692 5.75925C10.806 5.70525 10.892 5.45725 10.892 5.45725C10.897 5.36525 10.845 5.37225 10.812 5.39125C10.767 5.41825 10.765 5.42725 10.722 5.45425C10.665 5.46225 10.557 5.49925 10.504 5.41625C10.449 5.31625 10.449 5.17825 10.407 5.07625C10.407 5.07025 10.334 4.91925 10.401 4.91025C10.434 4.91625 10.508 4.93525 10.519 4.87425C10.555 4.81425 10.442 4.64425 10.365 4.56025C10.299 4.48725 10.207 4.47825 10.118 4.55225C10.055 4.61025 10.065 4.67425 10.052 4.73525C10.037 4.80525 10.04 4.89225 10.112 4.98525C10.174 5.10725 10.287 5.26525 10.249 5.48725C10.249 5.48725 10.184 5.59325 10.069 5.57925C10.019 5.56925 9.94098 5.54925 9.89898 5.23925C9.86898 5.00625 9.90698 4.67925 9.80898 4.52625C9.78598 4.46925 9.76698 4.41325 9.73498 4.41625L9.73298 4.41125ZM9.41498 4.43725C9.38498 4.44025 9.35198 4.47525 9.32498 4.54225C9.30198 4.59425 9.27298 4.86225 9.27798 4.86225C9.25798 4.94225 9.36098 4.97625 9.40798 4.87425C9.47798 4.68425 9.47798 4.60425 9.48198 4.52625C9.47198 4.46625 9.44498 4.43625 9.41498 4.43825V4.43725ZM10.588 4.45725C10.558 4.46125 10.533 4.47925 10.524 4.52525C10.511 4.63125 10.518 4.69025 10.536 4.77925C10.549 4.83925 10.636 4.93725 10.678 4.99525C10.881 5.26825 11.078 5.54225 11.266 5.82525C11.296 6.03725 11.316 6.24325 11.331 6.44925C11.363 6.89925 11.371 7.45925 11.344 7.93425C11.428 7.93725 11.564 7.79725 11.611 7.59425C11.641 7.31025 11.601 6.73425 11.597 6.56625L11.587 6.32825C11.807 6.68825 12.019 7.06825 12.227 7.48425C12.304 7.44825 12.287 7.01925 12.243 6.95925C12.075 6.59925 11.843 6.24325 11.77 6.10625C11.743 6.05625 11.652 5.91925 11.545 5.76025C11.525 5.53225 11.503 5.34025 11.489 5.28225C11.454 5.04225 11.587 5.30925 11.569 5.17025C11.525 4.93025 11.393 4.76825 11.237 4.54825C11.187 4.47825 11.187 4.46225 11.11 4.56625C11.065 4.67125 11.065 4.75925 11.08 4.84125C11.058 4.81125 11.033 4.77725 10.997 4.73325L10.742 4.51725C10.707 4.49225 10.639 4.45425 10.588 4.45725ZM14.064 4.49425C14.049 4.49225 14.034 4.49925 14.014 4.52625C13.979 4.55625 13.942 4.61325 13.944 4.68625C13.951 4.81125 13.974 4.94025 13.982 5.06625L13.992 5.11625C13.978 5.10025 13.966 5.08625 13.959 5.08025C13.712 4.82025 14.072 5.03625 13.911 4.83725C13.776 4.68725 13.736 4.64125 13.621 4.55125C13.561 4.51525 13.527 4.44325 13.508 4.56525C13.5 4.67225 13.492 4.79725 13.498 4.88725C13.498 4.93725 13.551 5.03225 13.596 5.08725C13.76 5.29025 13.928 5.50525 14.096 5.72925C14.132 6.18625 14.141 6.60525 14.176 7.06325C14.172 7.25925 14.112 7.51925 14.056 7.54325C14.056 7.54325 13.968 7.59325 13.91 7.53825C13.867 7.52125 13.698 7.25525 13.698 7.25525C13.611 7.17525 13.553 7.19825 13.492 7.25525C13.322 7.41925 13.244 7.72725 13.129 7.93925C13.099 7.98625 13.016 8.02725 12.923 7.93525C12.686 7.61125 12.823 7.15025 12.795 7.26925C12.585 7.50725 12.677 7.90125 12.725 7.98625C12.795 8.12625 12.851 8.21625 12.985 8.28325C13.11 8.37325 13.205 8.31825 13.259 8.25325C13.383 8.12525 13.385 7.79625 13.443 7.73125C13.483 7.61125 13.586 7.63125 13.636 7.68525C13.686 7.75525 13.742 7.80025 13.813 7.83825C13.929 7.94025 14.067 7.95825 14.203 7.86525C14.296 7.81325 14.357 7.74525 14.411 7.61125C14.471 7.45525 14.441 6.63525 14.428 6.17925L14.688 6.55525C14.724 6.95525 14.741 7.35025 14.728 7.72825C14.72 7.80325 14.991 7.50425 14.988 7.36225C14.988 7.23925 14.99 7.12625 14.988 7.02225C15.121 7.23225 15.248 7.44525 15.368 7.66225C15.443 7.62225 15.418 7.19925 15.371 7.14225C15.245 6.93025 15.083 6.70225 14.958 6.52425C14.933 6.30125 14.9 6.03825 14.884 5.95725C14.861 5.83125 14.837 5.64225 14.801 5.49325C14.791 5.43625 14.761 5.25025 14.771 5.23325C14.785 5.19025 14.841 5.23325 14.868 5.18525C14.908 5.14025 14.726 4.66525 14.633 4.53125C14.6 4.47125 14.539 4.49125 14.465 4.59125C14.395 4.65525 14.421 4.80325 14.447 4.94425C14.515 5.30425 14.577 5.66825 14.625 6.03425C14.535 5.89925 14.425 5.73725 14.317 5.58225L14.303 5.51225C14.303 5.50425 14.289 5.21725 14.276 5.14925C14.273 5.12125 14.266 5.11325 14.296 5.11725C14.326 5.14325 14.33 5.14425 14.349 5.15325C14.381 5.15725 14.409 5.10525 14.389 5.05625L14.099 4.52225C14.089 4.50925 14.075 4.49725 14.059 4.49525L14.064 4.49425ZM5.09398 4.50425C5.03898 4.50225 4.98098 4.53425 5.00398 4.59925C4.98998 4.63425 5.10798 4.75225 5.12898 4.81725C5.14598 4.86425 5.10898 5.01225 5.14898 5.02725C5.18398 5.04225 5.23298 4.92325 5.25098 4.81425C5.26098 4.75425 5.25398 4.54825 5.11398 4.50625C5.10698 4.50425 5.09998 4.50425 5.09198 4.50325L5.09398 4.50425ZM15.314 4.50425C15.301 4.50625 15.286 4.52425 15.264 4.57425C15.209 4.66425 15.19 4.82425 15.212 4.96425C15.342 5.85425 15.442 6.71625 15.462 7.50425C15.45 7.58025 15.446 7.62025 15.412 7.71425C15.334 7.81425 15.248 7.93825 15.167 7.99825C15.087 8.05825 14.915 8.11625 14.859 8.16025C14.679 8.26225 14.679 8.38025 14.823 8.38525C15.071 8.35525 15.365 8.33525 15.567 8.03025C15.621 7.94525 15.685 7.71325 15.687 7.57025C15.707 6.74025 15.677 5.92525 15.552 5.32425C15.544 5.26425 15.518 5.13125 15.528 5.11425C15.543 5.07225 15.624 5.11725 15.653 5.07025C15.696 5.02625 15.443 4.70325 15.355 4.56525C15.337 4.53125 15.325 4.50225 15.311 4.50525L15.314 4.50425ZM12.711 4.51825C12.701 4.52025 12.687 4.53625 12.659 4.57325C12.589 4.79925 12.565 4.98325 12.592 5.12525C12.772 6.05525 12.952 6.90025 12.924 7.78525C13.008 7.78525 13.106 7.59225 13.148 7.40025C13.171 7.13525 13.132 6.97425 13.126 6.82025C13.119 6.66425 12.95 5.40425 12.916 5.28725C12.874 5.06525 13.08 5.25725 13.058 5.12925C12.986 4.96525 12.808 4.72925 12.754 4.58625C12.734 4.54825 12.73 4.51325 12.714 4.51625L12.711 4.51825ZM6.37698 4.53625C6.35698 4.54025 6.33398 4.55825 6.32698 4.58625C6.32198 4.60625 6.33498 4.63925 6.31698 4.64925C6.30698 4.65925 6.26898 4.65225 6.27098 4.59925C6.27098 4.58125 6.25798 4.56325 6.25098 4.55225C6.24298 4.54825 6.23798 4.54725 6.22398 4.54725C6.20698 4.54725 6.20698 4.55225 6.19798 4.56725C6.19398 4.58125 6.18798 4.59525 6.18798 4.61125C6.18598 4.63125 6.17798 4.63625 6.16498 4.63925C6.14898 4.63925 6.15198 4.64125 6.13998 4.63225C6.12998 4.62525 6.12198 4.62225 6.12198 4.60825C6.12198 4.59325 6.11798 4.56825 6.11398 4.56025C6.10698 4.55025 6.09598 4.54625 6.08398 4.54325C6.01798 4.54325 6.01398 4.62125 6.01698 4.64925C6.01198 4.65525 6.00998 4.78925 6.09998 4.82725C6.21998 4.88525 6.44798 4.86025 6.43998 4.66525C6.43998 4.64825 6.43498 4.59025 6.43298 4.57525C6.42098 4.54525 6.39798 4.53525 6.37598 4.53825L6.37698 4.53625ZM8.00298 4.53825C7.96098 4.54025 7.92298 4.55225 7.89298 4.56825C7.81298 4.64525 7.79298 4.76825 7.85698 4.84525C7.91698 4.87525 7.97998 4.93525 7.93898 4.97025C7.76498 5.15525 7.31198 5.46625 7.28898 5.52325V5.52925H7.29298V5.53125C7.31598 5.54625 7.59998 5.54625 7.63098 5.53125H7.63298C7.73098 5.49425 8.19298 4.96625 8.19298 4.96625C8.16898 4.94625 8.14698 4.93025 8.12298 4.90925C8.09698 4.88725 8.09998 4.86525 8.12298 4.84325C8.23698 4.77725 8.20098 4.63025 8.14098 4.56325C8.09098 4.54125 8.04498 4.53325 8.00298 4.53625V4.53825ZM12.253 4.53825C12.241 4.54125 12.226 4.55825 12.203 4.60825C12.148 4.69825 12.111 4.85325 12.116 4.99825C12.234 5.81825 12.27 6.53525 12.348 7.35525C12.354 7.43525 12.342 7.54925 12.29 7.59525C12.094 7.79925 11.813 8.04925 11.507 8.16525C11.474 8.20225 11.589 8.35925 11.737 8.35925C11.985 8.32925 12.203 8.19125 12.407 7.82425C12.46 7.73925 12.555 7.55625 12.557 7.41425C12.577 6.58225 12.517 5.93425 12.391 5.33425C12.384 5.27425 12.389 5.20425 12.399 5.18825C12.415 5.16825 12.469 5.18825 12.499 5.14125C12.541 5.09725 12.385 4.73825 12.297 4.60125C12.279 4.56625 12.269 4.53825 12.253 4.53925V4.53825ZM5.66898 4.56525C5.63498 4.56925 5.60298 4.59525 5.58698 4.63525C5.58198 4.76525 5.58098 4.89525 5.59698 5.01725C5.65698 5.23025 5.67398 5.41725 5.70298 5.63425C5.71298 5.92625 5.53498 5.76025 5.54298 5.61625C5.58298 5.42825 5.57298 5.13325 5.53698 5.05825C5.50698 4.98325 5.47498 4.96525 5.40498 4.97825C5.34998 4.97425 5.20698 5.12825 5.16698 5.38825C5.16698 5.38825 5.13298 5.52025 5.11898 5.63825C5.09898 5.77125 5.01098 5.86625 4.94898 5.62025C4.89598 5.44025 4.86398 5.00025 4.77498 5.10225C4.74898 5.44625 4.71898 6.05225 5.01098 6.11425C5.36498 6.14825 5.16898 5.51625 5.29698 5.40125C5.32198 5.34625 5.36698 5.34525 5.36998 5.41625V5.95325C5.36598 6.12725 5.47998 6.17925 5.56998 6.21525C5.66298 6.20825 5.72398 6.21125 5.75998 6.30125L5.80498 7.23125C5.80498 7.23125 6.01898 7.29125 6.02898 6.70825C6.03898 6.36525 5.95898 6.07825 6.00598 6.01125C6.00798 5.94525 6.09198 5.94125 6.14998 5.97425C6.24298 6.03925 6.28398 6.11925 6.42798 6.08725C6.64798 6.02725 6.77798 5.92125 6.78098 5.75325C6.77098 5.59325 6.75098 5.43325 6.68098 5.27325C6.69098 5.24525 6.64098 5.17025 6.65098 5.14125C6.68898 5.20125 6.74898 5.19725 6.76098 5.14125C6.72498 5.01825 6.66698 4.90125 6.57298 4.85125C6.49598 4.78125 6.38298 4.79625 6.34098 4.93825C6.32098 5.10225 6.40098 5.29625 6.52098 5.45525C6.54498 5.51725 6.58098 5.62025 6.56498 5.71325C6.50198 5.74925 6.43898 5.73325 6.38498 5.67825C6.38498 5.67825 6.21198 5.54825 6.21198 5.51825C6.25898 5.22325 6.22198 5.18825 6.19698 5.10825C6.17898 4.99425 6.12498 4.95825 6.08198 4.88025C6.03798 4.83325 5.97898 4.83325 5.95198 4.88025C5.87398 5.01325 5.90998 5.30025 5.96598 5.42725C6.00598 5.54525 6.06798 5.61925 6.03898 5.61925C6.01498 5.68425 5.96498 5.66925 5.92898 5.59225C5.87898 5.43225 5.86698 5.19625 5.86698 5.08925C5.85198 4.95725 5.83498 4.67425 5.74698 4.60225C5.72398 4.57025 5.69698 4.55925 5.66998 4.56225L5.66898 4.56525ZM6.91098 4.56525C6.89398 4.56925 6.87398 4.57925 6.85098 4.58525C6.77598 4.60825 6.70598 4.67325 6.72798 4.79925C6.81798 5.33925 6.87498 5.75225 6.96398 6.29225C6.97698 6.35625 6.92398 6.43925 6.85598 6.43225C6.73998 6.35225 6.71098 6.19225 6.51298 6.20025C6.36898 6.20025 6.20498 6.35825 6.18498 6.50825C6.16098 6.62825 6.15298 6.75825 6.18498 6.86225C6.28498 6.98225 6.40698 6.97025 6.51298 6.94225C6.59998 6.90725 6.67298 6.82225 6.70298 6.84225C6.72298 6.87525 6.70098 7.15625 6.29298 7.37225C6.04098 7.48625 5.84098 7.51225 5.73298 7.30825C5.66698 7.18025 5.73898 6.69225 5.57498 6.80425C5.08898 8.05625 6.71198 8.23025 6.89298 6.85625C6.90498 6.81625 6.93998 6.77825 6.96598 6.78825C6.97598 6.79325 6.98598 6.80825 6.98998 6.83625C6.95198 8.08025 5.73398 8.16625 5.52798 7.77425C5.47598 7.68225 5.46098 7.47625 5.45598 7.35425C5.44598 7.27925 5.42798 7.23625 5.40598 7.21925C5.35598 7.18225 5.28998 7.27925 5.27598 7.44625C5.25598 7.58125 5.26098 7.61825 5.26098 7.74825C5.32698 8.73125 6.89398 8.30825 7.14898 7.49825C7.27498 7.07825 7.14598 6.76125 7.18898 6.72225L7.19198 6.72025H7.19498L7.19998 6.71825C7.35598 6.88625 7.57398 6.73825 7.62198 6.68125C7.64198 6.65125 7.69398 6.63125 7.72998 6.67125C7.84998 6.75725 8.06398 6.71625 8.10798 6.56125C8.13398 6.41125 8.15598 6.25725 8.16098 6.09625C8.08098 6.12125 8.01698 6.13925 7.99098 6.16625C7.98498 6.17325 7.98098 6.18125 7.97898 6.18925L7.95898 6.32225C7.95898 6.32725 7.95698 6.33025 7.95498 6.33225C7.95198 6.33925 7.94498 6.34425 7.94098 6.34725C7.91298 6.36225 7.86398 6.35425 7.86098 6.31325C7.82398 6.14325 7.66898 6.12125 7.57498 6.38625C7.51198 6.43625 7.39498 6.44625 7.38498 6.37025C7.39998 6.19225 7.32798 6.16825 7.18498 6.25225L7.04698 5.21225C7.10698 5.20925 7.16098 5.25225 7.21698 5.18425C7.15698 5.00025 7.03198 4.62625 6.96098 4.59025H6.95898L6.94898 4.58025C6.94898 4.57825 6.94598 4.57725 6.94398 4.57625L6.93998 4.57025C6.93598 4.57025 6.93198 4.56825 6.92998 4.56725C6.92298 4.56525 6.91698 4.56525 6.90998 4.56525H6.91098ZM11.753 4.56925C11.691 4.56725 11.623 4.60625 11.649 4.68425C11.633 4.72725 11.782 4.87125 11.806 4.94925C11.849 5.06925 11.773 5.18625 11.818 5.20325C11.86 5.22125 11.918 5.07825 11.938 4.94525C11.964 4.83725 11.888 4.61725 11.778 4.57225L11.753 4.57025V4.56925ZM7.97998 4.70025C8.00798 4.69825 8.04198 4.72425 8.05998 4.76025C8.07698 4.80025 8.06798 4.83725 8.03998 4.84425C8.00998 4.85125 7.97198 4.82625 7.95398 4.78625C7.93598 4.74625 7.94398 4.70925 7.97398 4.70225H7.97998V4.70025ZM14.977 4.88225C14.92 4.88025 14.857 4.92225 14.883 5.00725C14.869 5.05325 15.003 5.20925 15.026 5.29525C15.046 5.35525 14.996 5.55125 15.036 5.56925C15.074 5.58925 15.126 5.43325 15.146 5.28925C15.158 5.20925 15.1 4.93425 15.001 4.88525C14.994 4.88325 14.986 4.88125 14.978 4.88125L14.977 4.88225ZM11.107 4.97825C11.114 5.00125 11.119 5.02425 11.122 5.04825C11.134 5.09825 11.144 5.14825 11.154 5.20025C11.11 5.13825 11.074 5.08825 11.057 5.07025C10.957 4.95025 11.059 4.99225 11.107 4.97825ZM12 5.41625C11.978 5.42025 11.957 5.43925 11.95 5.46925C11.944 5.48725 11.958 5.51925 11.94 5.52925C11.93 5.53925 11.89 5.53325 11.893 5.47925C11.893 5.46125 11.88 5.44225 11.873 5.43225C11.865 5.42725 11.86 5.42525 11.846 5.42525C11.829 5.42525 11.829 5.43025 11.82 5.44525C11.816 5.45925 11.81 5.47325 11.81 5.49025C11.81 5.51025 11.802 5.51625 11.788 5.52025C11.772 5.52025 11.775 5.52025 11.762 5.51325C11.754 5.50325 11.745 5.50125 11.745 5.48725C11.745 5.47225 11.742 5.44925 11.737 5.43925C11.73 5.42925 11.72 5.42625 11.707 5.42225C11.642 5.42225 11.637 5.49825 11.641 5.52625C11.637 5.53225 11.634 5.66825 11.724 5.70625C11.846 5.76325 12.074 5.73625 12.064 5.54225C12.064 5.52525 12.059 5.46725 12.058 5.45225C12.045 5.42225 12.022 5.41225 12.001 5.41525L12 5.41625ZM7.92998 5.45625C7.91598 5.45625 7.89598 5.46025 7.87298 5.47425C7.76598 5.53225 7.72498 5.70425 7.79298 5.80425C7.85298 5.89425 7.95298 5.86125 7.96598 5.86125C8.07098 5.87525 8.13298 5.66525 8.13298 5.66525C8.13298 5.66525 8.13598 5.60525 8.01298 5.71725C7.95898 5.72725 7.95298 5.70725 7.93898 5.67725C7.92698 5.62425 7.92898 5.56725 7.95398 5.51425C7.96598 5.48125 7.95398 5.46025 7.92998 5.45825V5.45625ZM13.683 5.48325C13.623 5.48025 13.56 5.51925 13.543 5.60025C13.543 5.64825 13.565 5.67425 13.561 5.71825C13.556 5.74325 13.531 5.75825 13.469 5.73025C13.479 5.72025 13.429 5.65225 13.429 5.65225C13.382 5.62225 13.319 5.65225 13.277 5.68025C13.254 5.72225 13.237 5.79325 13.263 5.86525C13.331 5.99225 13.566 6.20825 13.678 6.21025C13.68 6.09625 13.691 5.94425 13.698 5.85025C13.7 5.81425 13.708 5.77525 13.743 5.76625C13.777 5.75625 13.836 5.80025 13.836 5.76325C13.83 5.69125 13.816 5.58325 13.776 5.53325C13.754 5.50325 13.719 5.48525 13.684 5.48325H13.683ZM8.91998 5.88025L8.91698 5.88325C8.91698 5.88325 8.91498 5.88325 8.91398 5.88525C8.90198 5.89525 8.88798 5.91525 8.85698 5.93525C8.80398 5.99525 8.79498 6.03825 8.79698 6.15825C8.80098 6.17125 8.89698 6.44125 8.97998 6.63025C9.03598 6.82725 9.08698 7.05325 9.04998 7.26625C8.91998 7.54825 8.65998 7.80125 8.40698 7.93925C8.27698 7.97925 8.16698 7.96525 8.13698 7.93725C8.06298 7.88725 8.06198 7.79725 8.06698 7.78325V7.78025C8.27898 7.63225 8.52198 7.51225 8.71198 7.11325C8.76798 6.96025 8.78598 6.86825 8.72998 6.63325C8.70798 6.54325 8.67998 6.47325 8.61998 6.40925H8.62198C8.65798 6.39225 8.75198 6.46125 8.76698 6.41925C8.74398 6.30525 8.66698 6.15425 8.58198 6.07625C8.50598 6.00625 8.42198 5.99925 8.35398 6.06225C8.27598 6.10625 8.25998 6.26225 8.29698 6.39825C8.33898 6.50025 8.45198 6.51825 8.53198 6.72525C8.53398 6.73925 8.55898 6.88025 8.51898 6.93825C8.48498 7.04025 8.06398 7.37225 8.03398 7.39225L8.03098 7.39425L8.02898 7.39625H8.02698H8.02498V7.39325C8.02298 7.38525 8.02498 7.36325 8.02498 7.33025C8.02198 7.26825 8.04798 7.12725 8.04498 7.10225V7.10025C7.90498 7.19025 7.85798 7.46525 7.83298 7.54725C7.47998 7.79025 7.07998 7.97125 6.84898 8.21725C6.72898 8.40725 7.67698 8.00325 7.78698 7.95425L7.78998 7.95725C7.81198 7.98025 7.81298 8.06025 7.87598 8.13325C7.97598 8.26625 8.18398 8.34825 8.38798 8.29725C8.72998 8.17425 8.92798 7.94125 9.12798 7.68225C9.15598 7.64225 9.20098 7.60825 9.24298 7.64025C9.37998 7.94825 9.77798 8.16825 10.291 8.19025C10.411 8.04625 10.354 7.97525 10.306 7.94525C10.291 7.93525 10.051 7.84125 10.013 7.74825C9.98998 7.66225 10.047 7.58525 10.161 7.52825C10.491 7.48825 10.815 7.44325 11.129 7.34225C11.132 7.23625 11.194 7.07925 11.236 7.01025C11.266 6.96325 11.283 6.95825 11.29 6.95225V6.95025H11.292V6.94725V6.93725L11.238 6.90525L10.185 6.90125C10.172 6.89625 10.163 6.89125 10.157 6.88625L10.155 6.88325C10.155 6.88325 10.153 6.88325 10.153 6.88125C10.153 6.87925 10.151 6.87925 10.151 6.87925V6.88025V6.87825V6.87625V6.87425L10.153 6.87125C10.158 6.86525 10.171 6.85825 10.186 6.85125C10.438 6.81825 10.884 6.74525 10.914 6.31625C10.909 6.09225 10.818 5.94625 10.544 5.90625C10.342 5.92125 10.198 6.11625 10.221 6.33025C10.211 6.38725 10.241 6.50025 10.181 6.51325C9.79498 6.54925 9.37298 6.79125 9.35898 6.96525H9.35698H9.35498H9.35298C9.35298 6.96725 9.35098 6.96725 9.34998 6.96725H9.34598H9.34398H9.33998C9.31498 6.95925 9.28298 6.91725 9.28798 6.86025C9.27298 6.56025 9.17498 6.22025 9.02298 5.96025C8.96798 5.90525 8.94298 5.88325 8.92898 5.88025H8.92598H8.92298H8.92098H8.91998ZM9.92798 6.03825C9.90798 6.04225 9.88498 6.06025 9.87798 6.09025C9.87298 6.11025 9.88798 6.14225 9.86998 6.15225C9.85998 6.16225 9.81998 6.15625 9.82198 6.10225C9.82198 6.08525 9.80898 6.06625 9.80198 6.05525C9.79398 6.05025 9.78898 6.04925 9.77598 6.04925C9.75898 6.04925 9.75798 6.05325 9.74898 6.06725C9.74398 6.08125 9.73898 6.09725 9.73898 6.11225C9.73698 6.13225 9.72898 6.13825 9.71598 6.14025C9.69998 6.14025 9.70398 6.14325 9.69098 6.13525C9.68298 6.12725 9.67298 6.12325 9.67298 6.10925C9.67298 6.09425 9.66998 6.06925 9.66598 6.05925C9.65898 6.05225 9.64798 6.04925 9.63598 6.04525C9.56898 6.04525 9.56598 6.12025 9.56898 6.14925C9.56398 6.15425 9.56098 6.28925 9.65098 6.32725C9.77098 6.38525 10.061 6.35125 9.99098 6.16425C9.99098 6.14725 9.98598 6.08925 9.98498 6.07425C9.97198 6.04425 9.94898 6.03425 9.92698 6.03725L9.92798 6.03825ZM13.993 6.20525H13.983C13.983 6.20525 13.421 6.60525 13.408 6.61925C13.352 6.66925 13.38 6.84225 13.408 6.82225C13.448 6.83725 14.013 6.45425 14.002 6.40925C14.027 6.41125 14.039 6.21225 13.992 6.20425L13.993 6.20525ZM10.459 6.26525C10.481 6.26225 10.511 6.27025 10.539 6.28525C10.582 6.31125 10.609 6.34725 10.604 6.37525V6.37925C10.602 6.37925 10.602 6.37925 10.602 6.38125V6.38325C10.602 6.38325 10.6 6.38325 10.6 6.38525C10.6 6.38725 10.597 6.38925 10.595 6.39125C10.575 6.41125 10.529 6.40725 10.485 6.38125C10.443 6.35825 10.418 6.32125 10.42 6.29525V6.29225L10.425 6.28225C10.425 6.28225 10.425 6.28025 10.427 6.27925L10.432 6.27325C10.439 6.26825 10.448 6.26325 10.459 6.26325V6.26525ZM5.54098 6.36525C5.25098 6.37125 4.82398 6.74725 4.81298 6.95525L5.73298 6.51525C5.68298 6.43925 5.72998 6.37125 5.54098 6.36525ZM6.48398 6.49525C6.51198 6.49725 6.54198 6.51125 6.55798 6.55125C6.57198 6.58825 6.55798 6.62625 6.54098 6.64525V6.64825C6.52698 6.66425 6.48498 6.65825 6.45398 6.65825C6.41698 6.65625 6.39898 6.65025 6.37698 6.62025C6.36498 6.58525 6.39698 6.55225 6.41198 6.52825L6.41898 6.51825C6.42898 6.50825 6.44898 6.50025 6.46898 6.49825L6.48198 6.49625L6.48398 6.49525ZM13.884 6.61225C13.831 6.61825 13.782 6.66725 13.804 6.74525C13.79 6.79125 13.874 6.95225 13.897 7.03725C13.917 7.09725 13.871 7.27025 13.912 7.28725C13.95 7.30725 14.049 7.18725 14.046 7.03325C14.056 6.95325 14.018 6.66325 13.919 6.61525C13.907 6.61225 13.895 6.61125 13.883 6.61225H13.884ZM7.59998 6.89625C7.55398 6.89925 7.51298 6.92325 7.53198 6.98825C7.52898 7.03425 7.66198 7.09125 7.66898 7.19825C7.68698 7.24425 7.63898 7.38825 7.67898 7.40025C7.71498 7.41525 7.76498 7.30025 7.78398 7.19625C7.79398 7.13825 7.73798 6.93625 7.64398 6.89925C7.62898 6.89525 7.61398 6.89425 7.59898 6.89525L7.59998 6.89625ZM9.47998 7.15225H9.49198C9.60998 7.18425 9.78198 7.18825 9.93198 7.20225C10.055 7.21225 10.115 7.30625 10.002 7.34725C9.88798 7.38525 9.77898 7.41725 9.77898 7.57925C9.79298 7.65925 9.78898 7.70125 9.77698 7.71925C9.77698 7.72225 9.77398 7.72425 9.77298 7.72525C9.77298 7.72525 9.77298 7.72725 9.77098 7.72725V7.72925H9.76798L9.76098 7.73225H9.75598C9.72898 7.73725 9.68998 7.71225 9.66098 7.69625C9.59098 7.64625 9.39598 7.52625 9.36798 7.26625C9.36398 7.20625 9.40798 7.15625 9.47798 7.15125L9.47998 7.15225ZM4.88598 7.35225C4.87898 7.35225 4.86598 7.37425 4.84598 7.39925C4.67198 7.67425 4.65598 8.08525 4.75198 8.20925C4.80198 8.26625 4.88598 8.29225 4.94798 8.27425C5.05798 8.22725 5.10498 8.00625 5.07798 7.92625C5.04298 7.86925 5.01398 7.86025 4.97798 7.90825C4.90098 8.06325 4.86798 7.95625 4.86298 7.86825C4.85098 7.70525 4.86698 7.55325 4.88498 7.43325C4.89498 7.37325 4.89498 7.35025 4.88498 7.35025L4.88598 7.35225ZM10.783 7.71425C10.77 7.71425 10.757 7.71625 10.743 7.72425C10.74 7.72425 10.619 7.80425 10.58 7.86225C10.556 7.88025 10.56 7.89525 10.566 7.92725C10.584 7.97025 10.616 7.95725 10.654 7.93725C10.704 7.92925 10.727 7.96225 10.724 8.02125C10.701 8.09625 10.734 8.12325 10.734 8.12825C10.734 8.13225 10.781 8.17325 10.837 8.14125C10.954 8.09625 11.027 8.05125 11.192 8.01625C11.235 8.01625 11.232 7.90025 11.164 7.89625C11.074 7.90025 10.994 7.90625 10.904 7.97625C10.849 7.98825 10.84 7.95425 10.827 7.92425C10.813 7.85025 10.859 7.79825 10.849 7.74225C10.851 7.74525 10.821 7.71825 10.782 7.71625L10.783 7.71425ZM14.559 7.85425L14.479 7.86225C14.443 7.86925 14.431 7.88525 14.424 7.92925C14.427 7.99425 14.467 7.99125 14.509 8.01725C14.533 8.04725 14.549 8.07525 14.507 8.12725C14.467 8.16225 14.44 8.18225 14.4 8.21725C14.383 8.24925 14.37 8.29725 14.428 8.31325C14.533 8.34325 14.776 8.18525 14.776 8.18325C14.816 8.15325 14.802 8.09625 14.799 8.09625C14.775 8.07025 14.723 8.08625 14.689 8.08125C14.672 8.08125 14.619 8.07325 14.643 8.02525C14.665 7.99525 14.673 7.97825 14.688 7.94125C14.703 7.90525 14.688 7.88125 14.63 7.86125C14.6 7.85525 14.58 7.85325 14.557 7.85425H14.559ZM13.106 11.7142C13.376 11.7272 13.628 11.7172 13.896 11.7302C13.94 11.7662 13.919 11.8503 13.891 11.8643L13.886 11.8663H13.883H13.879L13.653 11.8602V11.8472C13.631 11.7853 13.481 11.7892 13.445 11.8372V11.8403C13.443 11.8403 13.442 11.8432 13.442 11.8442L13.44 11.8492V11.8612C13.32 11.8762 13.215 11.8572 13.097 11.8532C13.062 11.8102 13.067 11.7333 13.107 11.7133L13.106 11.7142Z" fill="white"/>
<path d="M19 1H2C1.17157 1 0.5 1.67157 0.5 2.5V13.5C0.5 14.3284 1.17157 15 2 15H19C19.8284 15 20.5 14.3284 20.5 13.5V2.5C20.5 1.67157 19.8284 1 19 1Z" stroke="black" stroke-opacity="0.1"/>
</g>
</g>
<defs>
<clipPath id="clip0_190_15337">
<rect width="21" height="15" fill="white" transform="translate(0 0.5)"/>
</clipPath>
</defs>
</svg>
