<svg width="16" height="16" viewBox="0 0 16 16" fill="none" xmlns="http://www.w3.org/2000/svg">
<g clip-path="url(#clip0_123_4565)">
<path d="M15.7074 14.2968L12.6106 11.1987C14.9277 8.10222 14.2959 3.71356 11.1994 1.39641C8.10289 -0.920736 3.71423 -0.288925 1.39708 2.80759C-0.920064 5.90411 -0.288254 10.2928 2.80826 12.6099C5.29564 14.4712 8.712 14.4712 11.1994 12.6099L14.2975 15.708C14.6868 16.0973 15.318 16.0973 15.7073 15.708C16.0967 15.3187 16.0967 14.6874 15.7073 14.2982L15.7074 14.2968ZM7.02965 12.012C4.27762 12.012 2.04668 9.78102 2.04668 7.02898C2.04668 4.27695 4.27762 2.046 7.02965 2.046C9.78169 2.046 12.0126 4.27695 12.0126 7.02898C12.0097 9.77977 9.78048 12.009 7.02965 12.012Z" fill="url(#paint0_linear_123_4565)"/>
</g>
<defs>
<linearGradient id="paint0_linear_123_4565" x1="13.1719" y1="19.5444" x2="-4.63593" y2="11.5669" gradientUnits="userSpaceOnUse">
<stop stop-color="#1D1A39"/>
<stop offset="0.02" stop-color="#23193C"/>
<stop offset="0.1" stop-color="#351948"/>
<stop offset="0.19" stop-color="#41194F"/>
<stop offset="0.28" stop-color="#451952"/>
<stop offset="0.53" stop-color="#662549"/>
<stop offset="0.75" stop-color="#AE445A"/>
<stop offset="1" stop-color="#F39F5A"/>
</linearGradient>
<clipPath id="clip0_123_4565">
<rect width="16" height="16" fill="white"/>
</clipPath>
</defs>
</svg>
