<svg width="16" height="16" viewBox="0 0 16 16" fill="none" xmlns="http://www.w3.org/2000/svg">
<g id="Frame" clip-path="url(#clip0_399_888)">
<g id="Group">
<path id="Vector" d="M9.59741 12.8356C7.88344 12.8356 6.27184 12.168 5.05994 10.9561C2.55797 8.45409 2.55797 4.38256 5.05994 1.8795C6.27184 0.667656 7.88319 0 9.59744 0C11.3117 0 12.9233 0.667594 14.1355 1.87953C16.6379 4.38256 16.6379 8.45409 14.1355 10.9561C12.9233 12.168 11.3117 12.8356 9.59741 12.8356ZM9.59741 1.02394C8.15662 1.02394 6.80237 1.58472 5.78406 2.60363C3.68094 4.70703 3.68094 8.12878 5.78406 10.2316C6.80272 11.2506 8.15697 11.8117 9.59741 11.8117C11.0382 11.8117 12.3927 11.2506 13.4117 10.2316C15.5148 8.12916 15.5148 4.70703 13.4114 2.60363C12.3927 1.58531 11.0382 1.02394 9.59741 1.02394ZM2.02247 16C1.49634 16 1.00269 15.7964 0.632469 15.4265L0.588625 15.3823C0.219469 15.0138 0.015625 14.5201 0.015625 13.9943C0.015625 13.4684 0.219469 12.9745 0.589719 12.6042L3.08628 10.1082C3.28628 9.90797 3.61022 9.90856 3.81044 10.1082C4.01038 10.3085 4.01038 10.6327 3.81044 10.8323L1.31384 13.3284C1.13722 13.5054 1.03978 13.7413 1.03978 13.994C1.03978 14.2463 1.13722 14.4827 1.31384 14.6591L1.35766 14.7031C1.7085 15.0537 2.33497 15.0557 2.68725 14.7023L5.18297 12.2057C5.38328 12.006 5.70753 12.0057 5.90709 12.2057C6.10706 12.4056 6.10706 12.7298 5.90709 12.9298L3.41162 15.4259C3.04247 15.7962 2.54881 16 2.02247 16Z" fill="#42B979"/>
</g>
</g>
<defs>
<clipPath id="clip0_399_888">
<rect width="15.9688" height="16" fill="white"/>
</clipPath>
</defs>
</svg>
