<svg width="28" height="27" viewBox="0 0 28 27" fill="none" xmlns="http://www.w3.org/2000/svg">
    <path fill-rule="evenodd" clip-rule="evenodd" d="M11.3652 1.16155C12.1412 0.630709 13.0596 0.34668 13.9998 0.34668C14.9401 0.34668 15.8584 0.630709 16.6345 1.16155L25.3012 7.09222C25.9274 7.52054 26.4397 8.09508 26.7938 8.76605C27.1478 9.43703 27.333 10.1842 27.3332 10.9429V22.1669C27.3332 23.4046 26.8415 24.5915 25.9663 25.4667C25.0912 26.3419 23.9042 26.8336 22.6665 26.8336H5.33317C4.09549 26.8336 2.90851 26.3419 2.03334 25.4667C1.15817 24.5915 0.666504 23.4046 0.666504 22.1669V10.9429C0.666687 10.1842 0.851835 9.43703 1.20591 8.76605C1.55999 8.09508 2.07231 7.52054 2.6985 7.09222L11.3652 1.16155ZM10.6665 20.8336C10.4897 20.8336 10.3201 20.9038 10.1951 21.0288C10.0701 21.1538 9.99984 21.3234 9.99984 21.5002C9.99984 21.677 10.0701 21.8466 10.1951 21.9716C10.3201 22.0966 10.4897 22.1669 10.6665 22.1669H17.3332C17.51 22.1669 17.6796 22.0966 17.8046 21.9716C17.9296 21.8466 17.9998 21.677 17.9998 21.5002C17.9998 21.3234 17.9296 21.1538 17.8046 21.0288C17.6796 20.9038 17.51 20.8336 17.3332 20.8336H10.6665Z" fill="white"/>
</svg>
