<svg width="30" height="29" viewBox="0 0 30 29" fill="none" xmlns="http://www.w3.org/2000/svg">
<path fill-rule="evenodd" clip-rule="evenodd" d="M6.88226 3.80292C6.3692 3.56333 5.75916 3.63868 5.34985 4.02996C4.40658 4.93169 3.58444 5.95908 2.91031 7.08525C2.61935 7.57129 2.68158 8.18308 3.02946 8.63014L3.76879 9.58023C4.89851 11.032 4.41402 13.1547 2.76628 13.9726L1.68956 14.507C1.18283 14.7585 0.861433 15.2817 0.911339 15.8452C1.02923 17.1766 1.32651 18.4564 1.77883 19.6603C1.9778 20.1899 2.49444 20.5219 3.06012 20.5286L4.26591 20.543C6.10533 20.5649 7.46286 22.2672 7.07492 24.0653L6.8212 25.2413C6.70193 25.7942 6.91047 26.3716 7.38212 26.6838C8.4642 27.4 9.64763 27.9752 10.9063 28.3837C11.4443 28.5582 12.0259 28.3613 12.3838 27.9232L13.1468 26.9894C14.3109 25.5649 16.4882 25.5649 17.6522 26.9894L18.4152 27.9232C18.7732 28.3613 19.3547 28.5582 19.8927 28.3837C21.1514 27.9752 22.3348 27.4 23.417 26.6838C23.8885 26.3716 24.0971 25.7942 23.9778 25.2413L23.7242 24.0653C23.3361 22.2672 24.6936 20.5649 26.533 20.543L27.7388 20.5286C28.3045 20.5219 28.8212 20.1899 29.0202 19.6603C29.4725 18.4564 29.7698 17.1766 29.8876 15.8452C29.9375 15.2817 29.6162 14.7585 29.1095 14.507L28.0328 13.9726C26.385 13.1547 25.9004 11.032 27.0302 9.58023L27.7695 8.63014C28.1175 8.18308 28.1797 7.57127 27.8887 7.08525C27.2146 5.95908 26.3924 4.93169 25.4491 4.02996C25.0398 3.63868 24.4298 3.56333 23.9167 3.80292L22.8283 4.31121C21.1615 5.08956 19.1998 4.14484 18.7692 2.35644L18.4875 1.18652C18.3548 0.63568 17.9151 0.205527 17.3535 0.130123C16.7144 0.0443053 16.0622 0 15.3995 0C14.7368 0 14.0846 0.0443053 13.4455 0.130123C12.8839 0.205527 12.4442 0.63568 12.3116 1.18652L12.0298 2.35644C11.5992 4.14484 9.63746 5.08956 7.97071 4.31121L6.88226 3.80292ZM15.3995 18.9091C17.8095 18.9091 19.7631 16.9555 19.7631 14.5454C19.7631 12.1354 17.8095 10.1818 15.3995 10.1818C12.9896 10.1818 11.0359 12.1354 11.0359 14.5454C11.0359 16.9555 12.9896 18.9091 15.3995 18.9091Z" fill="white"/>
<path fill-rule="evenodd" clip-rule="evenodd" d="M19.8927 28.3837C19.3547 28.5582 18.7732 28.3613 18.4152 27.9232L17.6522 26.9894C16.4882 25.5649 14.3109 25.5649 13.1468 26.9894L12.3838 27.9232C12.0259 28.3613 11.4443 28.5582 10.9063 28.3837C9.64763 27.9752 8.4642 27.4 7.38212 26.6838C6.91047 26.3716 6.70193 25.7942 6.8212 25.2413L7.07492 24.0653C7.46286 22.2672 6.10533 20.5649 4.26591 20.543L3.06012 20.5286C2.49444 20.5219 1.9778 20.1899 1.77883 19.6603C1.32651 18.4564 1.02923 17.1766 0.911339 15.8452C0.861433 15.2817 1.18283 14.7585 1.68956 14.507L2.76628 13.9726C4.41402 13.1547 4.89851 11.032 3.76879 9.58023L3.02946 8.63014C2.68158 8.18308 2.61935 7.57129 2.91031 7.08525C3.58444 5.95908 4.40658 4.93169 5.34985 4.02996C5.75916 3.63868 6.3692 3.56333 6.88226 3.80292L7.97071 4.31121C9.63746 5.08956 11.5992 4.14484 12.0298 2.35644L12.3116 1.18652C12.4442 0.63568 12.8839 0.205527 13.4455 0.130123C14.0846 0.0443053 14.7368 0 15.3995 0C16.0622 0 16.7144 0.0443053 17.3535 0.130123C17.9151 0.205527 18.3548 0.63568 18.4875 1.18652L18.7692 2.35644C19.1998 4.14484 21.1615 5.08956 22.8283 4.31121L23.9167 3.80292C24.4298 3.56333 25.0398 3.63868 25.4491 4.02996C26.3924 4.93169 27.2146 5.95908 27.8887 7.08525C28.1797 7.57127 28.1175 8.18308 27.7695 8.63014L27.0302 9.58023C25.9004 11.032 26.385 13.1547 28.0328 13.9726L29.1095 14.507C29.6162 14.7585 29.9375 15.2817 29.8876 15.8452C29.7698 17.1766 29.4725 18.4564 29.0202 19.6603C28.8212 20.1899 28.3045 20.5219 27.7388 20.5286L26.533 20.543C24.6936 20.5649 23.3361 22.2672 23.7242 24.0653L23.9778 25.2413C24.0971 25.7942 23.8885 26.3716 23.417 26.6838C22.3348 27.4 21.1514 27.9752 19.8927 28.3837ZM19.7631 14.5454C19.7631 16.9555 17.8095 18.9091 15.3995 18.9091C12.9896 18.9091 11.0359 16.9555 11.0359 14.5454C11.0359 12.1354 12.9896 10.1818 15.3995 10.1818C17.8095 10.1818 19.7631 12.1354 19.7631 14.5454Z" fill="white"/>
</svg>
