<svg width="33" height="26" viewBox="0 0 33 26" fill="none" xmlns="http://www.w3.org/2000/svg">
<path d="M3.57014 19.3408H0.811523V20.4969H3.57014V19.3408Z" fill="white"/>
<path d="M3.56972 17.0293H1.91455V18.1854H3.56972V17.0293Z" fill="white"/>
<path d="M3.57025 14.7168H2.4668V15.8729H3.57025V14.7168Z" fill="white"/>
<path d="M7.98421 3.15625C7.25257 3.15625 6.55091 3.46076 6.03357 4.00278C5.51623 4.54481 5.22559 5.27995 5.22559 6.04649C5.22559 7.53207 6.96352 9.82114 7.98421 10.9888C9.0049 9.82114 10.7428 7.53207 10.7428 6.04649C10.7428 5.27995 10.4522 4.54481 9.93485 4.00278C9.4175 3.46076 8.71584 3.15625 7.98421 3.15625ZM7.98421 7.78063C7.65684 7.78063 7.33683 7.67893 7.06464 7.48838C6.79245 7.29783 6.5803 7.02699 6.45503 6.71012C6.32975 6.39324 6.29697 6.04457 6.36084 5.70817C6.4247 5.37178 6.58234 5.06279 6.81382 4.82026C7.0453 4.57774 7.34023 4.41258 7.6613 4.34567C7.98237 4.27875 8.31517 4.3131 8.61761 4.44435C8.92006 4.5756 9.17856 4.79787 9.36043 5.08305C9.5423 5.36823 9.63938 5.70351 9.63938 6.04649C9.63807 6.50599 9.46326 6.94628 9.15314 7.2712C8.84302 7.59612 8.42278 7.77926 7.98421 7.78063Z" fill="white"/>
<path d="M7.98385 6.62387C8.28856 6.62387 8.53558 6.36507 8.53558 6.04582C8.53558 5.72657 8.28856 5.46777 7.98385 5.46777C7.67914 5.46777 7.43213 5.72657 7.43213 6.04582C7.43213 6.36507 7.67914 6.62387 7.98385 6.62387Z" fill="white"/>
<path d="M27.2943 19.3408C26.5626 19.3408 25.861 19.6453 25.3436 20.1874C24.8263 20.7294 24.5357 21.4645 24.5357 22.2311C24.5373 22.859 24.7371 23.4687 25.1039 23.9652H14.0363C14.4032 23.4687 14.603 22.859 14.6046 22.2311C14.6046 21.4645 14.314 20.7294 13.7966 20.1874C13.2793 19.6453 12.5776 19.3408 11.846 19.3408C11.1144 19.3408 10.4127 19.6453 9.89537 20.1874C9.37802 20.7294 9.08738 21.4645 9.08738 22.2311C9.08906 22.859 9.28885 23.4687 9.65566 23.9652H0.811523V25.1213H27.2943C28.0259 25.1213 28.7276 24.8168 29.2449 24.2748C29.7623 23.7327 30.0529 22.9976 30.0529 22.2311C30.0529 21.4645 29.7623 20.7294 29.2449 20.1874C28.7276 19.6453 28.0259 19.3408 27.2943 19.3408ZM12.3977 22.8091H11.2943V21.653H12.3977V22.8091ZM27.846 22.8091H26.7426V21.653H27.846V22.8091Z" fill="white"/>
<path d="M28.1693 10.0928H24.5356V15.2952H32.8115V14.9565L28.1693 10.0928Z" fill="white"/>
<path d="M24.5355 16.451C24.2431 16.4501 23.963 16.328 23.7562 16.1114C23.5495 15.8948 23.4329 15.6013 23.4321 15.2949V10.0925C23.4329 9.78616 23.5495 9.49263 23.7562 9.27602C23.963 9.05941 24.2431 8.93731 24.5355 8.9364H27.0679L26.1245 7.94794C26.0731 7.8941 26.012 7.85155 25.9447 7.82276C25.8775 7.79398 25.8054 7.77954 25.7327 7.7803H20.1217V16.451H19.0183V7.7803H15.1341C14.993 9.66665 14.1788 11.4281 12.8537 12.7136C11.5285 13.9991 9.78975 14.7144 7.98379 14.7169C7.42617 14.716 6.87059 14.6462 6.32861 14.5088V21.0754C6.32861 21.2287 6.38674 21.3757 6.49021 21.4841C6.59368 21.5926 6.73401 21.6535 6.88034 21.6535H8.02792C8.15984 20.6911 8.61849 19.8108 9.31976 19.1741C10.021 18.5373 10.9179 18.1868 11.8459 18.1868C12.7738 18.1868 13.6707 18.5373 14.372 19.1741C15.0732 19.8108 15.5319 20.6911 15.6638 21.6535H23.4762C23.6081 20.6911 24.0668 19.8108 24.768 19.1741C25.4693 18.5373 26.3662 18.1868 27.2941 18.1868C28.2221 18.1868 29.119 18.5373 29.8202 19.1741C30.5215 19.8108 30.9801 20.6911 31.1121 21.6535H32.2596C32.406 21.6535 32.5463 21.5926 32.6498 21.4841C32.7532 21.3757 32.8114 21.2287 32.8114 21.0754V16.451H24.5355ZM23.9838 18.7632H21.7769V17.6071H23.9838V18.7632Z" fill="white"/>
<path d="M7.98352 0.84375C6.78319 0.84375 5.60982 1.21667 4.61178 1.91536C3.61375 2.61404 2.83587 3.60711 2.37653 4.76897C1.91718 5.93084 1.79699 7.20933 2.03117 8.44277C2.26534 9.6762 2.84335 10.8092 3.69211 11.6984C4.54087 12.5877 5.62226 13.1933 6.79952 13.4386C7.97679 13.684 9.19705 13.5581 10.306 13.0768C11.415 12.5955 12.3628 11.7805 13.0297 10.7349C13.6965 9.68923 14.0525 8.45988 14.0525 7.20228C14.0515 5.51622 13.4117 3.89953 12.2738 2.7073C11.1359 1.51508 9.59279 0.844822 7.98352 0.84375ZM8.37524 12.2371C8.27066 12.3445 8.13001 12.4047 7.98352 12.4047C7.83703 12.4047 7.69638 12.3445 7.59179 12.2371C7.23869 11.8613 4.12145 8.52601 4.12145 6.04618C4.12145 4.97303 4.52835 3.94383 5.25262 3.18499C5.9769 2.42616 6.95923 1.99985 7.98352 1.99985C9.0078 1.99985 9.99014 2.42616 10.7144 3.18499C11.4387 3.94383 11.8456 4.97303 11.8456 6.04618C11.8456 8.52601 8.72835 11.8613 8.37524 12.2371Z" fill="white"/>
</svg>
