<svg width="32" height="33" viewBox="0 0 32 33" fill="none" xmlns="http://www.w3.org/2000/svg">
    <path fill-rule="evenodd" clip-rule="evenodd" d="M7.65726 7.8742L8.62595 8.32656C10.9178 9.39677 13.615 8.09781 14.2073 5.63874L14.458 4.59784C14.9622 4.53322 15.4768 4.49984 15.9998 4.49984C16.5229 4.49984 17.0374 4.53322 17.5417 4.59784L17.7924 5.63874C18.3846 8.09781 21.082 9.39677 23.3737 8.32656L24.3424 7.8742C25.0824 8.58998 25.7302 9.39985 26.2669 10.2842L25.609 11.1296C24.0557 13.1257 24.7218 16.0445 26.9876 17.169L27.946 17.6448C27.8469 18.6928 27.6133 19.7006 27.2626 20.6516L26.1897 20.6644C23.6605 20.6945 21.794 23.035 22.3273 25.5076L22.5532 26.5542C21.6966 27.1138 20.7646 27.5665 19.7761 27.894L19.0972 27.0632C17.4968 25.1045 14.5029 25.1045 12.9025 27.0632L12.2235 27.894C11.2351 27.5665 10.3031 27.1138 9.44652 26.5542L9.67232 25.5076C10.2057 23.035 8.33913 20.6945 5.80994 20.6644L4.73705 20.6516C4.38642 19.7006 4.15271 18.6928 4.05366 17.6448L5.01217 17.169C7.27781 16.0445 7.94399 13.1257 6.39063 11.1296L5.73278 10.2842C6.26942 9.39985 6.91735 8.58998 7.65726 7.8742ZM8.19237 6.65253C7.72206 6.4329 7.16286 6.50196 6.78766 6.86065C5.92299 7.68724 5.16937 8.62901 4.55141 9.66132C4.2847 10.1069 4.34174 10.6677 4.66063 11.0775L5.33835 11.9484C6.37393 13.2792 5.92981 15.225 4.41938 15.9746L3.43239 16.4646C2.96789 16.6952 2.67327 17.1748 2.71902 17.6913C2.82709 18.9117 3.09959 20.0849 3.51422 21.1885C3.69661 21.674 4.17019 21.9782 4.68874 21.9844L5.79405 21.9976C7.48018 22.0176 8.72458 23.5781 8.36897 25.2264L8.13639 26.3044C8.02706 26.8112 8.21822 27.3405 8.65057 27.6266C9.64248 28.283 10.7273 28.8105 11.8811 29.1849C12.3743 29.3449 12.9073 29.1644 13.2354 28.7628L13.9349 27.9068C15.002 26.601 16.9978 26.601 18.0648 27.9068L18.7642 28.7628C19.0924 29.1644 19.6254 29.3449 20.1186 29.1849C21.2724 28.8105 22.3572 28.283 23.3492 27.6266C23.7814 27.3405 23.9726 26.8112 23.8633 26.3044L23.6308 25.2264C23.275 23.5781 24.5196 22.0176 26.2056 21.9976L27.3109 21.9844C27.8294 21.9782 28.303 21.674 28.4854 21.1885C28.9001 20.0849 29.1726 18.9117 29.2806 17.6913C29.3264 17.1748 29.0318 16.6952 28.5673 16.4646L27.5804 15.9746C26.0698 15.225 25.6257 13.2792 26.6613 11.9484L27.339 11.0775C27.658 10.6677 27.715 10.1069 27.4482 9.66132C26.8304 8.62901 26.0766 7.68724 25.212 6.86065C24.8368 6.50196 24.2776 6.4329 23.8073 6.65253L22.8096 7.11845C21.2817 7.83193 19.4834 6.96596 19.0888 5.32658L18.8305 4.25414C18.7089 3.74921 18.3058 3.3549 17.791 3.28578C17.2052 3.20712 16.6073 3.1665 15.9998 3.1665C15.3924 3.1665 14.7945 3.20712 14.2086 3.28578C13.6938 3.3549 13.2908 3.74921 13.1692 4.25414L12.911 5.32657C12.5162 6.96596 10.718 7.83193 9.19012 7.11845L8.19237 6.65253Z" fill="#111D4C"/>
    <path fill-rule="evenodd" clip-rule="evenodd" d="M16 19.1667C17.4728 19.1667 18.6666 17.9728 18.6666 16.5C18.6666 15.0272 17.4728 13.8333 16 13.8333C14.5273 13.8333 13.3333 15.0272 13.3333 16.5C13.3333 17.9728 14.5273 19.1667 16 19.1667ZM16 20.5C18.2092 20.5 20 18.7091 20 16.5C20 14.2908 18.2092 12.5 16 12.5C13.7909 12.5 12 14.2908 12 16.5C12 18.7091 13.7909 20.5 16 20.5Z" fill="#111D4C"/>
</svg>
