<svg width="155" height="64" viewBox="0 0 155 64" fill="none" xmlns="http://www.w3.org/2000/svg">
<g clip-path="url(#clip0_236_4498)">
<path d="M3.20216 47.4216C1.84891 43.3388 1.0624 39.0785 0.87734 34.7643C0.861918 34.4944 0.850352 34.1975 0.842641 33.866C0.83493 33.4727 0.823364 33.0679 0.823364 32.6477C0.823364 31.973 0.834931 31.3638 0.858063 30.7855V30.7739C0.865774 30.4925 0.881197 30.2149 0.896618 29.9373C0.91204 29.7175 0.927461 29.4515 0.946738 29.1778C0.946738 29.1624 0.946738 29.1508 0.946738 29.1354C0.962159 28.9388 0.977581 28.7421 0.996859 28.5494C1.03156 28.1368 1.07011 27.7436 1.10096 27.4467C1.12023 27.2925 1.13565 27.1421 1.15493 26.9879V26.9725C1.17035 26.8568 1.18577 26.7373 1.2012 26.6178L1.21662 26.4983C1.21662 26.4983 1.22433 26.4636 1.22433 26.4404C1.23975 26.3441 1.25517 26.2438 1.26674 26.1474C1.28216 26.0356 1.29758 25.9238 1.313 25.812C1.313 25.8004 1.32071 25.7889 1.32071 25.7773C1.35156 25.5807 1.3824 25.3841 1.41324 25.1913C1.42481 25.1026 1.43638 25.0178 1.45565 24.9368C1.47879 24.7826 1.50577 24.6207 1.54047 24.4472C1.55204 24.3701 1.56746 24.2891 1.58288 24.212L1.59059 24.1657C1.59059 24.1657 1.59059 24.1465 1.5983 24.1426C1.633 23.946 1.67156 23.7494 1.71011 23.5566C1.71011 23.5489 1.71011 23.5373 1.71782 23.5257C1.72553 23.4795 1.7371 23.4255 1.74867 23.3792C1.78336 23.2019 1.82192 23.0245 1.86047 22.8472L1.86818 22.8125C1.94915 22.4269 2.0224 22.1069 2.09565 21.8139C2.41951 20.426 2.82047 19.0342 3.28312 17.6771C3.33324 17.519 3.38722 17.3686 3.43349 17.2298L5.49614 12.291C6.91879 9.33008 8.66529 6.51948 10.674 3.93249C11.0518 3.44285 11.5607 3.07273 12.1429 2.86068C12.8523 2.59851 13.5887 2.35177 14.3944 2.10887C14.7106 2.01634 19.5684 0.863574 19.5684 0.863574C20.7983 0.643815 22.0282 0.47032 23.2234 0.350802C23.3313 0.339236 23.4431 0.331525 23.5511 0.331525L26.2769 0.142609C26.7935 0.119476 27.3525 0.10791 27.9887 0.10791C28.4667 0.10791 28.9448 0.115621 29.4152 0.134898L32.1718 0.308392C32.2759 0.308392 32.3723 0.316103 32.4764 0.323814C33.6677 0.431766 34.8937 0.597549 36.1198 0.813453C36.1198 0.813453 40.9814 1.93924 41.2822 2.02791C42.0648 2.25538 42.7819 2.48671 43.4682 2.73345C44.0581 2.9455 44.5747 3.31948 44.9602 3.81297C47.0576 6.49634 48.8619 9.4149 50.327 12.4877L52.0388 16.6862C52.0735 16.7633 52.112 16.8404 52.1429 16.9175C52.166 16.9792 52.1892 17.0409 52.2161 17.1026C52.3434 17.4689 52.459 17.8236 52.567 18.1783C53.8817 22.1802 54.6412 26.3788 54.8224 30.6698C54.8532 31.4486 54.8648 32.0809 54.8648 32.6592C54.8648 33.0255 54.8571 33.3918 54.8494 33.731C54.8494 33.7426 54.8494 33.7542 54.8494 33.7657C54.8494 33.812 54.8494 33.8544 54.8494 33.9007C54.8494 33.9778 54.8494 34.0472 54.8417 34.1204C54.8417 34.1397 54.8417 34.1628 54.8417 34.1821C54.8417 34.2053 54.8417 34.2284 54.8417 34.2554C54.8417 34.3094 54.8417 34.3633 54.8417 34.4212C54.834 34.5792 54.8301 34.7296 54.8224 34.8877C54.6219 39.1788 53.8277 43.4351 52.4629 47.5334L51.0402 51.2963C49.7564 54.2457 48.1718 57.0679 46.3173 59.6896C45.9395 60.2255 45.4152 60.6342 44.8022 60.8694C43.7959 61.2588 42.8552 61.5865 41.9222 61.8795L36.7482 63.1633C35.4451 63.4101 34.1265 63.6028 32.8272 63.7339C32.7193 63.7416 32.6113 63.7494 32.4995 63.7494L29.6542 63.9498C29.153 63.973 28.6132 63.9845 27.9964 63.9845C27.2484 63.9845 26.6663 63.973 26.1188 63.9421L23.2349 63.7262C23.1193 63.7262 23.0075 63.7185 22.8879 63.7069C21.5887 63.572 20.2663 63.3715 18.9593 63.1094L13.7969 61.7947C12.8407 61.4939 11.8691 61.1469 10.8205 60.7306C10.2152 60.4915 9.69855 60.079 9.32843 59.5508C7.49324 56.9253 5.92409 54.1147 4.67108 51.2L3.21758 47.4371L3.20216 47.4216Z" fill="#082640"/>
<path d="M51.5299 33.8931C51.5299 33.9663 51.5299 34.0357 51.5222 34.1013C51.5222 34.0319 51.5299 33.9625 51.5299 33.8931Z" fill="#082640"/>
<path d="M20.1275 24.0581C20.328 21.3709 20.621 18.7145 20.9989 16.0812C21.0066 16.0118 21.0143 15.9424 21.022 15.8769C20.6288 18.5718 20.328 21.3015 20.1237 24.0581H20.1275ZM19.8615 29.1241C19.8924 28.114 19.9386 27.1077 19.9926 26.1015C19.9309 27.1039 19.8885 28.114 19.8615 29.1241ZM14.9112 16.9603C14.5063 17.0374 14.1054 17.1145 13.7044 17.1955C13.3844 17.2649 13.0644 17.3342 12.7483 17.4075C13.0721 17.3342 13.3883 17.2649 13.7044 17.1955C14.1092 17.1145 14.5063 17.0374 14.9073 16.9603C15.2466 16.8986 15.5897 16.8408 15.929 16.7829C15.5897 16.8369 15.2466 16.8947 14.9112 16.9564V16.9603ZM14.1555 31.0595C14.1555 31.0904 14.1555 31.1212 14.1555 31.1482C14.1555 31.1174 14.1632 31.0865 14.1632 31.0595H14.1555ZM14.1285 31.8692V31.8075C14.1285 31.8268 14.1285 31.8461 14.1285 31.8692ZM30.8109 15.8036C31.0461 15.8152 31.2697 15.8229 31.4972 15.8383C31.5859 15.8383 31.6707 15.8383 31.7555 15.8461C31.4471 15.8268 31.1309 15.8114 30.8109 15.8036ZM32.6885 15.9C32.3801 15.8769 32.0755 15.8615 31.7594 15.8461C32.0755 15.8653 32.3839 15.8808 32.6885 15.9039C32.862 15.9116 33.0278 15.927 33.2013 15.9463C33.4133 15.9579 33.6292 15.9733 33.8413 15.9926C33.4634 15.9579 33.0779 15.9309 32.6885 15.9039V15.9ZM34.4774 16.0465C34.2692 16.0273 34.0572 16.008 33.8413 15.9887C34.0533 16.008 34.2654 16.0273 34.4774 16.0504L34.6779 16.0658L34.4774 16.0465ZM8.32996 13.9916C8.32996 13.9916 8.34924 13.9839 8.35309 13.9839C8.34538 13.9839 8.33767 13.9839 8.33381 13.9916H8.32996Z" fill="#082640"/>
<path d="M51.503 30.7856C51.3333 26.7374 50.6162 22.8396 49.3979 19.1577C49.3015 18.8338 49.1974 18.51 49.0856 18.1938C49.0779 18.1745 49.0779 18.1707 49.0663 18.1514C47.4316 17.6348 45.7661 17.1837 44.0813 16.7827C44.0813 16.7904 44.089 16.8059 44.089 16.8174C42.6008 16.4627 41.0856 16.1543 39.5589 15.9037C39.5589 15.9037 39.5563 15.8986 39.5511 15.8883C38.1825 15.6608 36.7907 15.468 35.3911 15.3292C35.1174 15.2868 34.836 15.2637 34.5584 15.2406C34.4774 15.2329 34.3926 15.2251 34.3116 15.2213C34.2654 15.2136 34.223 15.2136 34.1767 15.2097C34.0533 15.1982 33.9299 15.1904 33.8066 15.1789H33.795C33.6369 15.1635 33.4711 15.148 33.3054 15.1403C33.2976 15.1403 33.2899 15.1403 33.2861 15.1403C33.2784 15.1403 33.2784 15.1403 33.2707 15.1403H33.2629C32.7887 15.1056 32.3068 15.0786 31.8326 15.0516C31.7979 15.0516 31.7709 15.0516 31.7362 15.0439C31.6321 15.0362 31.5242 15.0324 31.4162 15.0247C31.2967 15.0247 31.1772 15.0131 31.0576 15.0054C30.9882 14.9977 30.915 14.9977 30.8456 14.9977C30.8109 14.9977 30.7762 14.99 30.7415 14.99C30.6027 14.99 30.4678 14.9822 30.3328 14.9745C30.1979 14.9668 30.0629 14.9668 29.9242 14.9668C29.2764 14.9398 28.6249 14.9321 27.9656 14.9321C27.7536 14.9321 27.5454 14.9398 27.3372 14.9398C27.2716 14.9398 27.2061 14.9398 27.1444 14.9398H27.0673C26.5931 14.9475 26.115 14.9553 25.6369 14.9745C25.4095 14.9745 25.1781 14.9861 24.9429 14.9938C24.9198 15.2637 24.8967 15.5374 24.8697 15.8073C24.8389 16.1466 24.808 16.4897 24.781 16.829C24.7502 17.1683 24.7232 17.5114 24.6962 17.8507C24.5844 19.2116 24.4919 20.5803 24.4148 21.9529C24.3762 22.6391 24.3376 23.3254 24.3068 24.0116C24.2875 24.3509 24.2721 24.6979 24.2605 25.0449C24.249 25.388 24.2336 25.7312 24.222 26.0782C24.1757 27.4584 24.141 28.8386 24.1217 30.2266C24.114 30.9206 24.1063 31.6107 24.1063 32.3085V33.1837C24.1256 38.7509 24.3839 44.2526 24.8851 49.6926C25.9029 49.7389 26.9323 49.7659 27.9579 49.7659C28.9025 49.7659 29.8509 49.7466 30.7916 49.708C31.2851 44.268 31.5511 38.7548 31.5589 33.1875C33.074 33.2107 34.5699 33.2762 35.8422 33.3341H35.8654C35.8422 38.8049 35.4181 44.1871 34.6432 49.4459C36.3434 49.2916 38.0244 49.068 39.6938 48.7827C40.8427 43.9172 41.475 38.8666 41.5405 33.6733C41.556 33.4035 41.556 33.1297 41.556 32.8637C39.6707 32.7172 37.7776 32.6054 35.8731 32.5244C34.4427 32.4589 33.0085 32.4049 31.5704 32.3818V32.3047C33.0123 32.2777 34.435 32.2237 35.8692 32.1582C37.7622 32.0772 39.6552 31.9654 41.5405 31.8189C41.4943 26.6488 40.8736 21.6136 39.7516 16.775C41.2822 17.0333 42.7858 17.3418 44.274 17.7157C45.2379 22.1495 45.7815 26.7374 45.8509 31.4488C45.8702 31.842 45.8702 32.2507 45.8702 32.6516C45.8702 32.8483 45.8702 33.0449 45.8625 33.2377C45.8625 33.5075 45.8548 33.7813 45.847 34.0473C45.7661 38.7933 45.207 43.416 44.2162 47.8806C45.9434 47.4757 47.6321 47.0092 49.2977 46.4733C50.543 42.7413 51.3063 38.801 51.4914 34.7066C51.4991 34.5716 51.5068 34.4367 51.5107 34.3018C51.5107 34.2324 51.5184 34.1668 51.5184 34.1013C51.5184 34.0357 51.5184 33.9663 51.5261 33.8969C51.5338 33.4806 51.5454 33.0642 51.5454 32.6516C51.5454 32.0271 51.5261 31.4063 51.503 30.7895V30.7856ZM35.8268 31.3447C34.5661 31.4025 33.0702 31.468 31.5627 31.4912C31.5396 26.2054 31.2813 20.9697 30.8109 15.8073C31.1348 15.815 31.4509 15.8266 31.7555 15.8459C32.0716 15.8613 32.3801 15.8767 32.6846 15.8998C33.074 15.9268 33.4596 15.9577 33.8374 15.9885C34.0495 16.0078 34.2654 16.0232 34.4735 16.0463L34.674 16.0618V16.081C35.395 21.0661 35.8075 26.1668 35.8577 31.3447H35.8229H35.8268Z" fill="#23D962"/>
<path d="M11.7844 17.627L11.5299 17.6887L11.7844 17.6309C12.0697 17.5615 12.355 17.4921 12.6441 17.4304C12.3588 17.4921 12.0735 17.5576 11.7844 17.627ZM16.1217 15.9229C16.4032 15.8767 16.6923 15.8304 16.9853 15.7803C16.6962 15.8265 16.4032 15.8728 16.1217 15.9229Z" fill="#082640"/>
<path d="M19.8075 32.6443V32.4901C19.8075 32.386 19.8075 32.2896 19.8152 32.1855C19.8152 31.8192 19.8152 31.4645 19.8229 31.106C19.8229 30.8708 19.8306 30.6395 19.8345 30.4043C19.8345 30.2115 19.8422 30.0149 19.8461 29.8221C19.8461 29.7065 19.8461 29.587 19.8538 29.4713C19.8538 29.3556 19.8615 29.24 19.8615 29.1204C19.8923 28.1103 19.9347 27.1002 19.9926 26.0978C19.9926 26.0785 19.9926 26.0631 19.9926 26.0477C20.008 25.7122 20.0273 25.3807 20.0543 25.0491C20.0735 24.7137 20.0967 24.3821 20.1237 24.0506C20.3241 21.2939 20.6249 18.5643 21.022 15.8694C21.0528 15.665 21.0837 15.4645 21.1106 15.2563C19.7188 15.3951 18.3425 15.5648 16.9815 15.773C16.6885 15.8192 16.3993 15.8694 16.1179 15.9156C14.5873 16.1662 13.0837 16.4708 11.5916 16.8294C11.3025 16.9026 11.0017 16.972 10.7087 17.0491C9.3092 17.3961 7.93281 17.7855 6.57571 18.2289C6.52173 18.3869 6.46775 18.5373 6.41763 18.6915C5.98582 19.9638 5.61185 21.2554 5.29956 22.5778C5.22245 22.8747 5.15691 23.1754 5.09522 23.48C5.05667 23.6612 5.01811 23.8385 4.98342 24.0197C4.97185 24.0737 4.96028 24.1315 4.94872 24.1894C4.91402 24.3706 4.87932 24.5518 4.84462 24.733C4.8292 24.8178 4.80992 24.9065 4.79836 24.9951C4.76366 25.1609 4.73667 25.3229 4.70968 25.4886C4.69812 25.5503 4.6904 25.6159 4.67884 25.6814C4.64414 25.878 4.61715 26.0747 4.58631 26.2674C4.55546 26.4795 4.52848 26.6877 4.49763 26.8959C4.47836 27.0385 4.45908 27.1889 4.44366 27.3315C4.42438 27.4819 4.40896 27.6284 4.39354 27.7788C4.35498 28.1296 4.31643 28.4766 4.28944 28.8313C4.27016 29.0048 4.25474 29.1821 4.24318 29.3518V29.3633C4.2239 29.6139 4.20848 29.8645 4.19305 30.1151C4.17763 30.3696 4.16607 30.6202 4.15836 30.8747C4.13522 31.4607 4.12366 32.039 4.12366 32.6289C4.12366 33.0106 4.13137 33.3923 4.14293 33.7701C4.15064 34.04 4.15836 34.3137 4.17378 34.5797C4.35113 38.6857 5.09908 42.6298 6.33667 46.3619C7.72848 46.8168 9.14727 47.2294 10.5776 47.5841C10.8706 47.6573 11.1637 47.7306 11.4528 47.7961C12.9294 48.1624 14.4369 48.4669 15.9598 48.7253L16.8234 48.8641C18.2075 49.0915 19.607 49.2689 21.0258 49.4077C20.247 44.1489 19.8268 38.7551 19.8037 33.2843C19.7959 33.0645 19.7959 32.8486 19.7959 32.6289L19.8075 32.6443ZM15.929 16.787C14.8533 21.3865 14.2441 26.1595 14.1593 31.0597C14.1593 31.0944 14.1593 31.1214 14.1516 31.1523C14.1516 31.1831 14.1516 31.2139 14.1516 31.2409C14.1439 31.4106 14.14 31.5763 14.14 31.7421C14.14 31.7614 14.14 31.7845 14.14 31.8038V31.8655C14.1323 32.1238 14.1323 32.3821 14.1323 32.6404V32.8024C14.1323 33.0723 14.1323 33.346 14.1478 33.612C14.2056 38.5084 14.7723 43.2853 15.7902 47.8886C14.3675 47.638 12.9796 47.345 11.661 47.0212L11.287 46.9325C10.4119 42.7416 9.9145 38.412 9.84896 33.9744C9.84125 33.6968 9.83354 33.4308 9.83354 33.1571C9.82583 32.9874 9.82583 32.8101 9.82583 32.6404C9.82583 32.2626 9.82583 31.8848 9.84125 31.5108C9.84125 31.2332 9.84896 30.9595 9.86438 30.6935C9.96848 26.2482 10.5044 21.9147 11.4104 17.72L11.5376 17.6853L11.7921 17.6236C12.0774 17.5542 12.3627 17.4886 12.6519 17.4269C12.6866 17.4192 12.7212 17.4077 12.7559 17.4038C13.0759 17.3267 13.3959 17.2612 13.7121 17.1918C14.1169 17.1108 14.514 17.0337 14.9188 16.9566C15.2543 16.8949 15.5974 16.8371 15.9367 16.7792L15.929 16.787Z" fill="#23D962"/>
<path d="M21.1145 15.2603C19.7227 15.4029 18.3463 15.5687 16.9853 15.7807C16.6923 15.827 16.4031 15.8771 16.1217 15.9234C16.4031 15.8733 16.6962 15.8231 16.9853 15.7769C18.3463 15.5648 19.7227 15.399 21.1145 15.2603Z" fill="#082640"/>
<path d="M47.3275 13.899C45.928 13.5018 44.5015 13.1471 43.0634 12.8387C42.3039 10.2247 41.3978 7.6763 40.353 5.19727C41.0239 5.39004 41.687 5.60208 42.3424 5.83727C44.2856 8.32016 45.9588 11.0267 47.3275 13.899Z" fill="#118C46"/>
<path d="M47.9829 49.9624C46.7838 52.7229 45.3111 55.3369 43.5954 57.7658C42.7125 58.1051 41.8219 58.4212 40.9159 58.7065C41.8875 56.2545 42.7357 53.7292 43.4335 51.1383C44.9718 50.799 46.4831 50.4096 47.9829 49.9663V49.9624Z" fill="#118C46"/>
<path d="M38.4986 11.9906C37.2687 11.8133 36.0157 11.6513 34.7588 11.5357C34.4851 11.5126 34.1998 11.4856 33.9261 11.4624C33.8759 11.1887 33.822 10.9111 33.7641 10.6451C33.3092 8.26629 32.7694 5.92605 32.1603 3.61279C33.3015 3.71689 34.4273 3.87111 35.5338 4.06773C36.675 6.63159 37.6697 9.28026 38.4947 11.9906H38.4986Z" fill="#118C46"/>
<path d="M38.888 52.002C38.1208 54.7046 37.1878 57.334 36.1121 59.894C34.9208 60.1215 33.7102 60.2988 32.488 60.4183C33.1357 57.8352 33.6948 55.2212 34.1651 52.5764C35.7613 52.4376 37.3382 52.2448 38.8919 52.002H38.888Z" fill="#118C46"/>
<path d="M30.4947 52.7963C30.2133 55.418 29.8701 58.032 29.4769 60.6228C28.9834 60.6459 28.4822 60.6536 27.981 60.6536C27.3988 60.6536 26.8167 60.6459 26.2422 60.6151H26.2345C25.8451 58.0242 25.4981 55.4103 25.2244 52.7886C26.1381 52.831 27.0634 52.8464 27.9848 52.8464C28.8253 52.8464 29.6697 52.831 30.5024 52.7963H30.4947Z" fill="#118C46"/>
<path d="M30.3599 11.2541C30.0861 11.2464 29.8162 11.2387 29.5425 11.231C29.0259 11.2232 28.4977 11.2155 27.9811 11.2155C27.0982 11.2155 26.223 11.231 25.3594 11.2734C25.6601 8.65168 26.0148 6.0377 26.4273 3.44686C26.944 3.42373 27.4644 3.41602 27.9811 3.41602C28.4167 3.41602 28.8562 3.42373 29.2842 3.43915C29.6659 5.76011 29.9897 8.09264 30.2635 10.4406C30.2943 10.7143 30.329 10.9842 30.3599 11.2579V11.2541Z" fill="#118C46"/>
<path d="M23.5434 3.63965C22.8648 6.22278 22.2711 8.83676 21.7776 11.4893C20.54 11.5934 19.3101 11.7322 18.0957 11.9018C17.795 11.9442 17.5058 11.9905 17.2051 12.0329C17.2938 11.7399 17.3824 11.4584 17.4788 11.177C18.2306 8.7635 19.1289 6.4117 20.1506 4.12158C21.2687 3.92109 22.4022 3.75917 23.5434 3.6435V3.63965Z" fill="#118C46"/>
<path d="M23.2195 60.3951C21.9897 60.264 20.7752 60.079 19.5839 59.8438C18.62 57.5614 17.7872 55.2212 17.074 52.8269C16.9853 52.5455 16.8966 52.2525 16.8157 51.9595C17.1087 52.0096 17.3978 52.0481 17.6909 52.0906C18.9709 52.2833 20.2547 52.4298 21.5501 52.5532C22.0128 55.198 22.568 57.812 23.2157 60.3951H23.2195Z" fill="#118C46"/>
<path d="M14.7723 58.6143C13.8432 58.3213 12.9256 57.9897 12.0273 57.635C10.3347 55.2138 8.87739 52.6191 7.69763 49.874C8.91209 50.248 10.1343 50.5796 11.3719 50.8764C11.6726 50.9497 11.9694 51.0152 12.2702 51.0885C12.3511 51.3892 12.4321 51.6861 12.5208 51.9791H12.5285C13.1608 54.2461 13.9126 56.4552 14.7685 58.6143H14.7723Z" fill="#118C46"/>
<path d="M15.3468 5.27441C14.4253 7.46044 13.608 9.70815 12.9102 12.0098C12.8138 12.3028 12.7328 12.592 12.6441 12.8927C12.3434 12.9583 12.0465 13.0315 11.7458 13.1048C10.6046 13.3708 9.47112 13.6715 8.34534 13.9954C9.69859 11.1385 11.3564 8.44357 13.2803 5.96839C13.9588 5.71779 14.649 5.49032 15.3429 5.28213L15.3468 5.27441Z" fill="#118C46"/>
<path d="M74.7125 22.4848V33.4766C74.7125 34.2438 74.4387 34.8491 73.8913 35.2925C73.3438 35.7359 72.6074 35.9595 71.6782 35.9595H61.8007V33.6694H64.1486V22.1031H61.8007V19.813H71.8093C73.7448 19.813 74.7086 20.7036 74.7086 22.4848H74.7125ZM71.1501 32.987V22.7971C71.1501 22.3344 70.9534 22.1031 70.564 22.1031H67.7226V33.6694H70.5139C70.938 33.6694 71.1501 33.4419 71.1501 32.987Z" fill="#082640"/>
<path d="M89.9453 35.9595H85.3766V30.4462C85.3766 29.6559 84.9602 29.2588 84.1313 29.2588L81.8913 29.2472V33.6694H84.2392V35.9595H75.9694V33.6694H78.3173V22.1031H75.9694V19.813H85.978C87.9135 19.813 88.8773 20.7036 88.8773 22.4848V25.9624C88.8773 27.5855 88.3568 28.48 87.3197 28.6458V28.719C88.3684 28.719 88.8889 29.3474 88.8889 30.6005V33.6694H89.9453V35.9595ZM85.3188 25.5884V22.7971C85.3188 22.3344 85.0874 22.1031 84.6248 22.1031H81.8913V26.934H84.1698C84.9371 26.934 85.3188 26.4867 85.3188 25.5923V25.5884Z" fill="#082640"/>
<path d="M109.882 19.813V22.1031H106.489V33.6694H108.636V35.9595H100.571V33.6694H102.919V27.2925H102.834L99.0325 34.294L95.5664 27.2925H95.4932V33.6694H97.8411V35.9595H90.6238V33.6694H92.9602V22.1031H90.6238V19.813H97.8411V22.1031H96.8349L99.711 27.9287H99.7573L102.911 22.1031H100.563V19.813H109.878H109.882Z" fill="#082640"/>
<path d="M71.4199 39.4023L69.4922 44.8616H68.9331L66.6546 39.9074L64.3683 44.8693L63.8093 44.8539L61.8893 39.4023H62.3404L64.0984 44.4337L66.4233 39.4178H66.8898L69.1837 44.4337L70.9727 39.4023H71.416H71.4199Z" fill="#082640"/>
<path d="M77.5885 39.4023V44.8616H77.176V42.4134H72.5186V44.8616H72.0984V39.4023H72.5186V42.024H77.176V39.4023H77.5885Z" fill="#082640"/>
<path d="M78.9919 39.7995V42.0395H83.0516V42.4134H78.9919V44.4645H83.1981V44.8616H78.5793V39.4023H83.3639V39.7995H78.9919Z" fill="#082640"/>
<path d="M87.2502 42.6062L89.4517 44.8616H88.9543L86.7914 42.6679H84.6054V44.8616H84.1852V39.4023H87.9789C88.8734 39.4023 89.5982 40.1272 89.5905 41.0216C89.5905 41.8544 88.9852 42.5214 88.1833 42.6062H87.2502ZM89.178 41.0448C89.178 40.3508 88.6112 39.7917 87.9172 39.7917H84.6054V42.3093H87.9172C88.6112 42.3093 89.178 41.7426 89.178 41.0486V41.0448Z" fill="#082640"/>
<path d="M90.8435 39.7995V42.0395H94.9033V42.4134H90.8435V44.4645H95.0498V44.8616H90.431V39.4023H95.2155V39.7995H90.8435Z" fill="#082640"/>
<path d="M98.1881 44.8616L95.6358 39.4023H96.0946L98.4657 44.4414L101.041 39.4023H101.492L98.7317 44.8616H98.1881Z" fill="#082640"/>
<path d="M102.537 39.7995V42.0395H106.597V42.4134H102.537V44.4645H106.743V44.8616H102.124V39.4023H106.909V39.7995H102.537Z" fill="#082640"/>
<path d="M110.795 42.6062L112.997 44.8616H112.499L110.336 42.6679H108.15V44.8616H107.73V39.4023H111.524C112.418 39.4023 113.143 40.1272 113.136 41.0216C113.136 41.8544 112.53 42.5214 111.728 42.6062H110.795ZM112.723 41.0448C112.723 40.3508 112.156 39.7917 111.462 39.7917H108.15V42.3093H111.462C112.156 42.3093 112.723 41.7426 112.723 41.0486V41.0448Z" fill="#082640"/>
<path d="M120.877 39.4023L118.032 42.9416V44.8616H117.619V42.9648L114.624 39.4101L115.113 39.4023L117.82 42.5831L120.388 39.4023H120.877Z" fill="#082640"/>
<path d="M120.947 42.1398C120.947 40.6554 122.003 39.333 124.386 39.333C126.448 39.333 127.825 40.4125 127.825 42.1398C127.825 43.867 126.394 44.9465 124.386 44.9465C122.377 44.9465 120.947 43.867 120.947 42.1398ZM121.359 42.1398C121.359 43.6318 122.574 44.5494 124.386 44.5494C126.198 44.5494 127.397 43.5855 127.397 42.1398C127.397 40.694 126.175 39.7224 124.386 39.7224C122.597 39.7224 121.359 40.6246 121.359 42.1398Z" fill="#082640"/>
<path d="M128.684 42.3556V39.4062H129.105V42.2824C129.105 43.5585 130.107 44.5609 131.414 44.5609C132.721 44.5609 133.731 43.574 133.731 42.2824V39.4062H134.151V42.3556C134.151 43.8169 132.991 44.9542 131.422 44.9542C129.853 44.9542 128.684 43.8438 128.684 42.3556Z" fill="#082640"/>
<path d="M141.191 43.2501H137.413L136.526 44.8616H136.083L139.071 39.4023H139.545L142.514 44.8616H142.078L141.191 43.2501ZM141.006 42.8722L139.31 39.7763L137.606 42.8722H141.01H141.006Z" fill="#082640"/>
<path d="M146.211 42.6062L148.413 44.8616H147.915L145.752 42.6679H143.566V44.8616H143.146V39.4023H146.94C147.834 39.4023 148.559 40.1272 148.551 41.0216C148.551 41.8544 147.946 42.5214 147.144 42.6062H146.211ZM148.139 41.0448C148.139 40.3508 147.572 39.7917 146.878 39.7917H143.566V42.3093H146.878C147.572 42.3093 148.139 41.7426 148.139 41.0486V41.0448Z" fill="#082640"/>
<path d="M149.805 39.7995V42.0395H153.864V42.4134H149.805V44.4645H154.011V44.8616H149.392V39.4023H154.177V39.7995H149.805Z" fill="#082640"/>
<path d="M117.307 19.1576H126.699C128.526 19.5162 129.822 20.3451 130.578 21.6367C131.337 22.9282 131.653 24.3971 131.526 26.0395C131.399 27.682 130.898 29.0236 130.022 30.0646C129.147 31.1056 127.728 31.68 125.762 31.7841H119.578V22.3191H123.137V29.0583H125.296C126.483 28.7846 127.277 28.1832 127.686 27.2501C128.095 26.3171 128.145 25.2762 127.832 24.1273C127.52 22.9783 126.529 22.242 124.856 21.9104H118.41C117.885 21.9682 117.531 22.1263 117.353 22.3846C117.172 22.6429 117.099 22.9899 117.126 23.4256V35.9518H113.803V23.1904C113.81 22.053 114.107 21.1123 114.693 20.3682C115.275 19.6241 116.147 19.2193 117.303 19.1499L117.307 19.1576Z" fill="#082640"/>
<path d="M135.231 19.1577H138.674V31.9924C138.693 33.2454 138.427 34.2169 137.88 34.9032C137.328 35.5895 136.311 35.9403 134.826 35.9596H132.578V33.4497H133.192C133.774 33.3919 134.271 33.203 134.68 32.8868C135.088 32.5707 135.273 31.923 135.235 30.9398V19.1538L135.231 19.1577Z" fill="#082640"/>
<path d="M141.87 19.1113H150.445C151.532 19.1306 152.415 19.4622 153.086 20.1022C153.756 20.7422 154.123 21.6983 154.18 22.959V31.7841H140.706V29.0583H150.448C150.526 29.0583 150.564 29.0082 150.564 28.9118V23.4872C150.506 22.5157 149.943 21.9913 148.872 21.9104H141.87V19.1113Z" fill="#082640"/>
</g>
<defs>
<clipPath id="clip0_236_4498">
<rect width="153.446" height="64" fill="white" transform="translate(0.7771)"/>
</clipPath>
</defs>
</svg>
