<svg width="375" height="75" viewBox="0 0 375 75" fill="none" xmlns="http://www.w3.org/2000/svg">
<g opacity="0.24">
<path d="M225 0.000976562H300V75.0464H225V0.000976562Z" fill="#1D1A39"/>
<path d="M74.9998 0.000976562H150V75.0464H74.9998V0.000976562Z" fill="#1D1A39"/>
<path d="M125 50.0324H99.9998V25.0173L125 25.0173V50.0324Z" fill="#F39F5A"/>
<path d="M99.9996 75.0479H74.9996V50.0328H99.9996V75.0479Z" fill="#F39F5A"/>
<path d="M150 75.0479H125V50.0328H150V75.0479Z" fill="#F39F5A"/>
<path d="M7.62939e-06 0.000976562H75.0001V75.0464H7.62939e-06V0.000976562Z" fill="#451952"/>
<path d="M375 7.62939e-06V75.0454H300V7.62939e-06H375Z" fill="#451952"/>
<path d="M325 50.0316V25.0165H350V50.0316H325Z" fill="#E8BCB9"/>
<path d="M300 75.0464V0.000976562L325 0.000976563V75.0464H300Z" fill="#E8BCB9"/>
<path d="M350 25.0161V0.000976562L375 0.000976563V25.0161H350Z" fill="#E8BCB9"/>
<path d="M350 75.0471V50.032H375V75.0471H350Z" fill="#E8BCB9"/>
<path d="M150 0.000976562H225V75.0464H150V0.000976562Z" fill="#451952"/>
<mask id="mask0_48_16101" style="mask-type:luminance" maskUnits="userSpaceOnUse" x="225" y="0" width="75" height="76">
<path d="M225 0.000976562H300V75.0464H225V0.000976562Z" fill="white"/>
</mask>
<g mask="url(#mask0_48_16101)">
<path d="M281.644 23.903L261.741 0.000976562L241.837 23.903H281.644Z" fill="#F39F5A"/>
<path d="M281.644 75.0486L261.741 51.1616L241.837 75.0486H281.644Z" fill="#F39F5A"/>
<path d="M240.574 75.0486L220.67 51.1616L200.782 75.0486H240.574Z" fill="#F39F5A"/>
<path d="M322.715 75.0486L302.811 51.1616L282.907 75.0486H322.715Z" fill="#F39F5A"/>
<path d="M302.811 49.4737L282.907 25.5717L263.018 49.4737H302.811Z" fill="#F39F5A"/>
<path d="M260.478 49.4735L240.574 25.5715L220.67 49.4735H260.478Z" fill="#F39F5A"/>
</g>
<mask id="mask1_48_16101" style="mask-type:luminance" maskUnits="userSpaceOnUse" x="149" y="0" width="76" height="76">
<path d="M150 0.000976562H225V75.0464H150V0.000976562Z" fill="white"/>
</mask>
<g mask="url(#mask1_48_16101)">
<path d="M213.74 -10.8588L186.876 21.3917L160.012 -10.8588H213.74Z" fill="white"/>
<path d="M213.74 21.3913L186.876 53.6568L160.012 21.3913H213.74Z" fill="white"/>
<path d="M213.74 53.6584L186.876 85.9089L160.012 53.6584H213.74Z" fill="white"/>
</g>
<mask id="mask2_48_16101" style="mask-type:luminance" maskUnits="userSpaceOnUse" x="0" y="0" width="75" height="76">
<path d="M7.62939e-06 0.000976562H75.0001V75.0464H7.62939e-06V0.000976562Z" fill="white"/>
</mask>
<g mask="url(#mask2_48_16101)">
<path d="M37.4925 0.000976562C58.2231 0.000976562 75.0001 16.8181 75.0001 37.5312C75.0001 58.2443 58.2231 75.0614 37.4925 75.0614C16.7619 75.0614 7.62939e-06 58.2443 7.62939e-06 37.5312C7.62939e-06 16.8181 16.7769 0.000976562 37.4925 0.000976562ZM37.4925 52.5734C45.8058 52.5734 52.5256 45.8345 52.5256 37.5312C52.5256 29.2279 45.8058 22.489 37.4925 22.489C29.1792 22.489 22.4745 29.2279 22.4745 37.5312C22.4745 45.8345 29.1943 52.5734 37.4925 52.5734Z" fill="#E8BCB9"/>
</g>
</g>
</svg>
