<svg width="49" height="49" viewBox="0 0 49 49" fill="none" xmlns="http://www.w3.org/2000/svg">
<g clip-path="url(#clip0_335_8240)">
<path d="M24.5 48.5C37.7548 48.5 48.5 37.7548 48.5 24.5C48.5 11.2452 37.7548 0.5 24.5 0.5C11.2452 0.5 0.5 11.2452 0.5 24.5C0.5 37.7548 11.2452 48.5 24.5 48.5Z" fill="#118C46"/>
<path fill-rule="evenodd" clip-rule="evenodd" d="M16.9977 36.2165L8.24805 26.7866C7.6676 26.1646 7.35754 25.3378 7.38588 24.4876C7.41422 23.6373 7.77865 22.833 8.39923 22.2511C9.02362 21.6731 9.85183 21.3663 10.7021 21.3982C11.5524 21.4301 12.3553 21.798 12.9347 22.4212L19.7 29.659L30.415 19.6433C30.5107 19.5553 30.6117 19.4733 30.7173 19.3976L35.7441 14.6921C36.3661 14.1116 37.1928 13.8016 38.0431 13.8299C38.8933 13.8583 39.6976 14.2227 40.2795 14.8433C40.86 15.4652 41.17 16.292 41.1417 17.1422C41.1134 17.9925 40.7489 18.7968 40.1284 19.3787L24.7268 33.7409L19.3788 38.711L17.0165 36.1787L16.9977 36.2165Z" fill="white"/>
</g>
<defs>
<clipPath id="clip0_335_8240">
<rect width="48" height="48" fill="white" transform="translate(0.5 0.5)"/>
</clipPath>
</defs>
</svg>
