<svg width="16" height="16" viewBox="0 0 16 16" fill="none" xmlns="http://www.w3.org/2000/svg">
<path d="M13 0.333496H3C2.73487 0.333787 2.48069 0.439238 2.29321 0.626711C2.10574 0.814184 2.00029 1.06837 2 1.3335V14.6668C2.00029 14.932 2.10574 15.1861 2.29321 15.3736C2.48069 15.5611 2.73487 15.6665 3 15.6668H11.6667C11.7551 15.6668 11.8398 15.6317 11.9023 15.5692L13.9023 13.5692C13.9643 13.4914 13.9986 13.3952 14 13.2958V1.3335C13.9997 1.06837 13.8943 0.814184 13.7068 0.626711C13.5193 0.439238 13.2651 0.333787 13 0.333496ZM12 14.5288V14.0002C12.0001 13.9118 12.0352 13.827 12.0977 13.7645C12.1602 13.702 12.2449 13.6669 12.3333 13.6668H12.862L12 14.5288ZM13.3333 13.0002H12.3333C12.0682 13.0005 11.814 13.1059 11.6265 13.2934C11.4391 13.4809 11.3336 13.735 11.3333 14.0002V15.0002H3C2.91161 15.0001 2.82686 14.965 2.76437 14.9025C2.70187 14.84 2.66673 14.7552 2.66667 14.6668V1.3335C2.66673 1.24511 2.70187 1.16036 2.76437 1.09786C2.82686 1.03536 2.91161 1.00022 3 1.00016H13C13.0884 1.00022 13.1731 1.03536 13.2356 1.09786C13.2981 1.16036 13.3333 1.24511 13.3333 1.3335V13.0002ZM6.33333 4.00016C6.53111 4.00016 6.72445 3.94151 6.8889 3.83163C7.05335 3.72175 7.18153 3.56557 7.25721 3.38285C7.3329 3.20012 7.3527 2.99905 7.31412 2.80507C7.27553 2.61109 7.18029 2.43291 7.04044 2.29306C6.90059 2.1532 6.7224 2.05796 6.52842 2.01938C6.33444 1.98079 6.13338 2.0006 5.95065 2.07628C5.76792 2.15197 5.61174 2.28014 5.50186 2.44459C5.39198 2.60904 5.33333 2.80238 5.33333 3.00016C5.33362 3.26529 5.43907 3.51947 5.62655 3.70695C5.81402 3.89442 6.06821 3.99987 6.33333 4.00016ZM6.33333 2.66683C6.39926 2.66683 6.46371 2.68638 6.51852 2.72301C6.57334 2.75963 6.61606 2.81169 6.64129 2.8726C6.66652 2.93351 6.67312 3.00053 6.66026 3.06519C6.6474 3.12985 6.61565 3.18925 6.56904 3.23587C6.52242 3.28248 6.46302 3.31423 6.39836 3.32709C6.3337 3.33995 6.26668 3.33335 6.20577 3.30812C6.14486 3.28289 6.0928 3.24017 6.05618 3.18535C6.01955 3.13054 6 3.06609 6 3.00016C6.00006 2.91178 6.0352 2.82703 6.0977 2.76453C6.1602 2.70203 6.24495 2.66689 6.33333 2.66683ZM8.66667 5.66683C8.66667 5.86461 8.72532 6.05795 8.8352 6.2224C8.94508 6.38685 9.10126 6.51502 9.28398 6.59071C9.46671 6.6664 9.66778 6.6862 9.86176 6.64761C10.0557 6.60903 10.2339 6.51379 10.3738 6.37394C10.5136 6.23408 10.6089 6.0559 10.6475 5.86192C10.686 5.66794 10.6662 5.46687 10.5905 5.28415C10.5149 5.10142 10.3867 4.94524 10.2222 4.83536C10.0578 4.72548 9.86445 4.66683 9.66667 4.66683C9.40154 4.66712 9.14736 4.77257 8.95988 4.96004C8.77241 5.14752 8.66696 5.4017 8.66667 5.66683ZM10 5.66683C10 5.73276 9.98045 5.7972 9.94382 5.85202C9.9072 5.90684 9.85514 5.94956 9.79423 5.97479C9.73332 6.00002 9.6663 6.00662 9.60164 5.99376C9.53698 5.9809 9.47758 5.94915 9.43096 5.90253C9.38435 5.85591 9.3526 5.79652 9.33974 5.73186C9.32688 5.6672 9.33348 5.60018 9.35871 5.53927C9.38394 5.47836 9.42666 5.4263 9.48148 5.38967C9.53629 5.35305 9.60074 5.3335 9.66667 5.3335C9.75505 5.33356 9.8398 5.3687 9.9023 5.4312C9.9648 5.49369 9.99994 5.57844 10 5.66683ZM6.07713 6.11996L9.41047 2.11996C9.4671 2.05202 9.54841 2.00936 9.6365 2.00136C9.7246 1.99337 9.81226 2.02069 9.8802 2.07733C9.94814 2.13397 9.99081 2.21527 9.9988 2.30337C10.0068 2.39146 9.97947 2.47912 9.92283 2.54706L6.5895 6.54706C6.53287 6.61501 6.45156 6.65767 6.36347 6.66567C6.27539 6.67367 6.18773 6.64635 6.11978 6.58971C6.05184 6.53308 6.00918 6.45178 6.00118 6.36369C5.99318 6.2756 6.0205 6.18791 6.07713 6.11996ZM4.66667 8.66683C4.66664 8.62305 4.67524 8.57969 4.69199 8.53924C4.70873 8.49878 4.73328 8.46203 4.76424 8.43107C4.7952 8.40011 4.83195 8.37556 4.87241 8.35882C4.91286 8.34207 4.95622 8.33347 5 8.3335H8C8.08841 8.3335 8.17319 8.36862 8.2357 8.43113C8.29821 8.49364 8.33333 8.57842 8.33333 8.66683C8.33333 8.75523 8.29821 8.84002 8.2357 8.90253C8.17319 8.96504 8.08841 9.00016 8 9.00016H5C4.95622 9.00019 4.91286 8.99158 4.87241 8.97484C4.83195 8.9581 4.7952 8.93355 4.76424 8.90259C4.73328 8.87163 4.70873 8.83488 4.69199 8.79442C4.67524 8.75397 4.66664 8.71061 4.66667 8.66683ZM11.3333 10.0002C11.3334 10.0439 11.3248 10.0873 11.308 10.1278C11.2913 10.1682 11.2667 10.205 11.2358 10.2359C11.2048 10.2669 11.168 10.2914 11.1276 10.3082C11.0871 10.3249 11.0438 10.3335 11 10.3335H5C4.91159 10.3335 4.82681 10.2984 4.7643 10.2359C4.70179 10.1734 4.66667 10.0886 4.66667 10.0002C4.66667 9.91176 4.70179 9.82697 4.7643 9.76446C4.82681 9.70195 4.91159 9.66683 5 9.66683H11C11.0438 9.6668 11.0871 9.67541 11.1276 9.69215C11.168 9.70889 11.2048 9.73344 11.2358 9.7644C11.2667 9.79536 11.2913 9.83212 11.308 9.87257C11.3248 9.91302 11.3334 9.95638 11.3333 10.0002ZM11.3333 11.3335C11.3334 11.3773 11.3248 11.4206 11.308 11.4611C11.2913 11.5015 11.2667 11.5383 11.2358 11.5693C11.2048 11.6002 11.168 11.6248 11.1276 11.6415C11.0871 11.6583 11.0438 11.6669 11 11.6668H5C4.91159 11.6668 4.82681 11.6317 4.7643 11.5692C4.70179 11.5067 4.66667 11.4219 4.66667 11.3335C4.66667 11.2451 4.70179 11.1603 4.7643 11.0978C4.82681 11.0353 4.91159 11.0002 5 11.0002H11C11.0438 11.0001 11.0871 11.0087 11.1276 11.0255C11.168 11.0422 11.2048 11.0668 11.2358 11.0977C11.2667 11.1287 11.2913 11.1655 11.308 11.2059C11.3248 11.2464 11.3334 11.2897 11.3333 11.3335Z" fill="#0D6BA6"/>
</svg>
