<svg width="16" height="16" viewBox="0 0 16 16" fill="none" xmlns="http://www.w3.org/2000/svg">
<g id="Frame" clip-path="url(#clip0_398_3475)">
<path id="Vector" d="M11.9827 4.7641C11.762 4.7201 11.5813 4.58211 11.488 4.38477C10.4547 2.20411 8.05933 0.984772 5.66533 1.42611C3.484 1.82611 1.774 3.56744 1.40933 5.76011C1.30133 6.40744 1.30933 7.05544 1.43133 7.68677C1.47133 7.89277 1.38267 8.12211 1.20067 8.28744C0.437333 8.98144 0 9.97011 0 11.0008C0 13.0221 1.64467 14.6674 3.66667 14.6674H11C13.7573 14.6674 16 12.4248 16 9.66744C16 7.29077 14.3107 5.2281 11.9827 4.7641ZM11 13.3334H3.66667C2.38 13.3334 1.33333 12.2868 1.33333 11.0001C1.33333 10.3448 1.612 9.71477 2.09733 9.27344C2.62133 8.79677 2.86733 8.09144 2.73933 7.43144C2.64733 6.95677 2.642 6.4681 2.72333 5.97744C2.992 4.36277 4.3 3.03011 5.904 2.73611C6.16067 2.68944 6.416 2.66677 6.668 2.66677C8.20933 2.66677 9.60467 3.5261 10.2827 4.9561C10.558 5.53744 11.0827 5.94411 11.7213 6.07144C13.428 6.41211 14.666 7.92411 14.666 9.66744C14.666 11.6888 13.0207 13.3341 10.9993 13.3341L11 13.3334ZM10.0807 8.19544C10.3413 8.45611 10.3413 8.87744 10.0807 9.1381C9.95067 9.26811 9.78 9.33344 9.60933 9.33344C9.43867 9.33344 9.268 9.26811 9.138 9.1381L8 8.0001V11.3334C8 11.7021 7.70133 12.0001 7.33333 12.0001C6.96533 12.0001 6.66667 11.7021 6.66667 11.3334V8.0001L5.52867 9.1381C5.268 9.39877 4.84667 9.39877 4.586 9.1381C4.32533 8.87744 4.32533 8.45611 4.586 8.19544L6.39067 6.39077C6.648 6.13344 6.986 6.00411 7.324 6.00211L7.33333 6.0001L7.34267 6.00211C7.68133 6.00411 8.01867 6.13344 8.276 6.39077L10.0807 8.19544Z" fill="#42B979"/>
</g>
<defs>
<clipPath id="clip0_398_3475">
<rect width="16" height="16" fill="white"/>
</clipPath>
</defs>
</svg>
