<svg width="15" height="16" viewBox="0 0 15 16" fill="none" xmlns="http://www.w3.org/2000/svg">
<g id="Frame" clip-path="url(#clip0_9_87427)">
<g id="Group">
<path id="Vector" d="M10.9418 9.44235L10.9362 9.48922C9.56184 8.80422 9.41809 8.71297 9.24059 8.97922C9.11746 9.1636 8.75871 9.58172 8.65059 9.70547C8.54121 9.82735 8.43246 9.83672 8.24684 9.75235C8.05934 9.6586 7.45746 9.46172 6.74496 8.82422C6.18996 8.32735 5.81746 7.71797 5.70746 7.53047C5.52434 7.21422 5.90746 7.16922 6.25621 6.50922C6.31871 6.37797 6.28684 6.27485 6.24059 6.18172C6.19371 6.08797 5.82059 5.16922 5.66434 4.80297C5.51434 4.43797 5.35996 4.48422 5.24434 4.48422C4.88434 4.45297 4.62121 4.45797 4.38934 4.69922C3.38059 5.80797 3.63496 6.95172 4.49809 8.16797C6.19434 10.388 7.09809 10.7967 8.75059 11.3642C9.19684 11.5061 9.60371 11.4861 9.92559 11.4398C10.2843 11.383 11.03 10.9892 11.1856 10.5486C11.345 10.108 11.345 9.74235 11.2981 9.65797C11.2518 9.5736 11.1293 9.52672 10.9418 9.44235Z" fill="#451952"/>
<path id="Vector_2" d="M12.825 2.6559C8.01937 -1.98973 0.06625 1.37964 0.063125 7.93339C0.063125 9.24339 0.40625 10.5209 1.06 11.649L0 15.5003L3.95937 14.4678C8.9 17.1365 14.9975 13.5928 15 7.93715C15 5.95215 14.225 4.08402 12.8156 2.68027L12.825 2.6559ZM13.7513 7.91652C13.7475 12.6871 8.51062 15.6665 4.36875 13.2315L4.14375 13.0978L1.8 13.7071L2.42812 11.429L2.27875 11.1946C-0.29875 7.09152 2.6625 1.72902 7.545 1.72902C8.36035 1.72697 9.16802 1.88666 9.92124 2.19885C10.6745 2.51104 11.3583 2.96952 11.9331 3.54777C12.5111 4.11876 12.9695 4.79915 13.2817 5.54924C13.5939 6.29932 13.7535 7.10407 13.7513 7.91652Z" fill="#451952"/>
</g>
</g>
<defs>
<clipPath id="clip0_9_87427">
<rect width="15" height="15" fill="white" transform="translate(0 0.5)"/>
</clipPath>
</defs>
</svg>
