<svg width="49" height="49" viewBox="0 0 49 49" fill="none" xmlns="http://www.w3.org/2000/svg">
<g clip-path="url(#clip0_273_5233)">
<path d="M24.5 0.5C11.2659 0.5 0.5 11.2659 0.5 24.5C0.5 37.7341 11.2659 48.5 24.5 48.5C37.7341 48.5 48.5 37.7341 48.5 24.5C48.5 11.2659 37.7341 0.5 24.5 0.5Z" fill="#C80E03"/>
<path d="M33.3381 30.5099C34.1199 31.2921 34.1199 32.556 33.3381 33.3381C33.1525 33.5241 32.9321 33.6716 32.6894 33.7722C32.4467 33.8727 32.1865 33.9244 31.9238 33.9241C31.4119 33.9241 30.8999 33.7281 30.5098 33.3381L24.5 27.3279L18.4901 33.3382C18.3046 33.5242 18.0842 33.6717 17.8416 33.7722C17.5989 33.8728 17.3388 33.9244 17.0761 33.9242C16.8134 33.9244 16.5532 33.8728 16.3105 33.7723C16.0678 33.6717 15.8474 33.5242 15.6619 33.3382C14.88 32.556 14.88 31.2921 15.6619 30.5099L21.6721 24.5L15.6618 18.4902C14.8799 17.7079 14.8799 16.4441 15.6618 15.6619C16.444 14.8801 17.7079 14.8801 18.4901 15.6619L24.5 21.6722L30.5098 15.6618C31.2921 14.88 32.5559 14.88 33.3381 15.6618C34.1199 16.4441 34.1199 17.7079 33.3381 18.4902L27.3278 24.5L33.3381 30.5099Z" fill="white"/>
</g>
<defs>
<clipPath id="clip0_273_5233">
<rect width="48" height="48" fill="white" transform="translate(0.5 0.5)"/>
</clipPath>
</defs>
</svg>
